<svg id="Capa_1" data-name="Capa 1" xmlns="http://www.w3.org/2000/svg" xmlns:xlink="http://www.w3.org/1999/xlink" viewBox="0 0 1920 1080"><defs><style>.cls-1{fill:url(#linear-gradient);}.cls-2{fill:url(#linear-gradient-2);}.cls-3{fill:url(#linear-gradient-3);}.cls-4{fill:url(#linear-gradient-4);}.cls-5{fill:url(#linear-gradient-5);}.cls-6{fill:url(#linear-gradient-6);}.cls-7{fill:url(#linear-gradient-7);}</style><linearGradient id="linear-gradient" x1="1459.56" y1="860.99" x2="1987.8" y2="1367.34" gradientUnits="userSpaceOnUse"><stop offset="0" stop-color="#d9d9d9"/><stop offset="1" stop-color="#fff"/></linearGradient><linearGradient id="linear-gradient-2" x1="1334.17" y1="630.69" x2="1727.72" y2="1007.93" xlink:href="#linear-gradient"/><linearGradient id="linear-gradient-3" x1="1052.73" y1="389.93" x2="1468.83" y2="788.78" xlink:href="#linear-gradient"/><linearGradient id="linear-gradient-4" x1="626.79" y1="293.38" x2="1097.37" y2="744.46" xlink:href="#linear-gradient"/><linearGradient id="linear-gradient-5" x1="360.97" y1="97.15" x2="843.1" y2="559.29" xlink:href="#linear-gradient"/><linearGradient id="linear-gradient-6" x1="-84.92" y1="-166.85" x2="198.99" y2="105.29" xlink:href="#linear-gradient"/><linearGradient id="linear-gradient-7" x1="28.37" y1="-10.58" x2="391.47" y2="337.47" xlink:href="#linear-gradient"/></defs><title>bk-1</title><path class="cls-1" d="M1971.43,774.84V1130h-833c7.51-13.59,17.07-26.11,25.37-39.3,12.52-19.85,22.42-41.53,37.89-59.17,22.53-25.68,54.68-40.41,85.85-54.4,13.88-6.26,28.32-12.6,43.55-12.6,14.71,0,28.72,6,42,12.34a540.38,540.38,0,0,1,58.79,33c33.13,21.43,67.37,47.58,106.77,46,25-1,48-13.38,69.62-26,26.19-15.36,53.9-34.31,61.83-63.64,7-25.73-3.27-52.64-13.3-77.33q-19.07-46.79-38.08-93.56c-4.15-10.18-8.34-20.69-8.4-31.69,0-9.71,3.22-19.24,7.86-27.79,18.69-34.6,60-53.84,99.22-51.31s75.67,24.5,101,54.57c16.08,19.07,29,42,50.67,54.39C1901.32,811.84,1943.64,799.85,1971.43,774.84Z"/><path class="cls-2" d="M1971.43,269.53V774.84c-27.79,25-70.11,37-102.35,18.63-21.68-12.35-34.59-35.32-50.67-54.39-25.35-30.07-61.76-52.06-101-54.57s-80.53,16.71-99.22,51.31c-4.64,8.55-7.91,18.08-7.86,27.79.06,11,4.25,21.51,8.4,31.69q19,46.79,38.08,93.56c10,24.69,20.25,51.6,13.3,77.33-7.93,29.33-35.64,48.28-61.83,63.64-21.6,12.66-44.61,25-69.62,26-39.4,1.62-73.64-24.53-106.77-46a540.38,540.38,0,0,0-58.79-33c-13.25-6.38-27.26-12.34-42-12.34-15.23,0-29.67,6.34-43.55,12.6-31.17,14-63.32,28.72-85.85,54.4-15.47,17.64-25.37,39.32-37.89,59.17-8.3,13.19-17.86,25.71-25.37,39.3H841a315.54,315.54,0,0,1,42.71-58.18c71-76.3,170.74-118.86,270-150.62,42.42-13.55,87.26-26.63,118.89-58s43.51-87.8,12.39-119.68c-3.75-3.86-8-7.29-10.85-11.86-8.54-13.91-.36-32,9.58-44.93,61.24-79.77,179.4-91.43,276.78-66.21,15.25,4,31.12,8.69,46.5,5.29,19-4.19,33.36-20,43.41-36.68a172.44,172.44,0,0,0,19.34-129.25c-7.35-29.36-22.55-57.11-23.47-87.34-1.22-40.1,24-77.78,57.65-99.67s74.44-30,114.5-32.39c41.15-2.38,83.15,1,121.9,15.07A228.2,228.2,0,0,1,1971.43,269.53Z"/><path class="cls-3" d="M1971.43-50V269.53a228.2,228.2,0,0,0-31.06-14c-38.75-14.06-80.75-17.45-121.9-15.07-40.06,2.34-80.89,10.47-114.5,32.39s-58.87,59.57-57.65,99.67c.92,30.23,16.12,58,23.47,87.34a172.44,172.44,0,0,1-19.34,129.25c-10,16.69-24.38,32.49-43.41,36.68-15.38,3.4-31.25-1.32-46.5-5.29C1463.16,595.31,1345,607,1283.76,686.74c-9.94,12.94-18.12,31-9.58,44.93,2.8,4.57,7.1,8,10.85,11.86,31.12,31.88,19.23,88.33-12.39,119.68s-76.47,44.44-118.89,58c-99.27,31.76-199,74.32-270,150.62A315.54,315.54,0,0,0,841,1130H447.16c-8.47-92.29,34.67-188.21,97.94-258.63,34.16-38,78.49-72.61,129.61-73.37,34.27-.51,66.76,14.31,100.54,20,35.46,6,71.74,2,107.48-2.11,27.23-3.1,55.61-6.62,78.47-21.72,50.87-33.61,52.76-106.9,43.64-167.16s-22.06-128,13.63-177.38c14.94-20.7,37-35.34,60.23-45.85,57.58-26.05,125.45-28.39,184.69-6.37,49.11,18.27,97.18,53.08,148.53,42.67,36.89-7.48,65.55-37.67,82.75-71.18s25.2-70.78,36.79-106.6A550.17,550.17,0,0,1,1665.24,43.66c30.55-30.57,65.11-57.73,104.41-75.73A337.82,337.82,0,0,1,1819.57-50Z"/><path class="cls-4" d="M1819.57-50a337.82,337.82,0,0,0-49.92,17.93c-39.3,18-73.86,45.16-104.41,75.73a550.17,550.17,0,0,0-133.78,218.68c-11.59,35.82-19.6,73.12-36.79,106.6s-45.86,63.7-82.75,71.18c-51.35,10.41-99.42-24.4-148.53-42.67-59.24-22-127.11-19.68-184.69,6.37-23.25,10.51-45.29,25.15-60.23,45.85-35.69,49.41-22.73,117.09-13.63,177.38s7.23,133.55-43.64,167.16c-22.86,15.1-51.24,18.62-78.47,21.72-35.74,4.07-72,8.13-107.48,2.11-33.78-5.73-66.27-20.55-100.54-20-51.12.76-95.45,35.34-129.61,73.37-63.27,70.42-106.41,166.34-97.94,258.63H-51.43V864.71c27.1-47.92,63.24-89,115.56-98.38,81.16-14.63,158.12,56.7,240,46.73,22.93-2.8,46.88-13.94,56-35.16,6.72-15.62,4.17-33.53.86-50.2-14.54-73-40.81-152.49-6.05-218.34,27.4-51.85,90.32-80.26,148.49-72.84s109.68,47.26,137.77,98.76c10.72,19.64,20,42.63,40.25,52.17,25.37,11.95,54.68-3,78.68-17.51,38.09-23.07,80.11-51.81,86.22-95.94,8.07-58.28-49.69-102.21-75.33-155.19-34-70.08-5.77-160.54,55-209.32s146.49-59,221.8-39.15c37.36,9.86,73.12,26.53,111.49,31.06,97.46,11.46,186.59-57.13,247.78-133.85Q1414-41.1,1420.62-50Z"/><path class="cls-5" d="M1420.62-50Q1414-41.12,1407-32.45c-61.19,76.72-150.32,145.31-247.78,133.85-38.37-4.53-74.13-21.2-111.49-31.06C972.45,50.45,886.67,60.71,826,109.49s-88.9,139.24-55,209.32c25.64,53,83.4,96.91,75.33,155.19-6.11,44.13-48.13,72.87-86.22,95.94-24,14.54-53.31,29.46-78.68,17.51-20.25-9.54-29.53-32.53-40.25-52.17C613.1,483.78,561.6,444,503.42,436.52s-121.09,21-148.49,72.84c-34.76,65.85-8.49,145.31,6.05,218.34,3.31,16.67,5.86,34.58-.86,50.2-9.13,21.22-33.08,32.36-56,35.16-81.86,10-158.82-61.36-240-46.73-52.32,9.42-88.46,50.46-115.56,98.38V459.65Q-34.3,457.39-17,456.2c38.16-2.59,81.23-3,107.53-30.81,25.41-26.84,24.59-68.5,37.93-103,3.64-9.49,8.72-18.84,16.92-24.85s18.71-8.05,28.76-9.86c63.93-11.63,128-23.28,192.89-27.46,42.92-2.76,88.83-3.09,124.36-27.37,8.94-6.11,17.11-13.84,21.83-23.6,5.5-11.29,5.94-24.4,4.81-36.89C514.84,138,500.5,105.63,493.52,71.81s-5-73,19.34-97.54C525-38,540.93-44.9,557.6-50Z"/><path class="cls-6" d="M268.58-50c-30.78,28.15-64.5,53.67-97.77,78.72C150.12,44.29,128.9,60.16,104.2,68c-44.31,14.08-93.53.51-138.31,13a129.83,129.83,0,0,0-17.32,6.24V-50Z"/><path class="cls-7" d="M518,172.37c1.13,12.49.69,25.6-4.81,36.89-4.72,9.76-12.89,17.49-21.83,23.6-35.53,24.28-81.44,24.61-124.36,27.37-64.86,4.18-129,15.83-192.89,27.46-10.05,1.81-20.5,3.81-28.76,9.86s-13.28,15.36-16.92,24.85c-13.34,34.49-12.52,76.15-37.93,103C64.21,453.19,21.14,453.61-17,456.2q-17.25,1.17-34.41,3.45V87.26A129.83,129.83,0,0,1-34.11,81c44.78-12.51,94,1.06,138.31-13,24.7-7.84,45.92-23.71,66.61-39.28,33.27-25,67-50.57,97.77-78.72h289C540.93-44.9,525-38,512.86-25.73,488.55-1.18,486.55,38,493.52,71.81S514.84,138,518,172.37Z"/></svg>