<svg id="Layer_1" data-name="Layer 1" xmlns="http://www.w3.org/2000/svg" viewBox="0 0 866.2 100"><defs><style>.cls-1{fill:#929497;}.cls-2{fill:#91989e;}.cls-3{fill:#ec1c24;}</style></defs><title>logo-sec-pret</title><path class="cls-1" d="M40.24,90.15H38.39v.23h0c.17,0,.26,0,.29.09s.05.17.05.38V93a.77.77,0,0,1-.05.39s-.13.07-.29.08h0v.21H40.3a1.58,1.58,0,0,0,1.22-.5A1.94,1.94,0,0,0,42,91.87a1.71,1.71,0,0,0-.45-1.27A1.75,1.75,0,0,0,40.24,90.15Zm.66,2.92a1,1,0,0,1-.87.41.75.75,0,0,1-.43-.08.51.51,0,0,1-.1-.37V90.4h.28a1.5,1.5,0,0,1,1.09.34,1.62,1.62,0,0,1,.32,1.13A2.06,2.06,0,0,1,40.9,93.07Z"/><path class="cls-1" d="M44.65,93.11c0,.19,0,.3-.06.32a.88.88,0,0,1-.4,0h-.3a1.45,1.45,0,0,1-.39,0q-.09,0-.09-.42V92h.82s.06.1.07.22v0h.25v-.78H44.3v0c0,.13,0,.21,0,.22a1.62,1.62,0,0,1-.33,0h-.49V90.4h.77a.58.58,0,0,1,.28,0,.19.19,0,0,1,.06.17,1.14,1.14,0,0,0,0,.15v0h.36v-.64H42.3v.23h0c.17,0,.26,0,.29.09s0,.17,0,.38V93a.77.77,0,0,1,0,.39s-.12.07-.29.08h0v.21H45v-.67h-.37Z"/><path class="cls-1" d="M10.85,92.78a1.14,1.14,0,0,1-.07.45,1.79,1.79,0,0,1-.55,0h-.4a2.86,2.86,0,0,1-.51,0c-.08,0-.12-.21-.12-.57V91.26h.68a1.25,1.25,0,0,1,.41,0c.06,0,.09.12.09.29v0h.34v-1h-.34v.06c0,.2,0,.29-.06.3a1.61,1.61,0,0,1-.44,0H9.22v-1.8h1a.87.87,0,0,1,.38,0c.06,0,.09.11.09.24v.25h.47v-.85H7.71v.29h.07c.21,0,.34.06.38.11a1.22,1.22,0,0,1,.07.52v2.89a1.22,1.22,0,0,1-.07.52c0,.06-.17.09-.38.11H7.71v.3h3.63v-.89h-.48Z"/><path class="cls-1" d="M14,90.81l-.31-.18a2,2,0,0,1-.54-.39.66.66,0,0,1-.13-.42.71.71,0,0,1,.21-.54.67.67,0,0,1,.51-.22.83.83,0,0,1,.6.23,1.14,1.14,0,0,1,.14.56v.06h.47V89a4.89,4.89,0,0,0-1.28-.2,1.68,1.68,0,0,0-1.14.37,1.19,1.19,0,0,0-.43,1c0,.51.4,1,1.19,1.42l.32.18a1.54,1.54,0,0,1,.53.4.72.72,0,0,1,.14.48.81.81,0,0,1-.23.6.83.83,0,0,1-.62.24,1,1,0,0,1-.69-.24c-.1-.08-.15-.25-.17-.54v-.07h-.47v1a5.7,5.7,0,0,0,1.33.17,2,2,0,0,0,1.31-.38,1.26,1.26,0,0,0,.48-1,1.2,1.2,0,0,0-.25-.78A3.64,3.64,0,0,0,14,90.81Z"/><path class="cls-1" d="M15.81,89.85h.47v-.09a.91.91,0,0,1,.08-.5.64.64,0,0,1,.38-.07h.78v3.49a1.19,1.19,0,0,1-.07.52c-.05.06-.2.09-.46.11h-.06v.3h2.17v-.3h-.06c-.27,0-.42,0-.45-.09a1.42,1.42,0,0,1-.08-.54V89.19h.77a.68.68,0,0,1,.39.07c.06,0,.08.22.08.5v.09h.48v-1H15.81Z"/><path class="cls-1" d="M25.21,93.22a2.3,2.3,0,0,1-.3-.54l-1.78-3.86H22.8L21,92.67a3.73,3.73,0,0,1-.29.56.57.57,0,0,1-.32.08h-.06v.3h1.27v-.3h-.19c-.13,0-.2,0-.2-.11a1.53,1.53,0,0,1,.18-.51l.24-.51h2l.24.5a2,2,0,0,1,.18.51c0,.07-.14.11-.41.13h-.06v.3h2v-.3h0C25.37,93.29,25.25,93.27,25.21,93.22Zm-3.4-1.37L22.65,90l.86,1.84Z"/><path class="cls-1" d="M28.2,88.86H25.73v.29h.06a.78.78,0,0,1,.39.11,1.29,1.29,0,0,1,.06.52v2.89a1.07,1.07,0,0,1-.07.52c0,.06-.17.09-.38.11h-.06v.3h2.55a2.1,2.1,0,0,0,1.62-.67,2.55,2.55,0,0,0,.61-1.8,2.25,2.25,0,0,0-.6-1.69A2.31,2.31,0,0,0,28.2,88.86Zm.88,3.88a1.35,1.35,0,0,1-1.15.53,1,1,0,0,1-.58-.1c-.08-.07-.12-.23-.12-.49V89.19h.36a2,2,0,0,1,1.45.44,2.15,2.15,0,0,1,.42,1.51A2.8,2.8,0,0,1,29.08,92.74Z"/><path class="cls-1" d="M33.46,88.75a2.3,2.3,0,0,0-1.76.66,2.89,2.89,0,0,0,0,3.65,2.68,2.68,0,0,0,3.52,0,2.92,2.92,0,0,0,0-3.65A2.32,2.32,0,0,0,33.46,88.75Zm1,4.12a1.23,1.23,0,0,1-2,0,3.26,3.26,0,0,1-.34-1.64,3.22,3.22,0,0,1,.34-1.63,1.23,1.23,0,0,1,2,0,3.22,3.22,0,0,1,.34,1.63A3.26,3.26,0,0,1,34.48,92.87Z"/><path class="cls-1" d="M49.33,90.81,49,90.63a2,2,0,0,1-.53-.39.61.61,0,0,1-.14-.42.75.75,0,0,1,.21-.54.69.69,0,0,1,.52-.22.81.81,0,0,1,.59.23,1,1,0,0,1,.14.56v.06h.48V89a5,5,0,0,0-1.28-.2,1.65,1.65,0,0,0-1.14.37,1.19,1.19,0,0,0-.43,1c0,.51.39,1,1.19,1.42l.31.18a1.5,1.5,0,0,1,.54.4.88.88,0,0,1-.1,1.08.82.82,0,0,1-.61.24,1.06,1.06,0,0,1-.7-.24.8.8,0,0,1-.17-.54v-.07h-.47v1a5.77,5.77,0,0,0,1.34.17,2,2,0,0,0,1.3-.38,1.24,1.24,0,0,0,.49-1,1.2,1.2,0,0,0-.26-.78A3.55,3.55,0,0,0,49.33,90.81Z"/><path class="cls-1" d="M53.41,88.75a2.32,2.32,0,0,0-1.77.66,2.92,2.92,0,0,0,0,3.65,2.36,2.36,0,0,0,1.77.66,2.31,2.31,0,0,0,1.75-.66,2.85,2.85,0,0,0,0-3.65A2.28,2.28,0,0,0,53.41,88.75Zm1,4.12a1.23,1.23,0,0,1-2,0,3.26,3.26,0,0,1-.34-1.64,3.22,3.22,0,0,1,.34-1.63,1.23,1.23,0,0,1,2,0,3.23,3.23,0,0,1,.33,1.63A3.27,3.27,0,0,1,54.43,92.87Z"/><path class="cls-1" d="M59.49,89.16h.07a.82.82,0,0,1,.39.11,1.29,1.29,0,0,1,.06.52v2.65L57.4,88.87H56.2v.29h.06a.83.83,0,0,1,.4.11,1.29,1.29,0,0,1,.06.52v2.89a1.07,1.07,0,0,1-.07.52c0,.06-.17.09-.39.11H56.2v.3h1.5v-.3h-.06c-.21,0-.35,0-.39-.11a1.29,1.29,0,0,1-.06-.52V90.09l2.63,3.59h.65V89.79a1.07,1.07,0,0,1,.07-.52.78.78,0,0,1,.39-.11h0v-.29H59.49Z"/><path class="cls-1" d="M63.9,88.75a2.29,2.29,0,0,0-1.76.66,2.89,2.89,0,0,0,0,3.65,2.68,2.68,0,0,0,3.52,0,2.92,2.92,0,0,0,0-3.65A2.3,2.3,0,0,0,63.9,88.75Zm1,4.12a1.13,1.13,0,0,1-1,.54,1.11,1.11,0,0,1-1-.54,3.16,3.16,0,0,1-.34-1.64,3.12,3.12,0,0,1,.34-1.63,1.13,1.13,0,0,1,1-.54,1.15,1.15,0,0,1,1,.54,3.12,3.12,0,0,1,.34,1.63A3.16,3.16,0,0,1,64.92,92.87Z"/><path class="cls-1" d="M76.12,93.22a3.06,3.06,0,0,1-.29-.54l-1.78-3.86h-.34L72,92.67a2.92,2.92,0,0,1-.29.56.54.54,0,0,1-.32.08h-.11a.66.66,0,0,1-.36-.09,3.5,3.5,0,0,1-.43-.53l-.93-1.3a1.48,1.48,0,0,0,.69-.52,1.45,1.45,0,0,0,.22-.83c0-.79-.48-1.2-1.46-1.2l-.29,0h-2v.29h.06a.82.82,0,0,1,.39.11,1.29,1.29,0,0,1,.06.52v2.89a1.07,1.07,0,0,1-.07.52c0,.06-.17.09-.38.11H66.7v.3h1.89v-.3h-.06c-.17,0-.28,0-.31-.11a1.22,1.22,0,0,1-.07-.52V91.53h.41l1.32,2.08h2.68v-.3h-.19c-.13,0-.2,0-.2-.11a1.68,1.68,0,0,1,.17-.51l.24-.51h2l.23.5a1.66,1.66,0,0,1,.18.51c0,.07-.14.11-.41.13h-.06v.3h2v-.3h0A.63.63,0,0,1,76.12,93.22Zm-7-2.3a1.07,1.07,0,0,1-.79.3h-.18v-2h.36a.8.8,0,0,1,.91.91A1.13,1.13,0,0,1,69.12,90.92Zm3.6.93L73.56,90l.87,1.84Z"/><path class="cls-1" d="M53.81,74l0,0c-.45.21.11.55.32.32S54,73.87,53.81,74Z"/><path class="cls-1" d="M47,69.43l.28.12a1,1,0,0,1,.23.18l.17.15a1,1,0,0,0,.48.23.93.93,0,0,1,.19,0,1.87,1.87,0,0,1,.48.2,2.35,2.35,0,0,0,.6.25.35.35,0,0,0,.34.2h0a.38.38,0,0,0,.3-.21h.09a.49.49,0,0,0,.34-.07h0a.26.26,0,0,0,.12-.33l0,0a.19.19,0,0,0,0-.08.24.24,0,0,0-.13-.19c-.06-.08,0-.19.08-.45a.75.75,0,0,1,.07-.12,1.43,1.43,0,0,0,.13-.28,1.31,1.31,0,0,0,0-.33.81.81,0,0,1,0-.16,2.13,2.13,0,0,1,.13-.46c.05-.16.1-.32.14-.49s.05-.18.08-.28a1.58,1.58,0,0,0,.1-.82,3.7,3.7,0,0,0-.41-1,1.54,1.54,0,0,0-.27-.33.73.73,0,0,1-.23-.37,1.7,1.7,0,0,1,0-.46c0-.38,0-.79-.26-1a.82.82,0,0,0-.77.06,2.91,2.91,0,0,0-.3.17,1.56,1.56,0,0,1-.39.19l-.2.05a1.08,1.08,0,0,0-.62.3,2.6,2.6,0,0,0-.55,1.5l0,.22a2.61,2.61,0,0,1-.06.27,2.09,2.09,0,0,0-.09.75,1.15,1.15,0,0,0,.13.34.53.53,0,0,1,.1.29c0,.32-.55.77-1,1a.23.23,0,0,0-.12.28C46.24,69.18,46.64,69.32,47,69.43Zm.82-1.88a1,1,0,0,0-.15-.56c0-.07-.07-.14-.08-.18a1.68,1.68,0,0,1,.08-.56,2,2,0,0,0,.07-.31l0-.23a2.27,2.27,0,0,1,.42-1.23.6.6,0,0,1,.37-.16l.24-.06a2.42,2.42,0,0,0,.51-.25,2,2,0,0,1,.25-.14.62.62,0,0,1,.29-.09h0a1.31,1.31,0,0,1,0,.55,2.65,2.65,0,0,0,0,.57,1.11,1.11,0,0,0,.37.62,2.31,2.31,0,0,1,.2.24,4,4,0,0,1,.35.83,1.35,1.35,0,0,1-.09.58,2.07,2.07,0,0,0-.1.33,3,3,0,0,1-.12.43,4.26,4.26,0,0,0-.16.54,2.18,2.18,0,0,0,0,.25,1.27,1.27,0,0,1,0,.2,1.18,1.18,0,0,1-.08.16.7.7,0,0,0-.09.17,1,1,0,0,0-.08.87.39.39,0,0,0-.15,0,.3.3,0,0,0-.17.11.32.32,0,0,0-.18-.1,1.89,1.89,0,0,1-.53-.21,2.21,2.21,0,0,0-.58-.25l-.23-.05a.42.42,0,0,1-.27-.13l-.14-.12a1.35,1.35,0,0,0-.33-.26,2.32,2.32,0,0,0-.35-.14,2.3,2.3,0,0,1-.39-.17A2,2,0,0,0,47.78,67.55Z"/><path class="cls-1" d="M46.78,71.41a.17.17,0,0,0-.05-.2.7.7,0,0,0-.46-.2.47.47,0,0,0-.32.12.16.16,0,0,0-.06.08c-.18.51-.11.86.2,1a.59.59,0,0,0,.21,0c.39,0,.44-.43.46-.66C46.77,71.51,46.77,71.44,46.78,71.41Zm-.41.12a1.13,1.13,0,0,1-.06.31s0,0-.08,0-.06-.21,0-.42c0,0,.1,0,.14,0A.34.34,0,0,1,46.37,71.53Z"/><path class="cls-1" d="M83.29,0H.29A.29.29,0,0,0,0,.29V88.76C0,96.79,7.26,97,8.08,97H36.25c2.34,0,3.85,2.42,3.87,2.46l.25.39a.31.31,0,0,0,.25.13.29.29,0,0,0,.24-.13l.26-.4S42.63,97,45,97H75.49a9.46,9.46,0,0,0,4.43-1.14c1.67-.95,3.66-2.95,3.66-7.12V.29A.29.29,0,0,0,83.29,0ZM83,88.76c0,3.12-1.13,5.34-3.37,6.61a8.86,8.86,0,0,1-4.14,1.07H45c-2.67,0-4.29,2.63-4.35,2.73v0h0c-.07-.11-1.68-2.74-4.36-2.74H8.08c-1.25,0-7.5-.37-7.5-7.68V.58H83Z"/><path class="cls-1" d="M6.62,79.23c0,6.56,6,6.75,6.64,6.75H38.15c1.88,0,3.09,2,3.09,2l.21.39a.28.28,0,0,0,.26.15.27.27,0,0,0,.25-.15l.2-.37a4.17,4.17,0,0,1,3.1-2H70.14A7.81,7.81,0,0,0,73.78,85c1.37-.77,3-2.41,3-5.81V8.13a.29.29,0,0,0-.29-.29H6.91a.29.29,0,0,0-.29.29v41.5l0,0,0,0ZM70.14,85.4H45.26A4.37,4.37,0,0,0,42,87.18v-37h1.41v.08a1.21,1.21,0,0,0,.11.69,2.36,2.36,0,0,0,.17.26c.09.1.12.15.11.38a1.54,1.54,0,0,1-.11.42,1.7,1.7,0,0,0-.12.52c0,.57.24.66.57.72l.18,0c.63.16.93,1,1.22,1.75a5.22,5.22,0,0,0,.57,1.23l.49.66c.22.31.45.64.69.94a4.26,4.26,0,0,0,.42.5,2.7,2.7,0,0,1,.72,1.09,1.71,1.71,0,0,1-.16.93,1.54,1.54,0,0,0-.11,1.21,1.22,1.22,0,0,0,1.39.54,1,1,0,0,1,.57,0,1.61,1.61,0,0,1,.62,1,5.42,5.42,0,0,0,.22.56,3.41,3.41,0,0,1,.24.63c0,.14.07.27.12.41l.08.18a.42.42,0,0,1,.07.25.4.4,0,0,1-.07.15.73.73,0,0,0-.11.29,1.67,1.67,0,0,0,.1.63c0,.11.06.23.08.34l0,.24a1.28,1.28,0,0,0,.28.87.75.75,0,0,0,.33.14.71.71,0,0,1,.19.06,1.58,1.58,0,0,1,.15.18.73.73,0,0,0,.09.13,2,2,0,0,0,.21.23c0,.06.12.13.17.2a34.29,34.29,0,0,0-2.79,2.72,10.41,10.41,0,0,0-1,1.28c-.24.34-.45.66-.66.91a15.73,15.73,0,0,0-1.37,1.85c-.36.61-.86,1.46,0,2.18a1.87,1.87,0,0,0,1.15.26h.6a10.14,10.14,0,0,0,1.31-.2l.16,0a8.24,8.24,0,0,0,2.45-.85h0a2,2,0,0,1,.42-.07,2.41,2.41,0,0,0,.58-.1l.3-.1h0l.76-.26c.36-.15.63-.24.92-.34l.77-.28c.32-.12.67-.27,1-.44a.75.75,0,0,1,.11.13.76.76,0,0,0,.65.43,2.08,2.08,0,0,0,.37,0h.11s0,0,0,0a.57.57,0,0,0,.18.31,1.64,1.64,0,0,0,.81.31l.33.09a2,2,0,0,1,.5.29l.32.22.09,0A1.23,1.23,0,0,0,61.57,78a2.06,2.06,0,0,1,.21.21,1.15,1.15,0,0,1,.21.33l.07.16a.62.62,0,0,1,0,.1.83.83,0,0,0,.17.34.46.46,0,0,0,.36.1h0a.32.32,0,0,1,0,.18.92.92,0,0,0,.05.45,1.13,1.13,0,0,0,.31.36,1.24,1.24,0,0,1,.2.2.8.8,0,0,1,.09.31,1.13,1.13,0,0,0,.08.33.64.64,0,0,0,.27.29l.06,0a.45.45,0,0,1,0,.06.24.24,0,0,0,.07.23.25.25,0,0,0,.23.06c.27-.08.32,0,.47.31a1.42,1.42,0,0,0,.39.57,1.71,1.71,0,0,0,.5.21,3.17,3.17,0,0,1,.35.14.71.71,0,0,1,.15.12,1,1,0,0,0,.49.26.55.55,0,0,0,.4-.1l.09,0a1.83,1.83,0,0,1,.35,0,3.59,3.59,0,0,0,.46,0l0,.22a1.2,1.2,0,0,0,.55.89,1.09,1.09,0,0,0,1.13.09.7.7,0,0,0,.26-.77.21.21,0,0,0-.11-.15l0,0s0,0,0,0a.58.58,0,0,0,.1-.12l0,.06a.8.8,0,0,0,.68.42l.16,0,.41.14a2,2,0,0,0,1.08.24.51.51,0,0,0,.22.19,1.05,1.05,0,0,0,.37,0h.18a.62.62,0,0,1,.37.3l0,.06A7.38,7.38,0,0,1,70.14,85.4Zm-11-19.55c.27.22,2.87-1.67,3-1-.45,0-1.33.69-1.94,1-.37.18-1.62.92-1.45,0A8.24,8.24,0,0,1,61,62.27,17.79,17.79,0,0,0,59.78,64C59.69,64.22,58.93,65.67,59.16,65.85ZM69,58.78a2.28,2.28,0,0,0,1.45,1.44c.25-.27-.09-1.2.4-1.07v0c-.06.27,0,.61,0,.91a1.8,1.8,0,0,0-.08.7c-.63-.51-1.42-.71-1.89-1.73A3.19,3.19,0,0,1,69,56.19,4.75,4.75,0,0,0,69,58.78Zm2.06,3.77c.05,1.48-1.08,2.57-1.41,3.09a10.55,10.55,0,0,1-3.07,2.79,2.48,2.48,0,0,1-.53-.2,1.4,1.4,0,0,1,.62-.9c.51-.41.82-.81,1.33-1.23a8.16,8.16,0,0,0,2-2.21,25.79,25.79,0,0,1-5.63,4.34,23.56,23.56,0,0,0-4.18,2.63c.22,0,.8.11,1,.09.64-.07.75-.07,1.39-.16a3.47,3.47,0,0,0,1.07-.28C62,71.74,60.12,72.94,58.31,74a9.74,9.74,0,0,1-.93.46c-.56.22-1,.31-1.8.65-.43.17-1.58.86-1.87.49s-.41-.13-1,.33a6.08,6.08,0,0,1-3,1.13c-.39.07-2.26.47-2.16-.26l0,0A14.1,14.1,0,0,1,50,75.11c.92-.49,1.9-1.1,3-1.61l2.6-1.27c1.43-.71,2.81-1.43,4.16-2.2,2.39-1.35,4.3-2.07,5.88-3.09a31,31,0,0,0,3.22-2.33C69.31,64.14,71,62.58,71.1,62.55Zm-3.49,6.9a6.88,6.88,0,0,1-2.82.76c-.74,0-2.79.29-2.79.29A5.07,5.07,0,0,1,64.59,70C65.7,70,68,69.13,67.61,69.45ZM59.48,68,61,67.25c.3-.17.72-.5,1.07-.41a1.71,1.71,0,0,1-.47.42,44.3,44.3,0,0,1-4.24,2.66c-.83.45-1.73.87-2.61,1.34A12.51,12.51,0,0,0,52.07,73c0-.16.08-.33.2-.47a9,9,0,0,1,2.07-1.81c.81-.54,1.69-1,2.52-1.48S58.62,68.48,59.48,68ZM76.21,79.23c0,2.46-.88,4.22-2.62,5.24l-.09-.11a1.1,1.1,0,0,0-.62-.48,1.27,1.27,0,0,0-.33,0h-.17l0-.06a.92.92,0,0,0-.22-.22.22.22,0,0,0-.22,0,.18.18,0,0,0-.09.08,4.4,4.4,0,0,1-.74-.23,3.59,3.59,0,0,0-.48-.17l-.18,0c-.21,0-.25,0-.34-.18s0-.1,0-.14a.57.57,0,0,0-.21-.49.54.54,0,0,0-.47,0,.26.26,0,0,0-.11.32c0,.09,0,.12-.11.27a.89.89,0,0,0-.25.61.23.23,0,0,0,.11.2.19.19,0,0,0,.14,0l0,0a.62.62,0,0,1-.58-.07.77.77,0,0,1-.37-.6,2.86,2.86,0,0,0-.14-.51.29.29,0,0,0-.14-.13.28.28,0,0,0-.18,0,1.45,1.45,0,0,1-.54.09,1.93,1.93,0,0,0-.42,0,.76.76,0,0,0-.27.11l-.07,0a.9.9,0,0,1-.24-.16,1.46,1.46,0,0,0-.21-.16,2,2,0,0,0-.44-.17,1.45,1.45,0,0,1-.37-.16,1,1,0,0,1-.24-.37c-.13-.26-.3-.62-.75-.62a.57.57,0,0,0-.24-.28l-.1-.08a1.06,1.06,0,0,1,0-.19,1.09,1.09,0,0,0-.17-.51,1.5,1.5,0,0,0-.27-.3,1.24,1.24,0,0,1-.2-.2.45.45,0,0,1,0-.21.7.7,0,0,0-.15-.57.39.39,0,0,0-.39-.13l0-.08a.7.7,0,0,0-.06-.19.51.51,0,0,1-.07-.15,1.84,1.84,0,0,0-.3-.45l-.22-.23A.73.73,0,0,1,61.6,77l.16-.09.05,0a.27.27,0,0,0,.13-.15.23.23,0,0,0,0-.2.65.65,0,0,0-.66-.29.3.3,0,0,0-.16.08L61,76.29a2.6,2.6,0,0,0-.62-.36,3.89,3.89,0,0,0-.4-.1,1.46,1.46,0,0,1-.59-.2s0,0,0-.08a.52.52,0,0,0-.33-.38.7.7,0,0,0-.27,0h-.28c-.23,0-.25-.08-.32-.19a.34.34,0,0,0-.07-.11c.29-.14.58-.29.9-.47l.35-.18a27.76,27.76,0,0,0,4.41-2.72l1-.75.27,0a7.74,7.74,0,0,0,2.17-.58c.71-.26,1.86-1,1.89-1.72a.17.17,0,0,0,0-.15.17.17,0,0,0-.14-.06h0c-.26,0-.51,0-.74,0,.17-.15.36-.28.59-.45l0,0a4.64,4.64,0,0,0,.78-.75l.44-.55a5.67,5.67,0,0,0,.71-1,7.42,7.42,0,0,0,1-3.89v-.33a3.35,3.35,0,0,0,0-.45l0-.64A3.34,3.34,0,0,0,71,57.73a6,6,0,0,1-1.21-1.56L69.71,56a1.39,1.39,0,0,0-.46-.73.62.62,0,0,0-.34-.11c-.49,0-.66.61-.74.9a6.94,6.94,0,0,0,0,2.94,3.22,3.22,0,0,0,1.6,1.9h0a2,2,0,0,0-.29.18l-.12.07a3.68,3.68,0,0,0-1.1,1.18,5.41,5.41,0,0,1-.36.5,2.24,2.24,0,0,1-1.1.82,5.84,5.84,0,0,1-1.67.26H62.59a.38.38,0,0,1-.11-.35,4.71,4.71,0,0,0,0-.93,3.65,3.65,0,0,1,0-.87.61.61,0,0,0-.13-.53A.45.45,0,0,0,61.9,61c-.12,0-.46,0-1.32.74a10.67,10.67,0,0,0-2.2,3.08l-.28.52h0a11.77,11.77,0,0,0-1.91,1l-.6.34a14.27,14.27,0,0,0-2,1.39c-.09.07-.18.13-.27.21l-.2-.23-.18-.2-.07-.1a1.37,1.37,0,0,0-.25-.29.89.89,0,0,0-.38-.15l-.12,0a1.32,1.32,0,0,1-.12-.55,2.4,2.4,0,0,0,0-.28,2.22,2.22,0,0,0-.1-.39,1.42,1.42,0,0,1-.08-.45l.05-.09a.82.82,0,0,0,.14-.37.89.89,0,0,0-.12-.48l-.06-.14a3.3,3.3,0,0,1-.12-.38,3.83,3.83,0,0,0-.27-.73,3.87,3.87,0,0,1-.19-.49,2.05,2.05,0,0,0-.84-1.24,1.39,1.39,0,0,0-.86-.09c-.45,0-.73.07-.91-.28-.09-.17,0-.5.14-.82a2.15,2.15,0,0,0,.17-1.22A3.31,3.31,0,0,0,48.06,58a3.57,3.57,0,0,1-.4-.46c-.23-.3-.46-.62-.68-.93s-.32-.46-.48-.67A4.82,4.82,0,0,1,46,54.83c-.32-.86-.68-1.83-1.55-2a1,1,0,0,0-.21,0l-.15,0s0,0,0-.21a1.43,1.43,0,0,1,.1-.36,2.19,2.19,0,0,0,.14-.56.94.94,0,0,0-.21-.7,1.57,1.57,0,0,1-.12-.19.63.63,0,0,1-.06-.43v-.11H76.21Zm0-70.81V49.08L42.32,8.42Zm-.36,41.14H7.44l34.26-41Zm-53.67-32,.2.22a.17.17,0,0,1,0,.23l-5.12,4.54a.32.32,0,0,0-.09.08l-.06.06-.05,0-5.79,5.15a.17.17,0,0,1-.12,0,.13.13,0,0,1-.11-.05h0l-.19-.22a.16.16,0,0,1,0-.24l.41-.36,5.34-4.74L22,17.52a.16.16,0,0,1,.11-.05A.14.14,0,0,1,22.18,17.53Zm0-.24a3.63,3.63,0,0,1,.94-.35,3.58,3.58,0,0,1-.46.92.34.34,0,0,0-.1-.24l-.19-.22A.45.45,0,0,0,22.14,17.29Zm-4.61,5.42,5.33,4.83a.18.18,0,0,1,0,.24l-.13.14-.07.08a.16.16,0,0,1-.11.05h0a.15.15,0,0,1-.11,0l-3.16-2.87-2.16-2a.16.16,0,0,1,0-.23l.1-.11,0,0,.06-.08.07,0h.05A.21.21,0,0,1,17.53,22.71Zm-1-.66-.07.08-.12.14a.15.15,0,0,1-.13.05.13.13,0,0,1-.1,0l-1.92-1.74-.73-.66L13,19.5l-1.58-1.44a.17.17,0,0,1,0-.23l.2-.22a.18.18,0,0,1,.12-.05.15.15,0,0,1,.11,0L13.38,19l.45.4.55.51,1.53,1.38.57.53A.16.16,0,0,1,16.49,22.05ZM13.3,20l.77.7,1.86,1.69a.42.42,0,0,0,.12.08l-4.71,4.18-.63.56a.37.37,0,0,0-.12.24.38.38,0,0,0,.09.27l.19.22L11,28a.3.3,0,0,0,.16.05.39.39,0,0,0,.24-.09l5.49-4.88a.4.4,0,0,0,.11.2L18.85,25l3.46,3.14a.37.37,0,0,0,.48,0l0,0,.08-.08.12-.14a.37.37,0,0,0,0-.51l-5.32-4.83a.24.24,0,0,0-.11-.06l4.73-4.2c-.29.42-.18.63.34,1.21.32.36.56.53.76.53a.28.28,0,0,0,.2-.08c2.57-2.34,1.73-4.4,1.56-4.74a.2.2,0,0,0,0-.08.16.16,0,0,0-.08-.06,3.11,3.11,0,0,0-1.62-.44,5.13,5.13,0,0,0-3.28,1.43.26.26,0,0,0-.09.18c0,.2.1.47.43.83s.57.59.81.59a.54.54,0,0,0,.27-.07L16.73,21.9a.35.35,0,0,0-.12-.23L15.86,21l-1.41-1.28-.5-.46a3,3,0,0,1,.51-.5c.21-.16.69-.56,1-.46s.41.43.47.61c.13.41,0,1.15.31,1.49.44.56.67-.93.7-1.21.06-.58,0-1.16,0-1.74a7.7,7.7,0,0,1,.29-1.66,7,7,0,0,1,.41-1.44,3.55,3.55,0,0,1,1-1.2,4.85,4.85,0,0,0,.87-1.3c.22-.38.78-.76,1.23-.47s-.28.91-.49,1.21A5,5,0,0,0,19.56,14a16.78,16.78,0,0,1-.63,1.85,5.73,5.73,0,0,0-.34.71.91.91,0,0,0,.18.8c.34.24.32-.43.34-.64a1.49,1.49,0,0,1,.3-.69,1,1,0,0,0,.32-.58c0-.29-.12-.49-.06-.77a2,2,0,0,1,.37-.62c.18-.29.24-1.35.74-1.3.11.52-.18,1.45.34,1.7.29-.31.12-1.06.19-1.49,0-.26.19-.38.24-.62s-.09-.66.25-.58a1.57,1.57,0,0,0,.18.65c.07.09.16.05.23.14s.05.29.13.34c.23.17.33-.16.45.26.06.24.06.5.1.74s0,.54.21.59.36-.45.46-.62a5.08,5.08,0,0,1,.44-.5c.16-.2.3-.32.44.06s0,.46.16.68a4.18,4.18,0,0,0,.53.5,3.13,3.13,0,0,1,.32.6,1.26,1.26,0,0,1,.25.61,3.21,3.21,0,0,1-.12.93c0,.27,0,.54,0,.81-.06.58-.55.95-.65,1.52a9.48,9.48,0,0,0,0,2.44,14,14,0,0,1,.05,1.83A4.55,4.55,0,0,0,25.06,25c.07.2.22.27.37.43s.16.26.31.38c.05-.54.21-.87,0-1.37a3,3,0,0,1-.15-1.58,15.16,15.16,0,0,0-.09-1.67,9.16,9.16,0,0,1,.31-1.49c0-.37-.14-1,0-1.33.32-.56.7.36.7.67,0,.93-.31,2.49.5,3.14.14-.23,0-.48,0-.72A6.11,6.11,0,0,1,27,20.38a7.84,7.84,0,0,0-.07-1.54c-.06-.23-.24-1.44.16-.75a6,6,0,0,1,.28.77c.11.28.3.54.39.84A8.31,8.31,0,0,1,28,22.19,3.83,3.83,0,0,1,27.81,24l-1.93,2.28c-.39.45-.78.9-1.16,1.36-.12.14-.23.45-.4.45s-.25-.4-.26-.57a4.38,4.38,0,0,1,0-.51c0-.55.13-1.09.18-1.61s-.49-.86-.56-1.36a7.34,7.34,0,0,0-.09-.82,3.11,3.11,0,0,1-.16-.67c0-.54-.33-.88-.31-1.46,0-.39.09-1.09-.34-1.29s-.39,0-.4.33a1.14,1.14,0,0,0,.29.71,1.05,1.05,0,0,1,.21.75,1.47,1.47,0,0,0,.09.77,4.28,4.28,0,0,1,.16,1.52.87.87,0,0,0,.16.68c.12.17.36.34.42.53.14.44-.13,1-.15,1.48s0,.93,0,1.39c0,0-.11,0-.15-.07a.4.4,0,0,1-.44.24,1.69,1.69,0,0,1-1.08,1.14c-1,.46-4.64,0-4.64,0S17,26.49,15.64,26.4s-1.58,2.79-1.58,2.79c-.34.4-1.4.27-1.8,0s-1.27-.28-1.44-.42h-.15a1.36,1.36,0,0,1-1.07-.26c-.33-.34-.17-1-.07-1.38a9.63,9.63,0,0,1,1.22-2.79c.3-.48.59-.93.9-1.4a14.86,14.86,0,0,0,.79-1.6A5.73,5.73,0,0,1,13.3,20ZM7.2,8.42H41.08L30,21.63a5.55,5.55,0,0,1-.38-.78,3.53,3.53,0,0,1-.15-.46,3.33,3.33,0,0,0-.31-.79c-.08-.13-.17-.25-.25-.37a3.38,3.38,0,0,1-.43-.7l-.07-.17a2.67,2.67,0,0,0-.76-1.18,4.4,4.4,0,0,0-.39-.26,1.94,1.94,0,0,1-.57-.43,1.86,1.86,0,0,1-.29-.79,3.33,3.33,0,0,0-.1-.4l0-.15A5.41,5.41,0,0,0,25,12.7a2.43,2.43,0,0,0-.61-.37L24,12.14a3.26,3.26,0,0,1-.47-.38,3.44,3.44,0,0,0-.41-.35,4.89,4.89,0,0,0-2.4-.85,1.58,1.58,0,0,0-.45.06A2.93,2.93,0,0,0,18.86,12l-.31.43a3.43,3.43,0,0,1-.43.42,2.56,2.56,0,0,0-.47.46,4,4,0,0,0-.55,1.1L17,14.7A5.63,5.63,0,0,1,15.46,17a17.56,17.56,0,0,0-2,1.89L12,17.46a.36.36,0,0,0-.24-.09h-.09a7.38,7.38,0,0,1,3-2.14.18.18,0,0,0,.15-.15l0-.14v0a.19.19,0,0,0-.19-.2h0A6.12,6.12,0,0,0,11,16.4a.45.45,0,0,0-.4-.29.67.67,0,0,0-.48.27.61.61,0,0,0-.21.6.51.51,0,0,0,.3.28A6.09,6.09,0,0,0,8.88,21a.19.19,0,0,0,.08.15.21.21,0,0,0,.11,0h0l.15,0A.18.18,0,0,0,9.41,21a7.24,7.24,0,0,1,1.77-3.12.38.38,0,0,0,.11.33l1.59,1.44a39.27,39.27,0,0,0-3,4.82A14.4,14.4,0,0,0,8.7,27.11c-.29.95.06,1.59,1.09,2a4.63,4.63,0,0,0,1.17.28,3.08,3.08,0,0,1,1,.33,3.64,3.64,0,0,0,1.6.37A5.61,5.61,0,0,0,15,29.89l.29-.09a5.68,5.68,0,0,1,1.19-.29h.1a.52.52,0,0,1,.07.15A.45.45,0,0,0,17,30a1.79,1.79,0,0,0,.36,0h.23A2,2,0,0,1,18,30a15,15,0,0,0,1.68.1h.51A11.69,11.69,0,0,0,22,29.88l.53-.1a2,2,0,0,1,.39,0h.31L7.2,48.94Zm0,41.72H41.41v37a4.34,4.34,0,0,0-3.26-1.78H13.26c-1,0-6.06-.3-6.06-6.17Z"/><path class="cls-1" d="M22.7,25.88c0-.09-.14-.15-.19-.23s0-.22-.14-.35-.42-.25-.6-.42a1.22,1.22,0,0,1-.39-.65c-.07-.21-.23-.41-.29-.62-.16-.52.13-1.08,0-1.61s-.64-.42-.8-.78c0-.13.08-.49-.11-.56s-.33.18-.41.26a3,3,0,0,0-.27.5c-.1.16-.27.25-.36.39a2.91,2.91,0,0,0-.27,1.08c.23,0,.57-.13.77,0s0,.52.22.71.4,0,.59.19a2,2,0,0,1,.37.7c.1.27.18.55.27.81s.19.34.48.47a1,1,0,0,1,.55.58c.13.27.28.24.46.45s0,.41.41.42h0c-.07-.22-.14-.42-.21-.65S22.77,26.06,22.7,25.88Z"/><path class="cls-1" d="M73.55,12.18h0a.47.47,0,0,1,0-.18.62.62,0,0,0,0-.15,1.33,1.33,0,0,0-.1-.28,1,1,0,0,1-.1-.36.1.1,0,0,0-.08-.1.38.38,0,0,0-.35.18c0,.05-.09.1-.14.1h0s-.13-.23-.17-.32a1.38,1.38,0,0,0-.08-.2c-.14-.23-.27-.34-.42-.34s-.27.12-.4.26a1.19,1.19,0,0,1-.2.19,1.74,1.74,0,0,0-1.07-.64.37.37,0,0,0-.21.06,1,1,0,0,0-.36.41c-.16.28-.25.38-.49.22a.72.72,0,0,1-.18-.17.63.63,0,0,0-.53-.26.56.56,0,0,0-.42.27L68,11a.31.31,0,0,1-.17.09.21.21,0,0,1-.11,0,.74.74,0,0,0-.29-.1.46.46,0,0,0-.45.22.61.61,0,0,1-.21.18.34.34,0,0,1-.28,0l-.16,0-.17,0a.53.53,0,0,1-.27-.08.41.41,0,0,1-.1-.14c0-.08-.1-.21-.43-.13a.79.79,0,0,0-.46.38c-.1.16-.2.29-.37.29h0c-.11,0-.2-.11-.3-.21a.49.49,0,0,0-.88,0,.59.59,0,0,1-.17.15c-.13.06-.27,0-.42-.09l-.13-.07-.19-.11a1,1,0,0,0-.51-.21h0c-.26,0-.35.18-.44.33a.94.94,0,0,1-.12.18.43.43,0,0,1-.34.15,1.57,1.57,0,0,1-.3-.05,1.65,1.65,0,0,0-.31,0,.5.5,0,0,0-.44.23,1,1,0,0,0-.15.46c0,.23-.07.27-.14.27a.68.68,0,0,1-.28-.09l-.12-.07a.43.43,0,0,0-.25-.11.36.36,0,0,0-.26.15.62.62,0,0,0-.14.28c0,.12-.06.19-.19.23a.9.9,0,0,1-.51-.06c-.19-.06-.37-.09-.48,0a.71.71,0,0,0-.12.49c0,.06,0,.14,0,.23a.83.83,0,0,1,0,.44c0,.06-.12.09-.27.09h-.33a.1.1,0,0,0-.09.08.84.84,0,0,0,.12.53,1,1,0,0,1,.09.33c0,.11-.06.17-.17.26a.47.47,0,0,0-.24.37.36.36,0,0,0,.2.32c.07.06.11.08,0,.28,0,0,0,.07-.06.11a.36.36,0,0,0-.06.33.86.86,0,0,0,.28.32,1.14,1.14,0,0,1,.26.28.05.05,0,0,0,0,0,10.25,10.25,0,0,1,2.75,3.39h-.07a.49.49,0,0,0-.47.37.6.6,0,0,0-.09.85.42.42,0,0,0,.21.16l.36.11c-.15.49-.3,1-.48,1.43a5.37,5.37,0,0,1-.72,1.46.71.71,0,0,1-.15.15c-.13.11-.29.23-.28.39s.14.27.26.36.17.13.19.19a.37.37,0,0,1-.06.24.5.5,0,0,0-.07.36c0,.14.22.25.38.35l.16.1.12.11a.77.77,0,0,0,.46.25.56.56,0,0,0,.2,0h0s0,0,.1.14a2.26,2.26,0,0,1,.14.26.78.78,0,0,0,.73.54v.1a1,1,0,0,0,0,.5,1,1,0,0,0,.53.4,1.24,1.24,0,0,1,.2.1l.16.12a1,1,0,0,0,.36.23.81.81,0,0,0,.27,0,.54.54,0,0,1,.3,0,1.3,1.3,0,0,1,0,.13.85.85,0,0,0,.06.19c.09.14.14.18.24.2a.21.21,0,0,1,.11,0c.17.09.16.11.12.21a.92.92,0,0,0-.06.3c0,.37.29.45.54.52l0,0a.49.49,0,0,0,.53-.1l.16-.11c.2-.12.24-.1.4.07l.14.15a.49.49,0,0,0,.32.16.38.38,0,0,0,.16,0,.28.28,0,0,1,.18,0,.51.51,0,0,1,.23.12.68.68,0,0,0,.44.17h0a3.29,3.29,0,0,0,.54,0l.32,0a5.58,5.58,0,0,0,.59-.1l.14,0a.33.33,0,0,1,.3.08.67.67,0,0,0,.35.15.27.27,0,0,0,.18-.08A.39.39,0,0,1,69,32a.56.56,0,0,1,.29.1l.16.11a.79.79,0,0,0,.51.2H70a.9.9,0,0,0,.73-.57h.35a1,1,0,0,0,.4,0,.39.39,0,0,0,.26-.39.3.3,0,0,1,.06-.2A.63.63,0,0,1,72,31a.67.67,0,0,0,.34-.22,1,1,0,0,0,.17-.75.36.36,0,0,0-.17-.23c-.37-1.17-.8-2.57-1.2-3.86a.58.58,0,0,0,0-.83,1.43,1.43,0,0,0-.26-.22c-.24-.8-.45-1.52-.59-2l.33-.09a.33.33,0,0,0,.24-.2,1,1,0,0,0,.11-.84.45.45,0,0,0-.18-.18.43.43,0,0,0-.43-.45h-.08a15.61,15.61,0,0,1,1.66-3.32c.29-.49.6-1,.87-1.5l.06-.12c.3-.55.6-1.12.93-1.65l.12-.18a2,2,0,0,0,.27-.46,2.52,2.52,0,0,0-.38-1.63A.32.32,0,0,0,73.55,12.18ZM59.61,21.8c-.22-.35.09-.31.13-.5s.06-.12.1-.12a.15.15,0,0,1,.08,0l.15,0c.51.08,1,.15,1.49.2a3.11,3.11,0,0,0,.12.3.2.2,0,0,0,.18.1h0a.2.2,0,0,0,.15-.18v-.16c1.62.16,3.11.22,4.37.22h.46a2.39,2.39,0,0,1-.15.54c-.38,0-.76,0-1.13,0-.58-.05-1.16-.1-1.74-.12s-1.16,0-1.75,0l1.74.14,1.73.17c.36,0,.71,0,1.06,0a1.09,1.09,0,0,1-.08.15l-.1.16a.17.17,0,0,0,0,.18,26,26,0,0,1-6.5-1ZM62.08,21a2.43,2.43,0,0,1,4.85.22A31.84,31.84,0,0,1,62.08,21Zm9.35,9.06c0,.38-.32,1.33-.79.82s-.32-1.62-.43-2.27a8,8,0,0,0-.54-2c-.21-.47-.41-.41-.35.06a14.81,14.81,0,0,0,.58,2.34,7.8,7.8,0,0,1,.25,1.26c0,.29.19.68,0,1a.7.7,0,0,1-.63.21c-.17-.09-.21-.49-.26-.65a19.53,19.53,0,0,1-.4-2.33c-.09-.54-.12-1.08-.2-1.61s-.14-1.39-.49-1.69c0,.1,0,.2,0,.29a7.46,7.46,0,0,0,.34,2.06,20.93,20.93,0,0,1,.17,2.75c0,.26.13.7-.14.84s-.46-.14-.49-.38S68,30,68,29.64a15.49,15.49,0,0,0-.19-2.17,6.75,6.75,0,0,0-.09,2.8c0,.32.19,1-.19,1.15s-.55-.26-.68-.5c-.17.2-.29.51-.6.37s-.15-.53-.16-.81c0-.46,0-.95-.07-1.41a4.28,4.28,0,0,0-.1-1.64c-.47.24-.09-.49-.46-.45,0-.11-.07-.12-.15-.18a4.35,4.35,0,0,0-.38,1.32,9.47,9.47,0,0,0-.45,1.74c0,.25.08.65-.07.87s-.45.11-.58-.13,0-.84-.17-.82,0,.53-.4.41c0-.49,0-.92,0-1.41,0-.28.31-1.3.05-1.48-.45-.32-1,1.46-1.06,1.72-.18-.17-.48-.07-.66-.25a.68.68,0,0,1-.16-.59,4.17,4.17,0,0,1,.29-.84c.15-.42.3-.82.44-1.24s.25-.85.44-1.41c0-.09.73-1.47.22-1.31-.14,0-.3.61-.37.75-.2.4-.36.81-.52,1.22s-.42.85-.59,1.3-.18.81-.32,1.18c-.28-.13-.71-.16-.72-.56s.32-.61.45-.85a7.52,7.52,0,0,0,.59-1.29c.13-.42.24-.84.38-1.26s.23-.35.06-.62c-.4.24-.46,1-.69,1.4-.3.56-.66,1.11-.92,1.67-.09.19-.1.58-.31.67a.42.42,0,0,1-.5-.22c-.16-.43.54-.64.46-1.07-.17.1-.78.62-.74,0,0-.36.55-.46.69-.73s0-.35.09-.53a4,4,0,0,1,.28-.5c.19-.4,0-1.54.45-1.45l1.24.24a35.13,35.13,0,0,0,4.9.53h.18l.68.57a.49.49,0,0,0,0,.31c.1.3.49.46.85.57a3.36,3.36,0,0,1,.89.81,4.74,4.74,0,0,0,.85.81l.23.09c.18.58.38,1.13.59,1.7A5.13,5.13,0,0,1,71.43,30.1Zm-.51-4.84s0,0,0,0a.4.4,0,0,1,.12.45.52.52,0,0,1-.18.23s-.12.31-.39.31a.39.39,0,0,1-.2-.05s0,0-.06,0c-.51-.29-1.3-1.49-1.79-1.64s-.77-.28-.72-.56l0-.09a.24.24,0,0,1,.06-.08v0l.14-.14h0l.11-.17h0a.23.23,0,0,1,.07-.07s.05,0,.07-.06a.31.31,0,0,1,.13,0c.22,0,.44.3.61.59a3.35,3.35,0,0,0,1.07.76A4.65,4.65,0,0,1,70.92,25.26Zm-2.26-2c.64-.05,1-.11,1-.11A7.34,7.34,0,0,0,70,24.42a2.63,2.63,0,0,1-.84-.59A2,2,0,0,0,68.66,23.26Zm1.64-1.74c.1,0,0,.34.19.38s0,.53,0,.53l-.33.08a13.22,13.22,0,0,1-2.42.36l-.22-.23,0-.08.11-.21c.48,0,1-.09,1.43-.17l-.87,0-.5,0a2.72,2.72,0,0,0,.18-.55c1.1,0,1.89-.1,2.23-.14Zm3.06-7.78a2.28,2.28,0,0,1-.38.7c-.57.91-1,1.93-1.46,2.86s-.93,1.68-1.38,2.53c-.21.4-.38,1.12-.84,1.31,0,0-.52.05-1.34.08,0-.1,0-.21,0-.32a3.26,3.26,0,0,0-6.52,0V21l-.65-.13c-.51-.11-.81-1.15-1-1.63a4,4,0,0,0-1-1.22,16.77,16.77,0,0,1-1-1.32.87.87,0,0,1-.12-1.23,5,5,0,0,1,1.1,1.28c.15.22.25.61.47.75s.3-.15.21-.4c-.16-.48-.41-1-.61-1.41s-.72-.91-.54-1.45a1.85,1.85,0,0,1,.31-.61c.17-.21.32-.37.52-.21.49.39.49,1.24.75,1.76s.21,1.06.41,1.58.5,1.09.69,1.7c.09.28.58,1.49.62.56,0-.58-.33-1-.43-1.54s-.32-1.14-.48-1.7a9.09,9.09,0,0,0-.47-1.57c-.22-.45-.46-.77,0-1.16s.67-.38.91-.75c.4.26.43.82.73,1.19.55.68.1-.75.2-.95.29-.56.39.38.74.23s.2-.37.47-.39.22.21.43.29c0,.36.39.73.16,1.09-.11-.11-.11-.24-.24-.27a9.93,9.93,0,0,0,.11,2.11A9.29,9.29,0,0,0,64,16.73c.1.27.15.72.36.91.29-.11.17-1.19.15-1.47,0-.57-.14-1.1-.22-1.66a4,4,0,0,1,0-1.14c0-.38-.18-.7-.09-1.06.38,0,.36.29.64-.1s.23-.43.51-.16.16.36.51.26.41-.28.44.18c.06,1-.11,2-.1,3a13.56,13.56,0,0,0,.14,1.92,3.3,3.3,0,0,0,.15-1.19,13.76,13.76,0,0,0,0-1.44,9.3,9.3,0,0,1,0-2.11c.07-.35.15-1,.59-.68.08,0,.14.21.22.25s.08,0,.25,0,.08-.14.23,0,0,.85,0,1c0,.5-.1,1-.13,1.48a11.14,11.14,0,0,0,0,1.91c.26-.07.24-.73.28-1s.15-.71.21-1.07a15.59,15.59,0,0,0,.26-2c0-.38.24-1.37.65-.7s.13,1.56.07,2.24S69,15.24,69,15.8A4,4,0,0,0,68.77,17c.23,0,.33-1.07.41-1.35a10.37,10.37,0,0,0,.28-1.06,13.5,13.5,0,0,1,.3-1.78c.1-.32.4-1.21.7-1.28.9-.22.47,1.12.38,1.55-.16.76-.31,1.56-.54,2.32A5.6,5.6,0,0,0,69.84,17c.25-.18.48-1.2.59-1.52.18-.53.25-1.06.4-1.59s.25-1.78.91-2c.2.35,0,1-.08,1.35a8.11,8.11,0,0,0-.38,2c.39-.18.43-.92.53-1.28a4.82,4.82,0,0,1,.34-1c.1-.17.36-.68.61-.53s.22.55.37.69.17,0,.25.22A.61.61,0,0,1,73.36,13.74Z"/><path class="cls-1" d="M29.75,34.52a13.43,13.43,0,0,1,.08,2.39,4.66,4.66,0,0,1-.11.72c0,.16-.07.32-.1.49s-.15,1,.34,1.38a11.55,11.55,0,0,0,1.79,1,5.17,5.17,0,0,1,0,.54,4.69,4.69,0,0,0,.09,1.71v0a1.54,1.54,0,0,1,.1.88.76.76,0,0,1-.1.14c-.15.22-.35.49-.25.76a.33.33,0,0,0,.1.17.45.45,0,0,0,.09.2.38.38,0,0,0-.07.18.5.5,0,0,0,.11.45v0a1.2,1.2,0,0,1,0,.27.76.76,0,0,1-.06.2.81.81,0,0,0,.06.79,2.93,2.93,0,0,0,.37.42l.14.13a3.93,3.93,0,0,0,.66.53l.21.15.12.09a.94.94,0,0,0,.36.24.85.85,0,0,0,.26,0,.78.78,0,0,0,.29-.06l.11,0,.16,0a1,1,0,0,0,.43-.12.35.35,0,0,1,.16,0,1.22,1.22,0,0,0,.33-.07.5.5,0,0,0,.35-.4c.05-.36-.34-.64-.68-.89l-.2-.16a1.14,1.14,0,0,1-.1-.19,1.3,1.3,0,0,0-.08-.17l-.08-.2a2.52,2.52,0,0,0-.3-.56.64.64,0,0,1,0-.07.26.26,0,0,0,0-.15.23.23,0,0,0,.06-.12,1.45,1.45,0,0,0,0-.35h0s0-.07,0-.1a.7.7,0,0,0,0-.16,1.31,1.31,0,0,0-.07-.44.42.42,0,0,1,0-.15.67.67,0,0,1,.06-.31,1,1,0,0,0,0-.1,4.23,4.23,0,0,0,.22-1.37s0-.05,0-.07a.34.34,0,0,1,0,.1.9.9,0,0,1,0,.4,2,2,0,0,0,0,.35c0,.26,0,.52,0,.81a.79.79,0,0,0,.19.51.45.45,0,0,0,.32.14.49.49,0,0,0,.31-.13.44.44,0,0,0,.4.28.5.5,0,0,0,.38-.19l0,0a.74.74,0,0,0,.58.43H37l.16-.07a.51.51,0,0,0,.3.17l.2,0a.55.55,0,0,0,.34-.12.34.34,0,0,0,.28.14.36.36,0,0,0,.3-.17.51.51,0,0,0,.06.6.79.79,0,0,0,.18.16v0l0,.23a1.68,1.68,0,0,0,.07,1v0a2.31,2.31,0,0,0,.72,1c.18.13.37.27.55.42l.28.22a.72.72,0,0,0,.47.18.77.77,0,0,0,.27,0,.55.55,0,0,0,.43-.29h.11a.29.29,0,0,0,.26-.16,1.38,1.38,0,0,0-.05-.92l0-.06a1.7,1.7,0,0,0-.42-.75,1.8,1.8,0,0,1-.29-.57v0a2.42,2.42,0,0,1-.12-.41.45.45,0,0,0,.17-.25.67.67,0,0,0,0-.42.21.21,0,0,0,0-.06.54.54,0,0,0,0-.38.39.39,0,0,0,0-.13.82.82,0,0,0-.16-.59.34.34,0,0,1-.08-.14.88.88,0,0,1,.14-.23l.1-.14a1.71,1.71,0,0,0,.32-.75c0-.06,0-.11,0-.17a1.23,1.23,0,0,1,0-.2l.25.09a1.83,1.83,0,0,0,.65.15h.15a2.09,2.09,0,0,0,1.68-3,2.64,2.64,0,0,0-.76-.8,2.07,2.07,0,0,0-.47-.17,1.31,1.31,0,0,1-.3-.1h0a.77.77,0,0,0-.06-.15,1.52,1.52,0,0,0-.16-.23.41.41,0,0,1-.09-.12,1.37,1.37,0,0,1,0-.37,2.6,2.6,0,0,0,0-.39c0-.35,0-.7.06-1s0-.47.06-.71a2,2,0,0,0-.07-.71l-.09-.23a.66.66,0,0,1-.08-.25,3.4,3.4,0,0,1,.06-1l0-.19c0-.16,0-.31.05-.46a5.32,5.32,0,0,1,.11-.73,3.28,3.28,0,0,1,.17-.5,3.86,3.86,0,0,0,.22-.68c0-.16.06-.32.08-.48a5.1,5.1,0,0,1,.13-.7,4.26,4.26,0,0,0,.24-1.34,2.62,2.62,0,0,0-.24-1l-.08-.2c0-.05,0-.12-.07-.18a1.2,1.2,0,0,1-.14-.64,4.5,4.5,0,0,1,.33-.85l.06-.14a1,1,0,0,1,.17-.24,1,1,0,0,0,.28-.82,2.49,2.49,0,0,0-.08-.32,1,1,0,0,1-.06-.26.74.74,0,0,1,0-.19,1.14,1.14,0,0,0,.07-.35,2.33,2.33,0,0,0-.24-.86c0-.11-.09-.22-.12-.32a.83.83,0,0,1,0-.15,1.87,1.87,0,0,0-.15-.41,1.46,1.46,0,0,0-.19-.26,4.08,4.08,0,0,0,.32-1l0-.07a1.43,1.43,0,0,1,0-.22c0-.3.08-.45.26-.56a3.43,3.43,0,0,1,.58-.27l.39-.16.08,0c.17-.07.48-.19.54-.51s-.34-.54-.48-.58l-.08,0-.16,0a1.34,1.34,0,0,1-.33-.1c.21-.17.31-.26.29-.43a.34.34,0,0,0-.15-.22,2.4,2.4,0,0,1,.18-.26,2.12,2.12,0,0,0,.15-.21.47.47,0,0,0,.05-.1,1.06,1.06,0,0,1,.2-.28l.14-.08a1.18,1.18,0,0,0,.4-.36.29.29,0,0,0,0-.32.77.77,0,0,0-.53-.29c-.14,0-.19,0-.21-.1s0-.07,0-.25a1,1,0,0,0,.13-.52.29.29,0,0,0-.28-.27h0a1.3,1.3,0,0,0-.47.11.61.61,0,0,1-.22.06h0a1.49,1.49,0,0,1-.24-.19c-.27-.22-.39-.33-.55-.33a.27.27,0,0,0-.15.05.37.37,0,0,0-.21.3c0,.3.26.61.62.95l.08.08.06.08c.2.26.31.4.27.64a1.12,1.12,0,0,1-.12.41l-.05-.05a.43.43,0,0,0-.32-.18c-.13,0-.33.06-.36.45a1,1,0,0,0,.13.46,1.12,1.12,0,0,1,0,.13.38.38,0,0,1,0,.28h-.06a2.49,2.49,0,0,1-.33-.16,1.45,1.45,0,0,0-.73-.27l-.4,0a2.66,2.66,0,0,0-.92.14,1.47,1.47,0,0,0-.28.14l-.09,0s0-.18.07-.28c.12-.47.21-.84,0-1a.39.39,0,0,0-.23-.07.46.46,0,0,0-.3.12,1,1,0,0,1-.1-.17c-.12-.3,0-.4.28-.73l0,0a1.64,1.64,0,0,0,.56-1,.59.59,0,0,0-.05-.23h0a.16.16,0,0,0-.09-.12l0,0a.27.27,0,0,0-.19-.08h0A.3.3,0,0,0,40,13a.63.63,0,0,0-.1.12c-.12.13-.3.34-.42.35l-.15-.08a1.07,1.07,0,0,0-.47-.17.4.4,0,0,0-.39.32.79.79,0,0,0,.13.49.93.93,0,0,0,0,.1v0a.71.71,0,0,1,0,.24s-.11.08-.25.12a1.34,1.34,0,0,0-.37.16.3.3,0,0,0-.12.24.69.69,0,0,0,.5.62.65.65,0,0,1,.17.09,1.29,1.29,0,0,1,.21.3l.2.28a1.29,1.29,0,0,1,.13.19.39.39,0,0,0-.09.34.34.34,0,0,0,.08.17h-.44a.59.59,0,0,0-.61.33.94.94,0,0,0,.32.93,2.16,2.16,0,0,0,.88.49l.22.07c.41.16.4.49.27,1.19a5.54,5.54,0,0,0-.07.57,1.32,1.32,0,0,0,0,.36,1,1,0,0,1,0,.23c0,.06,0,.06-.05.12a1.33,1.33,0,0,0-.14.2,4.88,4.88,0,0,0-.39,1.36s0,0,0,.06a.94.94,0,0,0-.08.15,1.39,1.39,0,0,0,0,.86,2.7,2.7,0,0,1,.07.35c0,.2,0,.2-.31.27l-.15,0a2.62,2.62,0,0,1-.57.06,4.61,4.61,0,0,0-.52,0,5.79,5.79,0,0,0-.89.23l-.19.06a4.94,4.94,0,0,0-1.67,1.06c-.19.15-.36.3-.54.43l-.2.17a1,1,0,0,1-.16.14l-.2.1a1.46,1.46,0,0,0-.4.22,2.62,2.62,0,0,1-.59.39l-.14.05a.89.89,0,0,0-.51.37.88.88,0,0,0-.07.12s0,0,0,0h0L32,28a2.4,2.4,0,0,0-1,.85,1,1,0,0,0-.13.31.47.47,0,0,1-.06.17l-.1.12a1.85,1.85,0,0,0-.24.34,3.54,3.54,0,0,0-.23.64,4,4,0,0,1-.17.49,2.56,2.56,0,0,0-.11.24,4.4,4.4,0,0,0-.34.9,6.39,6.39,0,0,0,0,2.39ZM34.37,42l0,0a2.06,2.06,0,0,0-.13.47l0,.16a2.16,2.16,0,0,1,0,.27l-.08.24c0,.06,0,.12-.07.19a1.27,1.27,0,0,0-.06.48h0s0,.05,0,.06L34,44a.89.89,0,0,1,.15.27.13.13,0,0,1,0,.12.19.19,0,0,1-.12.06h0l0,0a.29.29,0,0,0,0,.09.14.14,0,0,0,.05.08l0,0a.26.26,0,0,1,.06.22A.14.14,0,0,1,34,45a0,0,0,0,0,0,0l0,0h0a.15.15,0,0,0-.11,0,.14.14,0,0,0,0,.2l0,0s0,.07,0,.14a.2.2,0,0,1-.1.08h0a.11.11,0,0,0-.09,0h0a.14.14,0,0,0-.11.16s0,.07,0,.08,0,0-.05,0h0a.2.2,0,0,1-.14-.06.11.11,0,0,0-.09-.1h0a.11.11,0,0,0-.12.09.1.1,0,0,1,0,.07h-.13a.24.24,0,0,1-.11-.08.17.17,0,0,1,0-.14v0a0,0,0,0,0-.05-.05h0a.49.49,0,0,0,0,.11.2.2,0,0,0,0,.13.33.33,0,0,0,.16.19.41.41,0,0,0,.18,0h.07a.12.12,0,0,0,.09,0l.06,0a.51.51,0,0,0,.24.07.38.38,0,0,0,.27-.14l0-.06.12,0,.06,0a5.68,5.68,0,0,1,.28.55l0,.12a2.27,2.27,0,0,0,.46.74,1.7,1.7,0,0,0,.28.21l.08.05h0c.09.06.19.13.2.2s0,.07,0,.09l-.1.05H35.1a.85.85,0,0,1-.23,0h0a.09.09,0,0,0-.09.08.39.39,0,0,0,0,.09,1,1,0,0,0-.06.14h-.24s0,0,0,0v0h-.06l0,0a1.74,1.74,0,0,1-.89-.29A3.28,3.28,0,0,1,32.7,47a4,4,0,0,0-.29-.29.27.27,0,0,1-.08-.07.8.8,0,0,1-.16-.16l-.05-.07a.47.47,0,0,1,0-.09.8.8,0,0,1,.08-.35l0-.07a.76.76,0,0,0,0-.27.28.28,0,0,0,0-.09.35.35,0,0,0,.26-.15h0v0a0,0,0,0,0-.05,0h0l-.07,0-.08,0h0l0,0a.22.22,0,0,1-.1-.11s0-.09,0-.1a.18.18,0,0,1,.11,0h.09a.14.14,0,0,0,0-.28.25.25,0,0,1-.09,0s-.07-.05-.07-.07a.08.08,0,0,1,0,0,.18.18,0,0,1,.07-.05h0l.05,0a.15.15,0,0,0,0-.18.11.11,0,0,0-.07-.06l-.05,0-.06,0-.09,0H32a.13.13,0,0,1-.09-.1s0-.09.06-.15l.06-.07a.33.33,0,0,0,.11-.15l.15,0h0s0,0,0,0a.91.91,0,0,0,0-.67,2.45,2.45,0,0,0-.08-.29c0-.11-.06-.21-.08-.31a3.17,3.17,0,0,1-.05-.59v-.18c0-.15,0-.3,0-.45a.09.09,0,0,0,0-.05h0l.18.05.18.07.35.14.43.16a2.41,2.41,0,0,0,.79.17h.07l.22,0Zm-.32,3.62,0,0h0A0,0,0,0,0,34.05,45.65Zm4.52-3.91a1.86,1.86,0,0,1-.47.32l-.12,0a2,2,0,0,1-.44.11h-.2l-.19,0a1.7,1.7,0,0,1-1-.49,1.68,1.68,0,0,1,0-2.36,1.69,1.69,0,0,1,1.18-.54h.07a1.8,1.8,0,0,1,.72.16l.06,0a1.76,1.76,0,0,1,.4.27,1.6,1.6,0,0,1,.35.46,1.83,1.83,0,0,1,.2.76A1.75,1.75,0,0,1,38.57,41.74ZM40.32,33l0,.17a3.34,3.34,0,0,1,0,1,1.77,1.77,0,0,1,0,.23,2.09,2.09,0,0,0,0,.25,5.27,5.27,0,0,0,0,.89,3.26,3.26,0,0,0,.28.9l.06.15a4.1,4.1,0,0,1,.18.71c0,.08,0,.15.05.23s0,.16,0,.23h0a1.94,1.94,0,0,1-.37-.32,6.6,6.6,0,0,0-.51-.54l-.26-.26c-.22-.23-.47-.45-.71-.66a6.42,6.42,0,0,1-.94-.94,2.87,2.87,0,0,0-.29-.31,2.16,2.16,0,0,1-.34-.42,1.91,1.91,0,0,1-.14-.74c0-.1,0-.2,0-.3s0-.15.19-.3a1.6,1.6,0,0,0,.34-.44c.05-.11.11-.22.17-.33a2.6,2.6,0,0,0,.34-.78.3.3,0,0,0,0-.1,1.83,1.83,0,0,1,.15-.5,1.12,1.12,0,0,1,.44-.17l.22-.05a3.3,3.3,0,0,0,.62-.32,2.35,2.35,0,0,1,.49-.26,1.29,1.29,0,0,1,0,.19,1.21,1.21,0,0,1,0,.53,3.06,3.06,0,0,1-.1.41,3.08,3.08,0,0,0-.17.78A4.52,4.52,0,0,0,40.32,33Zm-1.26,3-.14-.13L39,36Zm-.82-5.18a.6.6,0,0,0-.06.11,2,2,0,0,0-.09.33v.05a.47.47,0,0,1-.12.28,1.21,1.21,0,0,0-.34.62.24.24,0,0,1,0,.09.45.45,0,0,1-.17.24l-.12.07a.65.65,0,0,0-.15.1,1,1,0,0,1,.14-.37c.12-.2.23-.41.31-.56.2-.4.39-.81.57-1.22a.41.41,0,0,1,.16,0,.15.15,0,0,1,.07,0A1,1,0,0,0,38.24,30.86Zm-1.07,2.38a1.26,1.26,0,0,0,0,.28v0h0l0,0a1.35,1.35,0,0,0,.15.77,4.74,4.74,0,0,0,.41.64,11,11,0,0,0,1,1l0,.05c.31.3.66.62,1.13,1l.08.06.19.17.2.22,0,.06.08.08a1.6,1.6,0,0,0,.51.42H41a.14.14,0,0,1,.06.07h0l0,0c.06.14,0,.18,0,.31a.11.11,0,0,0,0,0l.08.06a.08.08,0,0,0,0,0v.08h0s0,0-.06,0a2.22,2.22,0,0,0-.24.32,1.9,1.9,0,0,0-.36,1.1,1.94,1.94,0,0,0,0,.24l0,0a.65.65,0,0,0-.34.12l-.12.08a2,2,0,0,0-.33.31l0,.05a1.58,1.58,0,0,1-.33.31,1,1,0,0,1-.42.13,1.9,1.9,0,0,0-1.66-2.8h0a1.91,1.91,0,0,0-.94.25.43.43,0,0,1,0-.11,1.33,1.33,0,0,0,0-.19.58.58,0,0,0-.06-.17l-.12-.12h0c-.16-.11-.15-.31-.12-.5s0-.19.05-.3a1.65,1.65,0,0,0,.06-.32c0-.19.07-.4.11-.61s.1-.41.16-.59a2.5,2.5,0,0,1,.15-.38l.08-.21a4.78,4.78,0,0,0,.33-1.24,2.17,2.17,0,0,0,0-.36,2.28,2.28,0,0,1,0-.27.93.93,0,0,1,0-.27.54.54,0,0,1,.05-.11l0,0a.34.34,0,0,0,.06.12v0h.07ZM41,37.37s0,0,0,0l.09.27v0a1,1,0,0,1,0,.24s0,0,0,.06v.12h0l-.06-.1h0v0c0-.19,0-.4-.05-.57C41.05,37.4,41,37.39,41,37.37Zm-.44,3.11h0Zm-1.69,1h0ZM41.4,42v0a.07.07,0,0,0,0-.05h0a.05.05,0,0,0,0,0,.73.73,0,0,0-.12.35v0a.71.71,0,0,1-.09.32l-.09.15-.09.18a.72.72,0,0,0-.1.29.57.57,0,0,0,0,.13s0,0,0,0h0a1.16,1.16,0,0,0,0,.18l0,0h-.07a.06.06,0,0,0,0,.06l.07.08a1,1,0,0,1,.08.11A1.13,1.13,0,0,1,41,44a.29.29,0,0,1,0,.1h-.12l-.08,0h0a.11.11,0,0,0-.11.1.12.12,0,0,0,0,.08.12.12,0,0,0,.08,0h0a.25.25,0,0,1,.15.2.38.38,0,0,1,0,.08h-.09l-.06,0a.14.14,0,0,0-.07.1.18.18,0,0,0,0,.1l0,0,.07,0h0s0,0,0,0a.17.17,0,0,1,0,.13.17.17,0,0,1-.09.11h0a.13.13,0,0,1-.07,0l-.09,0a.13.13,0,0,0-.1,0,.12.12,0,0,0,0,.1.1.1,0,0,0,0,.1l0,0-.06,0h-.06a.24.24,0,0,1-.15,0,.11.11,0,0,0-.12-.09h0a.13.13,0,0,0-.12.14c0,.06,0,.08-.07.09h0v0s0,0,0,0h0l0-.05h-.05a.32.32,0,0,0-.09,0l-.05,0h0l0,0a.1.1,0,0,0,0,.05.21.21,0,0,1-.07-.18h0a0,0,0,0,0,0-.05h0v0h0a.22.22,0,0,0,0,.16s0,0,0,0a.83.83,0,0,0,.08.12.37.37,0,0,0,.18,0h0a.44.44,0,0,0,.26.07h0a.31.31,0,0,0,.23-.1h0l.07,0a.44.44,0,0,0,.16,0h.1a.36.36,0,0,0,.27-.16l0,0h0v0a.22.22,0,0,1,0,.08.57.57,0,0,0,0,.36,1.34,1.34,0,0,0,.16.37c0,.1.11.18.16.27a3.84,3.84,0,0,1,.22.39l.06.16c.06.18.13.37.17.55a1.35,1.35,0,0,1,0,.29h0a.27.27,0,0,1-.14-.06l-.07,0-.06,0a.13.13,0,0,0,0,.16.31.31,0,0,1,0,.09h0a.46.46,0,0,0-.13.08l0,0,0,.05a.65.65,0,0,1-.28,0,2.63,2.63,0,0,0-.71-.59,1.85,1.85,0,0,1-.6-.58l-.22-.39a1.34,1.34,0,0,1-.15-.38,1.81,1.81,0,0,1,0-.4,1.93,1.93,0,0,0,0-.48s0,0,0,0,0-.1,0-.14h0a.07.07,0,0,0,.05-.07h0a.1.1,0,0,1,0,0s0,0,0,0h0a0,0,0,0,0,0-.05h0l0,0,0,0H39l-.09-.08,0,0a.11.11,0,0,1,0-.05.16.16,0,0,1,.06-.12.08.08,0,0,1,0,0h.12a.16.16,0,0,0,.11-.12v0h0a.14.14,0,0,0-.14-.12h-.11l0,0h0a.33.33,0,0,1,.11-.22.13.13,0,0,0,0-.13.15.15,0,0,0-.14-.12h0s-.06,0-.06-.07h0s0,0,0,0a1.57,1.57,0,0,1,.12-.21h0a.83.83,0,0,1,.13-.18,0,0,0,0,0,0,0h0c0-.14,0-.26,0-.39a.5.5,0,0,1,.05.13.06.06,0,0,0,0,0h0s0,0,0,0a2.23,2.23,0,0,0,0-.73,2.45,2.45,0,0,0-.1-.35,1.07,1.07,0,0,0-.18-.32l0,0h0s0,0,0,0a.89.89,0,0,1,0-.32h0l0,.12a.24.24,0,0,1,0-.12l.12,0a.64.64,0,0,0,.28-.06,1.16,1.16,0,0,0,.44-.33L40,41l.2-.22a.85.85,0,0,1,.38-.24,1.83,1.83,0,0,0,.53.91,2.34,2.34,0,0,0,.27.2h0a.13.13,0,0,1,0,.06A1,1,0,0,1,41.4,42Zm2.26-3a1.7,1.7,0,0,1,.54,1.19A1.74,1.74,0,0,1,44,41a2.44,2.44,0,0,1-.55.56,1.72,1.72,0,0,1-.88.25h0a1.7,1.7,0,0,1-1.16-.49,1.62,1.62,0,0,1,0-2.29,1.71,1.71,0,0,1,1.15-.52h.06A1.69,1.69,0,0,1,43.66,38.93Zm-.29-23.21v0a.91.91,0,0,0,.07.14.35.35,0,0,0,.13.11l.1,0h.08a.75.75,0,0,0,.38-.36,1.36,1.36,0,0,0,.15-.47.76.76,0,0,0-.11-.5,1.82,1.82,0,0,0-.5-.53L43.52,14a.64.64,0,0,1-.23-.3.36.36,0,0,1,0-.11,1.45,1.45,0,0,0,.17.19l0,0a1,1,0,0,0,.39.27H44a.59.59,0,0,0,.2,0h0a2.25,2.25,0,0,0,.22-.11h0l.17-.09h0l0,.08-.07.21a1.23,1.23,0,0,0-.08.23v0a.44.44,0,0,0,0,.28.61.61,0,0,0,0,.12.57.57,0,0,0,.08.13.54.54,0,0,0,.25.16.75.75,0,0,0,.31.05h.08l0,0-.17.09-.08,0a1.67,1.67,0,0,0-.28.18.39.39,0,0,0-.12.19l0,.15a.92.92,0,0,1-.2.36,1.13,1.13,0,0,1-.1.13l0,0a.73.73,0,0,0-.13.28.26.26,0,0,0,.08.23h0a.41.41,0,0,0-.19.14.3.3,0,0,0-.06.14.19.19,0,0,0,0,.08s0,0,0,.05a.19.19,0,0,1,0,.15.74.74,0,0,1-.31.22,1,1,0,0,1-.35.09h0a.27.27,0,0,1,0-.12l.07-.08a1.86,1.86,0,0,0,.22-.25.78.78,0,0,0,.12-.22.93.93,0,0,0,.06-.34,1.46,1.46,0,0,0-.11-.55v0h0a1.89,1.89,0,0,1-.09-.38h0Zm-4.25-.06,0-.16a.34.34,0,0,0-.13-.18,1.08,1.08,0,0,0-.29-.18l-.07,0a.75.75,0,0,1-.18-.08l0,0h0a1,1,0,0,0,.36-.06.7.7,0,0,0,.24-.17.54.54,0,0,0,.07-.13.69.69,0,0,0,0-.13.49.49,0,0,0,0-.27v0A1.23,1.23,0,0,0,39,14L39,13.78l0-.07h0l.16.08h0l.22.1h0a.49.49,0,0,0,.19,0h.11a1.09,1.09,0,0,0,.39-.28l0,0c.06-.08.12-.14.16-.2a.53.53,0,0,1,0,.12.94.94,0,0,1-.22.31l-.15.12a2.12,2.12,0,0,0-.49.54.79.79,0,0,0-.1.51,1.33,1.33,0,0,0,.16.46.72.72,0,0,0,.39.35h.07l.12,0a.31.31,0,0,0,.12-.11.47.47,0,0,0,.07-.17h0a1,1,0,0,1-.08.4V16a1.42,1.42,0,0,0-.11.55,1,1,0,0,0,.17.51l0,.05a1.26,1.26,0,0,0,.22.24l.07.08a.27.27,0,0,1,0,.12h0a1.05,1.05,0,0,1-.34-.08.62.62,0,0,1-.31-.22.15.15,0,0,1,0-.09.09.09,0,0,1,0-.05.32.32,0,0,0,0-.14.29.29,0,0,0,0-.14.38.38,0,0,0-.2-.13h0a.24.24,0,0,0,.08-.23.86.86,0,0,0-.14-.27l0,0-.1-.12A1,1,0,0,1,39.12,15.66Zm1,.8a.34.34,0,0,1,0,.1v0S40.16,16.48,40.16,16.46Zm-.77,0,0,0,0,0S39.37,16.51,39.39,16.5Zm.26,6.1a1.15,1.15,0,0,1,.11-.29c0-.06.05-.13.08-.19a2,2,0,0,0,.08-.26.14.14,0,0,1,0-.07.48.48,0,0,1,.05-.17l0,0a1,1,0,0,1,.13-.17l.07-.08s0,0,0,0l0,.05h.06s0-.05,0-.06a.67.67,0,0,1-.06-.12l0,0h0v0a0,0,0,0,0-.05-.05h0a1.14,1.14,0,0,1-.06-.47,4.78,4.78,0,0,1,.07-.65l0-.1a2.74,2.74,0,0,0,0-.81.93.93,0,0,0-.17-.42.92.92,0,0,0-.36-.28l-.15-.06a3,3,0,0,1-.55-.24,1.16,1.16,0,0,1-.51-.46.73.73,0,0,1-.09-.3v0a.32.32,0,0,1,.13,0h.46a.46.46,0,0,0,.37-.13,1,1,0,0,0,.17,0,.3.3,0,0,0,0,.16.82.82,0,0,0,.4.26,1.35,1.35,0,0,0,.35.06h.11l0,0a.32.32,0,0,0,0-.09h.07a.06.06,0,0,0,0-.07l-.07-.08h0a.07.07,0,0,0,0-.05l0-.06a2.31,2.31,0,0,1-.2-.24.08.08,0,0,1,0,0l.08-.09a0,0,0,0,0,0,0h0v0l0,0h0a2.63,2.63,0,0,1,.67-.22,2.69,2.69,0,0,1,.4,0h.27a4.87,4.87,0,0,1,.52.12l.17,0a1.6,1.6,0,0,1,.23.08,1.16,1.16,0,0,0,.45.12h0s0,0,0,0h0a0,0,0,0,0,0-.06l-.09,0,.19.06.08,0a.72.72,0,0,1-.09.2c-.06.08-.12.17-.19.25s0,0-.05.06,0,0,0,0h0v0h0l-.07.09a.06.06,0,0,0,0,.07h0l0,0a.42.42,0,0,0,0,.1s0,0,0,0h.09a1,1,0,0,0,.36-.07.77.77,0,0,0,.39-.26.26.26,0,0,0,.05-.17h0l.09,0s0,0,0,0h0s0,0,0,.06a1.38,1.38,0,0,0,.47.16l.13,0a1.07,1.07,0,0,1,.27.08l.05,0,0,0h0a.15.15,0,0,1,0,.06,1.21,1.21,0,0,1-.2.19,1.26,1.26,0,0,1-.23.13,2.75,2.75,0,0,1-.41.11.51.51,0,0,0-.17,0l-.15,0,.11,0h0l.06,0,.24-.11a.61.61,0,0,0,.27-.22,0,0,0,0,0,0-.05.05.05,0,0,0,0,0h0l-.23,0-.39.09a1,1,0,0,0-.3.18.47.47,0,0,0-.16.35,0,0,0,0,0,0,0l0,0a1,1,0,0,0-.17.29,2.34,2.34,0,0,0-.12.3c-.05.16-.09.33-.13.49a4.37,4.37,0,0,1-.19.67,2.38,2.38,0,0,1-.64,1l-.23.17a.33.33,0,0,1-.21.08.6.6,0,0,1-.39-.26,4.53,4.53,0,0,1-.52-1.06,2.71,2.71,0,0,1-.12-.51,2.71,2.71,0,0,0-.2-.67s0,0,0,0h0s0,0,0,.06a2.59,2.59,0,0,1,.12.64,2.87,2.87,0,0,0,.1.56,4.4,4.4,0,0,0,.5,1.14l0,.07a1.57,1.57,0,0,0,.18.19.63.63,0,0,0,.36.13h0a.69.69,0,0,0,.34-.12l.26-.19a2.73,2.73,0,0,0,.46-.54.69.69,0,0,1,.19.24,2,2,0,0,1,.17.48c0,.07,0,.14,0,.22v0a1.08,1.08,0,0,0,.1.27l0,.07a1.33,1.33,0,0,1,.13.4.38.38,0,0,1,0,.19.28.28,0,0,1-.14.12,1.5,1.5,0,0,1-.33.06l-.16,0-.15,0-.14.06-.16.1-.08.05a.48.48,0,0,1-.19.09H42l-.1,0a1.05,1.05,0,0,1-.28-.17l-.15-.1a1.31,1.31,0,0,0-.55-.21h-.6a2,2,0,0,1-.45,0,.27.27,0,0,1-.16-.08A.23.23,0,0,1,39.65,22.6Zm3.24-1.71-.06,0a0,0,0,0,0,0,0Zm-8.44,5.63a.43.43,0,0,0,.27-.1l-.07.1,0,.06h0s0,0,0,0l0,0a2.7,2.7,0,0,1-.4.25l-.07,0-.13.07A4.44,4.44,0,0,0,34.45,26.52ZM31.8,28.67a.46.46,0,0,1,.16-.14l.18-.06h0a.4.4,0,0,0,.3-.25l0-.1c0-.05,0-.1,0-.11a.35.35,0,0,1,.19-.1l.15,0a1,1,0,0,0,.42-.15,2.13,2.13,0,0,0,.3-.3.58.58,0,0,1,.1-.12,1.39,1.39,0,0,1,.44-.35,1.85,1.85,0,0,0,.37-.25,1.1,1.1,0,0,0-.13.46,1.88,1.88,0,0,0,.08.55,2.33,2.33,0,0,0,1.11,1.37l.28.19h0l0,0a0,0,0,0,0,0-.05h0a3.56,3.56,0,0,0-.31-.26,2.39,2.39,0,0,1-.47-.42,2.43,2.43,0,0,1-.44-.88,1.6,1.6,0,0,1,0-.48.9.9,0,0,1,.15-.41,2.88,2.88,0,0,1,.71-.68,7.51,7.51,0,0,1,.82-.61,3,3,0,0,1,.91-.39,6.82,6.82,0,0,1,.79-.08h.22a2.77,2.77,0,0,0,1-.22.05.05,0,0,0,0-.05s0,0,0,0l.15-.09s0,0,.11-.12a.16.16,0,0,0,.09.1.28.28,0,0,0,.13,0,.23.23,0,0,0,.11,0,.25.25,0,0,0,.12-.13l0-.1a1.46,1.46,0,0,0,0-.36v0a1.48,1.48,0,0,1,.14-.64.7.7,0,0,1,.13-.16c.18,0,.35,0,.51,0a.92.92,0,0,1,.44.18l.13.09a1.36,1.36,0,0,0,.36.2.62.62,0,0,0,.16,0h.17a.77.77,0,0,0,.29-.12l.09-.06.13-.09.1,0,.11,0,.14,0H43a.91.91,0,0,1,.07.14.16.16,0,0,1,0,.09s0,0,0,0l0,0h0a0,0,0,0,0,0,.06,1,1,0,0,1,.09.51c0,.07,0,.15,0,.23a1.86,1.86,0,0,0-.06.34h0a.14.14,0,0,0,0,.1,1.94,1.94,0,0,1-.14.5,3.2,3.2,0,0,1-.3.54,3.87,3.87,0,0,1-.37.48,1.09,1.09,0,0,1-.46.32l-.21,0a.59.59,0,0,1-.31-.07,1.49,1.49,0,0,1-.28-.24c-.06-.05-.11-.11-.18-.16L40.65,26a2.5,2.5,0,0,1-.29-.27A1.64,1.64,0,0,1,40,25.2a0,0,0,0,0-.05,0h0a0,0,0,0,0,0,.06,1.41,1.41,0,0,0,.27.61l.29.31.16.15.12.13a1.74,1.74,0,0,0,.37.34.85.85,0,0,0,.37.11h.26l.1,0a1.32,1.32,0,0,0,.59-.4,2.46,2.46,0,0,0,.25-.34l.06-.1a1.43,1.43,0,0,0,.06.45s0,0,0,0h0a.88.88,0,0,0,.1.36v0A.91.91,0,0,1,43,27l.09.18a.69.69,0,0,1,0,.13l0,.07a1.88,1.88,0,0,1,.06.53,2.53,2.53,0,0,1-.12.72A3.3,3.3,0,0,1,43,29a3.4,3.4,0,0,0-.12.34,2.24,2.24,0,0,0-.1.39l0,.21c0,.06,0,.11,0,.17,0,.22-.09.46-.16.73,0,.11-.07.22-.1.33a8.82,8.82,0,0,0-.3,1.15,6.91,6.91,0,0,0-.11.76,2.68,2.68,0,0,0,0,.8,1.4,1.4,0,0,0,.1.39,1.74,1.74,0,0,1,.12.34,3.59,3.59,0,0,1,0,.73v.07c0,.22,0,.46,0,.68s0,.2,0,.3,0,.31-.05.46v.19c0,.06,0,.13,0,.19v.07a1.22,1.22,0,0,0,0,.33h0a.24.24,0,0,0,0,.09.56.56,0,0,0,0,.12c0,.06.09.11.13.16a.37.37,0,0,1,.13.27h-.1a1.92,1.92,0,0,0-1.06.33h0a.22.22,0,0,1-.05-.14v0a1.5,1.5,0,0,1,0-.22h0a.22.22,0,0,0,0-.08.28.28,0,0,0,0-.09s0-.07,0-.11a1.1,1.1,0,0,0,0-.26v0a3.59,3.59,0,0,0-.12-.47l0-.08L41,36.56v0a5.28,5.28,0,0,1-.23-1,5,5,0,0,1,0-1v-.07a4.91,4.91,0,0,0,0-1.14c0-.1,0-.21-.05-.31,0-.27-.09-.52-.11-.77a2.25,2.25,0,0,1,0-.53c0-.13,0-.26.07-.39l0-.15a3.63,3.63,0,0,0,.09-.56A1,1,0,0,0,40.7,30l0,0h0s0,0,0,0a.31.31,0,0,0-.12-.2h0l-.08,0a.23.23,0,0,0-.11,0,.6.6,0,0,0,.06-.11h0l.1-.15a3.62,3.62,0,0,1,.27-.41s0,0,0-.06a.05.05,0,0,0,0,0h0a1.83,1.83,0,0,0-.49.47l0,0a2,2,0,0,1-.45.43,2.65,2.65,0,0,1-1.21.43,0,0,0,0,0-.05,0,.07.07,0,0,0,0,0h0a.7.7,0,0,0,.14,0,.71.71,0,0,1-.21,0h0c-.13,0-.09-.08-.19,0,.11-.26.22-.51.32-.76l.09-.22a0,0,0,0,0,0-.06h0a.05.05,0,0,0-.05,0c-.12.23-.24.48-.36.7l-.21.42h0c-.18.37-.38.75-.58,1.11l-.31.54a1.45,1.45,0,0,0-.19.45.14.14,0,0,0,0,.07l0,.09v0l-.06.12a.67.67,0,0,0-.06.15.89.89,0,0,0-.08.34,1.51,1.51,0,0,0,0,.3c0,.11,0,.22,0,.33a5.24,5.24,0,0,1-.3,1.18,5.09,5.09,0,0,0-.38,1.22l-.09.63c0,.1,0,.2,0,.3s0,.22,0,.33a1.33,1.33,0,0,0,0,.34.37.37,0,0,0,.08.17.71.71,0,0,0,.13.12c.14.08.17.22.22.38l0,.14h0a2.34,2.34,0,0,0-.31.24,1.67,1.67,0,0,0-.34.45h0l0,0h0a.43.43,0,0,1,0,.07l-.07,0a.2.2,0,0,1-.11,0,.41.41,0,0,0,0-.09l0,0,0-.06a.07.07,0,0,0-.06,0h0a.07.07,0,0,1-.06,0l-.06,0a.38.38,0,0,1-.06-.18,0,0,0,0,0,0,0,.08.08,0,0,0-.07,0h0a.13.13,0,0,1-.08,0h0a.35.35,0,0,1-.08-.11,1.58,1.58,0,0,1-.06-.35c0-.13,0-.26,0-.37a1.23,1.23,0,0,1,.09-.34,1.07,1.07,0,0,1,.07-.19,2.52,2.52,0,0,0,.17-.57c0-.23,0-.46,0-.68V36.5a10,10,0,0,1,.4-2.88,2.31,2.31,0,0,1,.1-.28c.06-.22.13-.43.19-.66,0,0,0,0,0-.06a4.48,4.48,0,0,0,.11-.5,4.64,4.64,0,0,0,.07-.64v-.14c0-.31.05-.54.08-.75s.09-.54.13-.75.11-.33.17-.49a.25.25,0,0,0,0-.07l.06-.16.28-.72,0,0a2.75,2.75,0,0,0,.21-.69s0-.05,0-.05h0s0,0,0,0a3.1,3.1,0,0,1-.23.6l0,.11-.31.7c0,.06-.06.13-.08.2l0,.12c-.05.13-.11.27-.15.41s-.13.53-.17.77-.07.47-.1.77v.12l-.09,0a.46.46,0,0,1-.24-.08,1.66,1.66,0,0,1-.38-.37.69.69,0,0,1-.11-.13,3.58,3.58,0,0,0-.27-.29.74.74,0,0,0-.27-.19,1.8,1.8,0,0,0-.28-.09l-.18,0-.35-.1a1.86,1.86,0,0,1-.43-.28l-.44-.35,0,0a4,4,0,0,1-.4-.32,1,1,0,0,1-.28-.37A.18.18,0,0,1,31.8,28.67ZM30,31.7a7.92,7.92,0,0,1,.39-1c0-.08.05-.29.09-.43v0a.12.12,0,0,1,.05-.08.11.11,0,0,1,.14,0h0a.62.62,0,0,0,.27.33,2.28,2.28,0,0,0,.68.23l.1,0a2,2,0,0,1,.44.12l0,0a.48.48,0,0,1,0,.17h0s0,0,0,0l0,0a.7.7,0,0,1-.14.21l-.08.1a.76.76,0,0,0-.11.24.5.5,0,0,0,0,.27A.14.14,0,0,0,32,32a.44.44,0,0,0,.37-.23.76.76,0,0,0,.11-.34,1.29,1.29,0,0,0,0-.34,1.17,1.17,0,0,0,0-.2l.06,0a4,4,0,0,1,.43.29l.14.1,0,0a4.81,4.81,0,0,0,.6.4h0l.09,0,.53.25h0l.08,0a3.11,3.11,0,0,1,0,.43v.13a1.48,1.48,0,0,1,0,.21.5.5,0,0,1,0,.22h0a.32.32,0,0,1,0-.15l0-.22a2.2,2.2,0,0,0,0-.36.1.1,0,0,0,0,0h0a.08.08,0,0,0,0,0,1.42,1.42,0,0,1-.08.18,2.32,2.32,0,0,0-.13.37.9.9,0,0,0,0,.18.38.38,0,0,0,.1.22l.06.05h0l.11,0h0a.29.29,0,0,0,.23-.15.67.67,0,0,0,.07-.35,1.45,1.45,0,0,0,0-.32,1.6,1.6,0,0,0-.11-.4,5.65,5.65,0,0,1,.6.31h.07a0,0,0,0,0,0,0s0,0,0,0a4.27,4.27,0,0,0-.66-.45l-.22-.12-.46-.25a5.24,5.24,0,0,1-.61-.44,5.68,5.68,0,0,0-.67-.47,2.33,2.33,0,0,0-.78-.27,2.75,2.75,0,0,1-.71-.19.34.34,0,0,1-.19-.21.43.43,0,0,1,.1-.28l.1-.12a1.33,1.33,0,0,0,.14-.19.5.5,0,0,0,.09-.42,0,0,0,0,0,0,0h0s0-.05,0-.07a.48.48,0,0,1,.22-.3.42.42,0,0,0,0,.12.76.76,0,0,0,0,.15,1.36,1.36,0,0,0,.37.52c.11.1.24.19.35.28l.1.07.44.35a2.31,2.31,0,0,0,.51.31,2.66,2.66,0,0,0,.47.11l.1,0a1,1,0,0,1,.45.19,3.38,3.38,0,0,1,.26.27l.12.13a1.84,1.84,0,0,0,.46.36.56.56,0,0,0,.27.08h.11a4,4,0,0,1-.06.5c0,.14-.06.29-.1.43a.19.19,0,0,0,0,.08l-.21.67c0,.1-.07.19-.1.28-.07.25-.15.5-.21.76a6.76,6.76,0,0,0-.11.77c-.05.52-.06,1-.08,1.55,0,.11,0,.21,0,.31s0,.31,0,.46a2.8,2.8,0,0,1-.14.51c0,.07-.05.13-.07.19a2.27,2.27,0,0,0-.08.41,1.88,1.88,0,0,0,0,.4,1.18,1.18,0,0,0,.1.4.4.4,0,0,0,.16.19l.11,0h.06a.49.49,0,0,0,.09.15.21.21,0,0,0,.16.08l.08,0,0,0s0,0,0,0a.15.15,0,0,1,0,.07.05.05,0,0,0,.06.06h0a.39.39,0,0,0,.2,0l0,0a1.74,1.74,0,0,0-.13.72,1.86,1.86,0,0,0,.37,1.09h-.06a1.77,1.77,0,0,0-.37,0h-.5a1.68,1.68,0,0,0-.38.12,1.26,1.26,0,0,1-.27,0h0a2.34,2.34,0,0,1-.75-.17L33,41.41l-.36-.15-.2-.08-.19-.07-.05,0v0s0-.12,0-.17a7,7,0,0,0,.09-.84c0-.46,0-1.07,0-1.69a12.27,12.27,0,0,0-.2-1.68A7.49,7.49,0,0,0,31.6,35s0-.11-.07-.17-.17-.39-.24-.59a2.08,2.08,0,0,1-.08-.39l0-.28a.71.71,0,0,0,0-.14,4.49,4.49,0,0,1,0-.82,1.49,1.49,0,0,1,.1-.39.59.59,0,0,0,0-.45.09.09,0,0,0-.05,0h0a0,0,0,0,0,0,.06.5.5,0,0,1-.06.37,2.12,2.12,0,0,0-.13.41,6.12,6.12,0,0,0,0,.85v.07c0,.12,0,.24,0,.36a1.74,1.74,0,0,0,.09.43,6.5,6.5,0,0,0,.22.62.87.87,0,0,0,.07.17,8.36,8.36,0,0,1,.41,1.6A10.55,10.55,0,0,1,32,38.37c0,.49,0,1,0,1.67,0,.07,0,.13,0,.2v0h0s0,0,0-.06l-.1,0a9,9,0,0,1-1-.66l-.54-.4a.48.48,0,0,1-.21-.48,3.28,3.28,0,0,1,.08-.41,1.8,1.8,0,0,0,.06-.22,4.88,4.88,0,0,0,.09-.62v-.07a12,12,0,0,0,0-1.36c0-.45-.07-.91-.1-1.34s-.08-.9-.1-1.34A5.46,5.46,0,0,1,30.17,32a2.07,2.07,0,0,1,.21-.57,2.38,2.38,0,0,0,.22-.7s0-.05,0-.05h0s0,0,0,0a2.62,2.62,0,0,1-.26.63,2.84,2.84,0,0,0-.23.5A.5.5,0,0,1,30,31.7Z"/><path class="cls-1" d="M40.32,18.19v-.05a.08.08,0,0,0-.06-.09h0L39.91,18c-.14,0-.26,0-.39-.09a1.71,1.71,0,0,1-.65-.28h0s0,0,0,0a0,0,0,0,0,0,.06.66.66,0,0,0,.26.32,1.27,1.27,0,0,0,.37.18,2.57,2.57,0,0,0,.4.07h.34l0,0,0,0s0,0,0,0l0,0h0a.05.05,0,0,0,0,0Z"/><path class="cls-1" d="M41.45,20.79a.6.6,0,0,0,.24.16h.06a.12.12,0,0,0,.09,0l.13-.15a.84.84,0,0,0,.08-.19h0c0-.07,0-.12-.07-.13h0a.8.8,0,0,0-.15,0h0l-.11-.05h-.2a.09.09,0,0,0-.09.08h0a.36.36,0,0,0,0,.18A.4.4,0,0,0,41.45,20.79Zm.21-.23h.13a.18.18,0,0,1-.07.08s0,0-.06-.05l0,0S41.65,20.56,41.66,20.56Z"/><path class="cls-1" d="M40.52,18.67h.06l.08,0h0a.59.59,0,0,1,.14.06l0,0h0s0,0,0,0A.22.22,0,0,0,41,19h.06a.33.33,0,0,0,.15,0,.09.09,0,0,0,.06-.1h0a.33.33,0,0,0-.15-.26.69.69,0,0,0-.2-.09h-.22a.22.22,0,0,0-.21.14,0,0,0,0,0,0,0S40.51,18.67,40.52,18.67Z"/><path class="cls-1" d="M42.42,19.06h0a.26.26,0,0,0,.25-.17,0,0,0,0,0,0,0,.06.06,0,0,0,0-.05h0l.2-.06a.05.05,0,0,0,0-.05.05.05,0,0,0,0,0,.58.58,0,0,0-.25-.09h-.09a.39.39,0,0,0-.25.1h0a.27.27,0,0,0-.07.19.2.2,0,0,0,.07.15A.15.15,0,0,0,42.42,19.06Z"/><path class="cls-1" d="M42.08,22.4h.2a1.69,1.69,0,0,0,.34-.08l.26-.11,0,0h0l.07,0s0,0,0,0,0,0,0,0h0a.05.05,0,0,0,0,0,.27.27,0,0,0,0-.11.21.21,0,0,0-.1-.13.34.34,0,0,0-.14,0h-.08a1.4,1.4,0,0,0-.31.09h0l-.3.12h0a.53.53,0,0,1-.17,0h-.08l0,0a0,0,0,0,0,0,.05A.27.27,0,0,0,42.08,22.4Z"/><path class="cls-1" d="M40.13,22.15h.08a.71.71,0,0,1,.38.09,2,2,0,0,1,.26.24l.11.11a1.57,1.57,0,0,0,.46.34.92.92,0,0,0,.44.1H42s0,0,0,0a.07.07,0,0,0,0-.06,1.53,1.53,0,0,1-.46-.2,3.88,3.88,0,0,1-.38-.34l-.07-.06a1.24,1.24,0,0,0-.38-.29.68.68,0,0,0-.27-.07h0a.71.71,0,0,0-.28.09.06.06,0,0,0,0,.06.09.09,0,0,0,.05,0Z"/><path class="cls-1" d="M40.4,21.26h0l.07,0h0l.05,0h0l0,0,0,0a.37.37,0,0,0,.13.11.27.27,0,0,0,.28,0,.08.08,0,0,0,0,0s0,0,0,0a.38.38,0,0,1-.11-.11l0,0a.92.92,0,0,0-.11-.14.36.36,0,0,0-.12-.08h-.15a.2.2,0,0,0-.11,0,.33.33,0,0,0-.06.08h0l0,0a0,0,0,0,0,0,.05h0A.12.12,0,0,0,40.4,21.26Z"/><path class="cls-1" d="M41,24.19l.12,0h0l0,0s0,0,0,0a.05.05,0,0,0,0,0,.34.34,0,0,0,.16,0h0a.21.21,0,0,0,.12-.07.36.36,0,0,0,.07-.1.14.14,0,0,0,0-.18h0L41.3,24h-.15a.49.49,0,0,0-.3.09s0,0,0,0,0,0,0,0Z"/><path class="cls-1" d="M42.46,24.47a.37.37,0,0,0,.15.05h0s0,0,0,0a.09.09,0,0,0,0-.05s0,0,0-.06v0h0l.09,0,.1,0s0,0,0,0a0,0,0,0,0,0,0,.28.28,0,0,0-.21-.17h-.06a.29.29,0,0,0-.22.1l0,0a.12.12,0,0,0,0,.16Z"/><path class="cls-1" d="M42,25.46h.06v0h0a.11.11,0,0,0,.08,0v0a1.1,1.1,0,0,0,.05-.38l0-.17v0a1.13,1.13,0,0,0,0-.15s0,0,0,0h0c0,.05,0,.08,0,.16s0,.17,0,.23-.11.2-.08.31l0,.05h0a.13.13,0,0,0,0,.06l0,0Z"/><path class="cls-1" d="M41.47,25.75s0,0,0,0,0,0,0,0l.09,0,.11,0,.11,0,0,0h-.06s0,0,0,0a.14.14,0,0,0,0,.16.16.16,0,0,0,.14.07h0a.22.22,0,0,0,.13-.08A.19.19,0,0,0,42,26s0,0,0,0l-.1,0H42l.21,0a.32.32,0,0,0,.23-.14s0,0,0,0a0,0,0,0,0,0,0h0l-.12,0h-.08a1.52,1.52,0,0,0-.21,0h0a.65.65,0,0,0-.19,0l-.11,0h0A.15.15,0,0,0,41.47,25.75Z"/><path class="cls-1" d="M40.83,28.13A.64.64,0,0,0,41.2,28a.78.78,0,0,0,.22-.3,1.42,1.42,0,0,0,.08-.18l0-.12a1.83,1.83,0,0,1,.16-.26.06.06,0,0,0,0-.06l0,0h0a.57.57,0,0,0-.33.21,2.63,2.63,0,0,0-.16.26l0,0a1.34,1.34,0,0,1-.14.26,2.29,2.29,0,0,1-.21.23,0,0,0,0,0,0,.05s0,0,0,0Z"/><path class="cls-1" d="M40.51,29.64s0,.05,0,.06a.05.05,0,0,0,0,0h0l.07,0a2.13,2.13,0,0,0,1-.74,1.85,1.85,0,0,0,.17-.29c0-.1.07-.2.1-.29l0-.06a1.07,1.07,0,0,1,.26-.44,0,0,0,0,0,0-.06s0,0,0,0h0a.94.94,0,0,0-.45.49l-.09.16a2.08,2.08,0,0,1-.2.36,4.61,4.61,0,0,1-.82.83Z"/><path class="cls-1" d="M37.39,26.24a1.73,1.73,0,0,1,.54-.11h0a1,1,0,0,1,.5.16,1.22,1.22,0,0,1,.35.39,1.93,1.93,0,0,1,.19.5s0,0,0,0h0s.05,0,.05,0a1.05,1.05,0,0,0-.45-1.13,1.11,1.11,0,0,0-.59-.18H38a1,1,0,0,0-.62.28s0,0,0,.06l0,0Z"/><path class="cls-1" d="M33.79,29.83a1,1,0,0,0-.25,0,.07.07,0,0,0,0,.06s0,0,0,0a1.49,1.49,0,0,1,.49.16,2,2,0,0,1,.43.3l.29.26a4.35,4.35,0,0,0,.56.47h0l0,0s0,0,0-.06a4.21,4.21,0,0,0-.72-.88,1.7,1.7,0,0,0-.52-.31A1.07,1.07,0,0,0,33.79,29.83Z"/><path class="cls-1" d="M33,29a1.33,1.33,0,0,0,.65.28h0l0,0a.07.07,0,0,0,0-.06,3.54,3.54,0,0,0-.43-.37l-.09-.06a3.11,3.11,0,0,1-.25-.2h0c-.07-.07-.11-.12-.09-.2a0,0,0,0,0,0-.05h-.06a.2.2,0,0,0-.09.22.44.44,0,0,0,.07.2A1,1,0,0,0,33,29Z"/><path class="cls-1" d="M33.81,28.45a1.93,1.93,0,0,0,.29.24.62.62,0,0,0,.31.08h.08s0,0,0,0,0-.05,0-.05a1.69,1.69,0,0,1-.25-.2L34,28.26l-.2-.25a2.61,2.61,0,0,1-.19-.27,0,0,0,0,0,0,0h0s0,0,0,0a.64.64,0,0,0,.06.37A1.4,1.4,0,0,0,33.81,28.45Z"/><path class="cls-1" d="M30.87,35.79a1.41,1.41,0,0,1,0,.22c0,.15,0,.31,0,.45,0,.3,0,.6,0,.92v.29a13.49,13.49,0,0,0,0,1.55s0,0,.05,0h0a.07.07,0,0,0,.05,0,15.18,15.18,0,0,0,.15-1.84,7.88,7.88,0,0,0,0-.93,4.47,4.47,0,0,0-.07-.47c0-.09,0-.15-.06-.23v0a.35.35,0,0,0-.1-.19l0,0,0,0s0,0,0,.06a.23.23,0,0,1,0,.14A.13.13,0,0,1,30.87,35.79Z"/><path class="cls-1" d="M33.76,43.81h0a3,3,0,0,1-.55.08h0l-.22,0a1.29,1.29,0,0,1-.26-.08h0a0,0,0,0,0,0,0,.29.29,0,0,0,.12.15l0,0,.09.07a.74.74,0,0,0,.32.07.88.88,0,0,0,.32-.07.34.34,0,0,0,.12-.09.43.43,0,0,0,.12-.11h0a0,0,0,0,0,0,0Z"/><path class="cls-1" d="M40.67,43.41h0a2.07,2.07,0,0,1-.33.1,1.07,1.07,0,0,1-.25,0H40a2.21,2.21,0,0,1-.35,0,2,2,0,0,0-.36,0h0s0,0,0,0a.42.42,0,0,0,.14.09l.19.1a1.3,1.3,0,0,0,.39.09h0l.17,0,.07,0h0l.08,0a.69.69,0,0,0,.2-.13l.1-.12a0,0,0,0,0,0,0Z"/><path class="cls-1" d="M38.48,40.57a.21.21,0,0,0-.15-.07h0a.3.3,0,0,0-.15.07h0c-.07.08-.13.14-.18.21l-.09.11a.82.82,0,0,1-.56.34h0a.2.2,0,0,1-.08,0L37,41.1l0,0a2.29,2.29,0,0,0-.31-.16,2.89,2.89,0,0,0-.39-.15h-.1a.25.25,0,0,0-.15.05.33.33,0,0,0,0,.25.07.07,0,0,0,0,0h0a2.18,2.18,0,0,0,.42.53,1.23,1.23,0,0,0,.77.29h0a1.59,1.59,0,0,0,.81-.27,1.32,1.32,0,0,0,.33-.29.74.74,0,0,0,.16-.46.86.86,0,0,0,0-.24A.22.22,0,0,0,38.48,40.57Z"/><path class="cls-1" d="M42.25,40.55l-.31-.16a1.5,1.5,0,0,0-.38-.15h-.1a.2.2,0,0,0-.15.06.24.24,0,0,0,0,.24.07.07,0,0,0,0,0h0a2,2,0,0,0,.42.53,1.21,1.21,0,0,0,.77.29h0a1.64,1.64,0,0,0,.8-.26,1.24,1.24,0,0,0,.34-.3.71.71,0,0,0,.16-.45.74.74,0,0,0,0-.24.2.2,0,0,0-.06-.09.18.18,0,0,0-.14-.06h0a.24.24,0,0,0-.16.06h0a1.56,1.56,0,0,0-.18.21l-.09.11a.79.79,0,0,1-.57.34h-.05l-.08,0-.17-.1Z"/><path class="cls-1" d="M33.43,33.16a.44.44,0,0,0,.15.05h.12a.41.41,0,0,0,.22-.09.36.36,0,0,0,.13-.23.54.54,0,0,0,0-.22,1.48,1.48,0,0,0-.13-.35,2.09,2.09,0,0,0-.27-.43h0l-.11-.15a.05.05,0,0,0,0,0h0a0,0,0,0,0,0,.05,2.49,2.49,0,0,0,.11.29.69.69,0,0,0-.21.31,1.31,1.31,0,0,0-.08.36.7.7,0,0,0,0,.21A.38.38,0,0,0,33.43,33.16Zm.12-.74a1.14,1.14,0,0,1,.06-.25,1.36,1.36,0,0,1,.09.23,1.67,1.67,0,0,1,.08.3.22.22,0,0,1,0,.18.21.21,0,0,1-.13,0h0a.25.25,0,0,1-.06-.19A1.13,1.13,0,0,1,33.55,32.42Z"/><path class="cls-1" d="M32.53,32.57a.41.41,0,0,0,.06.11.27.27,0,0,0,.17.07h0a.27.27,0,0,0,.2-.14l0,0a1.42,1.42,0,0,0,.08-.18,1.05,1.05,0,0,0,.06-.33.9.9,0,0,0-.12-.55l-.06-.1h-.07s0,0,0,0h0a0,0,0,0,0,0,0h0s0,0,0,0a1,1,0,0,1-.13.4l-.08.16a.86.86,0,0,0-.08.35.45.45,0,0,0,0,.11A.36.36,0,0,0,32.53,32.57Zm.26-.46a.41.41,0,0,0,0-.08,1,1,0,0,0,.06-.52,1,1,0,0,1,0,.54c0,.08,0,.18-.07.27l0,.09h0l0,0A1.32,1.32,0,0,1,32.79,32.11Z"/><path class="cls-1" d="M27.91,61.7c.13.11.26.16.37.25a.6.6,0,0,1,.12.11,2.48,2.48,0,0,1,.33.51,2.29,2.29,0,0,1,.32,1.07l.26-.08h.07a.85.85,0,0,1,.17.06,2.11,2.11,0,0,0,.35.05.51.51,0,0,0,.2,0c0-.34.4-.34.5-.6s-.27-.32-.28-.58.56-.41.47-.7-.52-.16-.38-.48.4-.24.28-.46-.43-.14-.49-.31.24-.38.29-.56-.11-.28-.31-.38c-.69-.36.35-.53-.13-.89-.13-.1-.51-.16-.37-.34s.4,0,.42-.28c-.46-.22-1.09-1-1.64-.92a.63.63,0,0,0-.5.33,4.84,4.84,0,0,0-.33.46.7.7,0,0,0-.06.17,3,3,0,0,1,0,.52,1.14,1.14,0,0,0-.14.49,1,1,0,0,1,0,.45c-.05.17-.22.43-.2.62s.23.37.28.53C27.55,61.09,27.55,61.41,27.91,61.7Z"/><path class="cls-1" d="M23.92,60.26a1.75,1.75,0,0,1,.41.14.71.71,0,0,1,.32.39h-.23a.78.78,0,0,0-.66.1.44.44,0,0,0-.14.37c0,.28.29.49.52.65l.11.08.12.09c.63.48.78.7.81.79h-.07a.51.51,0,0,0-.43.09.49.49,0,0,0-.14.38c0,.33.25.49.44.61a.92.92,0,0,1,.2.16.5.5,0,0,1,.07.11s0,.06-.06.09l-.1.14a.55.55,0,0,0,0,.68.57.57,0,0,1,.09.24.24.24,0,0,0,.24.2h0a.24.24,0,0,0,.21-.27,1,1,0,0,0-.15-.41.88.88,0,0,1-.05-.1.12.12,0,0,1,0-.06.53.53,0,0,1,.09-.11.57.57,0,0,0,0-.8,1.49,1.49,0,0,0-.34-.28c-.13-.08-.22-.14-.22-.19h.05a.55.55,0,0,0,.47-.12.47.47,0,0,0,.14-.35c0-.36-.43-.73-1-1.19l-.1-.07a.85.85,0,0,0-.14-.1,3.21,3.21,0,0,1-.32-.27,1,1,0,0,1,.25,0h.12c.46,0,.61-.17.65-.31.11-.33-.19-.76-.54-1a2.38,2.38,0,0,0-.52-.19c-.26-.07-.65-.18-.69-.34a.26.26,0,0,0-.29-.19.24.24,0,0,0-.18.29C23,60,23.51,60.14,23.92,60.26Z"/><path class="cls-1" d="M23.12,62.1a1.27,1.27,0,0,0-1.12.46.24.24,0,0,0,.06.34.24.24,0,0,0,.34-.06.79.79,0,0,1,.69-.25.74.74,0,0,1,.6.29.4.4,0,0,1,0,.13.63.63,0,0,1-.27,0,.61.61,0,0,1-.37-.22.24.24,0,0,0-.43.23,1.16,1.16,0,0,0,.93.49h.05a.57.57,0,0,0,.51-.23.6.6,0,0,0,0-.61A1.19,1.19,0,0,0,23.12,62.1Z"/><path class="cls-1" d="M11,72.4a15.27,15.27,0,0,0,2.64,4.86c.49.57.83.78,1.28.78a2.79,2.79,0,0,0,.65-.1l.42-.08a1.88,1.88,0,0,1,.34,0,7.45,7.45,0,0,1,3.75,1.42,5.82,5.82,0,0,1,1.13,1.39,3.71,3.71,0,0,0,2,1.86,2,2,0,0,0,.54.07c1.07,0,1.62-.84,2.11-1.58.1-.16.21-.32.32-.47s.21-.29.3-.43a10.83,10.83,0,0,0,1.52-2.49l.19-.46a9.27,9.27,0,0,1,1.22-2.41A4.81,4.81,0,0,0,30,73.48a3.42,3.42,0,0,1,.57-1.23,1.67,1.67,0,0,1,.8-.42,3,3,0,0,0,1-.45,4.8,4.8,0,0,0,1.27-3,2.19,2.19,0,0,0-.49-1.77l0,0a1.09,1.09,0,0,1-.3-.41s0-.3-.06-.46,0-.37,0-.45a1.87,1.87,0,0,1,.18-1.14l0-.13a8.5,8.5,0,0,0,.57-2.65,8.41,8.41,0,0,0,1.37.1,4.51,4.51,0,0,0,3.31-1.09,1.15,1.15,0,0,0,.47-.76c0-.29-.22-.5-.52-.78l-.09-.09a10.35,10.35,0,0,0-1.15-1,10.48,10.48,0,0,0-5.8-1.87,6,6,0,0,1-2.16-.59,6.3,6.3,0,0,0-2.55-.64,4.44,4.44,0,0,0-.63,0,17.57,17.57,0,0,0-3.16.69l-.38.14a1.55,1.55,0,0,1-1.54,0,2.36,2.36,0,0,0-.8-.13,5.48,5.48,0,0,0-2.23.67c-.24.11-.45.21-.67.29a5.53,5.53,0,0,1-1.15.29,3.35,3.35,0,0,0-2.24,1,5.51,5.51,0,0,0-.9,2,8.46,8.46,0,0,1-.46,1.26,12.59,12.59,0,0,1-.94,1.43,8.31,8.31,0,0,0-1.2,2c-.94,2.55-.09,5,.74,7.43C10.89,72,11,72.2,11,72.4Zm17.33,2.31a22.16,22.16,0,0,1-1.12,2.08c-.83,1.1-3,1.87-4.21,1.12-.73-.44-.59-1.26-1-1.94s-1-1-1.15-1.94,0-1.43-.74-2-1.37-.65-1.69-1.52c-.44-1.18.16-2.06.68-3.1A1.24,1.24,0,0,0,19,65.74c-.22-.23-.86-.57-.86-.94s.34-.18.56,0a17.89,17.89,0,0,1,1.38,1.51c.75.78,2.26,1.86,3,2.66.49.55-.17.92.51,1.53s1,.11,1.43.41a7.93,7.93,0,0,0,2.14,1.2c.49.12,1.33-.12,1.73.26S28.65,74.2,28.35,74.71ZM24.12,68a.19.19,0,0,1,0,.27.16.16,0,0,1-.15.09.21.21,0,0,1-.11,0c-4.32-3.08-4-4.85-4-4.92a.2.2,0,0,1,.23-.15.19.19,0,0,1,.15.22S20.08,65.13,24.12,68Zm.23,1,.08,0c.51.09.49,1.29-.24,1.06a.58.58,0,0,1-.39-.7A.49.49,0,0,1,24,69C24.12,69,24.25,69,24.35,69Zm4.49,2.18C27,71.07,27,70.58,27,70.58a5.09,5.09,0,0,1,4.61-.24A3.54,3.54,0,0,1,28.84,71.19ZM32.12,70c-4.26-1.26-5.57.51-6,.73s-.86-.35-.86-.35a1.31,1.31,0,0,0-.16-2c2-3.92,6.62-2.69,6.62-2.69a5,5,0,0,0,.29,1C33.56,68.11,32.12,70,32.12,70Zm4-9.34a6.56,6.56,0,0,1-1.34.09c-.36,0-1.83-.11-1.69-.31a2.34,2.34,0,0,0,.12-1.32c.36.42.43,0,.8,0a2.53,2.53,0,0,1,1.72.41C36.61,59.81,37.53,60.49,36.15,60.69Zm0-2.74.35.23a2.74,2.74,0,0,1,1.15,1.5A8.27,8.27,0,0,0,34,58.54a1.77,1.77,0,0,0-.83.16.91.91,0,0,1-.36-.87,1.87,1.87,0,0,0-.31-1A10.1,10.1,0,0,1,36.13,58ZM21.47,57c.17-.68,2.19-.87,2.83-1a7.81,7.81,0,0,1,3.26-.19c1,.19,2,.55,2.9.82.42.12,1.09.13,1.43.49s.25,1,.52,1.45.71.52.54,1.2c-.06.23-.24.37-.29.64a6.57,6.57,0,0,0,0,.78,10.11,10.11,0,0,1-.57,3.09c-.36.66-1.42.32-2.74.23a4.69,4.69,0,0,0-2.72,1,5.54,5.54,0,0,0-1.3,1c-.35.35-.66.81-1.17.69s-.84-.67-1.17-.92-.76-.54-1.1-.85a2.7,2.7,0,0,1-.8-1.15c-.12-.36,0-2.1-.32-2.13-.85-.06-.72.26-1.23.38a2.73,2.73,0,0,1-1.43-.35c-1.42-.64-.21-1.65.58-1.93a1.84,1.84,0,0,1,1.57,0c.36.12.94.48,1.24.17s-.25-.67-.25-.67c.14-.41.9-.31,1.19-.61C23.32,58.22,21.19,58.1,21.47,57Zm-5.71,3.21a6.42,6.42,0,0,1,4.06-3.47l.19,0c1,0,1.29,1.62,1.36,2.06-3.36,0-5.4,2.85-5.86,3.55A2.77,2.77,0,0,1,15.76,60.22Z"/><path class="cls-1" d="M28.32,67.64a.7.7,0,0,0-.76.17.24.24,0,0,0,0,.34.25.25,0,0,0,.35,0,.2.2,0,0,1,.23-.07.16.16,0,0,1,.11.17.46.46,0,0,1-.08.16.24.24,0,0,0-.41.18.42.42,0,0,0,.19.37.3.3,0,0,0,.15,0,.4.4,0,0,0,.22-.07.92.92,0,0,0,.41-.69A.66.66,0,0,0,28.32,67.64Z"/><path class="cls-1" d="M26,72.81c-.37,0-.76.18-1-.25s-.27-.64-.73-.41-.71.07-1-.26a4.29,4.29,0,0,1-.68-.92c-.08-.16-.48-1-.71-.56l.12-.07c-.57.42-.45,1.27-.21,1.84a9,9,0,0,0,.45,1c.1.17.25.29.34.46s.14.41.24.58c.19.32.25,0,.48.1s.19.34.38.4.26-.17.5-.14.35.29.44.44.19.77.56.92.29-.12.47-.14.22.32.45.29c.41,0,.42-.77.46-1a4.41,4.41,0,0,0,0-1.31C26.46,73.43,26.41,72.86,26,72.81Z"/><path class="cls-1" d="M31.26,67.69a.66.66,0,0,0-.4.63,1,1,0,0,0,.37.71.41.41,0,0,0,.18,0,.28.28,0,0,0,.15,0,.42.42,0,0,0,.18-.37.25.25,0,0,0-.24-.25.24.24,0,0,0-.12,0,.21.21,0,0,1,0-.12c0-.11.05-.17.08-.18a.18.18,0,0,1,.1.06.24.24,0,1,0,.37-.31A.59.59,0,0,0,31.26,67.69Z"/><path class="cls-1" d="M109.37,45.28c-.05-2.05-.61-3-3.55-3s-3.55,1.11-3.55,4V52.5c0,2.81.23,3.91,3.55,3.91s3.55-.67,3.55-3.48V50.51h-3.46v-2h5.67v4.4c0,3.44-.42,5.53-5.76,5.53-4.89,0-5.76-2.09-5.76-6V46.3c0-3.89.87-6,5.76-6,4.65,0,5.6,1.47,5.69,5Z"/><path class="cls-1" d="M113,53.37V49.52c0-3.57,1.94-4.88,5.05-4.88s5,1.31,5,4.88v3.85c0,3.66-1.47,5.14-5,5.14S113,57,113,53.37Zm7.9,0V49.52c0-2.44-1-2.92-2.85-2.92s-2.86.48-2.86,2.92v3.85c0,2.44.9,3.23,2.86,3.23S120.89,55.81,120.89,53.37Z"/><path class="cls-1" d="M134.55,53.37c0,3.66-1.41,5.14-5.05,5.14s-5-1.48-5-5.14V40.15h2.21V46a3.72,3.72,0,0,1,3.19-1.36c3.38,0,4.7,1.84,4.7,5.19Zm-7.91,0c0,2.44,1,3,2.86,3s2.86-.6,2.86-3V49.89c0-2.51-.9-3.13-2.86-3.13-1.61,0-2.81.6-2.84,3Z"/><path class="cls-1" d="M138.58,41.71a1.32,1.32,0,0,1-2.64,0A1.32,1.32,0,0,1,138.58,41.71Zm-2.44,16.57V44.89h2.19V58.28Z"/><path class="cls-1" d="M149.82,54.36c0,2.61-1.42,4.06-4.93,4.06s-5-1.32-5-4.93V49.55c0-3.53,1.91-4.82,5-4.82s5,1.31,5,4.82v2.87h-7.79v1c0,2.4.88,3,2.81,3s2.81-.65,2.81-2Zm-7.74-3.85h5.69v-1c0-2.38-1.15-2.89-2.88-2.89s-2.81.49-2.81,2.89Z"/><path class="cls-1" d="M157.32,47c-2.12-.35-3.78.53-3.78,2.6V58.3h-2.19V44.8h2l.1,1.24a3.71,3.71,0,0,1,3.87-1.24Z"/><path class="cls-1" d="M158.65,44.8h2l.14,1.43a3.7,3.7,0,0,1,3.46-1.59c3,0,4.46,1.27,4.46,4.86v8.78h-2.21V49.52c0-1.91-1-2.88-2.63-2.88a2.72,2.72,0,0,0-3,2.86v8.78h-2.21Z"/><path class="cls-1" d="M170.22,53.37V49.52c0-3.57,1.94-4.88,5.05-4.88s5,1.31,5,4.88v3.85c0,3.66-1.48,5.14-5,5.14S170.22,57,170.22,53.37Zm7.9,0V49.52c0-2.44-1-2.92-2.85-2.92s-2.86.48-2.86,2.92v3.85c0,2.44.9,3.23,2.86,3.23S178.12,55.81,178.12,53.37Z"/><path class="cls-1" d="M196.67,58.28h-1.84l-.28-1.78a3.34,3.34,0,0,1-3.34,1.85c-2.7,0-4.56-1.22-4.56-4.86V49.94c0-3.64,1.73-5.23,4.56-5.23,1.45,0,2.51.21,3.25,1.17V40.26h2.21Zm-5-11.45c-2,0-2.85.78-2.85,3.16v3.52c0,2.21.89,2.79,2.69,2.79s2.93-.88,2.93-3.53v-2.9C194.46,47.57,193.65,46.83,191.69,46.83Z"/><path class="cls-1" d="M208.27,54.36c0,2.61-1.43,4.06-4.93,4.06s-5-1.32-5-4.93V49.55c0-3.53,1.91-4.82,5-4.82s5,1.31,5,4.82v2.87h-7.78v1c0,2.4.87,3,2.81,3s2.81-.65,2.81-2Zm-7.74-3.85h5.69v-1c0-2.38-1.15-2.89-2.88-2.89s-2.81.49-2.81,2.89Z"/><path class="cls-1" d="M209.88,40.49H212V54.75c0,1.09.41,1.36,1.38,1.36v2.17c-2.63,0-3.53-.67-3.53-3.5Z"/><path class="cls-1" d="M110.24,65.56v2.77h-7v4.56h6v2.85h-6v4.68h7.35v2.91H100V65.56Z"/><path class="cls-1" d="M118.77,74c0-1-.81-1.5-1.82-1.5-1.22,0-2,.49-2,1.43,0,1.5,1.57,1.29,3.39,1.5S122,76.69,122,79.11c0,3-2.33,4.26-5.26,4.26-3.22,0-5.16-1.64-5.16-4.26h3.21c.07.94.57,1.5,2.09,1.5,1.27,0,1.92-.72,1.92-1.39,0-1.15-1.5-1.17-3.14-1.38-2-.25-3.89-1.1-3.89-3.78,0-3.06,2.18-4.42,5.14-4.42,3.34,0,4.93,1.89,4.93,4.33Z"/><path class="cls-1" d="M123.22,67.36l3.16-.35v2.65h2.3v2.88h-2.3v5.74c0,1.5.23,2.51,2.35,2.26V83.3c-4,.44-5.51-.94-5.51-5Z"/><path class="cls-1" d="M130,74.39c-.21-3.39,1.61-4.75,4.86-4.75,3.54,0,5.09,1.77,5.09,5.3V83.3h-2.58l-.3-1.57a4.34,4.34,0,0,1-3.57,1.76,3.6,3.6,0,0,1-3.92-3.85c0-3.2,2.67-4.47,7.35-4.15,0-2-.39-3-2.05-3-1.38,0-1.89.48-1.87,1.94Zm2.57,5c0,.9.79,1.2,1.87,1.2,1.85,0,2.35-1.34,2.49-2.69C133.72,77.57,132.58,78.3,132.58,79.38Z"/><path class="cls-1" d="M149.31,83.3l-.23-1.5a3.44,3.44,0,0,1-3.21,1.57c-2.67,0-4.46-1.47-4.46-5.25v-3.5c0-3.21,1.54-5.07,4.56-5.07a3.11,3.11,0,0,1,2.78,1.19V65.56h3.16V83.3Zm-4.75-8.55V78c0,2,.81,2.6,2.05,2.6,1.57,0,2.14-1.15,2.14-2.72V74.73c0-1.63-.78-2.26-2-2.26S144.56,73.12,144.56,74.75Z"/><path class="cls-1" d="M153.59,78.23V75c0-3.57,1.7-5.3,5.27-5.3s5.28,1.64,5.28,5.3v3.27c0,3.67-1.71,5.3-5.28,5.3S153.59,81.9,153.59,78.23Zm7.37-.16V75.12c0-1.68-.44-2.65-2.1-2.65s-2.1,1-2.1,2.65v2.95c0,1.68.44,2.65,2.1,2.65S161,79.75,161,78.07Z"/><path class="cls-1" d="M178.37,83.3l-.23-1.5a3.44,3.44,0,0,1-3.2,1.57c-2.67,0-4.47-1.47-4.47-5.25v-3.5c0-3.21,1.55-5.07,4.56-5.07a3.12,3.12,0,0,1,2.79,1.19V65.56H181V83.3Zm-4.74-8.55V78c0,2,.8,2.6,2.05,2.6,1.57,0,2.14-1.15,2.14-2.72V74.73c0-1.63-.78-2.26-2-2.26S173.63,73.12,173.63,74.75Z"/><path class="cls-1" d="M193.21,79.13c0,2.86-1.71,4.22-5.27,4.22s-5.28-1.64-5.28-5.3V75c0-3.41,1.7-5.3,5.28-5.3s5.27,1.64,5.27,5.3v2.7h-7.37V78c0,2.19.85,2.61,2.14,2.61,1.5,0,2.12-.54,2.12-1.48Zm-7.37-4.08h4.31c0-1.7-.33-2.65-2.13-2.65S185.84,73.42,185.84,75.05Z"/><path class="cls-1" d="M205.23,68.26c-1.75,0-2.46.55-2.46,2.23,0,2.24,1.77,2.05,4.47,2.47,2,.32,4,1.15,4,4.7,0,4.1-1.78,5.83-6,5.83-4.42,0-5.83-2.15-5.83-5h3.21c.06,1.36.66,2.09,2.69,2.09s2.79-.8,2.79-2.81-2.49-2.09-4.38-2.35-4.13-1.24-4.13-4.9c0-3.32,2-5,5.67-5,3.21,0,5.33,1.17,5.62,4.72h-3.2C207.56,68.69,206.78,68.26,205.23,68.26Z"/><path class="cls-1" d="M212.56,78.23V75c0-3.57,1.71-5.3,5.28-5.3s5.27,1.64,5.27,5.3v3.27c0,3.67-1.7,5.3-5.27,5.3S212.56,81.9,212.56,78.23Zm7.37-.16V75.12c0-1.68-.44-2.65-2.09-2.65s-2.1,1-2.1,2.65v2.95c0,1.68.44,2.65,2.1,2.65S219.93,79.75,219.93,78.07Z"/><path class="cls-1" d="M224.81,69.71h2.74l.16,1.38a4.16,4.16,0,0,1,3.2-1.47c2.24,0,4.43,1.15,4.43,5.3V83.3h-3.13V74.94c0-1.76-.74-2.47-2.06-2.47s-2.19.6-2.19,2.36V83.3h-3.15Z"/><path class="cls-1" d="M236.87,78.23V75c0-3.57,1.7-5.3,5.28-5.3s5.27,1.64,5.27,5.3v3.27c0,3.67-1.7,5.3-5.27,5.3S236.87,81.9,236.87,78.23Zm7.37-.16V75.12c0-1.68-.43-2.65-2.09-2.65s-2.1,1-2.1,2.65v2.95c0,1.68.44,2.65,2.1,2.65S244.24,79.75,244.24,78.07Z"/><path class="cls-1" d="M255.73,73c-2-.28-3.67.53-3.67,2.56v7.79h-3.15V69.71h2.9l.14,1.43a3.79,3.79,0,0,1,3.78-1.5Z"/><path class="cls-1" d="M256.79,74.39c-.21-3.39,1.61-4.75,4.86-4.75,3.55,0,5.09,1.77,5.09,5.3V83.3h-2.58l-.3-1.57a4.34,4.34,0,0,1-3.57,1.76,3.6,3.6,0,0,1-3.92-3.85c0-3.2,2.67-4.47,7.35-4.15,0-2-.39-3-2.05-3-1.38,0-1.89.48-1.87,1.94Zm2.58,5c0,.9.78,1.2,1.86,1.2,1.85,0,2.35-1.34,2.49-2.69C260.5,77.57,259.37,78.3,259.37,79.38Z"/><path class="cls-2" d="M320.05,53.33c-.11-1.41-.6-2.41-2.74-2.41-2.39,0-2.86,1.09-2.86,2.81,0,2.39,2.07,2.37,4.24,2.59,2,.2,4,1.18,4,4.77s-1.4,5.29-5,5.29h-.42c-3.52,0-5.13-1.72-5.29-4.64h2.3c.11,1.45.76,2.56,3,2.56h.42c2.32,0,2.79-1.09,2.79-3.1,0-2.81-1.85-2.85-4-3s-4.31-1.14-4.31-4.42,1.45-4.83,5.07-4.83c3.41,0,4.79,1.58,4.95,4.41Z"/><path class="cls-2" d="M334.54,62.5c0,2.52-1.38,3.92-4.77,3.92S325,65.15,325,61.65V57.84c0-3.42,1.85-4.67,4.82-4.67s4.82,1.28,4.82,4.67v2.78H327v1c0,2.31.85,2.85,2.73,2.85s2.72-.63,2.72-2ZM327,58.77h5.51v-.93c0-2.3-1.11-2.79-2.78-2.79s-2.73.46-2.73,2.79Z"/><path class="cls-2" d="M346.4,61.87c0,3.44-1.38,4.64-4.77,4.64s-4.88-1.43-4.88-5v-3.7c0-3.46,1.87-4.76,4.88-4.76s4.64,1,4.77,4.37l-2,0c-.1-2.06-1.07-2.43-2.77-2.43s-2.77.42-2.77,2.79v3.7c0,2.36,1,2.94,2.77,2.94s2.72-.38,2.77-2.61Z"/><path class="cls-2" d="M354.36,55.41c-2.05-.34-3.65.51-3.65,2.51v8.39h-2.12V53.24h1.94l.09,1.21a3.58,3.58,0,0,1,3.74-1.21Z"/><path class="cls-2" d="M365.7,62.5c0,2.52-1.38,3.92-4.77,3.92s-4.82-1.27-4.82-4.77V57.84c0-3.42,1.85-4.67,4.82-4.67s4.82,1.28,4.82,4.67v2.78h-7.54v1c0,2.31.85,2.85,2.72,2.85s2.72-.63,2.72-2Zm-7.49-3.73h5.51v-.93c0-2.3-1.12-2.79-2.79-2.79s-2.72.46-2.72,2.79Z"/><path class="cls-2" d="M368.1,51l2.07-.25v2.59h2.25v2h-2.25v7.31c0,1.32.6,1.92,2.34,1.69v2c-3.45.38-4.41-1.16-4.41-3.59Z"/><path class="cls-2" d="M383.57,66.29h-1.91l-.18-1.76a3.76,3.76,0,0,1-3.33,1.87c-3,0-3.72-1.58-3.88-3.12-.22-2.3,1.34-4,4-4.33a23.54,23.54,0,0,1,3.14-.2V57.48c0-1.47-.51-2.43-2.48-2.43-1.22,0-2.07.42-2.05,2.18h-2.07c-.09-2.9,1.43-4.12,4.19-4.12s4.55,1.2,4.55,4.37Zm-5.11-5.56c-1.44.32-2.2,1-2,2.28.09,1,1,1.36,2,1.36,2.34,0,3-1.72,3.1-3.86A14.89,14.89,0,0,0,378.46,60.73Z"/><path class="cls-2" d="M391.91,55.41c-2.05-.34-3.66.51-3.66,2.51v8.39h-2.12V53.24h1.94l.09,1.21a3.61,3.61,0,0,1,3.75-1.21Z"/><path class="cls-2" d="M394.12,66.29v-13h2.12v13Zm.09-14.3v-.11l1.18-2.83h2.09v.07L395.9,52Z"/><path class="cls-2" d="M407.82,66.29h-1.91l-.18-1.76a3.76,3.76,0,0,1-3.33,1.87c-3,0-3.72-1.58-3.88-3.12-.22-2.3,1.34-4,4-4.33a23.69,23.69,0,0,1,3.15-.2V57.48c0-1.47-.52-2.43-2.48-2.43-1.23,0-2.08.42-2,2.18h-2.08c-.08-2.9,1.43-4.12,4.2-4.12s4.54,1.2,4.54,4.37Zm-5.1-5.56c-1.45.32-2.21,1-2.05,2.28.09,1,1,1.36,2,1.36,2.34,0,3-1.72,3.1-3.86A14.8,14.8,0,0,0,402.72,60.73Z"/><path class="cls-2" d="M319.94,85.89l-.23-1.45a3.31,3.31,0,0,1-3.1,1.51c-2.58,0-4.32-1.42-4.32-5.08V77.48c0-3.1,1.49-4.91,4.41-4.91a3,3,0,0,1,2.7,1.16v-5h3.06V85.89Zm-4.6-8.28v3.1c0,1.9.78,2.52,2,2.52,1.51,0,2.07-1.11,2.07-2.63v-3c0-1.58-.76-2.18-2-2.18S315.34,76,315.34,77.61Z"/><path class="cls-2" d="M335.22,81.85c0,2.77-1.65,4.08-5.11,4.08S325,84.35,325,80.8v-3c0-3.31,1.65-5.13,5.11-5.13s5.11,1.58,5.11,5.13v2.6h-7.14v.34c0,2.12.82,2.52,2.07,2.52,1.45,0,2.06-.51,2.06-1.43Zm-7.14-3.94h4.17c0-1.66-.31-2.57-2.05-2.57S328.08,76.32,328.08,77.91Z"/><path class="cls-2" d="M353.07,68.71v2.68h-6.8v4.42h5.8v2.76h-5.8V83.1h7.12v2.81h-10.2V68.71Z"/><path class="cls-2" d="M363.07,85.89l-.22-1.45a3.32,3.32,0,0,1-3.1,1.51c-2.59,0-4.32-1.42-4.32-5.08V77.48c0-3.1,1.49-4.91,4.41-4.91a3,3,0,0,1,2.7,1.16v-5h3V85.89Zm-4.59-8.28v3.1c0,1.9.78,2.52,2,2.52,1.51,0,2.07-1.11,2.07-2.63v-3c0-1.58-.76-2.18-2-2.18S358.48,76,358.48,77.61Z"/><path class="cls-2" d="M378.65,85.87h-2.72l-.16-1.34a4,4,0,0,1-3.1,1.42c-2.16,0-4.28-1.11-4.28-5.12V72.71h3V80.8c0,1.7.71,2.39,2,2.39s2.12-.58,2.12-2.27V72.71h3.12Z"/><path class="cls-2" d="M388.42,77.64c0-1.5-.54-2.23-2.05-2.23-1.7,0-2.19.93-2.19,2.56v2.86c0,1.62.42,2.56,2,2.56s2.19-.69,2.21-2.25h2.9c0,3.54-1.65,5-5.11,5s-5.11-1.58-5.11-5.19V78c0-3.55,1.74-5.28,5.2-5.28s5,1.4,5,5Z"/><path class="cls-2" d="M393.62,77.26c-.2-3.28,1.56-4.6,4.7-4.6,3.44,0,4.93,1.72,4.93,5.13v8.1h-2.5l-.28-1.52a4.2,4.2,0,0,1-3.46,1.7,3.49,3.49,0,0,1-3.8-3.73c0-3.1,2.59-4.33,7.12-4,0-2-.38-3-2-3-1.34,0-1.83.47-1.81,1.88Zm2.5,4.84c0,.87.75,1.16,1.8,1.16,1.79,0,2.28-1.3,2.41-2.61C397.21,80.33,396.12,81.05,396.12,82.1Z"/><path class="cls-2" d="M412.83,77.64c0-1.5-.54-2.23-2.06-2.23-1.69,0-2.18.93-2.18,2.56v2.86c0,1.62.42,2.56,2,2.56s2.19-.69,2.21-2.25h2.9c0,3.54-1.65,5-5.11,5s-5.11-1.58-5.11-5.19V78c0-3.55,1.74-5.28,5.2-5.28s5,1.4,5,5Z"/><path class="cls-2" d="M421.31,70.08a1.73,1.73,0,0,1-3.46,0A1.73,1.73,0,0,1,421.31,70.08Zm-.22,15.83H418V73h3.06Z"/><path class="cls-2" d="M423.48,81V77.82c0-3.46,1.65-5.13,5.11-5.13s5.11,1.58,5.11,5.13V81c0,3.55-1.65,5.13-5.11,5.13S423.48,84.53,423.48,81Zm7.14-.15V78c0-1.63-.42-2.56-2-2.56s-2,.93-2,2.56v2.86c0,1.62.42,2.56,2,2.56S430.62,82.45,430.62,80.83Zm-.76-9.19h-2.65l1.27-3h3.08Z"/><path class="cls-2" d="M436.25,72.73h2.65l.16,1.34a4,4,0,0,1,3.1-1.43c2.16,0,4.28,1.11,4.28,5.13v8.12h-3v-8.1c0-1.69-.72-2.38-2-2.38s-2.12.58-2.12,2.27v8.21h-3.05Z"/><path class="cls-2" d="M464.32,72.73l-3.9,13h0l-.71,2.54c-.85,3-2.61,3.28-5.13,2.28l.46-2.25c.79.17,1.61.51,1.92-.65l.52-1.85-3.95-13.07h3.19l1.18,4a53.79,53.79,0,0,1,1,5.53c.24-1.7.58-3.73,1-5.53l1.16-4Z"/><path class="cls-2" d="M482.74,80.58c0,3.77-1.79,5.35-5.87,5.35s-5.73-1.58-5.73-5.13v-7c0-3.63,1.58-5.13,5.73-5.13s5.87,1.52,5.87,5.33h-3.08c0-1.67-.4-2.61-2.79-2.61-2.23,0-2.65.94-2.65,2.57v6.67c0,1.63.42,2.56,2.65,2.56s2.79-.93,2.79-2.63Z"/><path class="cls-2" d="M495.35,85.87h-2.72l-.15-1.34a4,4,0,0,1-3.1,1.42c-2.16,0-4.28-1.11-4.28-5.12V72.71h3V80.8c0,1.7.71,2.39,2,2.39s2.12-.58,2.12-2.27V72.71h3.12Z"/><path class="cls-2" d="M498.13,68.69h3.06V81c0,1.45.26,1.92,1.53,1.92v2.94c-3.54,0-4.59-1-4.59-4.82Z"/><path class="cls-2" d="M504.72,70.45l3-.33v2.57H510v2.78h-2.23V81c0,1.45.23,2.43,2.28,2.18v2.68c-3.88.42-5.33-.92-5.33-4.82Z"/><path class="cls-2" d="M522.36,85.87h-2.72l-.16-1.34a4,4,0,0,1-3.1,1.42c-2.16,0-4.28-1.11-4.28-5.12V72.71h3V80.8c0,1.7.71,2.39,2,2.39s2.12-.58,2.12-2.27V72.71h3.12Z"/><path class="cls-2" d="M531.64,75.9c-2-.27-3.54.51-3.54,2.47v7.54H525V72.73h2.81l.14,1.38a3.69,3.69,0,0,1,3.65-1.45Z"/><path class="cls-2" d="M533.56,77.26c-.19-3.28,1.57-4.6,4.71-4.6,3.43,0,4.93,1.72,4.93,5.13v8.1h-2.5l-.29-1.52a4.18,4.18,0,0,1-3.46,1.7,3.49,3.49,0,0,1-3.79-3.73c0-3.1,2.59-4.33,7.12-4,0-2-.38-3-2-3-1.34,0-1.82.47-1.8,1.88Zm2.5,4.84c0,.87.76,1.16,1.81,1.16,1.78,0,2.27-1.3,2.41-2.61C537.16,80.33,536.06,81.05,536.06,82.1Z"/><path class="cls-2" d="M316.89,23.86c-1.81,0-2.55.57-2.55,2.32,0,2.31,1.84,2.12,4.63,2.55,2.13.34,4.16,1.2,4.16,4.87,0,4.25-1.84,6-6.26,6-4.58,0-6-2.23-6-5.19h3.32c.07,1.41.69,2.18,2.79,2.18s2.89-.84,2.89-2.92-2.58-2.17-4.54-2.43S311,30,311,26.2c0-3.44,2.1-5.23,5.87-5.23,3.32,0,5.52,1.22,5.83,4.9H319.4C319.31,24.31,318.49,23.86,316.89,23.86Z"/><path class="cls-2" d="M336.46,21.07v2.86h-7.28v4.73h6.21v3h-6.21v4.85h7.62v3H325.88V21.07Z"/><path class="cls-2" d="M351.32,33.77c0,4-1.91,5.73-6.28,5.73S338.9,37.81,338.9,34V26.54c0-3.9,1.7-5.5,6.14-5.5s6.28,1.62,6.28,5.71H348c0-1.79-.43-2.8-3-2.8-2.39,0-2.84,1-2.84,2.75v7.14c0,1.74.45,2.75,2.84,2.75s3-1,3-2.82Z"/><rect class="cls-3" x="567.04" y="20.14" width="7" height="69.5"/><rect class="cls-3" x="291.31" y="20.14" width="7" height="69.5"/><path class="cls-1" d="M593.35,31.83c3.24,0,5.26,1.32,5.26,5v2c0,3.81-1.46,5.35-5.26,5.35h-2.68v6.14h-2.28V31.85ZM590.67,34v8.07h2.68c2,0,3-.63,3-3.17v-2c0-2.54-.94-2.76-3-2.88Z"/><path class="cls-1" d="M600.27,45.25v-4c0-3.72,2-5.09,5.25-5.09s5.26,1.37,5.26,5.09v4c0,3.81-1.54,5.35-5.26,5.35S600.27,49.06,600.27,45.25Zm8.23,0v-4c0-2.54-1.08-3.05-3-3.05s-3,.51-3,3.05v4c0,2.54.93,3.36,3,3.36S608.5,47.79,608.5,45.25Z"/><path class="cls-1" d="M619.39,38.65c-2.2-.36-3.93.55-3.93,2.71v9h-2.28V36.32h2.09l.09,1.3a3.88,3.88,0,0,1,4-1.3Z"/><path class="cls-1" d="M621.39,33.87l2.23-.26v2.78H626v2.16h-2.42v7.87c0,1.42.65,2.07,2.52,1.83v2.11c-3.72.41-4.75-1.25-4.75-3.86Z"/><path class="cls-1" d="M637.71,50.36h-2.07l-.19-1.9a4,4,0,0,1-3.58,2c-3.21,0-4-1.7-4.17-3.36-.24-2.47,1.44-4.25,4.32-4.66a27.38,27.38,0,0,1,3.38-.21V40.88c0-1.59-.55-2.62-2.66-2.62-1.32,0-2.23.46-2.21,2.36H628.3c-.1-3.13,1.53-4.45,4.51-4.45s4.9,1.3,4.9,4.71Zm-5.5-6c-1.56.34-2.38,1.08-2.21,2.45.1,1.11,1.08,1.47,2.11,1.47,2.52,0,3.27-1.85,3.34-4.16A15.86,15.86,0,0,0,632.21,44.38Z"/><path class="cls-1" d="M640.66,31.83h2.23V46.69c0,1.13.43,1.41,1.44,1.41v2.26c-2.74,0-3.67-.7-3.67-3.65Z"/><path class="cls-1" d="M662.33,50.36h-1.92l-.29-1.85c-.43,1.23-1.85,1.92-3.48,1.92-2.81,0-4.75-1.27-4.75-5.06v-3.7c0-3.79,1.8-5.45,4.75-5.45,1.51,0,2.62.22,3.39,1.23V31.59h2.3Zm-5.18-11.93c-2,0-3,.82-3,3.29v3.67c0,2.31.93,2.91,2.81,2.91s3-.92,3-3.68v-3C660,39.2,659.19,38.43,657.15,38.43Z"/><path class="cls-1" d="M675.53,46.28c0,2.71-1.49,4.22-5.14,4.22s-5.18-1.36-5.18-5.13V41.26c0-3.67,2-5,5.18-5s5.19,1.37,5.19,5v3h-8.12v1.06c0,2.5.92,3.07,2.93,3.07s2.93-.67,2.93-2.11Zm-8.07-4h5.93v-1c0-2.47-1.2-3-3-3s-2.93.51-2.93,3Z"/><path class="cls-1" d="M690.84,43.38l4,7h-2.69l-3.72-6.84h-2.09v6.86h-2.28V31.83l5,0c3.24,0,5.26,1.34,5.26,5.06v1.3C694.3,41.12,693.41,42.87,690.84,43.38ZM686.35,34v7.35H689c2,0,3-.63,3-3.17v-1.3c0-2.54-.94-2.76-3-2.88Z"/><path class="cls-1" d="M706.13,46.28c0,2.71-1.49,4.22-5.14,4.22s-5.18-1.36-5.18-5.13V41.26c0-3.67,2-5,5.18-5s5.19,1.37,5.19,5v3h-8.12v1.06c0,2.5.92,3.07,2.93,3.07s2.93-.67,2.93-2.11Zm-8.07-4H704v-1c0-2.47-1.2-3-3-3s-2.93.51-2.93,3Z"/><path class="cls-1" d="M718.8,45.61c0,3.69-1.49,5-5.13,5s-5.26-1.54-5.26-5.35v-4c0-3.72,2-5.11,5.26-5.11s5,1.1,5.13,4.71l-2.16,0c-.09-2.21-1.15-2.62-3-2.62s-3,.46-3,3v4c0,2.54,1,3.17,3,3.17s2.92-.41,3-2.81Z"/><path class="cls-1" d="M731.67,50.36h-2l-.15-1.49a3.85,3.85,0,0,1-3.6,1.66c-3.1,0-4.66-1.32-4.66-5.07V36.41h2.31v9c0,2,1.08,3,2.73,3a2.83,2.83,0,0,0,3.1-3V36.41h2.31Z"/><path class="cls-1" d="M740.76,38.65c-2.21-.36-3.94.55-3.94,2.71v9h-2.28V36.32h2.09l.1,1.3a3.86,3.86,0,0,1,4-1.3Z"/><path class="cls-1" d="M749.62,40.28c0-1.32-.8-2.07-2.57-2.07-1.59,0-2.52.73-2.52,2.24s1.27,1.63,3,1.77c2.14.2,4.68.51,4.68,3.92,0,2.92-2.06,4.34-5,4.34-3.22,0-5-1.49-5.09-4.46h2.3c.12,1.77,1.32,2.37,2.79,2.37,1.72,0,2.68-.89,2.68-2.23,0-1.66-1.63-1.8-3.36-1.92s-4.29-.62-4.29-3.79c0-2.47,1.58-4.3,4.87-4.3s4.75,1.54,4.68,4.13Z"/><path class="cls-1" d="M754.08,45.25v-4c0-3.72,2-5.09,5.26-5.09s5.25,1.37,5.25,5.09v4c0,3.81-1.53,5.35-5.25,5.35S754.08,49.06,754.08,45.25Zm8.23,0v-4c0-2.54-1.08-3.05-3-3.05s-3,.51-3,3.05v4c0,2.54.94,3.36,3,3.36S762.31,47.79,762.31,45.25Z"/><path class="cls-1" d="M774,40.28c0-1.32-.79-2.07-2.57-2.07-1.58,0-2.52.73-2.52,2.24s1.28,1.63,3,1.77c2.14.2,4.68.51,4.68,3.92,0,2.92-2.06,4.34-5,4.34-3.21,0-5-1.49-5.09-4.46h2.31c.12,1.77,1.32,2.37,2.78,2.37,1.73,0,2.69-.89,2.69-2.23,0-1.66-1.63-1.8-3.36-1.92s-4.3-.62-4.3-3.79c0-2.47,1.59-4.3,4.88-4.3s4.75,1.54,4.68,4.13Z"/><path class="cls-1" d="M599,55.88v2.88H591.7v4.75h6.24v3H591.7v4.87h7.65v3h-11V55.88Z"/><path class="cls-1" d="M609.29,74.36l-.24-1.56a3.58,3.58,0,0,1-3.34,1.63c-2.78,0-4.65-1.53-4.65-5.47V65.31c0-3.33,1.61-5.28,4.75-5.28a3.22,3.22,0,0,1,2.9,1.25v-5.4H612V74.36Zm-4.94-8.9v3.33c0,2,.84,2.71,2.13,2.71,1.63,0,2.23-1.2,2.23-2.83V65.43c0-1.7-.81-2.35-2.13-2.35S604.35,63.75,604.35,65.46Z"/><path class="cls-1" d="M626.23,74.34h-2.92l-.17-1.44a4.35,4.35,0,0,1-3.34,1.53c-2.33,0-4.61-1.2-4.61-5.52V60.17h3.27v8.72c0,1.82.77,2.57,2.13,2.57s2.28-.63,2.28-2.45V60.17h3.36Z"/><path class="cls-1" d="M636.75,65.48c0-1.61-.58-2.4-2.21-2.4-1.83,0-2.35,1-2.35,2.76v3.07c0,1.75.45,2.76,2.18,2.76s2.35-.74,2.38-2.42h3.12c0,3.81-1.78,5.35-5.5,5.35s-5.5-1.7-5.5-5.59V65.84c0-3.82,1.88-5.69,5.6-5.69s5.4,1.51,5.4,5.33Z"/><path class="cls-1" d="M642,65.07c-.21-3.53,1.68-4.94,5.07-4.94,3.69,0,5.3,1.85,5.3,5.52v8.71h-2.69l-.31-1.63a4.53,4.53,0,0,1-3.72,1.82,3.75,3.75,0,0,1-4.08-4c0-3.33,2.78-4.65,7.66-4.32,0-2.11-.41-3.16-2.14-3.16-1.44,0-2,.5-1.94,2Zm2.69,5.21c0,.94.82,1.25,1.94,1.25,1.92,0,2.45-1.39,2.6-2.81C645.87,68.38,644.69,69.15,644.69,70.28Z"/><path class="cls-1" d="M655,57.75l3.29-.36v2.76h2.4v3h-2.4v6c0,1.56.24,2.61,2.45,2.35v2.88c-4.18.46-5.74-1-5.74-5.18Z"/><path class="cls-1" d="M666.51,57.34a1.86,1.86,0,0,1-3.72,0A1.86,1.86,0,0,1,666.51,57.34Zm-.24,17H663V60.51h3.29Z"/><path class="cls-1" d="M679.42,60.2l-4.35,14.18h-2.9L667.82,60.2h3.44l1.27,4.25a57,57,0,0,1,1.1,6c.27-1.82.63-4,1.11-6L676,60.2Z"/><path class="cls-1" d="M680.42,69.08V65.67c0-3.72,1.78-5.52,5.5-5.52s5.5,1.71,5.5,5.52v3.41c0,3.82-1.78,5.52-5.5,5.52S680.42,72.9,680.42,69.08Zm7.69-.17V65.84c0-1.75-.46-2.76-2.19-2.76s-2.18,1-2.18,2.76v3.07c0,1.75.45,2.76,2.18,2.76S688.11,70.66,688.11,68.91Z"/><path class="cls-1" d="M700.75,64.64c0-1.08-.84-1.56-1.89-1.56-1.27,0-2,.5-2,1.49,0,1.56,1.63,1.34,3.53,1.56s3.79,1.34,3.79,3.86c0,3.1-2.43,4.44-5.47,4.44-3.36,0-5.38-1.7-5.38-4.44h3.34c.07,1,.6,1.56,2.18,1.56,1.32,0,2-.74,2-1.44,0-1.2-1.56-1.22-3.26-1.44-2.07-.26-4.06-1.15-4.06-3.93,0-3.2,2.28-4.61,5.35-4.61,3.48,0,5.14,2,5.14,4.51Z"/><path class="cls-1" d="M721.75,60.2l-4.2,14h0l-.77,2.74c-.91,3.19-2.81,3.53-5.52,2.45l.5-2.43c.84.19,1.73.55,2.07-.69l.55-2L710.16,60.2h3.43l1.28,4.25a57,57,0,0,1,1.1,6c.26-1.82.62-4,1.1-6l1.25-4.25Z"/><path class="cls-1" d="M737.38,58.9h-3.82V74.36h-3.29V58.9h-3.84V56h11Z"/><path class="cls-1" d="M746.81,70c0,3-1.78,4.39-5.5,4.39s-5.49-1.71-5.49-5.52V65.67c0-3.55,1.77-5.52,5.49-5.52s5.5,1.71,5.5,5.52v2.81h-7.68v.36c0,2.28.89,2.71,2.23,2.71,1.56,0,2.21-.55,2.21-1.53Zm-7.68-4.25h4.49c0-1.78-.34-2.76-2.21-2.76S739.13,64.06,739.13,65.77Z"/><path class="cls-1" d="M756.91,65.48c0-1.61-.57-2.4-2.2-2.4-1.83,0-2.36,1-2.36,2.76v3.07c0,1.75.46,2.76,2.19,2.76s2.35-.74,2.37-2.42H760c0,3.81-1.77,5.35-5.49,5.35S749,72.9,749,69V65.84c0-3.82,1.87-5.69,5.59-5.69s5.4,1.51,5.4,5.33Z"/><path class="cls-1" d="M762.77,60.2h2.85l.17,1.44a4.33,4.33,0,0,1,3.34-1.54c2.33,0,4.61,1.2,4.61,5.52v8.74h-3.27V65.65c0-1.83-.77-2.57-2.13-2.57s-2.28.62-2.28,2.45v8.83h-3.29Z"/><path class="cls-1" d="M776.35,69.08V65.67c0-3.72,1.78-5.52,5.5-5.52s5.5,1.71,5.5,5.52v3.41c0,3.82-1.78,5.52-5.5,5.52S776.35,72.9,776.35,69.08Zm7.68-.17V65.84c0-1.75-.45-2.76-2.18-2.76s-2.19,1-2.19,2.76v3.07c0,1.75.46,2.76,2.19,2.76S784,70.66,784,68.91Z"/><path class="cls-1" d="M790,55.85h3.29V69.13c0,1.56.29,2.06,1.66,2.06v3.17c-3.82,0-4.95-1.13-4.95-5.18Z"/><path class="cls-1" d="M796.61,69.08V65.67c0-3.72,1.77-5.52,5.49-5.52s5.5,1.71,5.5,5.52v3.41c0,3.82-1.77,5.52-5.5,5.52S796.61,72.9,796.61,69.08Zm7.68-.17V65.84c0-1.75-.46-2.76-2.19-2.76s-2.18,1-2.18,2.76v3.07c0,1.75.46,2.76,2.18,2.76S804.29,70.66,804.29,68.91ZM803.47,59h-2.85L802,55.76h3.32Z"/><path class="cls-1" d="M809.76,69.13V65.6c0-3.94,1.82-5.47,4.61-5.47a3.36,3.36,0,0,1,3.21,1.63l.24-1.56h2.72V74.72c0,3.67-1.92,5.42-5.36,5.42s-5.11-1.48-5.11-4.48h3.15c0,1.1.64,1.68,2,1.68,1.73,0,2.28-.89,2.28-2.64V73a3.24,3.24,0,0,1-3,1.44C811.51,74.43,809.76,72.78,809.76,69.13Zm7.54-.48V65.89c0-1.63-.53-2.83-2.16-2.83-1.3,0-2.09.67-2.09,2.71v3c0,2,.67,2.81,2,2.81C816.77,71.53,817.3,70.45,817.3,68.65Z"/><path class="cls-1" d="M826.73,57.34a1.86,1.86,0,0,1-3.72,0A1.86,1.86,0,0,1,826.73,57.34Zm-.24,17H823.2V60.51h3.29Z"/><path class="cls-1" d="M837.05,65.48c0-1.61-.58-2.4-2.21-2.4-1.82,0-2.35,1-2.35,2.76v3.07c0,1.75.45,2.76,2.18,2.76s2.35-.74,2.38-2.42h3.12c0,3.81-1.78,5.35-5.5,5.35s-5.49-1.7-5.49-5.59V65.84c0-3.82,1.87-5.69,5.59-5.69s5.4,1.51,5.4,5.33Z"/><path class="cls-1" d="M842.21,69.08V65.67c0-3.72,1.77-5.52,5.49-5.52s5.5,1.71,5.5,5.52v3.41c0,3.82-1.78,5.52-5.5,5.52S842.21,72.9,842.21,69.08Zm7.68-.17V65.84c0-1.75-.46-2.76-2.19-2.76s-2.18,1-2.18,2.76v3.07c0,1.75.46,2.76,2.18,2.76S849.89,70.66,849.89,68.91Z"/><path class="cls-1" d="M862.54,64.64c0-1.08-.84-1.56-1.9-1.56-1.27,0-2,.5-2,1.49,0,1.56,1.63,1.34,3.53,1.56s3.79,1.34,3.79,3.86c0,3.1-2.42,4.44-5.47,4.44-3.36,0-5.38-1.7-5.38-4.44h3.34c.07,1,.6,1.56,2.18,1.56,1.32,0,2-.74,2-1.44,0-1.2-1.56-1.22-3.26-1.44-2.06-.26-4.06-1.15-4.06-3.93,0-3.2,2.28-4.61,5.36-4.61,3.48,0,5.13,2,5.13,4.51Z"/></svg>