<svg xmlns="http://www.w3.org/2000/svg" xmlns:xlink="http://www.w3.org/1999/xlink" viewBox="0 0 681.15 100"><defs><style>.cls-1{isolation:isolate;}.cls-2{fill:#929396;}.cls-3{fill:#e42328;}.cls-4{opacity:0.4;fill:url(#radial-gradient);}.cls-5{fill:#a8a9ab;}.cls-6{opacity:0.35;mix-blend-mode:multiply;fill:url(#radial-gradient-2);}</style><radialGradient id="radial-gradient" cx="387.83" cy="54.11" r="28.27" gradientUnits="userSpaceOnUse"><stop offset="0"/><stop offset="1" stop-opacity="0"/></radialGradient><radialGradient id="radial-gradient-2" cx="349.68" cy="53.7" r="21.53" gradientTransform="translate(0 -42.78) scale(1 1.8)" xlink:href="#radial-gradient"/></defs><title>logo_1</title><g class="cls-1"><g id="Capa_1" data-name="Capa 1"><path class="cls-2" d="M40.25,90.15H38.38v.22h0c.16,0,.26.05.29.1s.05.17.05.38V93c0,.22,0,.36-.05.4s-.13.07-.29.08h0v.21H40.3a1.58,1.58,0,0,0,1.22-.5A1.94,1.94,0,0,0,42,91.86a1.57,1.57,0,0,0-1.73-1.71Zm.65,2.92a1,1,0,0,1-.87.41.75.75,0,0,1-.43-.08.52.52,0,0,1-.1-.38V90.4h.28a1.5,1.5,0,0,1,1.09.34,1.61,1.61,0,0,1,.32,1.12A2.07,2.07,0,0,1,40.9,93.07Z"/><path class="cls-2" d="M44.65,93.11c0,.19,0,.3-.06.32a.88.88,0,0,1-.4,0h-.3a1.45,1.45,0,0,1-.39,0c-.06,0-.09-.16-.09-.43V92h.82s.06.1.07.22v0h.25v-.78H44.3v0c0,.13,0,.21,0,.22h-.82V90.4h.77a.61.61,0,0,1,.28,0,.19.19,0,0,1,.06.17v.19h.36v-.64H42.3v.22h0c.17,0,.26.05.29.1s0,.17,0,.38V93c0,.22,0,.36,0,.4s-.12.07-.29.08h0v.21H45v-.67h-.37Z"/><path class="cls-2" d="M10.85,92.78a.92.92,0,0,1-.08.45,1.66,1.66,0,0,1-.54,0h-.4a2.86,2.86,0,0,1-.51,0c-.08,0-.12-.21-.12-.57V91.26h.68a1.25,1.25,0,0,1,.41,0c.06,0,.09.12.09.29v0h.34v-1h-.34v.06c0,.2,0,.29-.06.3a1.61,1.61,0,0,1-.44,0H9.22v-1.8h1a.87.87,0,0,1,.38,0c.06,0,.09.11.09.24v.25h.47v-.86H7.71v.3h.06c.22,0,.35.06.39.11a1.22,1.22,0,0,1,.07.52v2.89a1.22,1.22,0,0,1-.07.52c0,.06-.17.09-.39.11H7.71v.3h3.63v-.89h-.48Z"/><path class="cls-2" d="M14,90.81l-.31-.19a1.79,1.79,0,0,1-.54-.38.66.66,0,0,1-.13-.42.71.71,0,0,1,.21-.54.67.67,0,0,1,.51-.22.85.85,0,0,1,.61.23,1.31,1.31,0,0,1,.13.56v.06h.47V89a4.89,4.89,0,0,0-1.28-.2,1.68,1.68,0,0,0-1.14.37,1.19,1.19,0,0,0-.43,1c0,.51.4,1,1.19,1.42l.32.18a1.54,1.54,0,0,1,.53.4.72.72,0,0,1,.14.48.81.81,0,0,1-.23.6.83.83,0,0,1-.62.24,1,1,0,0,1-.69-.24c-.1-.08-.15-.25-.17-.54v-.07h-.47v1a6.29,6.29,0,0,0,1.33.17,2,2,0,0,0,1.31-.38,1.28,1.28,0,0,0,.48-1,1.19,1.19,0,0,0-.25-.77A3.64,3.64,0,0,0,14,90.81Z"/><path class="cls-2" d="M15.81,89.85h.47v-.09a.91.91,0,0,1,.08-.5.64.64,0,0,1,.38-.07h.78v3.49a1.19,1.19,0,0,1-.07.52c-.05.06-.2.09-.46.11h-.07v.3h2.18v-.3h-.06a1.25,1.25,0,0,1-.46-.09,1.85,1.85,0,0,1-.07-.54V89.19h.77a.68.68,0,0,1,.39.07.91.91,0,0,1,.08.5v.09h.48v-1H15.81Z"/><path class="cls-2" d="M25.21,93.22a2.3,2.3,0,0,1-.3-.54l-1.78-3.86H22.8L21,92.67a3.73,3.73,0,0,1-.29.56.57.57,0,0,1-.32.08h-.06v.3h1.27v-.3h-.19c-.13,0-.2,0-.2-.11a1.53,1.53,0,0,1,.18-.51l.24-.51h2l.24.5a2,2,0,0,1,.18.51c0,.07-.14.11-.41.13h-.06v.3h2v-.3h-.05C25.36,93.29,25.25,93.27,25.21,93.22Zm-3.4-1.37L22.65,90l.86,1.84Z"/><path class="cls-2" d="M28.2,88.86H25.73v.3h.06a.78.78,0,0,1,.39.11,1.29,1.29,0,0,1,.06.52v2.89a1.07,1.07,0,0,1-.07.52c0,.06-.17.09-.38.11h-.06v.3h2.55a2.1,2.1,0,0,0,1.62-.67,2.6,2.6,0,0,0,.61-1.8,2.29,2.29,0,0,0-.6-1.7A2.35,2.35,0,0,0,28.2,88.86Zm.88,3.88a1.35,1.35,0,0,1-1.15.53,1,1,0,0,1-.58-.1c-.08-.07-.12-.23-.12-.49V89.19h.36a2,2,0,0,1,1.45.44,2.15,2.15,0,0,1,.42,1.51A2.72,2.72,0,0,1,29.08,92.74Z"/><path class="cls-2" d="M33.46,88.75a2.29,2.29,0,0,0-1.76.66,2.89,2.89,0,0,0,0,3.65,2.32,2.32,0,0,0,1.76.66,2.35,2.35,0,0,0,1.76-.66,2.92,2.92,0,0,0,0-3.65A2.32,2.32,0,0,0,33.46,88.75Zm1,4.12a1.23,1.23,0,0,1-2,0,3.26,3.26,0,0,1-.34-1.64,3.22,3.22,0,0,1,.34-1.63,1.23,1.23,0,0,1,2,0,3.22,3.22,0,0,1,.34,1.63A3.26,3.26,0,0,1,34.48,92.87Z"/><path class="cls-2" d="M49.33,90.81,49,90.62a1.85,1.85,0,0,1-.53-.38.61.61,0,0,1-.14-.42.75.75,0,0,1,.21-.54.69.69,0,0,1,.52-.22.82.82,0,0,1,.59.23,1,1,0,0,1,.14.56v.06h.48V89a5,5,0,0,0-1.28-.2,1.65,1.65,0,0,0-1.14.37,1.16,1.16,0,0,0-.43,1c0,.51.39,1,1.19,1.42l.31.18a1.36,1.36,0,0,1,.53.4.73.73,0,0,1,.15.48.78.78,0,0,1-.24.6.82.82,0,0,1-.61.24,1.06,1.06,0,0,1-.7-.24.8.8,0,0,1-.17-.54v-.07h-.47v1a6.37,6.37,0,0,0,1.34.17,2,2,0,0,0,1.3-.38,1.26,1.26,0,0,0,.49-1,1.19,1.19,0,0,0-.26-.77A3.55,3.55,0,0,0,49.33,90.81Z"/><path class="cls-2" d="M53.41,88.75a2.32,2.32,0,0,0-1.77.66,2.92,2.92,0,0,0,0,3.65,2.36,2.36,0,0,0,1.77.66,2.31,2.31,0,0,0,1.75-.66,2.85,2.85,0,0,0,0-3.65A2.28,2.28,0,0,0,53.41,88.75Zm1,4.12a1.23,1.23,0,0,1-2,0,3.16,3.16,0,0,1-.34-1.64,3.12,3.12,0,0,1,.34-1.63,1.23,1.23,0,0,1,2,0,3.23,3.23,0,0,1,.33,1.63A3.27,3.27,0,0,1,54.43,92.87Z"/><path class="cls-2" d="M59.49,89.16h.07a.82.82,0,0,1,.39.11,1.29,1.29,0,0,1,.06.52v2.65l-2.62-3.58H56.2v.3h.06a.83.83,0,0,1,.4.11,1.29,1.29,0,0,1,.06.52v2.89a1.07,1.07,0,0,1-.07.52c0,.06-.17.09-.39.11H56.2v.3h1.5v-.3h-.06c-.21,0-.35,0-.39-.11a1.29,1.29,0,0,1-.06-.52V90.09l2.63,3.59h.65V89.79a1.07,1.07,0,0,1,.07-.52.78.78,0,0,1,.39-.11h0v-.3H59.49Z"/><path class="cls-2" d="M63.89,88.75a2.32,2.32,0,0,0-1.76.66,2.92,2.92,0,0,0,0,3.65,2.69,2.69,0,0,0,3.53,0,2.92,2.92,0,0,0,0-3.65A2.32,2.32,0,0,0,63.89,88.75Zm1,4.12a1.14,1.14,0,0,1-1,.54,1.12,1.12,0,0,1-1-.54,3.16,3.16,0,0,1-.34-1.64,3.12,3.12,0,0,1,.34-1.63,1.14,1.14,0,0,1,1-.54,1.16,1.16,0,0,1,1,.54,3.12,3.12,0,0,1,.34,1.63A3.16,3.16,0,0,1,64.92,92.87Z"/><path class="cls-2" d="M76.12,93.22a3.06,3.06,0,0,1-.29-.54l-1.78-3.86h-.34L72,92.67a2.92,2.92,0,0,1-.29.56.54.54,0,0,1-.32.08h-.11a.66.66,0,0,1-.36-.09,3.28,3.28,0,0,1-.43-.54l-.93-1.29a1.48,1.48,0,0,0,.69-.52,1.45,1.45,0,0,0,.22-.83c0-.79-.49-1.2-1.46-1.2l-.3,0h-2v.3h.06c.21,0,.34.06.38.11a1.07,1.07,0,0,1,.07.52v2.89a1.07,1.07,0,0,1-.07.52c0,.06-.17.09-.38.11H66.7v.3h1.89v-.3h-.06c-.17,0-.28,0-.32-.11a1.29,1.29,0,0,1-.06-.52V91.53h.41l1.32,2.08h2.67v-.3h-.18c-.13,0-.2,0-.2-.11a1.68,1.68,0,0,1,.17-.51l.24-.51h2l.24.5a1.66,1.66,0,0,1,.18.51c0,.07-.14.11-.41.13h-.06v.3h2v-.3h0C76.28,93.29,76.16,93.27,76.12,93.22Zm-7-2.3a1,1,0,0,1-.79.3h-.18v-2h.36a.8.8,0,0,1,.91.91A1.13,1.13,0,0,1,69.12,90.92Zm3.6.93L73.57,90l.86,1.84Z"/><path class="cls-2" d="M53.81,74l0,0c-.45.21.11.55.33.32S54,73.87,53.81,74Z"/><path class="cls-2" d="M47,69.44a1.46,1.46,0,0,1,.3.11,1.16,1.16,0,0,1,.22.18l.17.15a1,1,0,0,0,.48.23.93.93,0,0,1,.19,0,1.87,1.87,0,0,1,.48.2,2.35,2.35,0,0,0,.6.25.34.34,0,0,0,.34.2h0a.38.38,0,0,0,.3-.21h.08a.51.51,0,0,0,.35-.07l0,0a.24.24,0,0,0,.12-.32l0,0s0-.06,0-.09a.24.24,0,0,0-.13-.18c-.06-.08,0-.19.08-.45l.07-.13a1.13,1.13,0,0,0,.13-.27,1.31,1.31,0,0,0,0-.33.29.29,0,0,1,0-.16,2.13,2.13,0,0,1,.13-.46c0-.16.11-.32.14-.49a1.15,1.15,0,0,1,.08-.29,1.53,1.53,0,0,0,.1-.81,3.57,3.57,0,0,0-.41-1,1.9,1.9,0,0,0-.26-.33.63.63,0,0,1-.24-.37,1.71,1.71,0,0,1,0-.46c0-.38,0-.79-.26-1a.85.85,0,0,0-.78.06L49,63.6a1.41,1.41,0,0,1-.39.19l-.2.05a1.08,1.08,0,0,0-.62.3,2.6,2.6,0,0,0-.55,1.5l0,.22c0,.09,0,.17-.06.27a2.09,2.09,0,0,0-.09.75.93.93,0,0,0,.13.34.53.53,0,0,1,.1.29c0,.32-.55.77-1,1a.23.23,0,0,0-.12.28C46.24,69.18,46.64,69.32,47,69.44Zm.83-1.89a1,1,0,0,0-.15-.56c0-.07-.07-.14-.08-.18a1.68,1.68,0,0,1,.08-.56,2.22,2.22,0,0,0,.07-.31,1.66,1.66,0,0,0,0-.22,2.27,2.27,0,0,1,.42-1.24.57.57,0,0,1,.37-.16l.25-.07a2.32,2.32,0,0,0,.5-.24,2,2,0,0,1,.25-.14.62.62,0,0,1,.29-.09h0a1.53,1.53,0,0,1,0,.55,2.65,2.65,0,0,0,0,.57,1.06,1.06,0,0,0,.37.62,2.31,2.31,0,0,1,.2.24,4,4,0,0,1,.35.83,1.31,1.31,0,0,1-.09.57,2.56,2.56,0,0,0-.1.34,3,3,0,0,1-.12.43,4.26,4.26,0,0,0-.16.54,2.18,2.18,0,0,0,0,.25,1.27,1.27,0,0,1,0,.2.68.68,0,0,1-.09.16,1.4,1.4,0,0,0-.09.17,1,1,0,0,0-.07.87.39.39,0,0,0-.15,0,.35.35,0,0,0-.17.1.38.38,0,0,0-.18-.09,1.63,1.63,0,0,1-.53-.21,2.21,2.21,0,0,0-.58-.25l-.23-.05a.42.42,0,0,1-.27-.13l-.14-.12a1.35,1.35,0,0,0-.33-.26,2.32,2.32,0,0,0-.35-.14,2.3,2.3,0,0,1-.39-.17A2,2,0,0,0,47.78,67.55Z"/><path class="cls-2" d="M46.78,71.41a.19.19,0,0,0-.05-.2.7.7,0,0,0-.46-.2.45.45,0,0,0-.32.12.16.16,0,0,0-.06.08c-.18.51-.11.86.2,1a.52.52,0,0,0,.21,0c.39,0,.44-.43.46-.66A1.37,1.37,0,0,0,46.78,71.41Zm-.41.12a1.13,1.13,0,0,1-.06.31s0,0-.08,0-.06-.21,0-.43a.27.27,0,0,1,.15,0A.34.34,0,0,1,46.37,71.53Z"/><path class="cls-2" d="M83.29,0H.29A.29.29,0,0,0,0,.29V88.76C0,96.79,7.26,97,8.09,97H36.25c2.34,0,3.85,2.42,3.87,2.46l.25.39a.31.31,0,0,0,.25.13.29.29,0,0,0,.24-.13l.26-.4S42.63,97,45,97H75.49a9.46,9.46,0,0,0,4.43-1.14c1.67-.95,3.66-2.95,3.66-7.12V.29A.29.29,0,0,0,83.29,0ZM83,88.76c0,3.12-1.13,5.34-3.37,6.61a8.81,8.81,0,0,1-4.14,1.06H45c-2.68,0-4.29,2.63-4.35,2.73v0h0c-.07-.11-1.68-2.74-4.36-2.74H8.09c-1.25,0-7.51-.36-7.51-7.67V.58H83Z"/><path class="cls-2" d="M6.62,79.22c0,6.57,6,6.76,6.64,6.76H38.15c1.88,0,3.09,2,3.09,2l.21.39a.3.3,0,0,0,.26.15.29.29,0,0,0,.25-.15l.2-.37s1.22-2,3.1-2H70.14A7.81,7.81,0,0,0,73.78,85c1.37-.77,3-2.41,3-5.82V8.12a.29.29,0,0,0-.29-.28H6.91a.29.29,0,0,0-.29.28V49.63l0,0,0,0ZM70.14,85.4H45.26A4.34,4.34,0,0,0,42,87.18v-37h1.41s0,0,0,.08a1.21,1.21,0,0,0,.11.69,2.36,2.36,0,0,0,.17.26c.09.1.12.15.11.38a1.54,1.54,0,0,1-.11.42,1.7,1.7,0,0,0-.12.52c0,.57.24.66.57.72l.19,0c.61.16.91,1,1.21,1.75a5.22,5.22,0,0,0,.57,1.23l.49.66c.22.32.45.64.69.94a4.26,4.26,0,0,0,.42.5,2.7,2.7,0,0,1,.72,1.09,1.64,1.64,0,0,1-.17.93,1.57,1.57,0,0,0-.1,1.21,1.22,1.22,0,0,0,1.39.54,1,1,0,0,1,.57,0,1.61,1.61,0,0,1,.62,1,3.32,3.32,0,0,0,.22.55,3.77,3.77,0,0,1,.23.64c0,.14.08.27.13.42l.08.17a.5.5,0,0,1,.07.25.4.4,0,0,1-.07.15.68.68,0,0,0-.11.29,1.67,1.67,0,0,0,.1.63c0,.11.06.23.08.34a2,2,0,0,1,0,.24,1.3,1.3,0,0,0,.28.87.75.75,0,0,0,.33.14.71.71,0,0,1,.19.06,1.58,1.58,0,0,1,.15.18l.09.13.2.23.18.2a34.29,34.29,0,0,0-2.79,2.72,9.7,9.7,0,0,0-1,1.28c-.24.34-.46.66-.66.91a15.73,15.73,0,0,0-1.37,1.85c-.36.61-.86,1.46,0,2.18a1.87,1.87,0,0,0,1.15.26h.6a10.14,10.14,0,0,0,1.31-.2l.16,0a8,8,0,0,0,2.45-.86h0a2,2,0,0,1,.42-.07,2.33,2.33,0,0,0,.58-.1l.3-.1h0l.76-.26c.36-.15.63-.24.92-.34l.76-.28c.33-.12.68-.27,1-.44a.75.75,0,0,1,.11.13.76.76,0,0,0,.64.43,2.3,2.3,0,0,0,.39,0h.1s0,0,0,0a.57.57,0,0,0,.18.31,1.64,1.64,0,0,0,.81.31l.33.09a2,2,0,0,1,.5.29l.32.22.09,0A1.16,1.16,0,0,0,61.57,78l.21.22a1.15,1.15,0,0,1,.21.33l.07.16a.62.62,0,0,1,0,.1.83.83,0,0,0,.17.34.46.46,0,0,0,.36.1h0a.32.32,0,0,1,0,.18.92.92,0,0,0,.05.45,1.13,1.13,0,0,0,.31.36,1.86,1.86,0,0,1,.2.2.8.8,0,0,1,.09.31.88.88,0,0,0,.08.33.7.7,0,0,0,.27.29l.05,0s0,0,0,.06a.24.24,0,0,0,.07.23.25.25,0,0,0,.23.06c.27-.08.32,0,.46.31a1.65,1.65,0,0,0,.4.57,1.6,1.6,0,0,0,.5.21,3.17,3.17,0,0,1,.35.14l.16.12a1,1,0,0,0,.48.26.55.55,0,0,0,.4-.1l.09,0a1.83,1.83,0,0,1,.35,0,3.59,3.59,0,0,0,.46,0l0,.22a1.2,1.2,0,0,0,.55.89,1.09,1.09,0,0,0,1.13.09.7.7,0,0,0,.26-.77.21.21,0,0,0-.11-.15l0,0s0,0,0,0a.4.4,0,0,0,.1-.12l0,.06a.81.81,0,0,0,.68.42l.16,0,.41.14a2,2,0,0,0,1.08.24.51.51,0,0,0,.22.19.82.82,0,0,0,.37,0h.19a.63.63,0,0,1,.36.3l0,.06A7.38,7.38,0,0,1,70.14,85.4Zm-11-19.55c.27.22,2.87-1.67,3-1-.45,0-1.33.69-1.94,1-.37.18-1.62.92-1.45,0a6.3,6.3,0,0,1,.9-1.89A6.53,6.53,0,0,1,61,62.27,16.8,16.8,0,0,0,59.78,64C59.69,64.22,58.93,65.67,59.16,65.85ZM69,58.78a2.28,2.28,0,0,0,1.45,1.44c.26-.27-.09-1.2.39-1.07,0,0,0,0,0,0-.06.27,0,.61,0,.91a2,2,0,0,0-.08.7c-.63-.51-1.42-.71-1.89-1.73A3.19,3.19,0,0,1,69,56.19,4.74,4.74,0,0,0,69,58.78Zm2.06,3.77a5.18,5.18,0,0,1-1.41,3.09,10.55,10.55,0,0,1-3.07,2.79,2.48,2.48,0,0,1-.53-.2,1.4,1.4,0,0,1,.62-.9c.52-.41.82-.81,1.33-1.23a8.49,8.49,0,0,0,2-2.21,26,26,0,0,1-5.64,4.34,24,24,0,0,0-4.18,2.63c.23,0,.8.11,1,.09.64-.07.75-.07,1.39-.16a3.47,3.47,0,0,0,1.07-.28C62,71.74,60.12,72.94,58.31,74a9.74,9.74,0,0,1-.93.46c-.56.22-1,.31-1.81.65-.42.17-1.57.86-1.86.49s-.41-.13-1,.33a6,6,0,0,1-3,1.13c-.39.07-2.26.47-2.16-.26l0,0A14.1,14.1,0,0,1,50,75.11c.92-.49,1.9-1.1,3-1.61l2.6-1.27c1.43-.71,2.81-1.43,4.16-2.2,2.4-1.35,4.3-2.07,5.88-3.09a31,31,0,0,0,3.22-2.33C69.31,64.14,71,62.58,71.1,62.55Zm-3.49,6.9a7,7,0,0,1-2.82.76c-.74,0-2.79.29-2.79.29A5.07,5.07,0,0,1,64.59,70C65.7,70,68,69.13,67.61,69.45ZM59.48,68,61,67.25c.3-.17.72-.5,1.07-.41a1.56,1.56,0,0,1-.47.42,44.3,44.3,0,0,1-4.24,2.66c-.83.45-1.73.87-2.61,1.34A12.51,12.51,0,0,0,52.07,73c0-.16.08-.33.2-.47a9,9,0,0,1,2.07-1.81c.81-.54,1.69-1,2.52-1.48S58.62,68.48,59.48,68ZM76.21,79.22c0,2.47-.88,4.23-2.62,5.25,0,0-.06-.07-.09-.12a1.14,1.14,0,0,0-.62-.47,2,2,0,0,0-.33,0h-.17l0-.06a.92.92,0,0,0-.22-.22.22.22,0,0,0-.22,0,.18.18,0,0,0-.09.08,5.57,5.57,0,0,1-.74-.23,3.59,3.59,0,0,0-.48-.17l-.18,0c-.21,0-.25,0-.34-.18s0-.1,0-.14a.55.55,0,0,0-.22-.49.49.49,0,0,0-.46,0,.26.26,0,0,0-.11.32c0,.09,0,.12-.11.27a.89.89,0,0,0-.25.61.23.23,0,0,0,.11.2.19.19,0,0,0,.14,0l0,0a.59.59,0,0,1-.58-.06.77.77,0,0,1-.37-.6,2.86,2.86,0,0,0-.14-.51.25.25,0,0,0-.14-.13.28.28,0,0,0-.18,0,1.74,1.74,0,0,1-.54.09,1.93,1.93,0,0,0-.42,0,.76.76,0,0,0-.27.11l-.07,0a.9.9,0,0,1-.24-.16,1.46,1.46,0,0,0-.21-.16,2,2,0,0,0-.44-.17,1.45,1.45,0,0,1-.37-.16.85.85,0,0,1-.24-.37c-.13-.26-.3-.62-.74-.62a.6.6,0,0,0-.26-.28l-.09-.08a1.06,1.06,0,0,1,0-.19,1.06,1.06,0,0,0-.17-.51,1.5,1.5,0,0,0-.27-.3,1.24,1.24,0,0,1-.2-.2.45.45,0,0,1,0-.21.7.7,0,0,0-.15-.57.39.39,0,0,0-.39-.13l0-.08a1.39,1.39,0,0,0-.06-.19.51.51,0,0,1-.07-.15,1.59,1.59,0,0,0-.3-.45l-.22-.23A.73.73,0,0,1,61.6,77l.16-.09.05,0a.27.27,0,0,0,.13-.15.26.26,0,0,0,0-.2.65.65,0,0,0-.66-.29.26.26,0,0,0-.16.09L61,76.29a2.49,2.49,0,0,0-.63-.36,3.15,3.15,0,0,0-.39-.1,1.56,1.56,0,0,1-.59-.2s0,0,0-.08a.52.52,0,0,0-.33-.38.7.7,0,0,0-.27,0h-.28c-.23,0-.25-.08-.32-.19l-.07-.11c.29-.14.58-.3.9-.47l.35-.18a27.76,27.76,0,0,0,4.41-2.72l1-.75.27,0a7.59,7.59,0,0,0,2.16-.58c.72-.26,1.86-1,1.9-1.73a.16.16,0,0,0,0-.14.17.17,0,0,0-.14-.06h0c-.27,0-.51,0-.75,0,.18-.15.36-.28.6-.45l0,0a4.64,4.64,0,0,0,.78-.75c.18-.24.32-.4.44-.55a5.67,5.67,0,0,0,.71-1,7.42,7.42,0,0,0,1-3.89v-.33a3.35,3.35,0,0,0,0-.45l0-.64A3.34,3.34,0,0,0,71,57.73a5.83,5.83,0,0,1-1.21-1.56L69.71,56a1.39,1.39,0,0,0-.46-.73.62.62,0,0,0-.34-.11c-.49,0-.66.61-.74.9a6.94,6.94,0,0,0,0,2.94,3.22,3.22,0,0,0,1.6,1.9h0a2.48,2.48,0,0,0-.29.17l-.12.08a3.58,3.58,0,0,0-1.1,1.18,5.41,5.41,0,0,1-.36.5,2.16,2.16,0,0,1-1.1.81,5.51,5.51,0,0,1-1.67.27H62.59a.41.41,0,0,1-.11-.35,4.71,4.71,0,0,0,0-.93,3.65,3.65,0,0,1,0-.87.61.61,0,0,0-.13-.53.46.46,0,0,0-.37-.16c-.11,0-.45,0-1.3.74a10.52,10.52,0,0,0-2.21,3.08l-.28.52h0a12.19,12.19,0,0,0-1.91,1l-.6.34a15.09,15.09,0,0,0-2,1.38l-.27.22-.2-.23-.18-.2-.07-.1a1.16,1.16,0,0,0-.25-.29.89.89,0,0,0-.38-.15l-.11,0a1.17,1.17,0,0,1-.13-.55l0-.28a3.15,3.15,0,0,0-.1-.39,1.42,1.42,0,0,1-.08-.45l.05-.09a.81.81,0,0,0,.13-.37.9.9,0,0,0-.11-.48l-.06-.14a3.3,3.3,0,0,1-.12-.38,4.58,4.58,0,0,0-.26-.73,2.78,2.78,0,0,1-.2-.49,2.05,2.05,0,0,0-.84-1.24,1.39,1.39,0,0,0-.86-.09c-.46,0-.73.07-.92-.28a1.38,1.38,0,0,1,.14-.81,2.12,2.12,0,0,0,.18-1.23A3.31,3.31,0,0,0,48.06,58a3.57,3.57,0,0,1-.4-.46c-.23-.3-.46-.62-.68-.93s-.32-.46-.48-.67A4.61,4.61,0,0,1,46,54.83c-.32-.86-.68-1.83-1.55-2a1,1,0,0,0-.21,0l-.15,0s0,0,0-.21a1.43,1.43,0,0,1,.1-.36,2.19,2.19,0,0,0,.14-.56.93.93,0,0,0-.21-.7.88.88,0,0,1-.12-.19.69.69,0,0,1-.06-.43v-.11H76.21Zm0-70.8V49.08L42.32,8.42Zm-.36,41.14H7.44l34.26-41Zm-53.66-32,.19.22a.17.17,0,0,1,0,.23l-5.12,4.54-.09.07-.06.07-.05,0-5.79,5.15a.19.19,0,0,1-.12,0,.13.13,0,0,1-.11-.05h0l-.2-.22a.16.16,0,0,1,0-.24l.41-.36,5.34-4.74L22,17.52a.16.16,0,0,1,.11-.05A.18.18,0,0,1,22.19,17.53Zm-.05-.24a3.63,3.63,0,0,1,.94-.35,3.42,3.42,0,0,1-.46.92.34.34,0,0,0-.1-.24l-.19-.22A.31.31,0,0,0,22.14,17.29Zm-4.6,5.42,5.32,4.83a.18.18,0,0,1,0,.24l-.13.14-.07.08a.16.16,0,0,1-.11.05h0a.14.14,0,0,1-.11,0l-3.16-2.87-2.16-2a.17.17,0,0,1,0-.24l.1-.1,0,0,.06-.08.07,0h.05A.28.28,0,0,1,17.54,22.71Zm-1-.66-.08.08-.12.14a.19.19,0,0,1-.13.05.13.13,0,0,1-.1,0l-1.92-1.74-.73-.66L13,19.5l-1.58-1.44a.17.17,0,0,1,0-.23l.2-.22a.15.15,0,0,1,.12-.05.15.15,0,0,1,.11,0L13.38,19l.44.4.56.51,1.53,1.38.57.53A.17.17,0,0,1,16.5,22.05Zm-3.2-2,.77.7,1.86,1.69a.42.42,0,0,0,.12.08l-4.71,4.18-.63.56a.37.37,0,0,0-.12.25.43.43,0,0,0,.09.26l.19.22A.41.41,0,0,0,11,28a.33.33,0,0,0,.16.05.39.39,0,0,0,.24-.09l5.49-4.88a.44.44,0,0,0,.11.2L18.85,25l3.45,3.14a.38.38,0,0,0,.25.09.34.34,0,0,0,.24-.09l0,0,.08-.08.12-.14a.37.37,0,0,0,0-.51l-5.33-4.83a.17.17,0,0,0-.1-.06l4.73-4.2c-.29.42-.18.63.34,1.21.32.36.56.53.76.53a.28.28,0,0,0,.2-.08c2.57-2.34,1.73-4.4,1.56-4.75a.25.25,0,0,0,0-.07.27.27,0,0,0-.08-.07,3.24,3.24,0,0,0-1.62-.43,5.13,5.13,0,0,0-3.28,1.43.24.24,0,0,0-.09.18c0,.2.1.47.42.83s.58.59.82.59a.54.54,0,0,0,.27-.07L16.73,21.9a.37.37,0,0,0-.12-.23L15.86,21l-1.41-1.27-.5-.46a3,3,0,0,1,.51-.5c.22-.16.69-.56,1-.46s.41.43.47.61c.13.41,0,1.15.31,1.49.44.56.67-.93.7-1.21.06-.58,0-1.16,0-1.74a7.31,7.31,0,0,1,.29-1.67,7.09,7.09,0,0,1,.41-1.43,3.46,3.46,0,0,1,1-1.2,5,5,0,0,0,.87-1.3c.22-.38.78-.76,1.23-.47s-.28.9-.49,1.21A5,5,0,0,0,19.56,14a16.78,16.78,0,0,1-.63,1.85,5.23,5.23,0,0,0-.34.72.9.9,0,0,0,.18.79c.34.24.32-.43.34-.64a1.39,1.39,0,0,1,.3-.69,1,1,0,0,0,.32-.58c0-.29-.12-.49-.06-.78a2.12,2.12,0,0,1,.37-.61c.18-.29.24-1.34.74-1.3.11.52-.18,1.45.34,1.7.29-.32.12-1.07.19-1.49,0-.26.19-.38.24-.62s-.09-.66.25-.58a1.44,1.44,0,0,0,.18.65c.07.09.16.06.23.14s.05.29.13.34c.23.17.33-.16.45.26.06.24.06.5.1.74s0,.54.21.59.36-.45.46-.62a5.08,5.08,0,0,1,.44-.5c.16-.2.3-.32.44.06.09.22,0,.45.16.68s.36.32.52.5a2.69,2.69,0,0,1,.33.6,1.37,1.37,0,0,1,.25.61,3.59,3.59,0,0,1-.12.93c0,.27,0,.54,0,.81-.06.58-.55.95-.65,1.52a9,9,0,0,0,0,2.43,16.15,16.15,0,0,1,.05,1.84A4.81,4.81,0,0,0,25.05,25c.08.2.23.27.38.43s.16.26.3.38c.06-.55.22-.87,0-1.37a3,3,0,0,1-.15-1.58,15.16,15.16,0,0,0-.09-1.67,9.14,9.14,0,0,1,.3-1.49c0-.37-.14-1,0-1.33.32-.56.7.37.7.67,0,.93-.31,2.49.5,3.14.14-.23,0-.48,0-.72A6.11,6.11,0,0,1,27,20.38a7.84,7.84,0,0,0-.07-1.54c-.06-.23-.24-1.44.16-.75a7.94,7.94,0,0,1,.28.77c.11.28.3.54.39.84A8.28,8.28,0,0,1,28,22.19,3.83,3.83,0,0,1,27.81,24l-1.93,2.28-1.17,1.36c-.11.14-.22.45-.39.44s-.25-.39-.26-.56a4.67,4.67,0,0,1,0-.52c.06-.54.14-1.08.19-1.6s-.49-.86-.56-1.36a7.34,7.34,0,0,0-.09-.82,3.11,3.11,0,0,1-.16-.67c0-.54-.33-.88-.31-1.46,0-.39.09-1.09-.34-1.29s-.39,0-.4.33a1.14,1.14,0,0,0,.29.71,1,1,0,0,1,.21.74,1.49,1.49,0,0,0,.09.78,4.06,4.06,0,0,1,.15,1.52.92.92,0,0,0,.17.68c.12.16.36.34.42.53.14.44-.13,1-.15,1.48s0,.93,0,1.39c0,0-.11,0-.15-.07a.4.4,0,0,1-.44.24,1.69,1.69,0,0,1-1.08,1.14c-1,.46-4.64,0-4.64,0S17,26.49,15.64,26.4s-1.59,2.79-1.59,2.79c-.33.4-1.39.27-1.79,0s-1.27-.28-1.44-.42h-.15a1.36,1.36,0,0,1-1.07-.26c-.33-.34-.17-1-.07-1.38a9.75,9.75,0,0,1,1.22-2.79c.3-.48.59-.93.9-1.4a14.86,14.86,0,0,0,.79-1.6A5.41,5.41,0,0,1,13.3,20ZM7.2,8.42H41.08L30,21.63a5.55,5.55,0,0,1-.38-.78,4.11,4.11,0,0,1-.15-.46,3.57,3.57,0,0,0-.31-.8c-.08-.12-.17-.24-.25-.37a3.48,3.48,0,0,1-.43-.69l-.07-.17a2.67,2.67,0,0,0-.76-1.18c-.13-.1-.27-.18-.39-.26a1.94,1.94,0,0,1-.57-.43,1.94,1.94,0,0,1-.29-.79,3.33,3.33,0,0,0-.1-.4l0-.15A5.51,5.51,0,0,0,25,12.7a2.76,2.76,0,0,0-.61-.37L24,12.14a4.12,4.12,0,0,1-.47-.38,2.8,2.8,0,0,0-.41-.35,4.89,4.89,0,0,0-2.4-.85,1.58,1.58,0,0,0-.45.06A3,3,0,0,0,18.86,12a5.1,5.1,0,0,1-.31.42,2.5,2.5,0,0,1-.43.43,2.56,2.56,0,0,0-.47.46,3.91,3.91,0,0,0-.55,1.1L17,14.7A5.63,5.63,0,0,1,15.46,17a17.56,17.56,0,0,0-2,1.89L12,17.46a.36.36,0,0,0-.24-.09h-.09a7.45,7.45,0,0,1,3-2.14.18.18,0,0,0,.15-.16l0-.13v0a.2.2,0,0,0-.2-.2h0A6.09,6.09,0,0,0,11,16.4a.45.45,0,0,0-.4-.29.7.7,0,0,0-.49.27.62.62,0,0,0-.2.6.48.48,0,0,0,.3.28A6.07,6.07,0,0,0,8.88,21a.19.19,0,0,0,.08.15.21.21,0,0,0,.11,0h0l.15,0A.18.18,0,0,0,9.41,21a7.24,7.24,0,0,1,1.77-3.12.38.38,0,0,0,.11.33l1.59,1.44a39.27,39.27,0,0,0-3,4.82A14.4,14.4,0,0,0,8.7,27.11c-.29.95.06,1.59,1.09,2a5.22,5.22,0,0,0,1.17.28,3.08,3.08,0,0,1,1,.33,3.63,3.63,0,0,0,1.6.36A5.55,5.55,0,0,0,15,29.89l.29-.09a5.68,5.68,0,0,1,1.19-.29h.1a.69.69,0,0,1,.07.15A.45.45,0,0,0,17,30a1.79,1.79,0,0,0,.36,0h.23A2,2,0,0,1,18,30a15,15,0,0,0,1.68.1h.5a11.65,11.65,0,0,0,1.8-.25l.53-.1a2,2,0,0,1,.39,0h.31L7.2,48.94Zm0,41.72H41.41v37a4.36,4.36,0,0,0-3.26-1.78H13.26c-1,0-6.06-.3-6.06-6.18Z"/><path class="cls-2" d="M22.7,25.88c0-.09-.14-.15-.19-.23s0-.22-.14-.35-.42-.25-.6-.42a1.22,1.22,0,0,1-.39-.65c-.07-.21-.23-.41-.29-.62-.16-.52.13-1.08,0-1.61s-.64-.42-.8-.78c0-.13.08-.49-.11-.56s-.33.18-.41.26a3.36,3.36,0,0,0-.27.49c-.1.17-.27.26-.36.4a2.91,2.91,0,0,0-.27,1.08c.23,0,.57-.13.77,0s0,.52.22.71.4,0,.59.19a2,2,0,0,1,.38.7c.09.27.17.55.26.81s.18.34.48.47a1,1,0,0,1,.55.58c.13.27.28.24.46.45s.06.41.41.42h0c-.07-.22-.14-.42-.21-.65S22.77,26.06,22.7,25.88Z"/><path class="cls-2" d="M73.55,12.18h0a.84.84,0,0,1,0-.19c0-.05,0-.11,0-.14a1.33,1.33,0,0,0-.1-.28,1,1,0,0,1-.1-.36.1.1,0,0,0-.08-.1.38.38,0,0,0-.35.18c0,.05-.09.1-.14.1h0s-.13-.23-.17-.32a1.38,1.38,0,0,0-.08-.2c-.14-.23-.27-.34-.42-.34s-.27.12-.4.26a1.75,1.75,0,0,1-.2.19,1.74,1.74,0,0,0-1.07-.64.35.35,0,0,0-.21.06,1,1,0,0,0-.36.41c-.16.28-.25.38-.49.22a.72.72,0,0,1-.18-.17.63.63,0,0,0-.53-.26.6.6,0,0,0-.43.27A1.29,1.29,0,0,1,68,11a.31.31,0,0,1-.17.09.21.21,0,0,1-.11,0,.74.74,0,0,0-.29-.1.46.46,0,0,0-.45.22.52.52,0,0,1-.21.18.34.34,0,0,1-.28,0l-.16,0-.17,0a.39.39,0,0,1-.27-.08.31.31,0,0,1-.1-.13c0-.08-.1-.21-.43-.13a.79.79,0,0,0-.46.38c-.11.15-.2.29-.37.29h0c-.11,0-.2-.11-.3-.22a.64.64,0,0,0-.53-.27.6.6,0,0,0-.35.25.47.47,0,0,1-.17.15c-.13.06-.27,0-.42-.1l-.13-.07a1.18,1.18,0,0,1-.19-.1,1,1,0,0,0-.52-.21h0a.49.49,0,0,0-.44.33.94.94,0,0,1-.12.18.42.42,0,0,1-.34.14,1.54,1.54,0,0,1-.3,0,1.65,1.65,0,0,0-.31,0,.5.5,0,0,0-.44.23,1.15,1.15,0,0,0-.16.46c0,.23-.06.27-.13.27a.68.68,0,0,1-.28-.09l-.12-.07a.43.43,0,0,0-.25-.11.36.36,0,0,0-.26.15.64.64,0,0,0-.14.27c0,.12-.06.2-.19.24a.9.9,0,0,1-.51-.06c-.19-.06-.37-.1-.48,0a.68.68,0,0,0-.12.48l0,.24a.94.94,0,0,1,0,.44c0,.06-.12.09-.27.09h-.33a.1.1,0,0,0-.09.08.91.91,0,0,0,.11.53,1.07,1.07,0,0,1,.11.33c0,.11-.07.17-.18.25a.49.49,0,0,0-.24.38.36.36,0,0,0,.2.32c.07.06.11.08,0,.28,0,0,0,.07-.06.11a.36.36,0,0,0-.06.33.86.86,0,0,0,.28.32.82.82,0,0,1,.25.28l0,0a10.25,10.25,0,0,1,2.75,3.39h-.07a.5.5,0,0,0-.47.36.61.61,0,0,0-.09.86.42.42,0,0,0,.21.16l.36.11c-.15.49-.3,1-.48,1.43a5.37,5.37,0,0,1-.72,1.46,1.06,1.06,0,0,1-.15.15c-.13.11-.29.23-.28.39s.14.27.26.36.17.13.19.19a.37.37,0,0,1-.06.24.45.45,0,0,0-.07.36c.05.14.22.25.38.35l.15.1.13.11a.77.77,0,0,0,.46.25.56.56,0,0,0,.2,0h0a1,1,0,0,1,.1.14,2.26,2.26,0,0,1,.14.26.78.78,0,0,0,.73.54v.1a.73.73,0,0,0,.57.9,1,1,0,0,1,.21.1l.16.12a1,1,0,0,0,.36.23.82.82,0,0,0,.27,0,.41.41,0,0,1,.3,0,1.3,1.3,0,0,1,0,.13.85.85,0,0,0,.06.19c.09.15.14.18.23.2a.21.21,0,0,1,.12,0c.17.09.16.11.12.21a.92.92,0,0,0-.06.3c0,.37.29.45.54.52l0,0a.49.49,0,0,0,.53-.1l.16-.11c.2-.11.24-.1.4.07l.14.15a.49.49,0,0,0,.32.16.65.65,0,0,0,.16,0,.28.28,0,0,1,.18,0,.51.51,0,0,1,.23.12.68.68,0,0,0,.44.17h0a3.39,3.39,0,0,0,.54,0l.32,0a5.58,5.58,0,0,0,.59-.1l.14,0a.33.33,0,0,1,.3.08.71.71,0,0,0,.35.15.3.3,0,0,0,.18-.08A.39.39,0,0,1,69,32a.56.56,0,0,1,.29.1l.16.11a.79.79,0,0,0,.51.2H70a.86.86,0,0,0,.72-.57h.36a1.25,1.25,0,0,0,.4,0,.39.39,0,0,0,.26-.39.28.28,0,0,1,.06-.2A.63.63,0,0,1,72,31a.74.74,0,0,0,.34-.22,1,1,0,0,0,.17-.75.4.4,0,0,0-.17-.23c-.37-1.17-.8-2.57-1.2-3.86a.63.63,0,0,0,.15-.34.6.6,0,0,0-.2-.49,1.43,1.43,0,0,0-.26-.22c-.24-.8-.45-1.52-.59-2l.33-.09a.37.37,0,0,0,.24-.2,1,1,0,0,0,.11-.84.45.45,0,0,0-.18-.18.43.43,0,0,0-.43-.45h-.09a15.89,15.89,0,0,1,1.67-3.32c.29-.49.6-1,.87-1.5l.06-.12c.3-.55.6-1.12.93-1.65l.12-.19a2.07,2.07,0,0,0,.27-.45,2.57,2.57,0,0,0-.38-1.64A.3.3,0,0,0,73.55,12.18ZM59.61,21.8c-.22-.35.09-.32.13-.51s.06-.11.1-.11a.15.15,0,0,1,.08,0l.15,0c.51.08,1,.15,1.49.2a3.11,3.11,0,0,0,.12.3.18.18,0,0,0,.18.1h0a.2.2,0,0,0,.16-.18v-.16c1.61.16,3.11.22,4.37.22h.46a2.39,2.39,0,0,1-.15.54c-.38,0-.76,0-1.13,0-.57-.05-1.16-.1-1.74-.12s-1.16,0-1.75,0l1.74.14,1.73.17c.36,0,.71,0,1.06,0a1.09,1.09,0,0,1-.08.15l-.1.16a.19.19,0,0,0,0,.18,25.93,25.93,0,0,1-6.49-1ZM62.08,21a2.43,2.43,0,0,1,4.85.22A31.84,31.84,0,0,1,62.08,21Zm9.35,9.06c0,.38-.33,1.33-.79.82s-.32-1.62-.43-2.27a8,8,0,0,0-.54-2c-.21-.46-.41-.41-.35.06a14.81,14.81,0,0,0,.58,2.34,7.8,7.8,0,0,1,.25,1.26c0,.29.19.68,0,1a.7.7,0,0,1-.63.21c-.17-.09-.21-.49-.26-.65a17.71,17.71,0,0,1-.4-2.33c-.09-.54-.12-1.07-.2-1.61s-.14-1.39-.49-1.69c0,.1,0,.2,0,.29a7.46,7.46,0,0,0,.34,2.06,20.93,20.93,0,0,1,.16,2.75c0,.26.14.69-.13.84s-.46-.14-.49-.38S68,30,68,29.64a14.25,14.25,0,0,0-.18-2.18,6.81,6.81,0,0,0-.09,2.81c0,.32.19,1-.19,1.15s-.55-.26-.68-.5c-.17.2-.29.51-.6.37s-.15-.53-.17-.82c0-.45,0-.94,0-1.4a4.49,4.49,0,0,0-.11-1.64c-.47.23-.09-.49-.46-.45,0-.11-.07-.12-.15-.18a4.57,4.57,0,0,0-.39,1.32,9.44,9.44,0,0,0-.44,1.74c0,.25.08.64-.07.87s-.45.11-.58-.13,0-.85-.17-.82,0,.53-.4.41c0-.49,0-.92,0-1.41,0-.28.31-1.29.05-1.48-.45-.33-1,1.46-1.06,1.72-.18-.17-.48-.07-.66-.25a.71.71,0,0,1-.15-.59,3.61,3.61,0,0,1,.28-.84c.15-.42.3-.83.44-1.24.19-.56.25-.84.44-1.41,0-.1.73-1.47.22-1.31-.13,0-.3.61-.37.75-.2.4-.36.81-.52,1.22s-.42.86-.59,1.3-.19.81-.33,1.18c-.27-.13-.7-.16-.71-.56s.32-.61.45-.85a7.89,7.89,0,0,0,.59-1.29c.13-.42.24-.84.38-1.26s.23-.35.06-.62c-.4.24-.46,1-.68,1.4s-.67,1.11-.93,1.67c-.09.19-.1.58-.31.67a.42.42,0,0,1-.5-.22c-.15-.43.54-.64.46-1.07-.17.1-.78.62-.74,0,0-.36.55-.46.69-.73s0-.35.09-.53a4.91,4.91,0,0,1,.28-.5c.19-.4,0-1.54.45-1.45l1.24.24a35.13,35.13,0,0,0,4.9.53h.18l.68.57a.52.52,0,0,0,0,.32c.1.29.49.45.85.56a3.36,3.36,0,0,1,.89.81,4.74,4.74,0,0,0,.85.81l.23.09c.18.57.39,1.13.6,1.7A5.31,5.31,0,0,1,71.43,30.1Zm-.51-4.84s0,0,0,0a.39.39,0,0,1,.12.45.6.6,0,0,1-.18.23s-.12.31-.39.31a.39.39,0,0,1-.2-.05.09.09,0,0,1-.06,0c-.51-.3-1.3-1.49-1.79-1.64s-.77-.28-.72-.56l0-.09a.56.56,0,0,1,0-.08l0,0,.14-.14h0l.11-.17h0l.06-.07.08-.06a.31.31,0,0,1,.13,0c.22,0,.44.3.61.59a3.35,3.35,0,0,0,1.07.76A4.65,4.65,0,0,1,70.92,25.26Zm-2.26-2a7.82,7.82,0,0,0,1-.11A7.13,7.13,0,0,0,70,24.42a3,3,0,0,1-.85-.59A1.84,1.84,0,0,0,68.66,23.26Zm1.64-1.74c.1,0,0,.34.19.38s0,.53,0,.53l-.33.08a13.22,13.22,0,0,1-2.42.36l-.22-.23,0-.08.11-.21c.48,0,1-.09,1.43-.17l-.87,0-.5,0a2.72,2.72,0,0,0,.18-.55c1.1,0,1.89-.1,2.23-.14Zm3.06-7.78a2.28,2.28,0,0,1-.38.7c-.57.91-1,1.93-1.46,2.86s-.93,1.68-1.38,2.53c-.21.4-.38,1.12-.84,1.31,0,0-.52.05-1.34.08,0-.1,0-.21,0-.32a3.26,3.26,0,0,0-6.52,0V21l-.65-.13c-.51-.1-.81-1.15-1-1.63a4,4,0,0,0-1-1.22,16.77,16.77,0,0,1-1-1.32.86.86,0,0,1-.11-1.23A5.21,5.21,0,0,1,58.7,16.7c.15.22.25.6.47.75s.29-.15.21-.4c-.16-.48-.42-1-.61-1.42s-.72-.9-.54-1.44a1.85,1.85,0,0,1,.31-.61c.17-.21.32-.37.52-.21.48.39.49,1.24.75,1.76s.21,1.06.4,1.58.51,1.09.7,1.69c.09.29.57,1.5.62.57,0-.58-.33-1-.44-1.54a16.43,16.43,0,0,0-.47-1.7,9.09,9.09,0,0,0-.47-1.57c-.22-.45-.46-.77,0-1.16s.67-.38.92-.75c.39.26.42.82.72,1.19.55.67.1-.75.2-.95.29-.56.39.38.74.23s.2-.37.46-.39.23.21.44.29c0,.36.39.73.16,1.09-.11-.11-.11-.24-.24-.27a9.93,9.93,0,0,0,.11,2.11A9.29,9.29,0,0,0,64,16.73c.1.27.15.72.36.91.29-.12.17-1.19.15-1.47,0-.57-.14-1.1-.22-1.66a4,4,0,0,1,0-1.14c0-.38-.18-.7-.09-1.06.38,0,.36.29.64-.1s.23-.43.51-.16.16.36.51.26.41-.28.44.18c.06,1-.11,2-.1,3a13.81,13.81,0,0,0,.14,1.93,3.63,3.63,0,0,0,.15-1.2,13.86,13.86,0,0,0,0-1.45,8.68,8.68,0,0,1,0-2.1c.07-.35.15-1,.59-.68.08.06.14.21.22.25s.08,0,.25,0,.08-.14.23,0,0,.85,0,1c0,.5-.1,1-.13,1.48a10.19,10.19,0,0,0,0,1.91c.25-.07.23-.74.28-1s.15-.71.21-1.07a15.81,15.81,0,0,0,.26-2c0-.38.24-1.37.65-.71s.13,1.57.07,2.25S69,15.24,69,15.8A4,4,0,0,0,68.77,17c.23,0,.32-1.08.41-1.35a10.37,10.37,0,0,0,.28-1.06,13.5,13.5,0,0,1,.3-1.78c.1-.31.4-1.21.7-1.28.9-.22.47,1.12.38,1.55-.16.76-.31,1.55-.54,2.32A5.6,5.6,0,0,0,69.84,17c.25-.18.48-1.2.59-1.52.18-.53.25-1.06.4-1.59s.25-1.78.91-2c.2.35,0,1-.08,1.35a7.65,7.65,0,0,0-.38,2c.39-.19.43-.92.53-1.28a4.82,4.82,0,0,1,.34-1c.1-.18.36-.68.61-.53s.22.55.37.69.17,0,.25.22S73.38,13.6,73.36,13.74Z"/><path class="cls-2" d="M29.75,34.51a13.57,13.57,0,0,1,.08,2.4,3.73,3.73,0,0,1-.12.72c0,.16-.06.33-.09.49,0,.31-.15,1,.34,1.38a11.55,11.55,0,0,0,1.79,1,5.17,5.17,0,0,1,0,.54,4.69,4.69,0,0,0,.09,1.71v0a1.54,1.54,0,0,1,.1.88.76.76,0,0,1-.1.14c-.15.22-.35.49-.25.76a.33.33,0,0,0,.1.17.45.45,0,0,0,.09.2.38.38,0,0,0-.07.18.5.5,0,0,0,.11.45v0a1.2,1.2,0,0,1,0,.27.76.76,0,0,1-.06.2.81.81,0,0,0,.06.79,2.93,2.93,0,0,0,.37.42l.14.13a3.93,3.93,0,0,0,.66.53c.07,0,.14.09.21.15l.12.09a.84.84,0,0,0,.62.29.78.78,0,0,0,.29-.06l.11,0,.17,0a1,1,0,0,0,.42-.12.35.35,0,0,1,.16,0,1.79,1.79,0,0,0,.33-.07.5.5,0,0,0,.35-.4c.05-.36-.34-.64-.68-.89l-.2-.16c0-.06-.06-.12-.1-.19a1.3,1.3,0,0,0-.08-.17l-.08-.2a2.52,2.52,0,0,0-.3-.56.64.64,0,0,1,0-.07.26.26,0,0,0,0-.15.2.2,0,0,0,.06-.12,1.5,1.5,0,0,0,0-.35h0s0-.07,0-.1a.78.78,0,0,0,0-.16,1.35,1.35,0,0,0-.07-.44.42.42,0,0,1,0-.15.63.63,0,0,1,.06-.31.51.51,0,0,0,0-.1,4.23,4.23,0,0,0,.22-1.37s0-.05,0-.07a.39.39,0,0,1,0,.09.94.94,0,0,1,0,.41,2,2,0,0,0,0,.35c0,.26,0,.52,0,.81a.77.77,0,0,0,.19.51.45.45,0,0,0,.32.14.49.49,0,0,0,.31-.13.44.44,0,0,0,.4.28.5.5,0,0,0,.38-.19l0,0a.74.74,0,0,0,.58.43H37l.16-.07a.51.51,0,0,0,.3.17l.2,0a.53.53,0,0,0,.34-.11.34.34,0,0,0,.28.14.38.38,0,0,0,.3-.17.49.49,0,0,0,.06.59.67.67,0,0,0,.18.17v0l0,.22a1.71,1.71,0,0,0,.07,1v0a2.31,2.31,0,0,0,.72,1c.18.12.37.27.55.41l.28.22a.7.7,0,0,0,.47.19,1.1,1.1,0,0,0,.27,0,.55.55,0,0,0,.43-.29h.11a.29.29,0,0,0,.26-.16,1.38,1.38,0,0,0-.05-.92l0-.06a1.62,1.62,0,0,0-.43-.75,2,2,0,0,1-.28-.57v0a1.72,1.72,0,0,1-.12-.41.51.51,0,0,0,.17-.25.67.67,0,0,0,0-.42l0-.06a.49.49,0,0,0,0-.38.31.31,0,0,0,.06-.13.76.76,0,0,0-.17-.58.61.61,0,0,1-.07-.15.88.88,0,0,1,.14-.23.94.94,0,0,0,.1-.14,1.71,1.71,0,0,0,.32-.75c0-.06,0-.12,0-.17a1.23,1.23,0,0,1,0-.2l.25.09a1.83,1.83,0,0,0,.65.15h.15a2.18,2.18,0,0,0,1.23-.55,2.27,2.27,0,0,0,.45-2.42,2.64,2.64,0,0,0-.76-.8,2.07,2.07,0,0,0-.47-.17,1.31,1.31,0,0,1-.3-.1h0a1.16,1.16,0,0,0-.06-.16,2.09,2.09,0,0,0-.16-.22.61.61,0,0,1-.09-.12,1.37,1.37,0,0,1,0-.37,2.6,2.6,0,0,0,0-.39c0-.35,0-.7.06-1s0-.47.06-.71a2,2,0,0,0-.07-.71l-.09-.23a1,1,0,0,1-.09-.25,4,4,0,0,1,.07-1l0-.18c0-.16,0-.31.05-.47a5.42,5.42,0,0,1,.11-.72,3.28,3.28,0,0,1,.17-.5,3.86,3.86,0,0,0,.22-.68c0-.16.06-.32.08-.48a5.1,5.1,0,0,1,.13-.7,4.21,4.21,0,0,0,.24-1.34,2.62,2.62,0,0,0-.24-1,1.67,1.67,0,0,1-.08-.2.87.87,0,0,0-.07-.17,1.26,1.26,0,0,1-.14-.65,4.5,4.5,0,0,1,.33-.85l.06-.14a1,1,0,0,1,.17-.24,1,1,0,0,0,.28-.82,2.49,2.49,0,0,0-.08-.32,1.71,1.71,0,0,1-.07-.26.81.81,0,0,1,0-.19,1.14,1.14,0,0,0,.07-.35,2.47,2.47,0,0,0-.23-.86,2.69,2.69,0,0,1-.13-.32.83.83,0,0,1,0-.15,1.7,1.7,0,0,0-.15-.41,1.46,1.46,0,0,0-.19-.26,4.08,4.08,0,0,0,.32-1l0-.07a1.43,1.43,0,0,1,0-.22c0-.31.08-.45.26-.56a2.8,2.8,0,0,1,.58-.27l.39-.16.08,0c.17-.07.48-.19.54-.51s-.34-.54-.49-.58l-.07,0-.16,0a1.73,1.73,0,0,1-.33-.1c.21-.17.31-.26.28-.43a.3.3,0,0,0-.14-.22,2.4,2.4,0,0,1,.18-.26,2.12,2.12,0,0,0,.15-.21.93.93,0,0,0,.05-.1,1.06,1.06,0,0,1,.2-.28l.14-.08a1.1,1.1,0,0,0,.4-.36.29.29,0,0,0,0-.32.73.73,0,0,0-.53-.29c-.14,0-.19,0-.21-.1s0-.07,0-.25a1,1,0,0,0,.13-.52.28.28,0,0,0-.28-.27h0a1.3,1.3,0,0,0-.47.12.67.67,0,0,1-.22.07h0a2.79,2.79,0,0,1-.24-.2c-.27-.22-.39-.33-.55-.33a.27.27,0,0,0-.15.05.37.37,0,0,0-.21.3c0,.3.26.61.62.95l.08.08.06.08c.2.26.31.4.27.64a1,1,0,0,1-.12.4l-.05,0a.43.43,0,0,0-.32-.18c-.13,0-.33.06-.36.45a1,1,0,0,0,.13.46,1.12,1.12,0,0,1,0,.13.38.38,0,0,1,0,.28h-.06a1.3,1.3,0,0,1-.33-.17,1.54,1.54,0,0,0-.73-.26l-.4,0a2.66,2.66,0,0,0-.92.14,1,1,0,0,0-.28.14l-.09,0a1.86,1.86,0,0,1,.07-.28c.12-.47.21-.84,0-1a.39.39,0,0,0-.23-.07.46.46,0,0,0-.3.12l-.1-.17c-.11-.3,0-.4.28-.73l0,0a1.64,1.64,0,0,0,.56-1,.59.59,0,0,0-.05-.23h0a.14.14,0,0,0-.09-.12l0,0a.27.27,0,0,0-.19-.08h0A.3.3,0,0,0,40,13l-.1.11c-.12.14-.3.35-.42.35l-.15-.07a1.07,1.07,0,0,0-.47-.17.4.4,0,0,0-.39.32.74.74,0,0,0,.13.48.58.58,0,0,0,0,.11v0a1.09,1.09,0,0,1,0,.24s-.11.08-.25.12a1.34,1.34,0,0,0-.37.16.3.3,0,0,0-.12.24.69.69,0,0,0,.5.62.65.65,0,0,1,.17.09,1.82,1.82,0,0,1,.21.29,3,3,0,0,0,.2.29,1.29,1.29,0,0,1,.13.19.36.36,0,0,0-.09.34.34.34,0,0,0,.08.17h-.44a.59.59,0,0,0-.61.33.92.92,0,0,0,.32.92,2.08,2.08,0,0,0,.88.5l.22.07c.41.16.39.49.27,1.19a5.54,5.54,0,0,0-.07.57,1.32,1.32,0,0,0,0,.36,1,1,0,0,1,0,.23c0,.06,0,.06-.05.12a1.33,1.33,0,0,0-.14.2,4.88,4.88,0,0,0-.39,1.36s0,0,0,0-.05.09-.08.16a1.39,1.39,0,0,0,0,.86,2.7,2.7,0,0,1,.07.35c0,.2,0,.2-.31.27l-.15,0a2.13,2.13,0,0,1-.57.05,4.53,4.53,0,0,0-.52,0,5.5,5.5,0,0,0-.89.23l-.19.06a4.94,4.94,0,0,0-1.67,1.06c-.19.15-.36.3-.54.43l-.19.16a1,1,0,0,1-.17.15l-.2.1a1.46,1.46,0,0,0-.4.22,2.41,2.41,0,0,1-.59.39l-.14.05a.89.89,0,0,0-.51.37.52.52,0,0,0-.07.12s0,0,0,0h0L32,28a2.45,2.45,0,0,0-1,.84,1.13,1.13,0,0,0-.13.32.47.47,0,0,1-.06.17l-.1.11a2,2,0,0,0-.24.35,3.54,3.54,0,0,0-.23.64c-.05.17-.11.33-.17.48s-.08.17-.11.25a4.4,4.4,0,0,0-.34.9,6.14,6.14,0,0,0,0,2.38ZM34.37,42l0,0a2.21,2.21,0,0,0-.13.47l0,.16a2.16,2.16,0,0,1,0,.27l-.08.24c0,.06,0,.12-.07.19a1.1,1.1,0,0,0-.06.48h0a0,0,0,0,0,0,.06L34,44a.72.72,0,0,1,.15.27.13.13,0,0,1,0,.12.19.19,0,0,1-.12.06h0l0,0a.24.24,0,0,0,0,.09.14.14,0,0,0,.05.08l0,0a.26.26,0,0,1,.06.22A.19.19,0,0,1,34,45h0l0,0h-.06a.15.15,0,0,0-.11,0,.14.14,0,0,0,0,.2l0,0s0,.07,0,.14l-.09.08h-.05a.12.12,0,0,0-.09-.05h0a.13.13,0,0,0-.1.16s0,.07,0,.08,0,0-.05,0h0a.2.2,0,0,1-.14-.06.11.11,0,0,0-.09-.1h0a.11.11,0,0,0-.12.09.1.1,0,0,1,0,.07h-.13a.24.24,0,0,1-.11-.08.17.17,0,0,1,0-.14v0a0,0,0,0,0-.05-.05h0a.25.25,0,0,0,0,.11.17.17,0,0,0,0,.14.34.34,0,0,0,.16.18.41.41,0,0,0,.18,0h.07l.09,0,.06,0a.5.5,0,0,0,.24.06.3.3,0,0,0,.26-.13l0-.06.12,0,.06,0a4.58,4.58,0,0,1,.28.54l0,.11a2.41,2.41,0,0,0,.47.75,1.37,1.37,0,0,0,.28.21l.08.05h0c.1.06.19.13.2.2s0,.07,0,.09l-.1.05H35.1a.85.85,0,0,1-.23,0h0a.09.09,0,0,0-.09.08.39.39,0,0,0,0,.09,1,1,0,0,0-.06.14h-.24s0,0,0,0v0h-.06l0,0a1.74,1.74,0,0,1-.89-.29A3.28,3.28,0,0,1,32.7,47a4,4,0,0,0-.29-.29.27.27,0,0,1-.08-.07.8.8,0,0,1-.16-.16l-.05-.07,0-.09a.83.83,0,0,1,.08-.35l0-.07a.81.81,0,0,0,0-.27.28.28,0,0,0,0-.09.35.35,0,0,0,.26-.15,0,0,0,0,0,0,0v0a.05.05,0,0,0-.05,0h0l-.07,0h-.13l0,0a.17.17,0,0,1-.09-.11s0-.1,0-.1a.16.16,0,0,1,.11,0h.09a.15.15,0,0,0,.14-.11.15.15,0,0,0-.11-.17.19.19,0,0,1-.09,0s-.07-.05-.07-.07a.08.08,0,0,1,0,0,.18.18,0,0,1,.07-.05h0l.05,0a.15.15,0,0,0,0-.18.11.11,0,0,0-.07-.06l-.05,0-.06,0-.09,0H32a.13.13,0,0,1-.09-.1.18.18,0,0,1,.06-.15l.06-.07a.33.33,0,0,0,.11-.15l.14,0h0s0,0,0,0a.91.91,0,0,0,0-.67,2.45,2.45,0,0,0-.08-.29c0-.11-.06-.21-.08-.31a3.25,3.25,0,0,1-.05-.59v-.18c0-.15,0-.3,0-.45a.09.09,0,0,0,0-.05h0l.18.06.18.07.35.14.43.16a2.41,2.41,0,0,0,.78.17h.08l.22,0Zm-.32,3.62s0,0,0,0h0Zm4.52-3.91a1.86,1.86,0,0,1-.47.32l-.12,0a2,2,0,0,1-.44.11h-.39a1.7,1.7,0,0,1-1-.49,1.65,1.65,0,0,1-.5-1.18,1.69,1.69,0,0,1,.47-1.19,1.73,1.73,0,0,1,1.18-.53h.07a1.8,1.8,0,0,1,.72.16l.06,0a1.76,1.76,0,0,1,.4.27,1.6,1.6,0,0,1,.35.46,1.69,1.69,0,0,1,.2.76A1.75,1.75,0,0,1,38.57,41.74ZM40.32,33l0,.17a3.34,3.34,0,0,1,0,1c0,.08,0,.15,0,.23s0,.17,0,.25a6.46,6.46,0,0,0,0,.88,3.23,3.23,0,0,0,.28.91l.06.15a3.88,3.88,0,0,1,.18.71c0,.08,0,.15.05.23a2.23,2.23,0,0,1,0,.23h0a1.94,1.94,0,0,1-.37-.32,6.6,6.6,0,0,0-.51-.54c-.08-.09-.17-.17-.26-.26a8.81,8.81,0,0,0-.71-.66,7,7,0,0,1-1-.94,2.06,2.06,0,0,0-.28-.31,2.16,2.16,0,0,1-.34-.42,1.91,1.91,0,0,1-.14-.74c0-.1,0-.2,0-.3s0-.15.19-.3a1.6,1.6,0,0,0,.34-.44c.05-.11.11-.22.17-.33a2.6,2.6,0,0,0,.34-.78s0-.06,0-.1a1.83,1.83,0,0,1,.15-.5,1.12,1.12,0,0,1,.44-.17l.22-.05a3.3,3.3,0,0,0,.62-.32,3,3,0,0,1,.49-.26,1.29,1.29,0,0,1,0,.19,1.21,1.21,0,0,1,0,.53,3.06,3.06,0,0,1-.1.41,3.08,3.08,0,0,0-.17.78A4.52,4.52,0,0,0,40.32,33Zm-1.27,3-.13-.13L39,36Zm-.81-5.17a.33.33,0,0,0-.06.1,2,2,0,0,0-.09.33v.06a.47.47,0,0,1-.12.27,2,2,0,0,0-.24.33,1.25,1.25,0,0,0-.1.29.24.24,0,0,1,0,.09.45.45,0,0,1-.17.24l-.13.07a.94.94,0,0,0-.14.1,1,1,0,0,1,.14-.37c.12-.2.23-.41.31-.56.2-.4.39-.81.56-1.22a.44.44,0,0,1,.17,0,.15.15,0,0,1,.07,0A.87.87,0,0,0,38.24,30.87Zm-1.07,2.37a1.26,1.26,0,0,0,0,.28v0h0l0,0a1.35,1.35,0,0,0,.15.77,4.74,4.74,0,0,0,.41.64,9.81,9.81,0,0,0,1,1l0,.05c.31.3.66.62,1.13,1l.07.06.2.17.2.22,0,.06a.6.6,0,0,1,.08.08,1.49,1.49,0,0,0,.51.42H41a.24.24,0,0,1,.06.08h0s0,0,0,0,0,.18,0,.31l0,0,.07.06,0,0s0,0,0,0a.09.09,0,0,1,0,0h-.06a2.22,2.22,0,0,0-.24.32,1.83,1.83,0,0,0-.36,1.1,2,2,0,0,0,0,.24l0,0a.66.66,0,0,0-.35.12l-.12.08a2.41,2.41,0,0,0-.33.3l0,.06a1.91,1.91,0,0,1-.34.31,1,1,0,0,1-.42.13,1.9,1.9,0,0,0-1.66-2.8h0a1.91,1.91,0,0,0-.94.25l0-.11a1.25,1.25,0,0,0,0-.19,1.22,1.22,0,0,0-.07-.17l-.12-.12h0c-.16-.11-.15-.31-.12-.5s0-.2.05-.3a1.65,1.65,0,0,0,.06-.32c0-.19.07-.4.11-.61s.1-.41.16-.59.09-.26.15-.38l.08-.21a4.78,4.78,0,0,0,.33-1.24c0-.13,0-.24,0-.36s0-.19,0-.28a1.08,1.08,0,0,1,0-.27.47.47,0,0,1,.05-.1.05.05,0,0,1,0,0,.45.45,0,0,0,.06.12v0s0,0,0,0ZM41,37.37s0,0,0,0l.09.27v0a.63.63,0,0,1,0,.23v.19h0a.33.33,0,0,1-.06-.1h0v0c-.05-.19,0-.4-.05-.57C41.05,37.4,41,37.39,41,37.37Zm-.44,3.11h0Zm-1.69,1h0Zm2.48.45v0a.05.05,0,0,0,0-.05h0l-.05,0a.72.72,0,0,0-.11.35v0a.87.87,0,0,1-.09.32,1.19,1.19,0,0,1-.09.15l-.09.18a.91.91,0,0,0-.1.29.57.57,0,0,0,0,.13s0,0,0,0h0a1.16,1.16,0,0,0,0,.18l0,0h-.06a.06.06,0,0,0,0,.06.27.27,0,0,1,.07.08,1,1,0,0,1,.08.11A1.13,1.13,0,0,1,41,44a.27.27,0,0,1,0,.1h-.12l-.08,0h0a.11.11,0,0,0-.11.1.09.09,0,0,0,0,.07.1.1,0,0,0,.08,0h0a.25.25,0,0,1,.15.2s0,.08,0,.08h-.09l-.06,0a.14.14,0,0,0-.07.1.13.13,0,0,0,0,.1l0,0,.06,0h.06s0,0,0,0a.23.23,0,0,1,0,.14.22.22,0,0,1-.1.11h0a.13.13,0,0,1-.07,0l-.09,0a.13.13,0,0,0-.1,0,.12.12,0,0,0,0,.1.1.1,0,0,0,0,.1l0,0-.06,0h-.06c-.09,0-.14,0-.15-.05a.11.11,0,0,0-.12-.08h0a.13.13,0,0,0-.12.14c0,.06,0,.08-.07.08h0v0a.07.07,0,0,0,0,0h0l0-.05h-.05l-.09,0-.05,0h0l0,.06a.21.21,0,0,1-.07-.18h0a0,0,0,0,0,0-.05h0v0h0a.29.29,0,0,0,0,.16s0,0,0,0a.35.35,0,0,0,.08.13.37.37,0,0,0,.18,0h0a.46.46,0,0,0,.26.07h0a.31.31,0,0,0,.23-.1h0l.06,0a.5.5,0,0,0,.17,0h.1a.36.36,0,0,0,.27-.16.05.05,0,0,1,0,0h0a.11.11,0,0,1,0,0s0,0,0,.08a.64.64,0,0,0,0,.36,1.76,1.76,0,0,0,.17.37c0,.09.1.18.16.27a3.84,3.84,0,0,1,.22.39l.06.16c.06.18.13.37.17.54a1.54,1.54,0,0,1,0,.3h0a.24.24,0,0,1-.14-.06l-.07,0-.06,0a.12.12,0,0,0,0,.07.13.13,0,0,0,0,.09.31.31,0,0,1,0,.09h0a.46.46,0,0,0-.13.08l0,0,0,.05a.53.53,0,0,1-.28,0,2.78,2.78,0,0,0-.71-.58,1.85,1.85,0,0,1-.6-.58l-.22-.39a1.34,1.34,0,0,1-.15-.38,1.81,1.81,0,0,1,0-.4,1.93,1.93,0,0,0,0-.48s0,0,0,0,0-.1,0-.15h0a.07.07,0,0,0,.05-.07h0a0,0,0,0,1,0,0v0s0,0,0,0a0,0,0,0,0,0,0h0l0,0a.08.08,0,0,0,0,0H39l-.09-.08,0,0a.11.11,0,0,1,0-.05.19.19,0,0,1,.06-.13l0,0,.12,0a.14.14,0,0,0,.11-.11v0h0a.15.15,0,0,0-.14-.13h0l-.09,0h0l0,0h0a.37.37,0,0,1,.1-.22.16.16,0,0,0,.06-.13.15.15,0,0,0-.14-.12h0s-.06,0-.06-.07h0s0,0,0,0a.85.85,0,0,1,.11-.21l0,0,.13-.18s0,0,0,0h0c0-.14,0-.26,0-.39a.5.5,0,0,1,.05.13.06.06,0,0,0,0,0h0a0,0,0,0,0,0,0,2.16,2.16,0,0,0,0-.72,2.05,2.05,0,0,0-.1-.34,1,1,0,0,0-.18-.33l0,0h0s0,0,0,0a.71.71,0,0,1,0-.32h0l0,.12a.27.27,0,0,1,0-.12l.13,0a.55.55,0,0,0,.28-.07,1,1,0,0,0,.44-.33L40,41l.2-.23a1.07,1.07,0,0,1,.38-.24,1.82,1.82,0,0,0,.53.92l.27.2h0a.11.11,0,0,1,0,0A.63.63,0,0,1,41.39,42Zm2.27-3a1.7,1.7,0,0,1,.54,1.19A1.68,1.68,0,0,1,44,41a2.49,2.49,0,0,1-.55.57,1.72,1.72,0,0,1-.88.25h0a1.75,1.75,0,0,1-1.17-.49,1.63,1.63,0,0,1-.47-1.14A1.61,1.61,0,0,1,41.31,39a1.69,1.69,0,0,1,1.15-.52h.06A1.67,1.67,0,0,1,43.66,38.93Zm-.29-23.21s0,0,0,0a.42.42,0,0,0,.06.14.35.35,0,0,0,.13.11l.1,0h.08a.79.79,0,0,0,.38-.36,1.36,1.36,0,0,0,.15-.47.76.76,0,0,0-.11-.5,2,2,0,0,0-.5-.53L43.52,14a.64.64,0,0,1-.23-.3.36.36,0,0,1,0-.11,1.45,1.45,0,0,0,.17.19l0,0a.9.9,0,0,0,.38.27H44a.59.59,0,0,0,.2,0h0l.22-.11,0,0,.17-.08h0l0,.08-.07.2a1.69,1.69,0,0,0-.08.24v0a.53.53,0,0,0,0,.28.61.61,0,0,0,0,.12.57.57,0,0,0,.08.13.54.54,0,0,0,.25.16.75.75,0,0,0,.31.05h.08l0,0-.18.09-.08,0a1.67,1.67,0,0,0-.28.18.33.33,0,0,0-.12.19l0,.15a1,1,0,0,1-.2.36l-.1.13,0,0a.73.73,0,0,0-.13.28.21.21,0,0,0,.08.22h0a.41.41,0,0,0-.19.14.26.26,0,0,0-.06.14.19.19,0,0,0,0,.08s0,0,0,.05a.19.19,0,0,1,0,.15.84.84,0,0,1-.31.22,1,1,0,0,1-.35.09h0a.27.27,0,0,1,0-.12l.07-.08a1.86,1.86,0,0,0,.22-.25.78.78,0,0,0,.12-.22.94.94,0,0,0,.07-.34,1.69,1.69,0,0,0-.12-.55v0h0a1.89,1.89,0,0,1-.09-.38h0Zm-4.25-.06,0-.16a.32.32,0,0,0-.12-.18,1.08,1.08,0,0,0-.29-.18s0,0-.07,0L38.41,15l0,0h0a1,1,0,0,0,.36-.05.7.7,0,0,0,.24-.17.54.54,0,0,0,.07-.13.69.69,0,0,0,0-.13.48.48,0,0,0,0-.27v0c0-.09,0-.16-.08-.23L39,13.78l0-.07h0l.16.07h0l.22.11h0a.49.49,0,0,0,.19,0h.11a1.09,1.09,0,0,0,.39-.28l0,0c.06-.08.12-.14.16-.2a.53.53,0,0,1,0,.12.94.94,0,0,1-.22.31l-.15.12a2.12,2.12,0,0,0-.49.54.79.79,0,0,0-.1.51,1.33,1.33,0,0,0,.16.46.75.75,0,0,0,.39.35h.07l.12,0a.31.31,0,0,0,.12-.11.47.47,0,0,0,.07-.17h0a.94.94,0,0,1-.08.39V16a1.42,1.42,0,0,0-.11.55,1,1,0,0,0,.17.51l0,.05a1.75,1.75,0,0,0,.23.24l.07.08a.27.27,0,0,1,0,.12h0a1,1,0,0,1-.34-.08.62.62,0,0,1-.31-.22.15.15,0,0,1,0-.09.09.09,0,0,1,0-.05.33.33,0,0,0,0-.14.22.22,0,0,0-.06-.14.33.33,0,0,0-.19-.13h0a.24.24,0,0,0,.08-.23.86.86,0,0,0-.14-.27l0,0-.1-.13A.92.92,0,0,1,39.12,15.66Zm1,.8v.09s0,0,0,0S40.16,16.48,40.16,16.46Zm-.77,0,0,0,0,0Zm.26,6.1a1.21,1.21,0,0,1,.11-.3c0-.05.05-.12.08-.18s0-.17.08-.26,0-.05,0-.07a.85.85,0,0,1,.06-.17l0,0a1,1,0,0,1,.13-.17l.07-.08s0,0,0,0,0,0,0,0l0,0h0a0,0,0,0,0,0-.06.67.67,0,0,1-.06-.12l0,0h0v0a0,0,0,0,0-.05-.05h0a1.14,1.14,0,0,1-.06-.47,3.61,3.61,0,0,1,.08-.65v-.1a2.74,2.74,0,0,0,0-.81.93.93,0,0,0-.17-.42.92.92,0,0,0-.36-.28l-.15-.06a2.7,2.7,0,0,1-.55-.24,1.16,1.16,0,0,1-.51-.46,1,1,0,0,1-.1-.3h0s0,0,.13,0h.21l.24,0h0a.47.47,0,0,0,.37-.14,1,1,0,0,0,.17,0,.43.43,0,0,0,0,.16.79.79,0,0,0,.4.25,1,1,0,0,0,.35.07h.11l0,0a.36.36,0,0,0,0-.09h.06a.06.06,0,0,0,0-.07l-.07-.08h0s0,0,0-.05l0-.06a2.31,2.31,0,0,1-.2-.24.08.08,0,0,1,0,0l.08-.09a0,0,0,0,0,0,0v0l0,0h0a2.51,2.51,0,0,1,.67-.22l.4,0h.27l.53.12.16,0a1.6,1.6,0,0,1,.23.08,1.16,1.16,0,0,0,.45.12h0s0,0,0,0h0a0,0,0,0,0,0-.06l-.09,0,.19.06.08,0a.72.72,0,0,1-.09.2,2.23,2.23,0,0,1-.19.24s0,0-.05.07,0,0,0,0h0v0h0l-.06.09a0,0,0,0,0,0,.07h0l0,0,0,.1.05,0h.09a1,1,0,0,0,.36-.07.77.77,0,0,0,.39-.26.25.25,0,0,0,.05-.16h0l.09,0h0s0,0,0,.06a1.31,1.31,0,0,0,.47.16l.13,0a1.07,1.07,0,0,1,.27.08l.05,0,0,0h0a.15.15,0,0,1,0,.06,1.21,1.21,0,0,1-.2.19,1.26,1.26,0,0,1-.23.13,2.75,2.75,0,0,1-.41.11.47.47,0,0,0-.17,0l-.15,0,.11,0h0l.06,0,.24-.11a.61.61,0,0,0,.27-.22,0,0,0,0,0,0-.05s0,0,0,0h0l-.23,0-.38.09a.9.9,0,0,0-.31.18.47.47,0,0,0-.16.35,0,0,0,0,0,0,0l0,0a1,1,0,0,0-.17.29,2.34,2.34,0,0,0-.12.3c-.05.16-.09.33-.13.49a4.37,4.37,0,0,1-.19.67,2.38,2.38,0,0,1-.64,1l-.23.17a.33.33,0,0,1-.21.08.57.57,0,0,1-.39-.26,4.53,4.53,0,0,1-.52-1.06,2.71,2.71,0,0,1-.12-.51,2.71,2.71,0,0,0-.2-.67s0,0,0,0h0a0,0,0,0,0,0,.06,2.21,2.21,0,0,1,.13.64,3.89,3.89,0,0,0,.1.56,4.4,4.4,0,0,0,.5,1.14l0,.07a1,1,0,0,0,.18.18.58.58,0,0,0,.36.14h0a.69.69,0,0,0,.34-.12,3,3,0,0,0,.72-.73.69.69,0,0,1,.19.24,2,2,0,0,1,.17.48c0,.08,0,.15,0,.22v0a1.71,1.71,0,0,0,.09.27l0,.07a1.25,1.25,0,0,1,.13.4.41.41,0,0,1,0,.19.23.23,0,0,1-.14.11,1.07,1.07,0,0,1-.33.07l-.16,0-.15,0-.14.06-.16.1-.08.05a.48.48,0,0,1-.19.09H42l-.09,0a2,2,0,0,1-.28-.16l-.15-.11a1.19,1.19,0,0,0-.55-.21h-.6a2,2,0,0,1-.45,0,.27.27,0,0,1-.16-.08A.19.19,0,0,1,39.65,22.6Zm3.24-1.71-.06,0a0,0,0,0,0,0,0Zm-8.44,5.62a.37.37,0,0,0,.27-.09l-.07.1,0,.06h0s0,0,0,0l0,0a2.7,2.7,0,0,1-.4.25l-.07,0-.13.07A3,3,0,0,0,34.45,26.51ZM31.8,28.67a.46.46,0,0,1,.16-.14.67.67,0,0,1,.17-.06h.06a.42.42,0,0,0,.3-.25l0-.1c0-.05,0-.1,0-.11a.39.39,0,0,1,.19-.1l.15,0a1,1,0,0,0,.42-.15,1.76,1.76,0,0,0,.3-.31.52.52,0,0,1,.1-.11,1.39,1.39,0,0,1,.44-.35,1.85,1.85,0,0,0,.37-.25,1.06,1.06,0,0,0-.13.46,1.59,1.59,0,0,0,.08.55,2.33,2.33,0,0,0,1.11,1.37l.28.19h0a.05.05,0,0,0,0,0,0,0,0,0,0,0-.05h0a3.56,3.56,0,0,0-.31-.26,2.39,2.39,0,0,1-.47-.42,2.43,2.43,0,0,1-.44-.88,1.54,1.54,0,0,1,0-.47.89.89,0,0,1,.15-.42,2.71,2.71,0,0,1,.71-.68,7.51,7.51,0,0,1,.82-.61,2.68,2.68,0,0,1,.91-.38,5.31,5.31,0,0,1,.79-.09h.22a2.61,2.61,0,0,0,1-.23s0,0,0,0,0,0,0,0l.15-.09s0,0,.11-.12a.26.26,0,0,0,.09.1.33.33,0,0,0,.13,0,.29.29,0,0,0,.1,0,.31.31,0,0,0,.13-.12l0-.11a1.47,1.47,0,0,0,0-.36v0a1.48,1.48,0,0,1,.14-.64.7.7,0,0,1,.13-.16c.18,0,.35,0,.52,0a.89.89,0,0,1,.43.18l.13.09a1.29,1.29,0,0,0,.35.2.47.47,0,0,0,.17,0h.17a.93.93,0,0,0,.29-.12l.08-.06.14-.09.1,0,.11,0,.14,0H43a.46.46,0,0,1,.07.14.32.32,0,0,1,0,.09s0,0,0,0l0,0h0a.06.06,0,0,0,0,.06,1,1,0,0,1,.09.51c0,.07,0,.15,0,.23a3.43,3.43,0,0,0-.06.34h0a.14.14,0,0,0,0,.1,1.76,1.76,0,0,1-.14.49,4.21,4.21,0,0,1-.3.55,3.94,3.94,0,0,1-.37.49,1.05,1.05,0,0,1-.46.31l-.21,0a.59.59,0,0,1-.31-.07,1.23,1.23,0,0,1-.28-.24c-.06-.05-.11-.11-.18-.16L40.65,26a3.48,3.48,0,0,1-.3-.26A1.79,1.79,0,0,1,40,25.2a0,0,0,0,0-.05,0h0a0,0,0,0,0,0,.06,1.41,1.41,0,0,0,.27.61c.09.11.2.21.29.31l.16.15.12.13a2,2,0,0,0,.37.34.85.85,0,0,0,.37.11h.26l.11,0a1.34,1.34,0,0,0,.58-.4,2,2,0,0,0,.25-.34l.06-.1a1.43,1.43,0,0,0,.06.45s0,0,0,0h0a.88.88,0,0,0,.1.36v0L43,27c0,.07.07.13.09.19s0,.08,0,.13l0,.07a1.85,1.85,0,0,1,.06.52,2.54,2.54,0,0,1-.12.73A3.3,3.3,0,0,1,43,29c0,.11-.09.22-.13.35a3,3,0,0,0-.09.38l0,.21a1,1,0,0,1,0,.17,6.34,6.34,0,0,1-.15.73l-.11.33c-.11.37-.22.76-.3,1.15,0,.23-.07.48-.1.76a2.68,2.68,0,0,0,0,.8,1.4,1.4,0,0,0,.1.39,1.26,1.26,0,0,1,.12.34,3.59,3.59,0,0,1,0,.73v.07a5.16,5.16,0,0,1,0,.68c0,.1,0,.2,0,.3s0,.31-.05.46a1.28,1.28,0,0,1,0,.19v.26a1.22,1.22,0,0,0,0,.33h0s0,.07,0,.1l0,.1a.76.76,0,0,0,.13.17.39.39,0,0,1,.13.27h-.1a1.92,1.92,0,0,0-1.06.33h0a.22.22,0,0,1-.05-.14v0a1.5,1.5,0,0,1,0-.22h0a.22.22,0,0,0,0-.08.28.28,0,0,0,0-.09.43.43,0,0,1,0-.11,1.06,1.06,0,0,0,0-.26v0a3.59,3.59,0,0,0-.12-.47l0-.08L41,36.55v0a6.39,6.39,0,0,1-.24-1,5.81,5.81,0,0,1,0-1v-.07a4.89,4.89,0,0,0,0-1.14c0-.1,0-.21-.05-.31a7,7,0,0,1-.11-.78,2.88,2.88,0,0,1,0-.52c0-.13,0-.26.07-.39l0-.15a5.43,5.43,0,0,0,.09-.56A1.14,1.14,0,0,0,40.7,30l0,0h0s0,0,0,0a.31.31,0,0,0-.12-.2h0a.19.19,0,0,0-.08,0,.23.23,0,0,0-.11,0s.05-.08.06-.11h0l.1-.15a2.9,2.9,0,0,1,.27-.41s0,0,0-.06a.05.05,0,0,0,0,0h0a1.69,1.69,0,0,0-.49.47l0,0a1.76,1.76,0,0,1-.45.42,2.56,2.56,0,0,1-1.21.44,0,0,0,0,0-.05,0,.07.07,0,0,0,0,0h0a.35.35,0,0,0,.14,0l-.21,0h0c-.13,0-.09-.08-.19,0,.11-.26.22-.51.32-.76l.09-.22a0,0,0,0,0,0-.06h0a.05.05,0,0,0-.05,0l-.36.7-.21.42h0c-.18.37-.38.75-.58,1.11l-.31.54a1.45,1.45,0,0,0-.19.45.14.14,0,0,0,0,.07l0,.09h0l-.06.13a.84.84,0,0,0-.06.14,1,1,0,0,0-.08.35c0,.1,0,.2,0,.3a1.83,1.83,0,0,1,0,.33,4.35,4.35,0,0,1-.3,1.18,5.4,5.4,0,0,0-.37,1.22l-.09.63c0,.1,0,.2,0,.3s0,.22,0,.33a.93.93,0,0,0,0,.33.36.36,0,0,0,.08.18.71.71,0,0,0,.13.12c.14.08.17.22.22.38l0,.14h0a2.34,2.34,0,0,0-.31.24,1.67,1.67,0,0,0-.34.45h0l0,0h0a.18.18,0,0,1,0,.07l-.06,0a.2.2,0,0,1-.11,0,.41.41,0,0,0,0-.09l0,0,0-.06a.07.07,0,0,0-.06,0h0a.07.07,0,0,1-.06,0l-.06,0a.38.38,0,0,1-.06-.18,0,0,0,0,0,0,0,.09.09,0,0,0-.07-.05s0,0,0,0h-.12s-.05,0-.08-.1a1.58,1.58,0,0,1-.06-.35c0-.13,0-.26,0-.37a1.15,1.15,0,0,1,.09-.34,1.07,1.07,0,0,1,.07-.19,2.09,2.09,0,0,0,.16-.57c0-.23,0-.46,0-.68V36.5a10,10,0,0,1,.4-2.88l.09-.28c.07-.22.14-.44.2-.66,0,0,0,0,0-.06s.08-.33.11-.5a4.64,4.64,0,0,0,.07-.64v-.14c0-.31.05-.54.08-.75S36,30,36,29.84s.11-.33.17-.49a.25.25,0,0,0,0-.07l.06-.16.28-.72,0-.06a2.56,2.56,0,0,0,.21-.68s0-.05,0-.05h0s0,0,0,0a3.1,3.1,0,0,1-.23.6l0,.11-.31.7c0,.06-.06.13-.08.2a.61.61,0,0,0,0,.12l-.15.41a6.36,6.36,0,0,0-.17.77c0,.22-.07.47-.1.77v.12l-.09,0a.46.46,0,0,1-.24-.08,1.48,1.48,0,0,1-.38-.37.69.69,0,0,1-.11-.13,2.44,2.44,0,0,0-.27-.29.74.74,0,0,0-.27-.19l-.28-.09-.18,0a2,2,0,0,1-.35-.09,1.58,1.58,0,0,1-.43-.28l-.44-.35,0,0a4.16,4.16,0,0,1-.39-.32.92.92,0,0,1-.29-.37A.18.18,0,0,1,31.8,28.67ZM30,31.7a7.92,7.92,0,0,1,.39-1c0-.08,0-.29.09-.43v0a.19.19,0,0,1,0-.09.12.12,0,0,1,.14,0h0a.62.62,0,0,0,.27.33,2.28,2.28,0,0,0,.68.23l.1,0a1.59,1.59,0,0,1,.44.12l0,0a.49.49,0,0,1,0,.17h0s0,0,0,0l0,0a1.28,1.28,0,0,1-.14.21l-.08.1a.76.76,0,0,0-.11.24.49.49,0,0,0,0,.27A.14.14,0,0,0,32,32a.47.47,0,0,0,.37-.23.9.9,0,0,0,.11-.34,1.29,1.29,0,0,0,0-.34c0-.08,0-.14,0-.2l.06,0a4,4,0,0,1,.43.29l.14.1,0,0a6.34,6.34,0,0,0,.6.41h0l.09,0,.53.25h0l.09,0c0,.15,0,.3,0,.44v.13a1.48,1.48,0,0,1,0,.21.38.38,0,0,1,0,.22h0a.27.27,0,0,1,0-.14l0-.22a1.47,1.47,0,0,0,0-.36.1.1,0,0,0,0,0h0l0,0a1.08,1.08,0,0,1-.08.19,2.32,2.32,0,0,0-.13.37.9.9,0,0,0,0,.18.38.38,0,0,0,.1.22l.06.05h0l.11,0h0a.28.28,0,0,0,.23-.16.63.63,0,0,0,.07-.34,1.51,1.51,0,0,0,0-.32,1.49,1.49,0,0,0-.11-.4c.21.09.41.2.61.31h.05s0,0,0,0h0a3.66,3.66,0,0,0-.66-.45l-.22-.12-.46-.26a4.21,4.21,0,0,1-.61-.43,5.68,5.68,0,0,0-.67-.47,2.33,2.33,0,0,0-.78-.27,2.75,2.75,0,0,1-.71-.19.38.38,0,0,1-.19-.21c0-.07,0-.16.1-.28l.1-.12a1.33,1.33,0,0,0,.14-.19.54.54,0,0,0,.09-.42,0,0,0,0,0,0,0h0s0-.05,0-.07a.5.5,0,0,1,.21-.3.41.41,0,0,0,0,.11.85.85,0,0,0,0,.16,1.17,1.17,0,0,0,.37.51,3,3,0,0,0,.35.29l.1.07.44.35a2.57,2.57,0,0,0,.51.31,2.89,2.89,0,0,0,.47.11l.09,0a1,1,0,0,1,.46.19,3.38,3.38,0,0,1,.26.27l.12.13a1.84,1.84,0,0,0,.46.36.56.56,0,0,0,.27.08h.11a4,4,0,0,1-.06.5c0,.14-.06.28-.1.42s0,.06,0,.09l-.21.67c0,.09-.07.19-.1.28a6,6,0,0,0-.2.76,5.22,5.22,0,0,0-.12.77c-.05.52-.06,1-.08,1.55v.31c0,.16,0,.31,0,.46a2.8,2.8,0,0,1-.14.51c0,.07-.05.13-.07.19a2.27,2.27,0,0,0-.08.41,1.88,1.88,0,0,0,0,.4,1.24,1.24,0,0,0,.1.4.4.4,0,0,0,.16.19l.11,0h.06a.43.43,0,0,0,.09.16.19.19,0,0,0,.16.07h.08l0,0,0,0a.16.16,0,0,1,0,.08s0,.06.06.06h0a.39.39,0,0,0,.2,0l0,0a1.74,1.74,0,0,0-.13.72,1.92,1.92,0,0,0,.36,1.09h-.05a1.77,1.77,0,0,0-.37,0h-.5a1.68,1.68,0,0,0-.38.12,1.26,1.26,0,0,1-.27,0h0a2.12,2.12,0,0,1-.75-.18L33,41.41l-.36-.15a.9.9,0,0,0-.21-.08l-.18-.07-.05,0v0s0-.12,0-.16a7.38,7.38,0,0,0,.09-.85c0-.46,0-1.07,0-1.69a12.62,12.62,0,0,0-.2-1.69A7.57,7.57,0,0,0,31.6,35s-.05-.11-.07-.17a6.25,6.25,0,0,1-.24-.6,1.84,1.84,0,0,1-.08-.38l0-.28a.71.71,0,0,0,0-.14,5.61,5.61,0,0,1,0-.82,1.49,1.49,0,0,1,.1-.39.56.56,0,0,0,0-.44.05.05,0,0,0-.05,0h0a0,0,0,0,0,0,.06.54.54,0,0,1-.05.37,1.66,1.66,0,0,0-.14.41,6.12,6.12,0,0,0,0,.85v.07c0,.12,0,.24,0,.36a1.84,1.84,0,0,0,.09.43,4.57,4.57,0,0,0,.22.62.87.87,0,0,0,.07.17,8.55,8.55,0,0,1,.41,1.6A10.55,10.55,0,0,1,32,38.37c0,.49,0,1,0,1.67,0,.07,0,.13,0,.2v0h0a.06.06,0,0,0,0-.06l-.1,0a9,9,0,0,1-1-.66l-.54-.4a.48.48,0,0,1-.21-.48,2.17,2.17,0,0,1,.09-.41,1.55,1.55,0,0,0,.05-.23,3.33,3.33,0,0,0,.09-.61v-.07a12,12,0,0,0,0-1.36c0-.45-.07-.91-.1-1.34s-.08-.9-.1-1.34A5.46,5.46,0,0,1,30.17,32a2.42,2.42,0,0,1,.2-.57,2.14,2.14,0,0,0,.23-.7s0-.05,0-.05h0s0,0,0,0a2.62,2.62,0,0,1-.26.63,2.84,2.84,0,0,0-.23.5A.5.5,0,0,1,30,31.7Z"/><path class="cls-2" d="M40.32,18.19v0a0,0,0,0,1,0,0,.07.07,0,0,0,0-.09h0L39.91,18c-.14,0-.26,0-.39-.09a1.71,1.71,0,0,1-.65-.28h0s0,0,0,0a0,0,0,0,0,0,.06.66.66,0,0,0,.26.32,1.59,1.59,0,0,0,.37.18,2.57,2.57,0,0,0,.4.07H40l.2,0s0,0,0,0l0,0s0,0,0,0h.06a.05.05,0,0,0,0,0Z"/><path class="cls-2" d="M41.45,20.79a.6.6,0,0,0,.24.16h.05a.13.13,0,0,0,.1,0,.79.79,0,0,0,.12-.15.56.56,0,0,0,.09-.19h0a.1.1,0,0,0-.08-.13h0l-.15,0h0l-.11-.05h-.2a.09.09,0,0,0-.09.08h0a.36.36,0,0,0,0,.18A.35.35,0,0,0,41.45,20.79Zm.21-.23h.13a.18.18,0,0,1-.07.08s0,0-.06-.05l0,0Z"/><path class="cls-2" d="M40.52,18.67h.06l.08,0h0a.84.84,0,0,1,.14.06l0,0h0a0,0,0,0,0,0,0A.22.22,0,0,0,41,19h.06a.33.33,0,0,0,.15,0,.09.09,0,0,0,.06-.1v0a.31.31,0,0,0-.15-.25.5.5,0,0,0-.2-.09h-.22a.22.22,0,0,0-.21.14,0,0,0,0,0,0,0S40.51,18.67,40.52,18.67Z"/><path class="cls-2" d="M42.42,19.06h0a.26.26,0,0,0,.25-.17v0s0-.05,0-.05h-.11l.06,0h.08l.2-.06a.05.05,0,0,0,0,0,0,0,0,0,0,0-.05.63.63,0,0,0-.25-.09h-.09a.35.35,0,0,0-.24.1h0a.27.27,0,0,0-.07.19.23.23,0,0,0,.06.15A.19.19,0,0,0,42.42,19.06Z"/><path class="cls-2" d="M42.08,22.4h.2a1.69,1.69,0,0,0,.34-.08l.25-.11,0,0h0l.07,0s0,0,0,0a.05.05,0,0,0,.05,0h0s0,0,0,0a.31.31,0,0,0,0-.11.21.21,0,0,0-.1-.13.34.34,0,0,0-.14,0h-.08a2,2,0,0,0-.31.08h0l-.3.12h0a.53.53,0,0,1-.17,0h-.08a0,0,0,0,0,0,0,0,0,0,0,0,0,.05A.3.3,0,0,0,42.08,22.4Z"/><path class="cls-2" d="M40.13,22.15h.08a.63.63,0,0,1,.38.1,1.41,1.41,0,0,1,.27.24l.1.1a1.57,1.57,0,0,0,.46.34,1.05,1.05,0,0,0,.44.1H42A.07.07,0,0,0,42,23a.07.07,0,0,0,0,0,1.65,1.65,0,0,1-.46-.2,3.88,3.88,0,0,1-.38-.34l-.07-.06a1.24,1.24,0,0,0-.38-.29.68.68,0,0,0-.27-.07h0a.66.66,0,0,0-.28.09.06.06,0,0,0,0,.06.09.09,0,0,0,.05,0Z"/><path class="cls-2" d="M40.4,21.26h0l.07,0h0l.06,0h0l0,0,0,0s.07.07.13.11a.4.4,0,0,0,.15,0,.25.25,0,0,0,.13,0,.05.05,0,0,0,0,0s0,0,0,0a.38.38,0,0,1-.11-.11l0,0a.42.42,0,0,0-.11-.14.36.36,0,0,0-.12-.08h-.15a.2.2,0,0,0-.11,0,.33.33,0,0,0-.06.08h0l0,0a0,0,0,0,0,0,.05h0A.12.12,0,0,0,40.4,21.26Z"/><path class="cls-2" d="M41,24.19l.12,0h0s0,0,0,0,0,0,0,0a.08.08,0,0,0,0,0,.31.31,0,0,0,.16,0h0a.21.21,0,0,0,.12-.07.23.23,0,0,0,.07-.1.14.14,0,0,0,0-.18h0L41.3,24h-.16a.55.55,0,0,0-.29.08.06.06,0,0,0,0,.05s0,0,0,0Z"/><path class="cls-2" d="M42.46,24.47a.37.37,0,0,0,.15.05h0s0,0,0,0,0,0,0,0a.13.13,0,0,1,0-.06v0h0l.09,0,.1,0,0,0s0,0,0,0a.28.28,0,0,0-.21-.17h-.06a.29.29,0,0,0-.22.1l0,0a.12.12,0,0,0,0,.16Z"/><path class="cls-2" d="M42,25.46h.06v0h0a.11.11,0,0,0,.08,0v0a1.1,1.1,0,0,0,.05-.38l0-.17v0a1.13,1.13,0,0,0,0-.15s0,0,0,0h0c0,.05,0,.08,0,.16s0,.17,0,.23-.11.2-.08.31l0,0h0a0,0,0,0,0,0,.06l0,0Z"/><path class="cls-2" d="M41.47,25.75s0,0,0,0,0,0,0,0a.16.16,0,0,1,.09,0l.12,0h.11l0,0h-.06s0,0,0,0a.14.14,0,0,0,0,.16.16.16,0,0,0,.14.07h0a.17.17,0,0,0,.12-.08A.16.16,0,0,0,42,26s0,0,0,0l-.1,0H42l.21,0a.32.32,0,0,0,.23-.14.1.1,0,0,0,0,0,.05.05,0,0,0,0,0h-.2a1.77,1.77,0,0,0-.21,0h0a.65.65,0,0,0-.19,0l-.11,0h0A.15.15,0,0,0,41.47,25.75Z"/><path class="cls-2" d="M40.83,28.13A.67.67,0,0,0,41.2,28a.78.78,0,0,0,.22-.3,1.42,1.42,0,0,0,.08-.18l0-.12a1.83,1.83,0,0,1,.16-.26.06.06,0,0,0,0-.06l0,0h0a.64.64,0,0,0-.33.22,1.83,1.83,0,0,0-.16.26l0,0a1.34,1.34,0,0,1-.14.26,1.58,1.58,0,0,1-.22.23s0,0,0,.05a.05.05,0,0,0,0,0Z"/><path class="cls-2" d="M40.52,29.64a.07.07,0,0,0,0,.07l0,0h0l.07,0a2.05,2.05,0,0,0,1-.74,1,1,0,0,0,.17-.29c0-.1.08-.2.11-.29l0-.06a1,1,0,0,1,.26-.44,0,0,0,0,0,0-.06.05.05,0,0,0,0,0h0a.91.91,0,0,0-.45.49,1.29,1.29,0,0,0-.09.16,1.68,1.68,0,0,1-.2.35,4.37,4.37,0,0,1-.82.84Z"/><path class="cls-2" d="M37.39,26.24a1.73,1.73,0,0,1,.54-.11h0a1,1,0,0,1,.5.16,1.22,1.22,0,0,1,.35.39,1.93,1.93,0,0,1,.19.5s0,0,0,0h0s.05,0,.05,0a1.07,1.07,0,0,0-1.05-1.31H38a.94.94,0,0,0-.62.28s0,0,0,.06l0,0Z"/><path class="cls-2" d="M33.79,29.83a1,1,0,0,0-.25,0,.07.07,0,0,0,0,.05s0,0,0,.05a1.57,1.57,0,0,1,.49.16,2.24,2.24,0,0,1,.43.3l.29.26a4.35,4.35,0,0,0,.56.47h0l0,0s0,0,0-.06a4.21,4.21,0,0,0-.72-.88,1.7,1.7,0,0,0-.52-.31A1.07,1.07,0,0,0,33.79,29.83Z"/><path class="cls-2" d="M33,29a1.33,1.33,0,0,0,.65.28h0l0,0a.07.07,0,0,0,0-.06,3.54,3.54,0,0,0-.43-.37l-.09-.06a3.11,3.11,0,0,1-.25-.2h0c-.07-.07-.11-.12-.09-.2a0,0,0,0,0,0-.05h-.06a.22.22,0,0,0-.09.22.44.44,0,0,0,.07.2A1,1,0,0,0,33,29Z"/><path class="cls-2" d="M33.81,28.45a1.93,1.93,0,0,0,.29.24.75.75,0,0,0,.31.08h.08l0,0s0-.05,0-.05a1.69,1.69,0,0,1-.25-.2L34,28.26l-.2-.25-.19-.27a0,0,0,0,0,0,0h0a0,0,0,0,0,0,0,.65.65,0,0,0,.06.37A1.4,1.4,0,0,0,33.81,28.45Z"/><path class="cls-2" d="M30.87,35.79a1.41,1.41,0,0,1,0,.22c0,.15,0,.31,0,.45s0,.6,0,.91v.29a13.6,13.6,0,0,0,0,1.56s0,0,.05,0h0a.07.07,0,0,0,.05,0,15.18,15.18,0,0,0,.15-1.84,7.88,7.88,0,0,0,0-.93c0-.15,0-.3-.07-.47s0-.15-.06-.23v0a.31.31,0,0,0-.11-.19l0,0,0,0s0,0,0,.06a.23.23,0,0,1,0,.14A.13.13,0,0,1,30.87,35.79Z"/><path class="cls-2" d="M33.76,43.8h0a2.41,2.41,0,0,1-.55.09h0l-.22,0a1.29,1.29,0,0,1-.26-.08h0s0,0,0,0a.33.33,0,0,0,.12.15l0,0,.09.07a.71.71,0,0,0,.32.07.72.72,0,0,0,.32-.08.23.23,0,0,0,.12-.08.43.43,0,0,0,.12-.11h0v0Z"/><path class="cls-2" d="M40.67,43.4h0a2.07,2.07,0,0,1-.33.1,1.07,1.07,0,0,1-.25,0H40l-.35,0a2.09,2.09,0,0,0-.36,0h0s0,0,0,0a.42.42,0,0,0,.14.09l.19.1a1,1,0,0,0,.39.08h.21l.07,0h0l.08,0a.53.53,0,0,0,.2-.13l.1-.12a0,0,0,0,0,0,0Z"/><path class="cls-2" d="M38.48,40.57a.23.23,0,0,0-.15-.07h0a.4.4,0,0,0-.16.07h0c-.07.08-.13.14-.18.21l-.09.11a.82.82,0,0,1-.56.34h0a.2.2,0,0,1-.08,0L37,41.1l0,0a1.73,1.73,0,0,0-.3-.16,2,2,0,0,0-.39-.14l-.1,0a.25.25,0,0,0-.15.05.28.28,0,0,0,0,.25s0,0,0,0h0a2,2,0,0,0,.42.52,1.19,1.19,0,0,0,.77.3h0a1.62,1.62,0,0,0,.81-.27,1.29,1.29,0,0,0,.33-.28.72.72,0,0,0,.16-.46.85.85,0,0,0,0-.25A.22.22,0,0,0,38.48,40.57Z"/><path class="cls-2" d="M42.25,40.55l-.31-.16a2,2,0,0,0-.38-.15h-.1a.23.23,0,0,0-.15.06.24.24,0,0,0,0,.24s0,0,0,0h0a1.78,1.78,0,0,0,.42.52,1.17,1.17,0,0,0,.77.3h0a1.64,1.64,0,0,0,.8-.26,1.43,1.43,0,0,0,.34-.3.71.71,0,0,0,.16-.45.74.74,0,0,0,0-.24.2.2,0,0,0-.06-.09.18.18,0,0,0-.14-.06h0a.23.23,0,0,0-.15.06h0a1.56,1.56,0,0,0-.18.21l-.09.11a.82.82,0,0,1-.57.34h-.05l-.08,0-.17-.09Z"/><path class="cls-2" d="M33.43,33.16a.44.44,0,0,0,.15.05h.12a.51.51,0,0,0,.22-.09.36.36,0,0,0,.13-.23.41.41,0,0,0,0-.22.91.91,0,0,0-.12-.35,2.09,2.09,0,0,0-.27-.43h0l-.12-.15a.05.05,0,0,0,0,0h0a0,0,0,0,0,0,.05,2.49,2.49,0,0,0,.11.29.69.69,0,0,0-.21.31,1.31,1.31,0,0,0-.08.36.7.7,0,0,0,0,.21A.38.38,0,0,0,33.43,33.16Zm.12-.74a.76.76,0,0,1,.06-.25c0,.08.07.16.09.23a1.67,1.67,0,0,1,.08.3c0,.09,0,.15,0,.18a.21.21,0,0,1-.13,0h0a.25.25,0,0,1-.06-.19A1.1,1.1,0,0,1,33.55,32.42Z"/><path class="cls-2" d="M32.53,32.57a.27.27,0,0,0,.06.1.23.23,0,0,0,.17.08h0a.27.27,0,0,0,.2-.14l0,0a1.3,1.3,0,0,0,.08-.17,1.05,1.05,0,0,0,.06-.33.93.93,0,0,0-.12-.56L33,31.43h-.07s0,0,0,0h0a.05.05,0,0,0,0,0h0s0,0,0,0a1.11,1.11,0,0,1-.13.4l-.08.16a.86.86,0,0,0-.08.35.45.45,0,0,0,0,.11A.36.36,0,0,0,32.53,32.57Zm.26-.46,0-.08a1.13,1.13,0,0,0,.06-.52,1,1,0,0,1,0,.54c0,.08,0,.18-.07.27l0,.09h0l0,0A1.2,1.2,0,0,1,32.79,32.11Z"/><path class="cls-2" d="M27.91,61.7c.13.11.26.15.37.25a.6.6,0,0,1,.12.11,2.48,2.48,0,0,1,.33.51,2.42,2.42,0,0,1,.32,1.07l.26-.08h.07a.85.85,0,0,1,.17.06,2.15,2.15,0,0,0,.34.05.54.54,0,0,0,.21-.05c0-.33.4-.33.5-.59s-.28-.32-.28-.58.56-.42.47-.7-.52-.16-.38-.48.4-.24.28-.47-.43-.13-.49-.3.24-.38.29-.56-.11-.28-.31-.38c-.69-.36.35-.53-.13-.89-.14-.1-.51-.16-.37-.34s.4,0,.42-.28c-.46-.22-1.1-1-1.64-.93a.67.67,0,0,0-.5.34,4.84,4.84,0,0,0-.33.46.7.7,0,0,0-.06.17,3.15,3.15,0,0,1,0,.53,1,1,0,0,0-.14.48,1,1,0,0,1,0,.45c-.05.17-.22.43-.2.61s.23.38.28.54C27.55,61.09,27.55,61.41,27.91,61.7Z"/><path class="cls-2" d="M23.92,60.26a1.75,1.75,0,0,1,.41.14.76.76,0,0,1,.32.39h-.23a.78.78,0,0,0-.66.1.43.43,0,0,0-.14.37c0,.28.29.49.52.65l.11.08.12.09c.63.48.78.7.81.78h-.07a.56.56,0,0,0-.43.1.53.53,0,0,0-.15.38c0,.33.26.49.45.62a.69.69,0,0,1,.2.15.5.5,0,0,1,.07.11s0,.06-.06.09l-.1.14a.55.55,0,0,0,0,.68.58.58,0,0,1,.09.23.25.25,0,0,0,.24.21h0a.24.24,0,0,0,.2-.27,1,1,0,0,0-.15-.41.88.88,0,0,1-.05-.1.17.17,0,0,1,0-.07l.09-.1a.56.56,0,0,0,0-.8,1,1,0,0,0-.33-.28c-.13-.08-.22-.14-.22-.19h.05a.55.55,0,0,0,.47-.12.43.43,0,0,0,.13-.35c0-.36-.42-.73-1-1.19l-.1-.07a.85.85,0,0,0-.14-.1,2.26,2.26,0,0,1-.32-.27,1,1,0,0,1,.25,0h.12c.46,0,.61-.17.65-.31.11-.33-.19-.76-.54-1a2.38,2.38,0,0,0-.52-.19c-.26-.07-.65-.18-.69-.34a.25.25,0,0,0-.29-.19.24.24,0,0,0-.18.29C23,60,23.51,60.14,23.92,60.26Z"/><path class="cls-2" d="M23.12,62.1a1.27,1.27,0,0,0-1.12.46.24.24,0,0,0,.06.34.23.23,0,0,0,.33-.06.82.82,0,0,1,.7-.25.74.74,0,0,1,.6.29.48.48,0,0,1,0,.12.46.46,0,0,1-.27,0,.58.58,0,0,1-.37-.22.25.25,0,0,0-.33-.1.24.24,0,0,0-.1.33,1.16,1.16,0,0,0,.93.49h.05a.58.58,0,0,0,.51-.23.6.6,0,0,0,0-.61A1.19,1.19,0,0,0,23.12,62.1Z"/><path class="cls-2" d="M11,72.4a15.17,15.17,0,0,0,2.63,4.86c.48.57.83.78,1.28.78a3.44,3.44,0,0,0,.65-.1l.42-.08a1.88,1.88,0,0,1,.34,0,7.45,7.45,0,0,1,3.75,1.42,5.82,5.82,0,0,1,1.13,1.39,3.71,3.71,0,0,0,2,1.86,2.58,2.58,0,0,0,.53.07c1.08,0,1.63-.84,2.11-1.58l.33-.48.3-.42a10.83,10.83,0,0,0,1.52-2.49,4.37,4.37,0,0,0,.18-.46,10,10,0,0,1,1.23-2.41A4.81,4.81,0,0,0,30,73.48a3.59,3.59,0,0,1,.56-1.23,1.8,1.8,0,0,1,.81-.42,3,3,0,0,0,1-.45,4.8,4.8,0,0,0,1.27-3,2.19,2.19,0,0,0-.49-1.77l0,0a1.09,1.09,0,0,1-.3-.41s0-.3-.06-.47a3.91,3.91,0,0,0,0-.44,2,2,0,0,1,.19-1.15l0-.12a8.5,8.5,0,0,0,.57-2.65,8.41,8.41,0,0,0,1.37.1,4.51,4.51,0,0,0,3.31-1.09,1.15,1.15,0,0,0,.47-.76c0-.29-.22-.5-.52-.78l-.09-.09A9.75,9.75,0,0,0,31.1,55.9a6.19,6.19,0,0,1-2.16-.6,6.3,6.3,0,0,0-2.55-.64,4.68,4.68,0,0,0-.64,0,17.51,17.51,0,0,0-3.15.69l-.37.14a1.57,1.57,0,0,1-1.55,0,2.36,2.36,0,0,0-.8-.13,5.33,5.33,0,0,0-2.23.67c-.24.11-.45.21-.67.29a5.53,5.53,0,0,1-1.15.29,3.38,3.38,0,0,0-2.24,1,5.51,5.51,0,0,0-.9,2,8.46,8.46,0,0,1-.46,1.26,11.64,11.64,0,0,1-.94,1.42,8.37,8.37,0,0,0-1.2,2.06c-.94,2.55-.09,5,.74,7.43C10.89,72,11,72.2,11,72.4Zm17.32,2.31a22.16,22.16,0,0,1-1.12,2.08c-.83,1.1-3,1.87-4.21,1.12-.73-.44-.59-1.26-1-1.94s-1-1-1.15-1.94,0-1.43-.74-2-1.37-.65-1.69-1.52c-.44-1.18.16-2.07.68-3.1A1.25,1.25,0,0,0,19,65.74c-.22-.23-.87-.57-.86-.94s.34-.18.56,0a17.89,17.89,0,0,1,1.38,1.51c.75.78,2.26,1.86,3,2.66.48.55-.17.92.51,1.53s1,.1,1.43.41a7.93,7.93,0,0,0,2.14,1.2c.49.12,1.33-.12,1.73.26S28.64,74.2,28.35,74.71ZM24.12,68a.19.19,0,0,1,.05.27.19.19,0,0,1-.16.09.21.21,0,0,1-.11,0c-4.32-3.08-4-4.85-4-4.92a.2.2,0,0,1,.23-.15.19.19,0,0,1,.15.22S20.08,65.13,24.12,68Zm.23,1,.08,0c.51.1.49,1.3-.24,1.07a.59.59,0,0,1-.39-.71A.48.48,0,0,1,24,69C24.12,69,24.25,69,24.35,69Zm4.49,2.18C27,71.07,27,70.58,27,70.58a5.09,5.09,0,0,1,4.61-.24A3.54,3.54,0,0,1,28.84,71.19ZM32.12,70c-4.26-1.26-5.57.51-6,.73s-.86-.35-.86-.35a1.31,1.31,0,0,0-.16-2c2-3.92,6.62-2.69,6.62-2.69a5,5,0,0,0,.29,1C33.56,68.11,32.12,70,32.12,70Zm4-9.34a6.56,6.56,0,0,1-1.33.09c-.37,0-1.84-.11-1.7-.31a2.3,2.3,0,0,0,.11-1.32c.37.42.44,0,.8,0a2.54,2.54,0,0,1,1.73.41C36.61,59.81,37.53,60.49,36.15,60.69Zm0-2.74.35.23a2.74,2.74,0,0,1,1.15,1.5A8.27,8.27,0,0,0,34,58.54a1.77,1.77,0,0,0-.83.16.91.91,0,0,1-.36-.87,1.81,1.81,0,0,0-.31-1A9.92,9.92,0,0,1,36.13,58ZM21.47,57c.17-.68,2.19-.87,2.83-1a7.81,7.81,0,0,1,3.26-.19,28.67,28.67,0,0,1,2.9.82c.42.12,1.09.13,1.43.49s.25,1,.52,1.45.71.52.54,1.2c-.06.23-.24.37-.29.64a6.57,6.57,0,0,0,0,.78,9.43,9.43,0,0,1-.58,3.08c-.35.67-1.42.33-2.73.24a4.69,4.69,0,0,0-2.72,1,5.81,5.81,0,0,0-1.31,1c-.34.35-.65.81-1.15.69s-.85-.67-1.18-.92-.76-.53-1.1-.85a2.78,2.78,0,0,1-.81-1.15c-.11-.36,0-2.11-.31-2.13-.85-.06-.72.26-1.23.38a2.65,2.65,0,0,1-1.43-.36c-1.43-.63-.21-1.64.58-1.92a1.84,1.84,0,0,1,1.57,0c.36.12.94.48,1.24.17s-.25-.67-.25-.67c.14-.41.9-.31,1.19-.61C23.32,58.22,21.19,58.1,21.47,57Zm-5.71,3.21a6.42,6.42,0,0,1,4.06-3.47l.19,0c1,0,1.29,1.62,1.36,2.06-3.36,0-5.41,2.85-5.86,3.55A2.77,2.77,0,0,1,15.76,60.22Z"/><path class="cls-2" d="M28.32,67.64a.69.69,0,0,0-.76.17.24.24,0,0,0,0,.34.25.25,0,0,0,.35,0,.22.22,0,0,1,.23-.07.18.18,0,0,1,.11.17.37.37,0,0,1-.08.15.32.32,0,0,0-.17-.06.24.24,0,0,0-.24.25.42.42,0,0,0,.19.37.46.46,0,0,0,.15,0,.4.4,0,0,0,.22-.07.92.92,0,0,0,.41-.69A.66.66,0,0,0,28.32,67.64Z"/><path class="cls-2" d="M26,72.81c-.37,0-.77.17-1-.25s-.27-.64-.73-.41-.71.07-1-.26a4.29,4.29,0,0,1-.68-.92c-.08-.16-.48-1-.71-.56l.12-.07c-.57.42-.45,1.27-.21,1.84a9,9,0,0,0,.45,1c.1.17.25.29.34.45s.13.42.24.59c.19.32.25,0,.48.1s.2.34.38.4.26-.17.5-.14.35.29.44.44.19.77.56.92.29-.12.46-.14.23.32.46.29c.41,0,.42-.77.46-1a4.42,4.42,0,0,0,0-1.31C26.46,73.43,26.41,72.86,26,72.81Z"/><path class="cls-2" d="M31.26,67.69a.66.66,0,0,0-.4.63,1,1,0,0,0,.37.71.41.41,0,0,0,.18,0,.23.23,0,0,0,.14,0,.39.39,0,0,0,.19-.37.25.25,0,0,0-.24-.25.24.24,0,0,0-.12,0,.24.24,0,0,1,0-.12c0-.11.05-.17.08-.18a.18.18,0,0,1,.1.06.24.24,0,0,0,.34,0,.25.25,0,0,0,0-.35A.59.59,0,0,0,31.26,67.69Z"/><path class="cls-2" d="M109.37,45.28c-.05-2.05-.61-3-3.55-3s-3.55,1.11-3.55,4V52.5c0,2.81.23,3.91,3.55,3.91s3.55-.67,3.55-3.48V50.51h-3.46v-2h5.67v4.4c0,3.44-.42,5.53-5.76,5.53-4.89,0-5.76-2.09-5.76-6V46.3c0-3.89.87-6,5.76-6,4.65,0,5.6,1.47,5.69,5Z"/><path class="cls-2" d="M113,53.37V49.52c0-3.57,1.93-4.88,5.05-4.88s5,1.31,5,4.88v3.85c0,3.66-1.48,5.14-5,5.14S113,57,113,53.37Zm7.9,0V49.52c0-2.44-1-2.92-2.85-2.92s-2.86.48-2.86,2.92v3.85c0,2.44.9,3.23,2.86,3.23S120.89,55.81,120.89,53.37Z"/><path class="cls-2" d="M134.54,53.37c0,3.66-1.4,5.14-5,5.14s-5-1.48-5-5.14V40.15h2.22V46a3.69,3.69,0,0,1,3.18-1.36c3.38,0,4.69,1.85,4.69,5.19Zm-7.9,0c0,2.44,1,3,2.86,3s2.85-.6,2.85-3V49.89c0-2.51-.89-3.13-2.85-3.13-1.61,0-2.81.6-2.83,3Z"/><path class="cls-2" d="M138.58,41.71a1.32,1.32,0,0,1-2.64,0A1.32,1.32,0,0,1,138.58,41.71Zm-2.44,16.57V44.89h2.19V58.28Z"/><path class="cls-2" d="M149.82,54.36c0,2.61-1.42,4.06-4.93,4.06s-5-1.32-5-4.93v-4c0-3.52,1.92-4.81,5-4.81s5,1.31,5,4.81v2.88h-7.79v1c0,2.4.88,3,2.81,3s2.81-.65,2.81-2Zm-7.74-3.85h5.69v-1c0-2.37-1.15-2.87-2.88-2.87s-2.81.48-2.81,2.87Z"/><path class="cls-2" d="M157.32,47c-2.12-.34-3.78.54-3.78,2.61V58.3h-2.19V44.8h2l.09,1.24a3.71,3.71,0,0,1,3.87-1.24Z"/><path class="cls-2" d="M158.65,44.8h2l.14,1.43a3.68,3.68,0,0,1,3.46-1.59c3,0,4.46,1.26,4.46,4.86v8.78h-2.21V49.52c0-1.91-1-2.88-2.63-2.88a2.72,2.72,0,0,0-3,2.86v8.78h-2.21Z"/><path class="cls-2" d="M170.22,53.37V49.52c0-3.57,1.94-4.88,5.05-4.88s5,1.31,5,4.88v3.85c0,3.66-1.48,5.14-5,5.14S170.22,57,170.22,53.37Zm7.9,0V49.52c0-2.44-1-2.92-2.85-2.92s-2.86.48-2.86,2.92v3.85c0,2.44.9,3.23,2.86,3.23S178.12,55.81,178.12,53.37Z"/><path class="cls-2" d="M196.67,58.28h-1.85l-.27-1.77a3.35,3.35,0,0,1-3.34,1.84c-2.7,0-4.56-1.23-4.56-4.86V49.94c0-3.64,1.73-5.23,4.56-5.23,1.45,0,2.51.2,3.25,1.17V40.26h2.21Zm-5-11.45c-2,0-2.85.78-2.85,3.16v3.52c0,2.21.89,2.79,2.69,2.79s2.93-.88,2.93-3.53v-2.9C194.46,47.57,193.65,46.83,191.69,46.83Z"/><path class="cls-2" d="M208.27,54.36c0,2.61-1.43,4.06-4.93,4.06s-5-1.32-5-4.93v-4c0-3.52,1.91-4.81,5-4.81s5,1.31,5,4.81v2.88h-7.78v1c0,2.4.88,3,2.81,3s2.81-.65,2.81-2Zm-7.74-3.85h5.69v-1c0-2.37-1.15-2.87-2.88-2.87s-2.81.48-2.81,2.87Z"/><path class="cls-2" d="M209.88,40.49H212V54.75c0,1.09.41,1.36,1.38,1.36v2.17c-2.63,0-3.53-.67-3.53-3.5Z"/><path class="cls-2" d="M110.24,65.56v2.77h-7v4.56h6v2.85h-6v4.68h7.36v2.91H100V65.56Z"/><path class="cls-2" d="M118.77,74c0-1-.81-1.5-1.82-1.5-1.22,0-2,.49-2,1.43,0,1.5,1.56,1.29,3.39,1.5S122,76.69,122,79.11c0,3-2.33,4.26-5.26,4.26-3.22,0-5.16-1.64-5.16-4.26h3.21c.06.94.57,1.5,2.09,1.5,1.27,0,1.92-.72,1.92-1.39,0-1.15-1.5-1.17-3.14-1.38-2-.25-3.89-1.1-3.89-3.78,0-3.06,2.19-4.42,5.14-4.42,3.33,0,4.93,1.89,4.93,4.33Z"/><path class="cls-2" d="M123.22,67.36l3.16-.35v2.65h2.3v2.88h-2.3v5.74c0,1.5.22,2.51,2.35,2.26V83.3c-4,.44-5.51-.94-5.51-5Z"/><path class="cls-2" d="M130,74.39c-.21-3.39,1.61-4.75,4.86-4.75,3.54,0,5.09,1.77,5.09,5.3V83.3h-2.58l-.3-1.57a4.33,4.33,0,0,1-3.57,1.75,3.59,3.59,0,0,1-3.92-3.84c0-3.21,2.67-4.47,7.35-4.15,0-2-.39-3-2.05-3-1.38,0-1.89.48-1.86,1.94Zm2.57,5c0,.9.79,1.2,1.87,1.2,1.85,0,2.35-1.34,2.49-2.69C133.71,77.57,132.58,78.3,132.58,79.38Z"/><path class="cls-2" d="M149.31,83.3l-.24-1.5a3.41,3.41,0,0,1-3.19,1.57c-2.68,0-4.47-1.47-4.47-5.25v-3.5c0-3.21,1.54-5.07,4.55-5.07a3.12,3.12,0,0,1,2.79,1.19V65.56h3.16V83.3Zm-4.75-8.55V78c0,2,.81,2.6,2.05,2.6,1.57,0,2.14-1.15,2.14-2.72V74.73c0-1.63-.78-2.26-2-2.26S144.56,73.12,144.56,74.75Z"/><path class="cls-2" d="M153.59,78.23V75c0-3.57,1.7-5.3,5.27-5.3s5.28,1.64,5.28,5.3v3.27c0,3.67-1.71,5.3-5.28,5.3S153.59,81.9,153.59,78.23Zm7.37-.16V75.12c0-1.68-.44-2.65-2.1-2.65s-2.1,1-2.1,2.65v2.95c0,1.68.44,2.65,2.1,2.65S161,79.75,161,78.07Z"/><path class="cls-2" d="M178.37,83.3l-.23-1.5a3.44,3.44,0,0,1-3.2,1.57c-2.67,0-4.47-1.47-4.47-5.25v-3.5c0-3.21,1.54-5.07,4.56-5.07a3.12,3.12,0,0,1,2.79,1.19V65.56H181V83.3Zm-4.74-8.55V78c0,2,.8,2.6,2.05,2.6,1.57,0,2.14-1.15,2.14-2.72V74.73c0-1.63-.78-2.26-2-2.26S173.63,73.12,173.63,74.75Z"/><path class="cls-2" d="M193.21,79.13c0,2.86-1.71,4.22-5.27,4.22s-5.28-1.64-5.28-5.3V75c0-3.41,1.7-5.3,5.28-5.3s5.27,1.64,5.27,5.3v2.7h-7.37V78c0,2.19.85,2.61,2.14,2.61,1.5,0,2.12-.54,2.12-1.48Zm-7.37-4.08h4.31c0-1.7-.33-2.65-2.12-2.65S185.84,73.42,185.84,75.05Z"/><path class="cls-2" d="M205.23,68.26c-1.75,0-2.46.55-2.46,2.23,0,2.24,1.77,2.05,4.47,2.47,2,.32,4,1.15,4,4.7,0,4.1-1.78,5.82-6,5.82-4.42,0-5.83-2.14-5.83-5h3.2c.07,1.37.67,2.1,2.7,2.1s2.79-.8,2.79-2.81-2.49-2.1-4.38-2.35-4.13-1.24-4.13-4.9c0-3.32,2-5,5.67-5,3.21,0,5.33,1.17,5.63,4.72h-3.21C207.56,68.69,206.78,68.26,205.23,68.26Z"/><path class="cls-2" d="M212.56,78.23V75c0-3.57,1.71-5.3,5.28-5.3s5.27,1.64,5.27,5.3v3.27c0,3.67-1.7,5.3-5.27,5.3S212.56,81.9,212.56,78.23Zm7.37-.16V75.12c0-1.68-.44-2.65-2.09-2.65s-2.1,1-2.1,2.65v2.95c0,1.68.44,2.65,2.1,2.65S219.93,79.75,219.93,78.07Z"/><path class="cls-2" d="M224.81,69.71h2.74l.16,1.38a4.16,4.16,0,0,1,3.2-1.47c2.24,0,4.43,1.15,4.43,5.29V83.3h-3.13V74.94c0-1.76-.74-2.47-2.06-2.47s-2.19.6-2.19,2.36V83.3h-3.15Z"/><path class="cls-2" d="M236.87,78.23V75c0-3.57,1.7-5.3,5.28-5.3s5.27,1.64,5.27,5.3v3.27c0,3.67-1.7,5.3-5.27,5.3S236.87,81.9,236.87,78.23Zm7.37-.16V75.12c0-1.68-.43-2.65-2.09-2.65s-2.1,1-2.1,2.65v2.95c0,1.68.44,2.65,2.1,2.65S244.24,79.75,244.24,78.07Z"/><path class="cls-2" d="M255.73,73c-2-.28-3.67.53-3.67,2.56v7.79h-3.15V69.71h2.9l.14,1.43a3.79,3.79,0,0,1,3.78-1.5Z"/><path class="cls-2" d="M256.79,74.39c-.21-3.39,1.61-4.75,4.86-4.75,3.55,0,5.09,1.77,5.09,5.3V83.3h-2.58l-.3-1.57a4.33,4.33,0,0,1-3.57,1.75,3.59,3.59,0,0,1-3.92-3.84c0-3.21,2.67-4.47,7.35-4.15,0-2-.39-3-2.05-3-1.38,0-1.89.48-1.87,1.94Zm2.58,5c0,.9.78,1.2,1.86,1.2,1.85,0,2.35-1.34,2.49-2.69C260.5,77.57,259.37,78.3,259.37,79.38Z"/><polygon class="cls-3" points="298.66 20.76 298.66 55.76 298.66 55.76 298.66 89.85 291.66 89.85 291.66 55.76 291.66 55.76 291.66 20.76 298.66 20.76"/><path class="cls-3" d="M405.23,29.59a23.7,23.7,0,0,0-23.71,23.7v.14h0V90H393.7V74a23.71,23.71,0,1,0,11.53-44.42Zm0,35.22a11.52,11.52,0,1,1,11.51-11.52A11.54,11.54,0,0,1,405.23,64.81Z"/><path class="cls-4" d="M417.26,32.8a23.78,23.78,0,0,0-35.71,20.49c0,.05,0,.1,0,.14h0V90h12.19V74a24.2,24.2,0,0,0,11.59,3,23.89,23.89,0,0,0,12-3.21Zm-12,32a11.52,11.52,0,1,1,11.51-11.52A11.54,11.54,0,0,1,405.23,64.81Z"/><path class="cls-3" d="M393.71,53.29s0-.13,0-.13h0a.2.2,0,0,1,0,0c0-.18,0-.36,0-.55V28.78H381.5v3.78a23.17,23.17,0,0,0-11.5-3,23.7,23.7,0,1,0,17.62,39.57,23.78,23.78,0,0,0,6.16,4.89l.06,0,5.77-10.75A11.52,11.52,0,0,1,393.71,53.29Zm-15.34,7.9A11.51,11.51,0,1,1,370,41.78c6.19,0,11.5,4.91,11.5,11v.35h0v.19A11.48,11.48,0,0,1,378.37,61.19Z"/><path class="cls-5" d="M367.52,62.67l1.78-3.8-2.1-1.67-5.29,1.86-1.53.54a11.53,11.53,0,0,0,8.93,5.19l-1.8-2.11Z"/><path class="cls-5" d="M372.81,57.2l-2.09,1.67,1.78,3.8h0l-1.79,2.11a11.53,11.53,0,0,0,8.92-5.19l-1.53-.54Z"/><circle class="cls-5" cx="370.01" cy="50.39" r="4.19" transform="translate(28.77 202.05) rotate(-31.72)"/><path class="cls-6" d="M370.12,64.81H370a11.52,11.52,0,0,1,0-23h.12V29.59H370A23.71,23.71,0,0,0,370,77h.12Z"/><path class="cls-3" d="M358.48,22H346.29V32.57a23.71,23.71,0,1,0,12.19,20.72v-.13h0Zm-23.7,42.81a11.52,11.52,0,1,1,11.51-11.52A11.54,11.54,0,0,1,334.78,64.81Z"/><path class="cls-2" d="M443.77,53.55V34.28h5.85c5.15,0,6.08,2.27,6.08,6.45v6.35c0,4.2-.95,6.52-6.25,6.47Zm5.68-2.27c3.6,0,3.85-1.13,3.85-4.18V40.7c0-3.05-.25-4.17-3.85-4.17h-3.3V51.28Z"/><path class="cls-2" d="M460.05,35.58c0,1.77-2.88,1.9-2.88,0A1.44,1.44,0,0,1,460.05,35.58Zm-2.65,18V39h2.37V53.55Z"/><path class="cls-2" d="M468.32,41.35c-2.3-.37-4.1.58-4.1,2.83v9.39h-2.37V38.93H464l.1,1.35a4,4,0,0,1,4.2-1.35Z"/><path class="cls-2" d="M479.47,49.3c0,2.82-1.55,4.4-5.35,4.4s-5.4-1.43-5.4-5.35V44.08c0-3.83,2.08-5.23,5.4-5.23s5.4,1.43,5.4,5.23V47.2h-8.45v1.1c0,2.6.95,3.2,3.05,3.2s3.05-.7,3.05-2.2Zm-8.4-4.17h6.18V44.08c0-2.58-1.25-3.13-3.13-3.13s-3.05.53-3.05,3.13Z"/><path class="cls-2" d="M491.67,48.6c-.05,3.85-1.55,5.2-5.35,5.2s-5.47-1.6-5.47-5.57V44.08c0-3.88,2.1-5.33,5.47-5.33s5.2,1.15,5.35,4.9l-2.25,0c-.1-2.3-1.2-2.73-3.1-2.73s-3.1.48-3.1,3.13v4.15c0,2.65,1.08,3.3,3.1,3.3s3.05-.43,3.1-2.93Z"/><path class="cls-2" d="M493.15,36.38l2.32-.28V39H498v2.25h-2.53v8.2c0,1.48.68,2.15,2.63,1.9v2.2c-3.88.42-5-1.3-5-4Z"/><path class="cls-2" d="M498.87,48.23V44.05c0-3.87,2.1-5.3,5.48-5.3s5.47,1.43,5.47,5.3v4.18c0,4-1.6,5.57-5.47,5.57S498.87,52.2,498.87,48.23Zm8.58,0V44.05c0-2.65-1.13-3.17-3.1-3.17s-3.1.52-3.1,3.17v4.18c0,2.65,1,3.5,3.1,3.5S507.45,50.88,507.45,48.23Z"/><path class="cls-2" d="M517.8,41.35c-2.3-.37-4.1.58-4.1,2.83v9.39h-2.38V38.93h2.18l.1,1.35a4,4,0,0,1,4.2-1.35Z"/><path class="cls-2" d="M521.72,35.58c0,1.77-2.87,1.9-2.87,0A1.44,1.44,0,0,1,521.72,35.58Zm-2.65,18V39h2.38V53.55Z"/><path class="cls-2" d="M523.27,48.23V44.05c0-3.87,2.1-5.3,5.48-5.3s5.47,1.43,5.47,5.3v4.18c0,4-1.6,5.57-5.47,5.57S523.27,52.2,523.27,48.23Zm8.58,0V44.05c0-2.65-1.13-3.17-3.1-3.17s-3.1.52-3.1,3.17v4.18c0,2.65,1,3.5,3.1,3.5S531.85,50.88,531.85,48.23Z"/><path class="cls-2" d="M549.17,53.55l-.25-1.62a3.72,3.72,0,0,1-3.47,1.69c-2.9,0-4.85-1.59-4.85-5.69v-3.8c0-3.48,1.67-5.5,4.95-5.5a3.35,3.35,0,0,1,3,1.3V34.3H552V53.55ZM544,44.28v3.47c0,2.13.88,2.83,2.23,2.83,1.7,0,2.32-1.25,2.32-2.95V44.25c0-1.77-.85-2.45-2.22-2.45S544,42.5,544,44.28Z"/><path class="cls-2" d="M565.45,49c0,3.09-1.85,4.57-5.73,4.57S554,51.83,554,47.85V44.5c0-3.7,1.85-5.75,5.72-5.75s5.73,1.78,5.73,5.75v2.93h-8v.37c0,2.38.92,2.83,2.32,2.83,1.63,0,2.3-.58,2.3-1.6Zm-8-4.43h4.67c0-1.85-.35-2.87-2.3-2.87S557.45,42.83,557.45,44.6Z"/><path class="cls-2" d="M572.3,34.28h3.42V48.1c0,1.63.3,2.15,1.73,2.15v3.3c-4,0-5.15-1.17-5.15-5.4Z"/><path class="cls-2" d="M578.3,43.88c-.23-3.68,1.75-5.15,5.27-5.15,3.85,0,5.53,1.92,5.53,5.75v9.07h-2.8l-.33-1.7a4.69,4.69,0,0,1-3.87,1.9,3.9,3.9,0,0,1-4.25-4.17c0-3.48,2.9-4.85,8-4.5,0-2.2-.42-3.3-2.22-3.3-1.5,0-2.05.52-2,2.1Zm2.8,5.42c0,1,.85,1.3,2,1.3,2,0,2.55-1.45,2.7-2.92C582.32,47.33,581.1,48.13,581.1,49.3Z"/><path class="cls-2" d="M456.22,74.55h-3.55l-1-3.4h-4.93l-1,3.4h-3.54l5.32-19.22H451Zm-5.4-6.77-1.6-7.13-1.6,7.13Z"/><path class="cls-2" d="M464.7,74.55l-.25-1.62A3.74,3.74,0,0,1,461,74.62c-2.9,0-4.85-1.59-4.85-5.69v-3.8c0-3.48,1.68-5.5,4.95-5.5a3.37,3.37,0,0,1,3,1.3V55.3h3.42V74.55Zm-5.15-9.27v3.47c0,2.13.87,2.83,2.22,2.83,1.7,0,2.33-1.25,2.33-3V65.25c0-1.77-.85-2.45-2.23-2.45S459.55,63.5,459.55,65.28Z"/><path class="cls-2" d="M470.05,59.8h3l.23,1.5a4.17,4.17,0,0,1,3.47-1.57,3.8,3.8,0,0,1,3.63,1.87,5,5,0,0,1,4.2-1.9c3.05,0,4.87,1.78,4.87,5.78v9.07H486V65.48c0-1.9-.78-2.68-2.2-2.68s-2.28.55-2.33,2.65v9.1h-3.42V65.48c0-1.9-.78-2.68-2.2-2.68s-2.38.65-2.38,2.55v9.2h-3.42Z"/><path class="cls-2" d="M495.47,56.83a1.94,1.94,0,0,1-3.87,0A1.94,1.94,0,0,1,495.47,56.83Zm-.25,17.74H491.8V60.13h3.42Z"/><path class="cls-2" d="M497.75,59.8h3l.18,1.5a4.49,4.49,0,0,1,3.47-1.6c2.43,0,4.8,1.25,4.8,5.75v9.1h-3.4V65.48c0-1.9-.8-2.68-2.22-2.68s-2.38.65-2.38,2.55v9.2h-3.42Z"/><path class="cls-2" d="M515.1,56.83c0,2.5-3.88,2.52-3.88,0A1.94,1.94,0,0,1,515.1,56.83Zm-.25,17.74h-3.43V60.13h3.43Z"/><path class="cls-2" d="M524.12,64.43c0-1.13-.87-1.63-2-1.63-1.33,0-2.13.53-2.13,1.55,0,1.63,1.7,1.4,3.68,1.63s3.95,1.4,3.95,4c0,3.23-2.53,4.62-5.7,4.62-3.5,0-5.6-1.77-5.6-4.62h3.47c.08,1,.63,1.63,2.28,1.63,1.37,0,2.07-.78,2.07-1.5,0-1.25-1.62-1.28-3.4-1.5-2.15-.28-4.22-1.2-4.22-4.1,0-3.33,2.37-4.8,5.57-4.8,3.63,0,5.35,2.05,5.35,4.7Z"/><path class="cls-2" d="M528.77,57.25l3.43-.37v2.87h2.5v3.13h-2.5V69.1c0,1.63.25,2.73,2.55,2.45v3c-4.35.47-6-1-6-5.4Z"/><path class="cls-2" d="M543.17,63.35c-2.22-.3-4,.58-4,2.78v8.44h-3.43V59.8h3.15l.15,1.55a4.14,4.14,0,0,1,4.1-1.62Z"/><path class="cls-2" d="M543.6,64.88c-.23-3.68,1.75-5.15,5.27-5.15,3.85,0,5.53,1.92,5.53,5.75v9.07h-2.8l-.33-1.7a4.69,4.69,0,0,1-3.87,1.9,3.9,3.9,0,0,1-4.25-4.17c0-3.48,2.9-4.85,8-4.5,0-2.2-.42-3.3-2.22-3.3-1.5,0-2,.52-2,2.1Zm2.8,5.42c0,1,.85,1.3,2,1.3,2,0,2.55-1.45,2.7-2.92C547.62,68.33,546.4,69.13,546.4,70.3Z"/><path class="cls-2" d="M564,65.3c0-1.67-.6-2.5-2.3-2.5-1.9,0-2.45,1.05-2.45,2.88v3.2c0,1.82.48,2.87,2.28,2.87S564,71,564,69.23h3.25c0,4-1.85,5.57-5.72,5.57S555.82,73,555.82,69v-3.3c0-4,1.95-5.93,5.83-5.93s5.62,1.58,5.62,5.55Z"/><path class="cls-2" d="M572.6,56.83c0,2.5-3.88,2.52-3.88,0A1.94,1.94,0,0,1,572.6,56.83Zm-.25,17.74h-3.43V60.13h3.43Z"/><path class="cls-2" d="M574.15,69.05V65.5c0-3.87,1.85-5.75,5.72-5.75s5.73,1.78,5.73,5.75v3.55c0,4-1.85,5.75-5.73,5.75S574.15,73,574.15,69.05Zm8-.17v-3.2c0-1.83-.48-2.88-2.28-2.88s-2.27,1.05-2.27,2.88v3.2c0,1.82.47,2.87,2.27,2.87S582.15,70.7,582.15,68.88Zm-.85-10.3h-3l1.43-3.4h3.45Z"/><path class="cls-2" d="M587.57,59.8h3l.17,1.5a4.52,4.52,0,0,1,3.48-1.6c2.42,0,4.8,1.25,4.8,5.75v9.1h-3.4V65.48c0-1.9-.8-2.68-2.23-2.68s-2.37.65-2.37,2.55v9.2h-3.43Z"/><path class="cls-2" d="M611.1,55.3c4.65,0,6.82,1.68,6.82,5.75v1.78c0,4-2.25,5.82-6.82,5.82h-1.33v5.9h-3.52V55.3Zm0,10c2.5,0,3.32-.85,3.32-2.68V61.23c0-1.83-.6-2.78-3.27-2.78h-1.4v6.88Z"/><path class="cls-2" d="M630.87,74.52h-3L627.65,73a4.55,4.55,0,0,1-3.48,1.59c-2.42,0-4.8-1.24-4.8-5.74v-9.1h3.4v9.07c0,1.9.8,2.68,2.23,2.68s2.37-.65,2.37-2.55v-9.2h3.5ZM626.4,58.45h-3l1.43-3.4h3.45Z"/><path class="cls-2" d="M632.75,68.85V55.3h3.42V61a4.14,4.14,0,0,1,3.23-1.3c3.2,0,4.75,2,4.75,5.2v4c0,4.1-2,5.79-5.73,5.79S632.75,72.93,632.75,68.85Zm3.42-3.6v3.53c0,1.77.5,2.8,2.25,2.8,1.35,0,2.3-.7,2.3-2.83V65.28c0-1.8-.8-2.45-2.22-2.48A2.14,2.14,0,0,0,636.17,65.25Z"/><path class="cls-2" d="M646,55.28h3.43V69.1c0,1.63.3,2.15,1.72,2.15v3.3c-4,0-5.15-1.17-5.15-5.4Z"/><path class="cls-2" d="M656.12,56.83a1.94,1.94,0,0,1-3.87,0A1.94,1.94,0,0,1,656.12,56.83Zm-.25,17.74h-3.42V60.13h3.42Z"/><path class="cls-2" d="M665.87,65.3c0-1.67-.6-2.5-2.3-2.5-1.9,0-2.45,1.05-2.45,2.88v3.2c0,1.82.48,2.87,2.28,2.87s2.45-.77,2.47-2.52h3.25c0,4-1.85,5.57-5.72,5.57S657.67,73,657.67,69v-3.3c0-4,2-5.93,5.83-5.93s5.62,1.58,5.62,5.55Z"/><path class="cls-2" d="M670.35,64.88c-.23-3.68,1.75-5.15,5.27-5.15,3.85,0,5.53,1.92,5.53,5.75v9.07h-2.8l-.33-1.7a4.69,4.69,0,0,1-3.87,1.9,3.9,3.9,0,0,1-4.25-4.17c0-3.48,2.9-4.85,8-4.5,0-2.2-.42-3.3-2.22-3.3-1.5,0-2,.52-2,2.1Zm2.8,5.42c0,1,.85,1.3,2,1.3,2,0,2.55-1.45,2.7-2.92C674.37,68.33,673.15,69.13,673.15,70.3Z"/></g></g></svg>