<svg id="Layer_1" data-name="Layer 1" xmlns="http://www.w3.org/2000/svg" xmlns:xlink="http://www.w3.org/1999/xlink" viewBox="0 0 523.94 117.49"><defs><style>.cls-1{fill:url(#linear-gradient);}.cls-2{fill:#58595b;}.cls-3{fill:url(#linear-gradient-2);}.cls-4{fill:url(#linear-gradient-3);}</style><linearGradient id="linear-gradient" x1="284.03" y1="20.71" x2="229.34" y2="75.39" gradientUnits="userSpaceOnUse"><stop offset="0.44" stop-color="#39b54a"/><stop offset="0.64" stop-color="#006838"/></linearGradient><linearGradient id="linear-gradient-2" x1="484.46" y1="2.69" x2="417.16" y2="119.26" gradientUnits="userSpaceOnUse"><stop offset="0.66" stop-color="#f7941d"/><stop offset="0.95" stop-color="#ef4136"/></linearGradient><linearGradient id="linear-gradient-3" x1="20.63" y1="106.49" x2="60.43" y2="66.69" gradientUnits="userSpaceOnUse"><stop offset="0.77" stop-color="#ef4136"/><stop offset="1" stop-color="#7c0612"/></linearGradient></defs><title>logo-2</title><polygon class="cls-1" points="267.78 4.46 238.45 4.46 238.45 84.5 267.78 98.78 267.78 4.46"/><polygon class="cls-2" points="513.56 90.27 446.59 90.27 455.39 69.76 505.65 69.76 513.56 90.27"/><polygon class="cls-3" points="487.52 4.46 457.69 4.46 414.09 117.49 443.93 117.49 487.52 4.46"/><path class="cls-2" d="M263.49,51.62a48.08,48.08,0,0,1,3.89-19.23A49.47,49.47,0,0,1,293.75,6a49.5,49.5,0,0,1,38.47,0,49.47,49.47,0,0,1,26.37,26.37,49.48,49.48,0,0,1,0,38.46,49.53,49.53,0,0,1-26.37,26.38,49.5,49.5,0,0,1-38.47,0,49.53,49.53,0,0,1-26.37-26.38A48,48,0,0,1,263.49,51.62Zm29.7,0a19.21,19.21,0,0,0,1.55,7.71A20.1,20.1,0,0,0,299,65.62a19.86,19.86,0,0,0,6.3,4.24,19.81,19.81,0,0,0,15.41,0A19.82,19.82,0,0,0,327,65.62a20.13,20.13,0,0,0,4.25-6.29,19.93,19.93,0,0,0,0-15.41,19.88,19.88,0,0,0-10.54-10.54,19.81,19.81,0,0,0-15.41,0,19.79,19.79,0,0,0-10.54,10.54A19.16,19.16,0,0,0,293.19,51.62Z"/><path class="cls-2" d="M79.3,51.62a48.25,48.25,0,0,1,3.89-19.23A49.47,49.47,0,0,1,109.56,6,49.5,49.5,0,0,1,148,6,49.38,49.38,0,0,1,174.4,32.39a49.48,49.48,0,0,1,0,38.46A49.44,49.44,0,0,1,148,97.23a49.5,49.5,0,0,1-38.47,0A49.53,49.53,0,0,1,83.19,70.85,48.21,48.21,0,0,1,79.3,51.62Zm29.7,0a19.21,19.21,0,0,0,1.56,7.71,19.85,19.85,0,0,0,10.53,10.53,19.81,19.81,0,0,0,15.41,0A19.82,19.82,0,0,0,147,59.33a19.93,19.93,0,0,0,0-15.41A19.79,19.79,0,0,0,136.5,33.38a19.81,19.81,0,0,0-15.41,0,20.1,20.1,0,0,0-6.29,4.24,19.7,19.7,0,0,0-4.24,6.3A19.17,19.17,0,0,0,109,51.62Z"/><path class="cls-2" d="M174.76,4.46H199.5l38.72,35v-.07l29.56,26.24V98.78h-25.6L204.31,60.52V98.78H174.76Z"/><path class="cls-2" d="M358.68,4.46H391.2A55.83,55.83,0,0,1,408,6.87a39,39,0,0,1,13.36,7.07,32.39,32.39,0,0,1,8.84,11.52,37.13,37.13,0,0,1,3.18,15.77,32.42,32.42,0,0,1-2,12,36.93,36.93,0,0,1-4.38,8.2,30.7,30.7,0,0,1-6.37,6.22l23.32,49.82H414.11L388.8,70.25V98.78H358.68Zm30.12,48h1.55a16.57,16.57,0,0,0,9.12-2.4q3.75-2.4,3.75-8.06t-3.75-8.06a16.49,16.49,0,0,0-9.12-2.41H388.8Z"/><path class="cls-4" d="M54.23,68.29C57.55,69.82,58,71.14,58,72.57v.28C58,77.24,52,77.9,48.5,77.9c-10.78,0-21-3.79-30.38-11.27l-1.21-1L0,85.86l1.14,1c11.84,10.6,28.32,16.43,46.4,16.43,15.81,0,28-5.33,34.79-14.43A75.54,75.54,0,0,0,54.23,68.29Z"/><path class="cls-2" d="M50.93,38.19c-13.34-3-15.49-4.79-15.49-7.85v-.28c0-2.86,3.1-4.63,8.09-4.63,8.4,0,17.69,3.28,26.17,9.25l.87.6a58.4,58.4,0,0,1,2.52-7.15A61.54,61.54,0,0,1,83.27,11.92C72.54,3.94,59.76,0,44.22,0c-23.35,0-39,13.08-39,32.55v.28c0,21.56,18.33,25.64,37.71,32,16.33,5.31,29.68,12.73,39.44,24a30.67,30.67,0,0,0,5.91-18.67v-.27C88.24,57.63,83.72,45.32,50.93,38.19Z"/><polygon class="cls-2" points="523.95 98.78 494.11 98.78 458.17 4.46 488.01 4.46 523.95 98.78"/></svg>