<?xml version="1.0" encoding="UTF-8"?>
<svg id="Layer_2" data-name="Layer 2" xmlns="http://www.w3.org/2000/svg" viewBox="0 0 294.19 102.39">
  <defs>
    <style>
      .cls-1 {
        fill: #fff;
      }
    </style>
  </defs>
  <g id="Capa_1" data-name="Capa 1">
    <g>
      <g>
        <path class="cls-1" d="m42.94,18.47c0,10.76-8.12,17.46-21.05,17.46h-8.26v12.38H.23V.94h21.66c12.93,0,21.05,6.7,21.05,17.53h0Zm-13.53,0c0-4.4-2.77-6.97-8.32-6.97h-7.44v13.87h7.44c5.55,0,8.32-2.57,8.32-6.9Z"/>
        <path class="cls-1" d="m70.15,35.73h-7.31v12.59h-13.4V.94h21.66c12.93,0,21.05,6.7,21.05,17.53,0,6.97-3.38,12.11-9.27,14.96l10.22,14.89h-14.35l-8.59-12.59h0Zm.14-24.23h-7.44v13.87h7.44c5.55,0,8.32-2.57,8.32-6.9s-2.77-6.97-8.32-6.97Z"/>
        <path class="cls-1" d="m97.08,24.63c0-14.21,11.17-24.63,26.33-24.63s26.33,10.42,26.33,24.63-11.17,24.63-26.33,24.63-26.33-10.42-26.33-24.63Zm39.12,0c0-8.19-5.62-13.53-12.79-13.53s-12.79,5.35-12.79,13.53,5.62,13.53,12.79,13.53,12.79-5.35,12.79-13.53Z"/>
        <path class="cls-1" d="m203.2.94l-20.3,47.37h-13.2L149.47.94h14.48l12.86,30.86L189.94.94h13.26Z"/>
        <path class="cls-1" d="m244.01,37.96v10.35h-38.03V.94h37.15v10.35h-23.89v7.99h21.05v10.02h-21.05v8.66h24.77Z"/>
        <path class="cls-1" d="m294.16,18.47c0,10.76-8.12,17.46-21.05,17.46h-8.26v12.38h-13.4V.94h21.66c12.93,0,21.05,6.7,21.05,17.53h0Zm-13.53,0c0-4.4-2.78-6.97-8.33-6.97h-7.44v13.87h7.44c5.55,0,8.33-2.57,8.33-6.9Z"/>
      </g>
      <circle class="cls-1" cx="1.71" cy="100.69" r="1.7"/>
      <circle class="cls-1" cx="5.8" cy="100.69" r="1.7"/>
      <circle class="cls-1" cx="9.9" cy="100.69" r="1.7"/>
      <circle class="cls-1" cx="13.99" cy="100.69" r="1.7"/>
      <circle class="cls-1" cx="18.09" cy="100.69" r="1.7"/>
      <circle class="cls-1" cx="22.18" cy="100.69" r="1.7"/>
      <circle class="cls-1" cx="26.28" cy="100.69" r="1.7"/>
      <circle class="cls-1" cx="30.37" cy="100.69" r="1.7"/>
      <circle class="cls-1" cx="34.47" cy="100.69" r="1.7"/>
      <circle class="cls-1" cx="38.57" cy="100.69" r="1.7"/>
      <circle class="cls-1" cx="42.66" cy="100.69" r="1.7"/>
      <circle class="cls-1" cx="46.76" cy="100.69" r="1.7"/>
      <circle class="cls-1" cx="50.85" cy="100.69" r="1.7"/>
      <circle class="cls-1" cx="54.95" cy="100.69" r="1.7"/>
      <circle class="cls-1" cx="59.04" cy="100.69" r="1.7"/>
      <circle class="cls-1" cx="63.14" cy="100.69" r="1.7"/>
      <circle class="cls-1" cx="67.23" cy="100.69" r="1.7"/>
      <circle class="cls-1" cx="71.33" cy="100.69" r="1.7"/>
      <circle class="cls-1" cx="75.43" cy="100.69" r="1.7"/>
      <circle class="cls-1" cx="79.52" cy="100.69" r="1.7"/>
      <circle class="cls-1" cx="83.62" cy="100.69" r="1.7"/>
      <circle class="cls-1" cx="87.71" cy="100.69" r="1.7"/>
      <circle class="cls-1" cx="91.81" cy="100.69" r="1.7"/>
      <circle class="cls-1" cx="95.9" cy="100.69" r="1.7"/>
      <circle class="cls-1" cx="100" cy="100.69" r="1.7"/>
      <circle class="cls-1" cx="104.09" cy="100.69" r="1.7"/>
      <circle class="cls-1" cx="108.19" cy="100.69" r="1.7"/>
      <circle class="cls-1" cx="112.29" cy="100.69" r="1.7"/>
      <circle class="cls-1" cx="116.38" cy="100.69" r="1.7"/>
      <circle class="cls-1" cx="120.48" cy="100.69" r="1.7"/>
      <circle class="cls-1" cx="124.57" cy="100.69" r="1.7"/>
      <circle class="cls-1" cx="128.67" cy="100.69" r="1.7"/>
      <circle class="cls-1" cx="132.76" cy="100.69" r="1.7"/>
      <circle class="cls-1" cx="136.86" cy="100.69" r="1.7"/>
      <circle class="cls-1" cx="140.95" cy="100.69" r="1.7"/>
      <circle class="cls-1" cx="145.05" cy="100.69" r="1.7"/>
      <circle class="cls-1" cx="149.15" cy="100.69" r="1.7"/>
      <circle class="cls-1" cx="153.24" cy="100.69" r="1.7"/>
      <circle class="cls-1" cx="157.34" cy="100.69" r="1.7"/>
      <circle class="cls-1" cx="161.43" cy="100.69" r="1.7"/>
      <circle class="cls-1" cx="165.53" cy="100.69" r="1.7"/>
      <circle class="cls-1" cx="169.62" cy="100.69" r="1.7"/>
      <circle class="cls-1" cx="173.72" cy="100.69" r="1.7"/>
      <circle class="cls-1" cx="177.82" cy="100.69" r="1.7"/>
      <circle class="cls-1" cx="181.91" cy="100.69" r="1.7"/>
      <circle class="cls-1" cx="186.01" cy="100.69" r="1.7"/>
      <circle class="cls-1" cx="190.1" cy="100.69" r="1.7"/>
      <circle class="cls-1" cx="194.2" cy="100.69" r="1.7"/>
      <circle class="cls-1" cx="198.29" cy="100.69" r="1.7"/>
      <circle class="cls-1" cx="202.39" cy="100.69" r="1.7"/>
      <circle class="cls-1" cx="206.48" cy="100.69" r="1.7"/>
      <circle class="cls-1" cx="210.58" cy="100.69" r="1.7"/>
      <circle class="cls-1" cx="214.68" cy="100.69" r="1.7"/>
      <circle class="cls-1" cx="218.77" cy="100.69" r="1.7"/>
      <circle class="cls-1" cx="222.87" cy="100.69" r="1.7"/>
      <circle class="cls-1" cx="226.96" cy="100.69" r="1.7"/>
      <circle class="cls-1" cx="231.06" cy="100.69" r="1.7"/>
      <circle class="cls-1" cx="235.15" cy="100.69" r="1.7"/>
      <circle class="cls-1" cx="239.25" cy="100.69" r="1.7"/>
      <circle class="cls-1" cx="243.34" cy="100.69" r="1.7"/>
      <circle class="cls-1" cx="247.44" cy="100.69" r="1.7"/>
      <circle class="cls-1" cx="251.54" cy="100.69" r="1.7"/>
      <circle class="cls-1" cx="255.63" cy="100.69" r="1.7"/>
      <circle class="cls-1" cx="259.73" cy="100.69" r="1.7"/>
      <circle class="cls-1" cx="263.82" cy="100.69" r="1.7"/>
      <circle class="cls-1" cx="267.92" cy="100.69" r="1.7"/>
      <circle class="cls-1" cx="272.01" cy="100.69" r="1.7"/>
      <circle class="cls-1" cx="276.11" cy="100.69" r="1.7"/>
      <circle class="cls-1" cx="280.2" cy="100.69" r="1.7"/>
      <circle class="cls-1" cx="284.3" cy="100.69" r="1.7"/>
      <circle class="cls-1" cx="288.4" cy="100.69" r="1.7"/>
      <circle class="cls-1" cx="292.49" cy="100.69" r="1.7"/>
      <g>
        <path class="cls-1" d="m99.73,80.05h-2.12v3.89h2.12c1.59,0,2.41-.72,2.41-1.95s-.82-1.94-2.41-1.94Z"/>
        <path class="cls-1" d="m100.57,63.35h-2.37v6.68h2.37c2.17,0,3.58-1.32,3.58-3.34s-1.41-3.34-3.58-3.34Z"/>
        <polygon class="cls-1" points="64.32 84.59 67.99 84.59 66.15 80.33 64.32 84.59"/>
        <polygon class="cls-1" points="135.7 84.59 139.36 84.59 137.52 80.33 135.7 84.59"/>
        <path class="cls-1" d="m217.05,80.05h-2.12v3.89h2.12c1.59,0,2.41-.72,2.41-1.95s-.82-1.94-2.41-1.94Z"/>
        <path class="cls-1" d="m52.16,63.35h-2.12v3.89h2.12c1.59,0,2.41-.72,2.41-1.95s-.82-1.94-2.41-1.94Z"/>
        <polygon class="cls-1" points="196.87 84.59 200.53 84.59 198.69 80.33 196.87 84.59"/>
        <path class="cls-1" d="m189.23,66.69c0-1.99-1.46-3.43-3.43-3.43s-3.43,1.43-3.43,3.43,1.46,3.43,3.43,3.43,3.43-1.44,3.43-3.43Z"/>
        <path class="cls-1" d="m163.04,79.97c-1.96,0-3.43,1.43-3.43,3.43s1.46,3.43,3.43,3.43,3.43-1.44,3.43-3.43-1.46-3.43-3.43-3.43Z"/>
        <path class="cls-1" d="m30.31,70.12c1.96,0,3.43-1.44,3.43-3.43s-1.46-3.43-3.43-3.43-3.43,1.43-3.43,3.43,1.46,3.43,3.43,3.43Z"/>
        <polygon class="cls-1" points="41.65 84.59 45.31 84.59 43.47 80.33 41.65 84.59"/>
        <polygon class="cls-1" points="86.01 63.62 84.19 67.89 87.85 67.89 86.01 63.62"/>
        <path class="cls-1" d="m21.92,65.28c0-1.22-.82-1.94-2.41-1.94h-2.12v3.89h2.12c1.59,0,2.41-.72,2.41-1.95Z"/>
        <polygon class="cls-1" points="62.29 63.62 60.47 67.89 64.13 67.89 62.29 63.62"/>
        <polygon class="cls-1" points="21.04 84.59 24.71 84.59 22.87 80.33 21.04 84.59"/>
        <path class="cls-1" d="m33.34,80.05h-2.12v3.89h2.12c1.59,0,2.41-.72,2.41-1.95s-.82-1.94-2.41-1.94Z"/>
        <path class="cls-1" d="m11.95,65.28c0-1.22-.82-1.94-2.41-1.94h-2.12v3.87h2.12c1.59,0,2.41-.71,2.41-1.94h0Z"/>
        <path class="cls-1" d="m13.43,80.05h-2.12v3.87h2.12c1.59,0,2.41-.71,2.41-1.94s-.82-1.94-2.41-1.94h0Z"/>
        <path class="cls-1" d="m189.25,80.05h-2.12v3.87h2.12c1.59,0,2.41-.71,2.41-1.94s-.82-1.94-2.41-1.94h0Z"/>
        <path class="cls-1" d="m245.59,79.97c-1.96,0-3.43,1.43-3.43,3.43s1.46,3.43,3.43,3.43,3.43-1.44,3.43-3.43-1.46-3.43-3.43-3.43Z"/>
        <polygon class="cls-1" points="240.06 63.62 238.24 67.89 241.9 67.89 240.06 63.62"/>
        <path class="cls-1" d="m258.91,63.26c-1.96,0-3.43,1.43-3.43,3.43s1.46,3.43,3.43,3.43,3.43-1.44,3.43-3.43-1.46-3.43-3.43-3.43Z"/>
        <polygon class="cls-1" points="282.76 67.89 286.42 67.89 284.59 63.62 282.76 67.89"/>
        <path class="cls-1" d="m0,53.08v42.03h294.19v-42.03H0Zm244.86,8.74h8.27v1.53h-3.23v8.22h-1.81v-8.22h-3.23v-1.53h0Zm-5.68,0h1.78l4.4,9.75h-1.89l-.98-2.26h-4.88l-.96,2.26h-1.87l4.39-9.75h0Zm-28.09,0h1.78l4.4,9.75h-1.89l-.97-2.26h-4.88l-.96,2.26h-1.87l4.39-9.75h0Zm-18.13,0h1.49l5.38,6.6v-6.6h1.8v9.75h-1.49l-5.38-6.6v6.6h-1.8v-9.75Zm-6.46-2.7h2.05l-2.42,1.91h-1.5l1.88-1.91h-.01Zm-9.71,2.7h1.81v9.75h-1.81v-9.75Zm-5.59-.14c1.59,0,2.95.57,3.86,1.63l-1.17,1.1c-.71-.77-1.59-1.14-2.6-1.14-2.02,0-3.48,1.42-3.48,3.43s1.46,3.43,3.48,3.43c1.02,0,1.89-.38,2.6-1.16l1.17,1.11c-.9,1.06-2.27,1.63-3.87,1.63-2.98,0-5.21-2.1-5.21-5.01s2.23-5.01,5.22-5.01h0Zm-23.72.13h7.12v1.52h-5.31v2.54h4.71v1.49h-4.71v2.69h5.5v1.52h-7.31v-9.75h0Zm-8.34,0h1.81v8.22h5.1v1.53h-6.91v-9.75Zm-9.33,0h7.12v1.52h-5.31v2.54h4.71v1.49h-4.71v2.69h5.5v1.52h-7.31v-9.75h0Zm-9.37,2.76c0-1.57,1.25-2.91,3.93-2.91,1.17,0,2.4.31,3.25.86l-.57,1.41c-.88-.52-1.84-.77-2.69-.77-1.5,0-2.12.58-2.12,1.32,0,2.08,5.78.72,5.78,4.3,0,1.56-1.27,2.9-3.94,2.9-1.52,0-3.04-.47-3.84-1.17l.63-1.41c.78.63,2.02,1.07,3.22,1.07,1.52,0,2.16-.54,2.16-1.27,0-2.1-5.79-.72-5.79-4.35l-.02.02Zm-35.32-2.77h1.78l4.4,9.75h-1.89l-.97-2.26h-4.88l-.96,2.26h-1.87l4.39-9.75h0Zm-23.72,0h1.78l4.4,9.75h-1.89l-.97-2.26h-4.88l-.96,2.26h-1.87l4.39-9.75h0Zm-19.35-.14c1.63,0,2.99.54,3.91,1.59l-1.14,1.11c-.77-.77-1.64-1.11-2.69-1.11-2.08,0-3.54,1.41-3.54,3.43s1.46,3.43,3.52,3.43c.7,0,1.38-.14,2.01-.5v-3.04h1.71v3.89c-1.02.82-2.44,1.24-3.82,1.24-3.02,0-5.25-2.1-5.25-5.01s2.23-5.01,5.28-5.01v-.02Zm-11.74,0c3.02,0,5.25,2.12,5.25,5.01s-2.23,5.01-5.25,5.01-5.25-2.13-5.25-5.01,2.23-5.01,5.25-5.01Zm-14.73.14h4.01c2.56,0,4.15,1.31,4.15,3.47,0,1.48-.75,2.56-2.07,3.08l2.24,3.2h-1.95l-1.99-2.85c-.12.01-.25.01-.38.01h-2.2v2.84h-1.81v-9.75Zm-8.16,9.75h-1.81v-9.75h4.01c2.56,0,4.15,1.31,4.15,3.47s-1.59,3.47-4.15,3.47h-2.2v2.81Zm6.08,13.89h-2.2v2.81h-1.81v-9.75h4.01c2.56,0,4.15,1.31,4.15,3.47s-1.59,3.47-4.15,3.47Zm12.77,2.81l-.97-2.26h-4.88l-.96,2.26h-1.87l4.39-9.75h1.78l4.4,9.75h-1.89Zm9.51,0l-1.99-2.85c-.12.01-.25.01-.38.01h-2.2v2.84h-1.81v-9.75h4.01c2.56,0,4.15,1.31,4.15,3.47,0,1.48-.75,2.56-2.08,3.08l2.24,3.2h-1.95.01Zm11.1,0l-.97-2.26h-4.88l-.96,2.26h-1.87l4.39-9.75h1.78l4.4,9.75h-1.89Zm5.36-19.55h-2.2v2.84h-1.81v-9.75h4.01c2.56,0,4.15,1.31,4.15,3.47,0,1.48-.75,2.56-2.08,3.08l2.24,3.2h-1.95l-1.99-2.85c-.12.01-.25.01-.38.01h.01Zm8.52,19.55h-6.91v-9.75h1.81v8.22h5.1v1.53Zm8.8,0l-.98-2.26h-4.88l-.96,2.26h-1.87l4.39-9.75h1.78l4.4,9.75h-1.89,0Zm4.2-17.82l-3.2-5.26v6.38h-1.73v-9.75h1.49l3.87,6.46,3.8-6.46h1.49v9.75h-1.7v-6.46l-3.22,5.35h-.81.01Zm7.43,17.81h-1.78l-4.26-9.75h1.96l3.25,7.52,3.27-7.52h1.81l-4.25,9.75Zm12.59,0h-7.31v-9.75h7.12v1.52h-5.31v2.54h4.71v1.49h-4.71v2.69h5.5v1.52h0Zm8.39,0l-1.99-2.85c-.12.01-.25.01-.38.01h-2.2v2.84h-1.81v-9.75h4.01c2.56,0,4.15,1.31,4.15,3.47,0,1.48-.75,2.56-2.08,3.08l2.24,3.2h-1.95.01Zm-1.52-16.71h-4.26v-9.75h4.26c3.16,0,5.32,1.95,5.32,4.88s-2.16,4.87-5.32,4.87Zm7.13,16.71h-1.81v-9.75h1.81v9.75Zm.11-26.46h7.12v1.52h-5.31v2.54h4.71v1.49h-4.71v2.69h5.5v1.52h-7.31v-9.75h0Zm9.64,18.21h-5.31v2.97h4.71v1.53h-4.71v3.73h-1.81v-9.75h7.12v1.52Zm3.56,8.23h-1.81v-9.75h1.81v9.75Zm7.24-1.45c1.02,0,1.89-.38,2.6-1.16l1.17,1.11c-.9,1.06-2.27,1.63-3.87,1.63-2.98,0-5.21-2.1-5.21-5.01s2.23-5.01,5.22-5.01c1.59,0,2.95.57,3.86,1.63l-1.17,1.1c-.71-.77-1.59-1.14-2.6-1.14-2.02,0-3.48,1.42-3.48,3.43s1.46,3.43,3.48,3.43h0Zm12.6,1.44l-.97-2.26h-4.88l-.96,2.26h-1.87l4.39-9.75h1.78l4.4,9.75h-1.89Zm7.6-1.45c1.02,0,1.89-.38,2.6-1.16l1.17,1.11c-.9,1.06-2.27,1.63-3.87,1.63-2.98,0-5.21-2.1-5.21-5.01s2.23-5.01,5.22-5.01c1.59,0,2.95.57,3.86,1.63l-1.17,1.1c-.71-.77-1.59-1.14-2.6-1.14-2.02,0-3.48,1.42-3.48,3.43s1.46,3.43,3.48,3.43h0Zm7.32,1.44h-1.81v-9.75h1.81v9.75Zm.22-21.58c0-2.91,2.23-5.01,5.22-5.01,1.59,0,2.95.57,3.86,1.63l-1.17,1.1c-.71-.77-1.59-1.14-2.6-1.14-2.02,0-3.48,1.42-3.48,3.43s1.46,3.43,3.48,3.43c1.02,0,1.89-.38,2.6-1.16l1.17,1.11c-.91,1.06-2.27,1.63-3.87,1.63-2.98,0-5.21-2.1-5.21-5.01h0Zm9.72,9.12l-2.42,1.91h-1.5l1.88-1.91h2.05-.01Zm-2.76,12.59c-3.02,0-5.25-2.13-5.25-5.01s2.23-5.01,5.25-5.01,5.25,2.12,5.25,5.01-2.23,5.01-5.25,5.01Zm15.83-.14h-1.49l-5.38-6.6v6.6h-1.8v-9.75h1.49l5.38,6.6v-6.6h1.8v9.75Zm1.68-21.58c0-2.88,2.23-5.01,5.25-5.01s5.25,2.12,5.25,5.01-2.23,5.01-5.25,5.01-5.25-2.13-5.25-5.01Zm8.79,18.77h-2.2v2.81h-1.81v-9.75h4.01c2.56,0,4.15,1.31,4.15,3.47s-1.59,3.47-4.15,3.47Zm12.77,2.81l-.98-2.26h-4.88l-.96,2.26h-1.87l4.39-9.75h1.78l4.4,9.75h-1.89,0Zm9.66-8.22h-3.23v8.22h-1.81v-8.22h-3.23v-1.53h8.27v1.53h0Zm7.74,8.22l-1.99-2.85c-.13.01-.25.01-.38.01h-2.2v2.84h-1.81v-9.75h4.01c2.56,0,4.15,1.31,4.15,3.47,0,1.48-.75,2.56-2.08,3.08l2.24,3.2h-1.95.01Zm5.61,0h-1.81v-9.75h1.81v9.75Zm.31-16.71h-6.91v-9.75h1.81v8.22h5.1v1.53Zm1.43-9.75h7.12v1.52h-5.31v2.54h4.71v1.49h-4.71v2.69h5.5v1.52h-7.31v-9.75h0Zm9.85,26.45v-6.46l-3.22,5.35h-.81l-3.2-5.26v6.38h-1.73v-9.75h1.49l3.87,6.46,3.8-6.46h1.49v9.75h-1.7.01Zm8.89.13c-3.02,0-5.25-2.13-5.25-5.01s2.23-5.01,5.25-5.01,5.25,2.12,5.25,5.01-2.23,5.01-5.25,5.01Zm15.83-.14h-1.49l-5.38-6.6v6.6h-1.8v-9.75h1.49l5.38,6.6v-6.6h1.8v9.75Zm-2.51-16.57c-3.02,0-5.25-2.13-5.25-5.01s2.23-5.01,5.25-5.01,5.25,2.12,5.25,5.01-2.23,5.01-5.25,5.01Zm6.93,16.57h-1.81v-9.75h1.81v9.75Zm.24-26.46h4.01c2.56,0,4.15,1.31,4.15,3.47,0,1.48-.75,2.56-2.08,3.08l2.24,3.2h-1.95l-1.99-2.85c-.12.01-.25.01-.38.01h-2.2v2.84h-1.81v-9.75h.01Zm9.69,26.46l-.97-2.26h-4.88l-.96,2.26h-1.87l4.39-9.75h1.78l4.4,9.75h-1.89Zm2.3-16.71h-1.81v-9.75h1.81v9.75Zm7.74,16.71h-6.91v-9.75h1.81v8.22h5.1v1.53Zm2.19-16.71l-.97-2.26h-4.88l-.96,2.26h-1.87l4.39-9.75h1.78l4.4,9.75h-1.89Z"/>
        <path class="cls-1" d="m272.42,65.28c0-1.22-.82-1.94-2.41-1.94h-2.12v3.89h2.12c1.59,0,2.41-.72,2.41-1.95Z"/>
        <polygon class="cls-1" points="211.97 63.62 210.15 67.89 213.81 67.89 211.97 63.62"/>
        <polygon class="cls-1" points="270.54 84.59 274.2 84.59 272.36 80.33 270.54 84.59"/>
      </g>
    </g>
  </g>
</svg>