<svg id="Layer_1" data-name="Layer 1" xmlns="http://www.w3.org/2000/svg" viewBox="0 0 800 800"><defs><style>.cls-1{fill:#231f20;}.cls-2{fill:#fff;stroke:#fff;stroke-miterlimit:10;stroke-width:0.5px;}</style></defs><rect class="cls-1" x="73.32" y="413.5" width="653.35" height="78.34"/><circle class="cls-1" cx="76.72" cy="506.81" r="3.4"/><circle class="cls-1" cx="85.83" cy="506.81" r="3.4"/><circle class="cls-1" cx="94.93" cy="506.81" r="3.4"/><circle class="cls-1" cx="104.04" cy="506.81" r="3.4"/><circle class="cls-1" cx="113.15" cy="506.81" r="3.4"/><circle class="cls-1" cx="122.25" cy="506.81" r="3.4"/><circle class="cls-1" cx="131.36" cy="506.81" r="3.4"/><circle class="cls-1" cx="140.47" cy="506.81" r="3.4"/><circle class="cls-1" cx="149.57" cy="506.81" r="3.4"/><circle class="cls-1" cx="158.68" cy="506.81" r="3.4"/><circle class="cls-1" cx="167.79" cy="506.81" r="3.4"/><circle class="cls-1" cx="176.89" cy="506.81" r="3.4"/><circle class="cls-1" cx="186" cy="506.81" r="3.4"/><circle class="cls-1" cx="195.11" cy="506.81" r="3.4"/><circle class="cls-1" cx="204.21" cy="506.81" r="3.4"/><circle class="cls-1" cx="213.32" cy="506.81" r="3.4"/><circle class="cls-1" cx="222.42" cy="506.81" r="3.4"/><circle class="cls-1" cx="231.53" cy="506.81" r="3.4"/><circle class="cls-1" cx="240.64" cy="506.81" r="3.4"/><circle class="cls-1" cx="249.74" cy="506.81" r="3.4"/><circle class="cls-1" cx="258.85" cy="506.81" r="3.4"/><circle class="cls-1" cx="267.96" cy="506.81" r="3.4"/><circle class="cls-1" cx="277.06" cy="506.81" r="3.4"/><circle class="cls-1" cx="286.17" cy="506.81" r="3.4"/><circle class="cls-1" cx="295.28" cy="506.81" r="3.4"/><circle class="cls-1" cx="304.38" cy="506.81" r="3.4"/><circle class="cls-1" cx="313.49" cy="506.81" r="3.4"/><circle class="cls-1" cx="322.6" cy="506.81" r="3.4"/><circle class="cls-1" cx="331.7" cy="506.81" r="3.4"/><circle class="cls-1" cx="340.81" cy="506.81" r="3.4"/><circle class="cls-1" cx="349.91" cy="506.81" r="3.4"/><circle class="cls-1" cx="359.02" cy="506.81" r="3.4"/><circle class="cls-1" cx="368.13" cy="506.81" r="3.4"/><circle class="cls-1" cx="377.23" cy="506.81" r="3.4"/><circle class="cls-1" cx="386.34" cy="506.81" r="3.4"/><circle class="cls-1" cx="395.45" cy="506.81" r="3.4"/><circle class="cls-1" cx="404.55" cy="506.81" r="3.4"/><circle class="cls-1" cx="413.66" cy="506.81" r="3.4"/><circle class="cls-1" cx="422.77" cy="506.81" r="3.4"/><circle class="cls-1" cx="431.87" cy="506.81" r="3.4"/><circle class="cls-1" cx="440.98" cy="506.81" r="3.4"/><circle class="cls-1" cx="450.09" cy="506.81" r="3.4"/><circle class="cls-1" cx="459.19" cy="506.81" r="3.4"/><circle class="cls-1" cx="468.3" cy="506.81" r="3.4"/><circle class="cls-1" cx="477.4" cy="506.81" r="3.4"/><circle class="cls-1" cx="486.51" cy="506.81" r="3.4"/><circle class="cls-1" cx="495.62" cy="506.81" r="3.4"/><circle class="cls-1" cx="504.72" cy="506.81" r="3.4"/><circle class="cls-1" cx="513.83" cy="506.81" r="3.4"/><circle class="cls-1" cx="522.94" cy="506.81" r="3.4"/><circle class="cls-1" cx="532.04" cy="506.81" r="3.4"/><circle class="cls-1" cx="541.15" cy="506.81" r="3.4"/><circle class="cls-1" cx="550.26" cy="506.81" r="3.4"/><circle class="cls-1" cx="559.36" cy="506.81" r="3.4"/><circle class="cls-1" cx="568.47" cy="506.81" r="3.4"/><circle class="cls-1" cx="577.58" cy="506.81" r="3.4"/><circle class="cls-1" cx="586.68" cy="506.81" r="3.4"/><circle class="cls-1" cx="595.79" cy="506.81" r="3.4"/><circle class="cls-1" cx="604.89" cy="506.81" r="3.4"/><circle class="cls-1" cx="614" cy="506.81" r="3.4"/><circle class="cls-1" cx="623.11" cy="506.81" r="3.4"/><circle class="cls-1" cx="632.21" cy="506.81" r="3.4"/><circle class="cls-1" cx="641.32" cy="506.81" r="3.4"/><circle class="cls-1" cx="650.43" cy="506.81" r="3.4"/><circle class="cls-1" cx="659.53" cy="506.81" r="3.4"/><circle class="cls-1" cx="668.64" cy="506.81" r="3.4"/><circle class="cls-1" cx="677.75" cy="506.81" r="3.4"/><circle class="cls-1" cx="686.85" cy="506.81" r="3.4"/><circle class="cls-1" cx="695.96" cy="506.81" r="3.4"/><circle class="cls-1" cx="705.07" cy="506.81" r="3.4"/><circle class="cls-1" cx="714.17" cy="506.81" r="3.4"/><circle class="cls-1" cx="723.28" cy="506.81" r="3.4"/><path class="cls-2" d="M99.83,431.46h5.91a6.41,6.41,0,0,1,2.39.42A5.07,5.07,0,0,1,109.9,433a4.87,4.87,0,0,1,1.09,1.69,5.49,5.49,0,0,1,.37,2,5.37,5.37,0,0,1-.37,2,4.83,4.83,0,0,1-1.09,1.68,5.24,5.24,0,0,1-1.77,1.16,6.21,6.21,0,0,1-2.39.43H101v4.78H99.83Zm1.16,1.1v8.34h4.71a5,5,0,0,0,1.9-.34,4.26,4.26,0,0,0,1.41-.92,3.85,3.85,0,0,0,.88-1.34,4.36,4.36,0,0,0,.29-1.56,4.5,4.5,0,0,0-.29-1.6,4,4,0,0,0-.88-1.34,4.09,4.09,0,0,0-1.41-.91,5.15,5.15,0,0,0-1.9-.33Z"/><path class="cls-2" d="M124.11,431.46a5.92,5.92,0,0,1,2.21.39,4.63,4.63,0,0,1,2.66,2.64,5.33,5.33,0,0,1,.12,3.45,4.87,4.87,0,0,1-.68,1.37,4.34,4.34,0,0,1-1.09,1.09,5,5,0,0,1-1.49.72l4,5.66h-1.41l-3.87-5.44-.24,0h-5.83v5.42h-1.16V431.46Zm-5.6,1.1v7.7h5.56a4.62,4.62,0,0,0,1.77-.32,3.9,3.9,0,0,0,1.29-.84,3.53,3.53,0,0,0,.8-1.23,4,4,0,0,0,.26-1.46,4.07,4.07,0,0,0-.26-1.47,3.4,3.4,0,0,0-.8-1.22,3.77,3.77,0,0,0-1.29-.85,4.62,4.62,0,0,0-1.77-.31Z"/><path class="cls-2" d="M134.79,439.12a7.71,7.71,0,0,1,.63-3.1,8.14,8.14,0,0,1,1.71-2.52,8,8,0,0,1,2.55-1.71,8,8,0,0,1,6.21,0,8,8,0,0,1,4.25,4.23,7.94,7.94,0,0,1,0,6.2,8,8,0,0,1-4.25,4.22,8,8,0,0,1-6.21,0,8,8,0,0,1-4.26-4.22A7.71,7.71,0,0,1,134.79,439.12Zm1.18,0a6.58,6.58,0,0,0,.54,2.65,7,7,0,0,0,1.47,2.16,6.78,6.78,0,0,0,4.81,2,6.47,6.47,0,0,0,2.63-.53,6.57,6.57,0,0,0,2.16-1.45,7,7,0,0,0,1.47-2.16,6.75,6.75,0,0,0,0-5.29,7,7,0,0,0-1.47-2.16,6.92,6.92,0,0,0-2.16-1.46,6.72,6.72,0,0,0-5.28,0,6.92,6.92,0,0,0-2.16,1.46,7,7,0,0,0-1.47,2.16A6.56,6.56,0,0,0,136,439.12Z"/><path class="cls-2" d="M164.08,438.9h6.7v7.88h-1v-2.63a6.1,6.1,0,0,1-1.11,1.22,7.06,7.06,0,0,1-1.38.92,7.42,7.42,0,0,1-3.34.78,7.84,7.84,0,0,1-3.12-.63,8,8,0,0,1-4.25-4.22,7.94,7.94,0,0,1,0-6.2,8,8,0,0,1,4.25-4.23,7.84,7.84,0,0,1,3.12-.63,7.62,7.62,0,0,1,3.63.89,8.09,8.09,0,0,1,2.77,2.35l-1,.67a7,7,0,0,0-2.36-2,6.47,6.47,0,0,0-3.08-.75,6.59,6.59,0,0,0-2.66.54,6.87,6.87,0,0,0-3.62,3.62,6.75,6.75,0,0,0,0,5.29,7.16,7.16,0,0,0,1.46,2.16,6.78,6.78,0,0,0,2.16,1.45,6.58,6.58,0,0,0,2.66.53,6.45,6.45,0,0,0,3.36-.89,6.89,6.89,0,0,0,2.41-2.39v-2.71h-5.6Z"/><path class="cls-2" d="M184.08,431.46a5.89,5.89,0,0,1,2.21.39,4.71,4.71,0,0,1,1.64,1.07,4.53,4.53,0,0,1,1,1.57,5.16,5.16,0,0,1,.12,3.45,4.87,4.87,0,0,1-.68,1.37,4.34,4.34,0,0,1-1.09,1.09,5,5,0,0,1-1.49.72l4,5.66h-1.42l-3.87-5.44-.23,0h-5.84v5.42h-1.16V431.46Zm-5.6,1.1v7.7H184a4.62,4.62,0,0,0,1.77-.32,4,4,0,0,0,1.3-.84,3.65,3.65,0,0,0,.79-1.23,4,4,0,0,0,.27-1.46,4.08,4.08,0,0,0-.27-1.47,3.52,3.52,0,0,0-.79-1.22,3.91,3.91,0,0,0-1.3-.85,4.62,4.62,0,0,0-1.77-.31Z"/><path class="cls-2" d="M202.23,431.46l7,15.32H208l-1.58-3.46h-9.62l-1.55,3.46h-1.3l7-15.32Zm-4.93,10.76h8.6l-4.3-9.51Z"/><path class="cls-2" d="M214.68,446.78V431.46h1.1l6.68,13.27,6.68-13.27h1.1v15.32h-1.16V433.89l-6.22,12.4h-.81l-6.21-12.36v12.85Z"/><path class="cls-2" d="M243.93,431.46l7,15.32h-1.28l-1.57-3.46h-9.63l-1.55,3.46h-1.3l7-15.32ZM239,442.22h8.61l-4.3-9.51Z"/><path class="cls-2" d="M265.19,431.46h6a7.46,7.46,0,0,1,3.08.6,6.14,6.14,0,0,1,2.23,1.63,6.91,6.91,0,0,1,1.36,2.42,10.08,10.08,0,0,1,0,6,7,7,0,0,1-1.36,2.44,6.12,6.12,0,0,1-2.23,1.62,7.62,7.62,0,0,1-3.08.59h-6Zm1.16,1.14v13h4.77a6.27,6.27,0,0,0,2.57-.5,5.38,5.38,0,0,0,1.89-1.38,6,6,0,0,0,1.17-2.06,7.93,7.93,0,0,0,.4-2.58,8,8,0,0,0-.4-2.59,6,6,0,0,0-1.17-2.06,5.35,5.35,0,0,0-1.89-1.37,6.11,6.11,0,0,0-2.57-.5Z"/><path class="cls-2" d="M284.65,431.46h10.53v1.14h-9.37v6.1h8v1.1h-8v5.84h9.37v1.14H284.65Z"/><path class="cls-2" d="M311.39,443V443a2.21,2.21,0,0,0,.33,1.18,3,3,0,0,0,1,.94,5.24,5.24,0,0,0,1.51.62,8.11,8.11,0,0,0,2,.22,5.58,5.58,0,0,0,3.26-.8,2.43,2.43,0,0,0,1.12-2.05,2.14,2.14,0,0,0-.38-1.27,3.58,3.58,0,0,0-1-.93,8,8,0,0,0-1.52-.69c-.57-.21-1.18-.41-1.82-.6s-1.27-.41-1.91-.64a8.72,8.72,0,0,1-1.76-.86,4.57,4.57,0,0,1-1.29-1.22,3,3,0,0,1-.5-1.76,3.45,3.45,0,0,1,.38-1.64,3.77,3.77,0,0,1,1.09-1.27,5.18,5.18,0,0,1,1.72-.81,8.24,8.24,0,0,1,2.25-.29,8.51,8.51,0,0,1,2.32.3,5.8,5.8,0,0,1,1.81.82,3.82,3.82,0,0,1,1.18,1.26,3.1,3.1,0,0,1,.42,1.59v.18H320.4v-.1a2.32,2.32,0,0,0-.31-1.19,2.78,2.78,0,0,0-.91-.93,4.76,4.76,0,0,0-1.46-.62,7.46,7.46,0,0,0-1.91-.23,5.16,5.16,0,0,0-3.14.81,2.45,2.45,0,0,0-1.09,2,2.13,2.13,0,0,0,.37,1.26,3.34,3.34,0,0,0,1,.9,7.82,7.82,0,0,0,1.45.69l1.77.59c.62.18,1.26.39,1.93.62a8.71,8.71,0,0,1,1.82.86,5,5,0,0,1,1.37,1.26,3,3,0,0,1,.54,1.81,3.39,3.39,0,0,1-.4,1.65,3.67,3.67,0,0,1-1.14,1.25,5.55,5.55,0,0,1-1.77.81,8.7,8.7,0,0,1-2.31.28,9.53,9.53,0,0,1-2.41-.29,6.17,6.17,0,0,1-1.87-.83,4.18,4.18,0,0,1-1.23-1.25,3.07,3.07,0,0,1-.44-1.59V443Z"/><path class="cls-2" d="M328.07,431.46h10.52v1.14h-9.37v6.1h8v1.1h-8v5.84h9.37v1.14H328.07Z"/><path class="cls-2" d="M345,431.46h1.16v14.18H355v1.14H345Z"/><path class="cls-2" d="M360.77,431.46H371.3v1.14h-9.37v6.1h8v1.1h-8v5.84h9.37v1.14H360.77Z"/><path class="cls-2" d="M391.47,443.07a7.86,7.86,0,0,1-1.24,1.64,8.82,8.82,0,0,1-1.62,1.26,7.46,7.46,0,0,1-1.92.82,8,8,0,0,1-2.13.28,7.75,7.75,0,0,1-3.11-.63,8,8,0,0,1-4.26-4.22,7.94,7.94,0,0,1,0-6.2,8.14,8.14,0,0,1,1.71-2.52,8,8,0,0,1,2.55-1.71,7.75,7.75,0,0,1,3.11-.63,8,8,0,0,1,4,1.1,8.19,8.19,0,0,1,1.61,1.27,8.54,8.54,0,0,1,1.25,1.62l-1.06.51a7.05,7.05,0,0,0-1.07-1.36,7.36,7.36,0,0,0-1.36-1.05,7,7,0,0,0-1.61-.68,6.34,6.34,0,0,0-1.79-.25,6.54,6.54,0,0,0-2.65.54,6.92,6.92,0,0,0-2.16,1.46,7,7,0,0,0-1.47,2.16,6.75,6.75,0,0,0,0,5.29,7,7,0,0,0,1.47,2.16,6.78,6.78,0,0,0,4.81,2A6.45,6.45,0,0,0,388,445a7,7,0,0,0,2.43-2.44Z"/><path class="cls-2" d="M411.33,443.07a7.86,7.86,0,0,1-1.24,1.64,8.82,8.82,0,0,1-1.62,1.26,7.46,7.46,0,0,1-1.92.82,8,8,0,0,1-2.13.28,7.75,7.75,0,0,1-3.11-.63,8,8,0,0,1-4.26-4.22,7.94,7.94,0,0,1,0-6.2,8.14,8.14,0,0,1,1.71-2.52,8,8,0,0,1,2.55-1.71,7.75,7.75,0,0,1,3.11-.63,8,8,0,0,1,4,1.1,8.36,8.36,0,0,1,2.86,2.89l-1.06.51a7.05,7.05,0,0,0-1.07-1.36,7.71,7.71,0,0,0-1.36-1.05,7,7,0,0,0-1.61-.68,6.34,6.34,0,0,0-1.79-.25,6.54,6.54,0,0,0-2.65.54,6.92,6.92,0,0,0-2.16,1.46,7,7,0,0,0-1.47,2.16,6.75,6.75,0,0,0,0,5.29,7,7,0,0,0,1.47,2.16,6.78,6.78,0,0,0,4.81,2,6.47,6.47,0,0,0,3.42-.92,7,7,0,0,0,2.43-2.44Z"/><path class="cls-2" d="M418.54,431.46v15.32h-1.16V431.46Z"/><path class="cls-2" d="M424.77,439.12a7.71,7.71,0,0,1,.63-3.1,8,8,0,0,1,4.25-4.23,8,8,0,0,1,6.22,0,8.07,8.07,0,0,1,4.24,4.23,7.94,7.94,0,0,1,0,6.2,8,8,0,0,1-4.24,4.22,8,8,0,0,1-6.22,0,8,8,0,0,1-4.25-4.22A7.71,7.71,0,0,1,424.77,439.12Zm1.18,0a6.58,6.58,0,0,0,.54,2.65,7.16,7.16,0,0,0,1.46,2.16,6.78,6.78,0,0,0,2.16,1.45,6.87,6.87,0,0,0,5.29,0,6.78,6.78,0,0,0,2.16-1.45,7.16,7.16,0,0,0,1.46-2.16,6.75,6.75,0,0,0,0-5.29,6.87,6.87,0,0,0-3.62-3.62,6.75,6.75,0,0,0-5.29,0,6.87,6.87,0,0,0-3.62,3.62A6.56,6.56,0,0,0,426,439.12Zm4.1-9.71,4.84-2.92.57,1-4.95,2.71Z"/><path class="cls-2" d="M447,446.78V431.46h1l10.6,13.33V431.46h1.16v15.32h-1l-10.6-13.32v13.32Z"/><path class="cls-2" d="M482.29,431.46l7,15.32H488l-1.57-3.46h-9.63l-1.55,3.46H474l7-15.32Zm-4.94,10.76H486l-4.3-9.51Z"/><path class="cls-2" d="M494.74,431.46h1.16v14.18h8.86v1.14h-10Z"/><path class="cls-2" d="M510.55,431.46h10.53v1.14h-9.37v6.1h8v1.1h-8v5.84h9.37v1.14H510.55Z"/><path class="cls-2" d="M533.81,431.46l7,15.32h-1.27L538,443.32h-9.62l-1.55,3.46h-1.3l7-15.32Zm-4.93,10.76h8.6l-4.3-9.51Z"/><path class="cls-2" d="M542.55,431.46h12.22v1.14h-5.54v14.18h-1.16V432.6h-5.52Z"/><path class="cls-2" d="M558.15,439.12a7.71,7.71,0,0,1,.63-3.1,8.14,8.14,0,0,1,1.71-2.52,8,8,0,0,1,2.54-1.71,8,8,0,0,1,6.22,0,8.07,8.07,0,0,1,4.24,4.23,7.94,7.94,0,0,1,0,6.2,8,8,0,0,1-4.24,4.22,8,8,0,0,1-8.76-1.7,7.91,7.91,0,0,1-1.71-2.52A7.71,7.71,0,0,1,558.15,439.12Zm1.18,0a6.58,6.58,0,0,0,.54,2.65,7.16,7.16,0,0,0,1.46,2.16,6.78,6.78,0,0,0,2.16,1.45,6.87,6.87,0,0,0,5.29,0,6.78,6.78,0,0,0,2.16-1.45,7.16,7.16,0,0,0,1.46-2.16,6.75,6.75,0,0,0,0-5.29,6.87,6.87,0,0,0-3.62-3.62,6.75,6.75,0,0,0-5.29,0,6.87,6.87,0,0,0-3.62,3.62A6.56,6.56,0,0,0,559.33,439.12Z"/><path class="cls-2" d="M587.12,431.46a5.89,5.89,0,0,1,2.21.39,4.71,4.71,0,0,1,1.64,1.07,4.53,4.53,0,0,1,1,1.57,5.16,5.16,0,0,1,.12,3.45,4.87,4.87,0,0,1-.68,1.37,4.18,4.18,0,0,1-1.09,1.09,5,5,0,0,1-1.49.72l4,5.66h-1.42l-3.87-5.44-.23,0h-5.84v5.42h-1.16V431.46Zm-5.6,1.1v7.7h5.56a4.62,4.62,0,0,0,1.77-.32,4,4,0,0,0,1.3-.84,3.5,3.5,0,0,0,.79-1.23,4,4,0,0,0,.27-1.46,4.08,4.08,0,0,0-.27-1.47,3.38,3.38,0,0,0-.79-1.22,3.91,3.91,0,0,0-1.3-.85,4.62,4.62,0,0,0-1.77-.31Z"/><path class="cls-2" d="M600.07,431.46v15.32h-1.16V431.46Z"/><path class="cls-2" d="M613.76,431.46l7,15.32h-1.28l-1.57-3.46h-9.62l-1.55,3.46h-1.3l7-15.32Zm-4.93,10.76h8.6l-4.3-9.51Z"/><path class="cls-2" d="M635,431.46h5.92a6.35,6.35,0,0,1,2.38.42,5.07,5.07,0,0,1,1.77,1.15,4.87,4.87,0,0,1,1.09,1.69,5.49,5.49,0,0,1,.37,2,5.37,5.37,0,0,1-.37,2,4.83,4.83,0,0,1-1.09,1.68,5.24,5.24,0,0,1-1.77,1.16,6.16,6.16,0,0,1-2.38.43h-4.76v4.78H635Zm1.16,1.1v8.34h4.72a4.9,4.9,0,0,0,1.89-.34,4.41,4.41,0,0,0,1.42-.92,4,4,0,0,0,.87-1.34,4.15,4.15,0,0,0,.29-1.56,4.29,4.29,0,0,0-.29-1.6,4.07,4.07,0,0,0-.87-1.34,4.23,4.23,0,0,0-1.42-.91,5.1,5.1,0,0,0-1.89-.33Z"/><path class="cls-2" d="M657.54,431.46l7,15.32H663.3l-1.57-3.46H652.1l-1.55,3.46h-1.3l7-15.32Zm-4.93,10.76h8.61l-4.31-9.51Z"/><path class="cls-2" d="M676.75,431.46a5.85,5.85,0,0,1,2.21.39,4.69,4.69,0,0,1,2.67,2.64,5.25,5.25,0,0,1,.35,1.9,5.07,5.07,0,0,1-.24,1.55,4.85,4.85,0,0,1-.67,1.37A4.51,4.51,0,0,1,680,440.4a5.09,5.09,0,0,1-1.5.72l4,5.66H681.1l-3.87-5.44-.24,0h-5.83v5.42H670V431.46Zm-5.59,1.1v7.7h5.56a4.6,4.6,0,0,0,1.76-.32,3.94,3.94,0,0,0,1.3-.84,3.68,3.68,0,0,0,.8-1.23,4.24,4.24,0,0,0,.26-1.46,4.29,4.29,0,0,0-.26-1.47,3.54,3.54,0,0,0-.8-1.22,3.81,3.81,0,0,0-1.3-.85,4.61,4.61,0,0,0-1.76-.31Z"/><path class="cls-2" d="M694.91,431.46l7,15.32h-1.28l-1.57-3.46h-9.63l-1.55,3.46h-1.29l7-15.32ZM690,442.22h8.6l-4.3-9.51Z"/><path class="cls-2" d="M92.25,457.38h1.16v14.18h8.86v1.14h-10Z"/><path class="cls-2" d="M114.43,457.38l7,15.32h-1.28l-1.57-3.46H109l-1.55,3.46h-1.29l7-15.32Zm-4.93,10.76h8.6l-4.3-9.5Z"/><path class="cls-2" d="M139.88,472.7l-7-15.32h1.3l6.36,14.08,6.39-14.08h1.27l-7,15.32Z"/><path class="cls-2" d="M153.58,457.38H164.1v1.14h-9.37v6.11h8v1.1h-8v5.83h9.37v1.14H153.58Z"/><path class="cls-2" d="M177.23,457.38a5.92,5.92,0,0,1,2.21.39,4.63,4.63,0,0,1,2.66,2.64,5.25,5.25,0,0,1,.35,1.9,5,5,0,0,1-.24,1.55,4.91,4.91,0,0,1-.67,1.38,4.7,4.7,0,0,1-1.09,1.09,5.07,5.07,0,0,1-1.5.71l4,5.66h-1.41l-3.87-5.44-.24,0h-5.83v5.42h-1.16V457.38Zm-5.6,1.1v7.7h5.56a4.61,4.61,0,0,0,1.76-.31,4,4,0,0,0,1.3-.85,3.49,3.49,0,0,0,.8-1.23,4.23,4.23,0,0,0,0-2.92,3.49,3.49,0,0,0-.8-1.23,4,4,0,0,0-1.3-.85,4.61,4.61,0,0,0-1.76-.31Z"/><path class="cls-2" d="M190.17,457.38V472.7H189V457.38Z"/><path class="cls-2" d="M197.5,457.38h10.13v1.14h-9v6.62h7.78v1.1h-7.78v6.46H197.5Z"/><path class="cls-2" d="M215.06,457.38V472.7H213.9V457.38Z"/><path class="cls-2" d="M236.19,469a7.61,7.61,0,0,1-1.24,1.64,8.64,8.64,0,0,1-1.62,1.27,7.8,7.8,0,0,1-1.92.81,8,8,0,0,1-2.13.29,7.75,7.75,0,0,1-3.11-.63,8.19,8.19,0,0,1-2.55-1.7,8.07,8.07,0,0,1-1.71-2.53,8,8,0,0,1,0-6.19,8,8,0,0,1,4.26-4.24,7.75,7.75,0,0,1,3.11-.62,7.86,7.86,0,0,1,2.12.28,7.55,7.55,0,0,1,1.91.82,8.14,8.14,0,0,1,1.61,1.26,9,9,0,0,1,1.26,1.62l-1.07.51a6.83,6.83,0,0,0-5.83-3.34,6.54,6.54,0,0,0-2.65.54,7,7,0,0,0-2.16,1.47,6.78,6.78,0,0,0-1.47,2.16,6.72,6.72,0,0,0,0,5.28,6.93,6.93,0,0,0,3.63,3.62,6.71,6.71,0,0,0,2.65.53,6.45,6.45,0,0,0,3.42-.93,6.9,6.9,0,0,0,2.43-2.43Z"/><path class="cls-2" d="M248.61,457.38l7,15.32h-1.27l-1.58-3.46h-9.62l-1.55,3.46h-1.3l7-15.32Zm-4.93,10.76h8.6l-4.3-9.5Z"/><path class="cls-2" d="M274,469a7.66,7.66,0,0,1-1.25,1.64,8.64,8.64,0,0,1-1.62,1.27,8,8,0,0,1-7.16.47,8,8,0,0,1-4.25-4.23,7.92,7.92,0,0,1,0-6.19,8,8,0,0,1,4.25-4.24,8.13,8.13,0,0,1,5.23-.34,7.4,7.4,0,0,1,1.91.82,7.86,7.86,0,0,1,1.61,1.26,8.59,8.59,0,0,1,1.26,1.62l-1.06.51a7,7,0,0,0-2.44-2.4,6.41,6.41,0,0,0-1.61-.69,6.67,6.67,0,0,0-1.79-.25,6.58,6.58,0,0,0-2.65.54,7.19,7.19,0,0,0-2.16,1.47,6.92,6.92,0,0,0-1.46,2.16,6.72,6.72,0,0,0,0,5.28,6.87,6.87,0,0,0,3.62,3.62,6.74,6.74,0,0,0,2.65.53,6.45,6.45,0,0,0,3.42-.93,7,7,0,0,0,2.44-2.43Z"/><path class="cls-2" d="M281.24,457.38V472.7h-1.16V457.38Z"/><path class="cls-2" d="M287.46,465a7.62,7.62,0,0,1,.63-3.09,8,8,0,0,1,4.26-4.24,8.09,8.09,0,0,1,6.21,0,8,8,0,0,1,4.25,4.24,8,8,0,0,1,0,6.19,8.07,8.07,0,0,1-1.71,2.53,8.26,8.26,0,0,1-2.54,1.7,8,8,0,0,1-6.21,0,8.19,8.19,0,0,1-2.55-1.7,8.07,8.07,0,0,1-1.71-2.53A7.67,7.67,0,0,1,287.46,465Zm1.18,0a6.54,6.54,0,0,0,.54,2.65,6.93,6.93,0,0,0,3.63,3.62,6.77,6.77,0,0,0,7.44-1.46,7,7,0,0,0,1.47-2.16,6.72,6.72,0,0,0,0-5.28,7,7,0,0,0-3.63-3.63,6.72,6.72,0,0,0-5.28,0,7,7,0,0,0-2.16,1.47,6.78,6.78,0,0,0-1.47,2.16A6.48,6.48,0,0,0,288.64,465Zm4.11-9.7,4.83-2.93.57,1-4.95,2.71Z"/><path class="cls-2" d="M309.68,472.7V457.38h1l10.61,13.34V457.38h1.16V472.7h-1l-10.61-13.32V472.7Z"/><path class="cls-2" d="M339.56,457.38h6a7.46,7.46,0,0,1,3.08.6,6.26,6.26,0,0,1,2.23,1.63,7,7,0,0,1,1.36,2.43,9.43,9.43,0,0,1,.46,3,9.6,9.6,0,0,1-.46,3,7,7,0,0,1-1.36,2.43,6.12,6.12,0,0,1-2.23,1.62,7.46,7.46,0,0,1-3.08.59h-6Zm1.16,1.14v13h4.77a6.11,6.11,0,0,0,2.57-.5,5.35,5.35,0,0,0,1.89-1.37,6.09,6.09,0,0,0,1.17-2.07,8.52,8.52,0,0,0,0-5.16A6,6,0,0,0,350,460.4a5.26,5.26,0,0,0-1.89-1.38,6.27,6.27,0,0,0-2.57-.5Z"/><path class="cls-2" d="M359,457.38h10.53v1.14h-9.37v6.11h8v1.1h-8v5.83h9.37v1.14H359Z"/><path class="cls-2" d="M375.92,457.38h1.16v14.18h8.86v1.14h-10Z"/><path class="cls-2" d="M415.28,469a7.34,7.34,0,0,1-1.25,1.64,8.64,8.64,0,0,1-1.62,1.27,7.73,7.73,0,0,1-1.91.81,8,8,0,0,1-2.13.29,7.84,7.84,0,0,1-3.12-.63,8.26,8.26,0,0,1-2.54-1.7,8.07,8.07,0,0,1-1.71-2.53,7.92,7.92,0,0,1,0-6.19,8,8,0,0,1,4.25-4.24,8.16,8.16,0,0,1,5.24-.34,7.55,7.55,0,0,1,1.91.82,8.44,8.44,0,0,1,1.61,1.26,8.54,8.54,0,0,1,1.25,1.62l-1.06.51a7,7,0,0,0-1.07-1.35,6.87,6.87,0,0,0-1.36-1.05,6.57,6.57,0,0,0-1.61-.69,6.73,6.73,0,0,0-1.79-.25,6.54,6.54,0,0,0-2.65.54,7,7,0,0,0-2.16,1.47,6.78,6.78,0,0,0-1.47,2.16,6.72,6.72,0,0,0,0,5.28,6.93,6.93,0,0,0,3.63,3.62,6.71,6.71,0,0,0,2.65.53,6.48,6.48,0,0,0,3.42-.93,6.9,6.9,0,0,0,2.43-2.43Z"/><path class="cls-2" d="M420.23,465a7.62,7.62,0,0,1,.63-3.09,8,8,0,0,1,4.25-4.24,7.83,7.83,0,0,1,3.12-.62,7.7,7.7,0,0,1,3.1.62,8,8,0,0,1,4.24,4.24,7.92,7.92,0,0,1,0,6.19,7.91,7.91,0,0,1-1.71,2.53,8.1,8.1,0,0,1-2.53,1.7,7.71,7.71,0,0,1-3.1.63,7.84,7.84,0,0,1-3.12-.63,8.26,8.26,0,0,1-2.54-1.7,8.07,8.07,0,0,1-1.71-2.53A7.67,7.67,0,0,1,420.23,465Zm1.18,0a6.54,6.54,0,0,0,.54,2.65,6.84,6.84,0,0,0,3.63,3.62,6.84,6.84,0,0,0,5.28,0,7,7,0,0,0,2.16-1.46,6.75,6.75,0,0,0,1.46-2.16,6.72,6.72,0,0,0,0-5.28,6.75,6.75,0,0,0-1.46-2.16,7.19,7.19,0,0,0-2.16-1.47,6.72,6.72,0,0,0-5.28,0,7.11,7.11,0,0,0-2.17,1.47,6.92,6.92,0,0,0-1.46,2.16A6.48,6.48,0,0,0,421.41,465Z"/><path class="cls-2" d="M442.45,472.7V457.38h1l10.61,13.34V457.38h1.16V472.7h-1l-10.61-13.32V472.7Z"/><path class="cls-2" d="M462.68,468.87V469a2.17,2.17,0,0,0,.34,1.19,2.86,2.86,0,0,0,1,.93,5.36,5.36,0,0,0,1.51.62,8.17,8.17,0,0,0,2,.23,5.54,5.54,0,0,0,3.26-.81,2.45,2.45,0,0,0,1.12-2,2.09,2.09,0,0,0-.39-1.28,3.43,3.43,0,0,0-1-.92,8.15,8.15,0,0,0-1.51-.7l-1.83-.6c-.63-.2-1.26-.41-1.9-.64a8.44,8.44,0,0,1-1.76-.85,4.64,4.64,0,0,1-1.3-1.23,3,3,0,0,1-.5-1.76,3.57,3.57,0,0,1,.38-1.64,3.74,3.74,0,0,1,1.09-1.26,5.18,5.18,0,0,1,1.72-.82,8.35,8.35,0,0,1,2.25-.28,8.52,8.52,0,0,1,2.32.29,6.1,6.1,0,0,1,1.82.82,4.26,4.26,0,0,1,1.18,1.26,3.15,3.15,0,0,1,.42,1.59v.18H471.7v-.1a2.33,2.33,0,0,0-.32-1.19,2.69,2.69,0,0,0-.91-.93,5,5,0,0,0-1.45-.62,7.56,7.56,0,0,0-1.92-.22,5.18,5.18,0,0,0-3.14.8,2.46,2.46,0,0,0-1.08,2,2.13,2.13,0,0,0,.36,1.26,3.34,3.34,0,0,0,1,.9,6.81,6.81,0,0,0,1.46.69c.55.2,1.14.4,1.77.59s1.25.39,1.92.62a9.07,9.07,0,0,1,1.83.86,5,5,0,0,1,1.36,1.26,3,3,0,0,1,.54,1.82,3.35,3.35,0,0,1-.4,1.64,3.79,3.79,0,0,1-1.14,1.26,5.77,5.77,0,0,1-1.77.8,8.56,8.56,0,0,1-2.3.29,9.09,9.09,0,0,1-2.41-.3,6.22,6.22,0,0,1-1.88-.82,4.33,4.33,0,0,1-1.23-1.26,3,3,0,0,1-.44-1.59v-.16Z"/><path class="cls-2" d="M492,457.38v9.53a7,7,0,0,1-.41,2.4,5.49,5.49,0,0,1-1.23,1.93,5.9,5.9,0,0,1-2,1.29,8.4,8.4,0,0,1-5.54,0,6,6,0,0,1-2-1.29,5.33,5.33,0,0,1-1.22-1.93,6.73,6.73,0,0,1-.42-2.4v-9.53h1.16v9.49a5.58,5.58,0,0,0,.35,2,4.28,4.28,0,0,0,1,1.58,4.48,4.48,0,0,0,1.65,1,6.3,6.3,0,0,0,2.26.38,6.41,6.41,0,0,0,2.28-.38,4.35,4.35,0,0,0,2.64-2.62,5.58,5.58,0,0,0,.34-2v-9.49Z"/><path class="cls-2" d="M499.12,472.7V457.38h1.1l6.68,13.28,6.68-13.28h1.1V472.7h-1.16V459.82l-6.23,12.39h-.8l-6.21-12.35V472.7Z"/><path class="cls-2" d="M520.9,465a7.62,7.62,0,0,1,.63-3.09,8,8,0,0,1,4.26-4.24,8.09,8.09,0,0,1,6.21,0,8,8,0,0,1,4.25,4.24,7.92,7.92,0,0,1,0,6.19,8.07,8.07,0,0,1-1.71,2.53,8.26,8.26,0,0,1-2.54,1.7,8,8,0,0,1-6.21,0,8.19,8.19,0,0,1-2.55-1.7,8.07,8.07,0,0,1-1.71-2.53A7.67,7.67,0,0,1,520.9,465Zm1.18,0a6.54,6.54,0,0,0,.54,2.65,6.93,6.93,0,0,0,3.63,3.62,6.77,6.77,0,0,0,7.44-1.46,6.78,6.78,0,0,0,1.47-2.16,6.72,6.72,0,0,0,0-5.28,6.78,6.78,0,0,0-1.47-2.16,7,7,0,0,0-2.16-1.47,6.72,6.72,0,0,0-5.28,0,7,7,0,0,0-2.16,1.47,6.78,6.78,0,0,0-1.47,2.16A6.48,6.48,0,0,0,522.08,465Z"/><path class="cls-2" d="M552.86,457.38h6a7.46,7.46,0,0,1,3.08.6,6.35,6.35,0,0,1,2.23,1.63,6.87,6.87,0,0,1,1.35,2.43,9.43,9.43,0,0,1,.47,3,9.6,9.6,0,0,1-.47,3,6.87,6.87,0,0,1-1.35,2.43,6.21,6.21,0,0,1-2.23,1.62,7.46,7.46,0,0,1-3.08.59h-6Zm1.16,1.14v13h4.78a6.14,6.14,0,0,0,2.57-.5,5.35,5.35,0,0,0,1.89-1.37,6.09,6.09,0,0,0,1.17-2.07,8.52,8.52,0,0,0,0-5.16,6,6,0,0,0-1.17-2.06,5.26,5.26,0,0,0-1.89-1.38,6.3,6.3,0,0,0-2.57-.5Z"/><path class="cls-2" d="M572.33,457.38h10.53v1.14h-9.37v6.11h8v1.1h-8v5.83h9.37v1.14H572.33Z"/><path class="cls-2" d="M599,457.38h6a7.46,7.46,0,0,1,3.08.6,6.26,6.26,0,0,1,2.23,1.63,7,7,0,0,1,1.36,2.43,9.43,9.43,0,0,1,.46,3,9.6,9.6,0,0,1-.46,3,7,7,0,0,1-1.36,2.43,6.12,6.12,0,0,1-2.23,1.62,7.46,7.46,0,0,1-3.08.59h-6Zm1.16,1.14v13h4.77a6.11,6.11,0,0,0,2.57-.5,5.35,5.35,0,0,0,1.89-1.37,6.09,6.09,0,0,0,1.17-2.07,8.52,8.52,0,0,0,0-5.16,6,6,0,0,0-1.17-2.06,5.26,5.26,0,0,0-1.89-1.38,6.27,6.27,0,0,0-2.57-.5Z"/><path class="cls-2" d="M625.19,457.38a5.89,5.89,0,0,1,2.21.39,4.71,4.71,0,0,1,1.64,1.07,4.62,4.62,0,0,1,1,1.57,5.16,5.16,0,0,1,.12,3.45,4.93,4.93,0,0,1-.68,1.38,4.34,4.34,0,0,1-1.09,1.09,5,5,0,0,1-1.49.71l4,5.66h-1.42l-3.87-5.44-.23,0h-5.84v5.42h-1.16V457.38Zm-5.6,1.1v7.7h5.56a4.62,4.62,0,0,0,1.77-.31,4.07,4.07,0,0,0,1.3-.85,3.33,3.33,0,0,0,.79-1.23,4.08,4.08,0,0,0,0-2.92,3.33,3.33,0,0,0-.79-1.23,4.07,4.07,0,0,0-1.3-.85,4.62,4.62,0,0,0-1.77-.31Z"/><path class="cls-2" d="M635.88,465a7.62,7.62,0,0,1,.63-3.09,7.88,7.88,0,0,1,1.7-2.53,8,8,0,0,1,2.55-1.71,8.11,8.11,0,0,1,6.22,0,8.19,8.19,0,0,1,2.53,1.71,8.07,8.07,0,0,1,1.71,2.53,7.92,7.92,0,0,1,0,6.19,8.07,8.07,0,0,1-1.71,2.53,8.34,8.34,0,0,1-2.53,1.7,8,8,0,0,1-6.22,0,8.19,8.19,0,0,1-2.55-1.7,7.88,7.88,0,0,1-1.7-2.53A7.67,7.67,0,0,1,635.88,465Zm1.18,0a6.54,6.54,0,0,0,.54,2.65,6.75,6.75,0,0,0,1.46,2.16,6.87,6.87,0,0,0,2.16,1.46,6.74,6.74,0,0,0,2.65.53,6.64,6.64,0,0,0,2.63-.53,6.93,6.93,0,0,0,3.63-3.62,6.72,6.72,0,0,0,0-5.28,6.78,6.78,0,0,0-1.47-2.16,7,7,0,0,0-2.16-1.47,6.48,6.48,0,0,0-2.63-.54,6.58,6.58,0,0,0-2.65.54,7.07,7.07,0,0,0-2.16,1.47,6.75,6.75,0,0,0-1.46,2.16A6.48,6.48,0,0,0,637.06,465Z"/><path class="cls-2" d="M665.17,464.82h6.69v7.88h-1v-2.63a5.89,5.89,0,0,1-1.11,1.23,6.73,6.73,0,0,1-1.38.91,7.73,7.73,0,0,1-1.59.58A7.29,7.29,0,0,1,665,473a7.75,7.75,0,0,1-3.11-.63,8.19,8.19,0,0,1-2.55-1.7,8.07,8.07,0,0,1-1.71-2.53,7.92,7.92,0,0,1,0-6.19,8,8,0,0,1,4.26-4.24,7.75,7.75,0,0,1,3.11-.62,7.61,7.61,0,0,1,3.63.88,8,8,0,0,1,2.77,2.36l-1,.66a7,7,0,0,0-2.36-2,6.47,6.47,0,0,0-3.08-.75,6.54,6.54,0,0,0-2.65.54,7,7,0,0,0-2.16,1.47,6.78,6.78,0,0,0-1.47,2.16,6.72,6.72,0,0,0,0,5.28,6.93,6.93,0,0,0,3.63,3.62,6.71,6.71,0,0,0,2.65.53,6.46,6.46,0,0,0,3.36-.9,6.78,6.78,0,0,0,2.41-2.38v-2.71h-5.59Z"/><path class="cls-2" d="M684.77,457.38l7,15.32h-1.28L689,469.24h-9.62l-1.55,3.46h-1.3l7-15.32Zm-4.93,10.76h8.6l-4.3-9.5Z"/><path class="cls-2" d="M697.32,468.87V469a2.25,2.25,0,0,0,.33,1.19,3,3,0,0,0,1,.93,5.36,5.36,0,0,0,1.51.62,8.14,8.14,0,0,0,2,.23,5.56,5.56,0,0,0,3.27-.81,2.44,2.44,0,0,0,1.11-2,2.09,2.09,0,0,0-.38-1.28,3.43,3.43,0,0,0-1-.92,8.15,8.15,0,0,0-1.51-.7l-1.83-.6c-.63-.2-1.26-.41-1.91-.64a8.61,8.61,0,0,1-1.75-.85,4.51,4.51,0,0,1-1.3-1.23,3,3,0,0,1-.5-1.76,3.57,3.57,0,0,1,.38-1.64,3.74,3.74,0,0,1,1.09-1.26,5.09,5.09,0,0,1,1.72-.82,8.35,8.35,0,0,1,2.25-.28,8.52,8.52,0,0,1,2.32.29,6.1,6.1,0,0,1,1.82.82,4.1,4.1,0,0,1,1.17,1.26,3.06,3.06,0,0,1,.43,1.59v.18h-1.14v-.1a2.33,2.33,0,0,0-.32-1.19,2.78,2.78,0,0,0-.91-.93,5,5,0,0,0-1.45-.62,7.56,7.56,0,0,0-1.92-.22,5.18,5.18,0,0,0-3.14.8,2.46,2.46,0,0,0-1.08,2,2.13,2.13,0,0,0,.36,1.26,3.34,3.34,0,0,0,1,.9,6.81,6.81,0,0,0,1.46.69c.55.2,1.14.4,1.76.59s1.26.39,1.93.62a9.07,9.07,0,0,1,1.83.86,5,5,0,0,1,1.36,1.26,3,3,0,0,1,.54,1.82,3.35,3.35,0,0,1-.4,1.64,3.79,3.79,0,0,1-1.14,1.26,5.77,5.77,0,0,1-1.77.8,8.69,8.69,0,0,1-2.31.29,9,9,0,0,1-2.4-.3,6.22,6.22,0,0,1-1.88-.82,4.33,4.33,0,0,1-1.23-1.26,3,3,0,0,1-.44-1.59v-.16Z"/><path d="M73,290.8h49a49.08,49.08,0,0,1,19.29,3.48,37.79,37.79,0,0,1,21.64,23,49.48,49.48,0,0,1,2.63,16.09A52,52,0,0,1,162.85,350a38.1,38.1,0,0,1-8,13.74,38.62,38.62,0,0,1-13.59,9.4,49.08,49.08,0,0,1-19.29,3.48h-20.5v25.2H73Zm28.47,25.9v34h18.93q9,0,12.67-4.91a19.84,19.84,0,0,0,3.71-12.31,23.41,23.41,0,0,0-.86-6.33,14.08,14.08,0,0,0-2.85-5.41,13.64,13.64,0,0,0-5.12-3.7,18.83,18.83,0,0,0-7.55-1.36Z"/><path d="M235,290.8a48.62,48.62,0,0,1,18.5,3.2A34.67,34.67,0,0,1,274,315.71a48.75,48.75,0,0,1,2.49,15.66,48,48,0,0,1-1.35,11.38,39.93,39.93,0,0,1-4.06,10.32,37.25,37.25,0,0,1-6.83,8.69,35.41,35.41,0,0,1-9.68,6.47l24.06,33.6h-34l-21.07-29.75H209v29.75H180.71v-111ZM209,316.7v29.61h24.34a19.28,19.28,0,0,0,7.26-1.21,13.17,13.17,0,0,0,4.84-3.2,12.22,12.22,0,0,0,2.7-4.7,18.28,18.28,0,0,0,.86-5.55A16.14,16.14,0,0,0,245.48,321q-3.55-4.26-12.1-4.27Z"/><path d="M294,290.8h85.27v27.61h-56.8v15.94h46.69v25.77H322.49v14.24h56.8v27.47H294Z"/><path d="M433.66,401.83l-44.84-111h31l27.9,74.59,28-74.59h31l-45,111Z"/><path d="M519.64,290.8h85.27v27.61h-56.8v15.94h46.7v25.77h-46.7v14.24h56.8v27.47H519.64Z"/><path d="M623,290.8h51.53a55.65,55.65,0,0,1,22.85,4.41,46.09,46.09,0,0,1,16.44,12A51.83,51.83,0,0,1,723.7,325a70.19,70.19,0,0,1,0,42.85,51.14,51.14,0,0,1-9.89,17.65,46.53,46.53,0,0,1-16.44,12,55.65,55.65,0,0,1-22.85,4.41H623Zm28.47,27.61v55.95h20.93a28.39,28.39,0,0,0,11.24-2.07,22.32,22.32,0,0,0,8.12-5.76,24.46,24.46,0,0,0,4.91-8.83,37.35,37.35,0,0,0,1.63-11.39q0-12.53-6.54-20.21t-19.36-7.69Z"/></svg>