<svg id="Capa_2" data-name="Capa 2" xmlns="http://www.w3.org/2000/svg" viewBox="0 0 443.54 114.79"><defs><style>.cls-1{fill:none;stroke:#1d1d1b;stroke-miterlimit:10;}.cls-2{fill:#1d1d1b;}</style></defs><line class="cls-1" x1="236.09" y1="35.21" x2="236.09" y2="78.46"/><path class="cls-2" d="M47.64,103.48H45.51v.26h.05c.19,0,.3,0,.33.11a.87.87,0,0,1,.06.44v2.48a1,1,0,0,1-.06.46.65.65,0,0,1-.33.09h-.05v.25H47.7a1.82,1.82,0,0,0,1.4-.57,2.23,2.23,0,0,0,.53-1.56,1.79,1.79,0,0,0-2-2Zm.75,3.36a1.15,1.15,0,0,1-1,.46.84.84,0,0,1-.49-.09.58.58,0,0,1-.11-.43v-3h.31a1.7,1.7,0,0,1,1.26.4,1.84,1.84,0,0,1,.36,1.29A2.4,2.4,0,0,1,48.39,106.84Z"/><path class="cls-2" d="M52.7,106.87c0,.23,0,.36-.08.38a1,1,0,0,1-.45,0h-.35a1.84,1.84,0,0,1-.44,0c-.07,0-.11-.18-.11-.49v-1.22h.59a1.19,1.19,0,0,1,.35,0s.07.1.08.24v.06h.29V105h-.29v.06c0,.16,0,.25,0,.26h-1v-1.56h.88a.74.74,0,0,1,.33,0s.07.1.07.2a1.49,1.49,0,0,0,0,.17v0H53v-.74H50v.26h.06c.19,0,.29,0,.33.11a.87.87,0,0,1,.06.44v2.48a1,1,0,0,1-.06.46.65.65,0,0,1-.33.09H50v.25h3.13v-.77H52.7Z"/><path class="cls-2" d="M13.9,106.5q0,.45-.09.51a1.7,1.7,0,0,1-.62,0h-.46a3.52,3.52,0,0,1-.58,0c-.1,0-.15-.24-.15-.65v-1.63h.79a1.65,1.65,0,0,1,.47,0c.06,0,.1.14.1.33v.06h.39V104h-.39v.06c0,.23,0,.34-.07.35a2.07,2.07,0,0,1-.5,0H12v-2.07H13.2a.9.9,0,0,1,.44.06c.06,0,.1.12.1.27s0,.09,0,.21V103h.54v-1h-4v.34h.07c.24,0,.4.06.45.13a1.48,1.48,0,0,1,.07.59v3.32a1.56,1.56,0,0,1-.07.59.72.72,0,0,1-.45.13H10.3v.34h4.16v-1h-.55Z"/><path class="cls-2" d="M17.48,104.24l-.36-.21a2.37,2.37,0,0,1-.61-.45.71.71,0,0,1-.16-.47.88.88,0,0,1,.24-.63.82.82,0,0,1,.6-.25,1,1,0,0,1,.69.27,1.37,1.37,0,0,1,.15.64v.06h.54v-1.1a5.62,5.62,0,0,0-1.47-.23,2,2,0,0,0-1.31.43,1.37,1.37,0,0,0-.49,1.11c0,.59.45,1.14,1.37,1.64l.37.2a1.75,1.75,0,0,1,.6.46.86.86,0,0,1,.16.55.92.92,0,0,1-.27.69.94.94,0,0,1-.7.27A1.23,1.23,0,0,1,16,107c-.11-.09-.17-.29-.19-.62v-.08H15.3v1.14a6.93,6.93,0,0,0,1.53.19,2.33,2.33,0,0,0,1.5-.44,1.54,1.54,0,0,0,.26-2.08A4.09,4.09,0,0,0,17.48,104.24Z"/><path class="cls-2" d="M19.59,103.14h.54V103a1,1,0,0,1,.1-.58.72.72,0,0,1,.44-.09h.89v4a1.09,1.09,0,0,1-.09.59c-.05.07-.23.1-.53.13h-.07v.34h2.5v-.34h-.06a1.42,1.42,0,0,1-.53-.1,1.78,1.78,0,0,1-.09-.62v-4h.89a.75.75,0,0,1,.45.09,1.06,1.06,0,0,1,.09.58v.1h.55V102H19.59Z"/><path class="cls-2" d="M30.38,107a4.16,4.16,0,0,1-.34-.62L28,102h-.37l-2,4.41a3.38,3.38,0,0,1-.33.64.68.68,0,0,1-.37.1h-.07v.34h1.46v-.34h-.07l-.14,0c-.15,0-.23,0-.23-.12a2,2,0,0,1,.2-.59l.27-.58H28.6l.28.57a1.74,1.74,0,0,1,.2.6c0,.07-.16.11-.47.14h-.07v.34h2.27v-.34h0A.73.73,0,0,1,30.38,107Zm-3.9-1.57,1-2.12,1,2.12Z"/><path class="cls-2" d="M33.82,102h-.29l-.78,0H31v.34h.07c.25,0,.39.06.44.13a1.25,1.25,0,0,1,.08.59v3.32a1.31,1.31,0,0,1-.08.59c0,.07-.19.11-.44.13H31v.34H33.9a2.38,2.38,0,0,0,1.86-.77,2.93,2.93,0,0,0,.7-2.07,2.61,2.61,0,0,0-.68-1.94A2.68,2.68,0,0,0,33.82,102Zm1,4.46a1.52,1.52,0,0,1-1.32.61,1.14,1.14,0,0,1-.66-.11.79.79,0,0,1-.14-.56v-4h.41a2.27,2.27,0,0,1,1.67.51,2.49,2.49,0,0,1,.48,1.73A3.16,3.16,0,0,1,34.82,106.45Z"/><path class="cls-2" d="M39.85,101.87a2.68,2.68,0,0,0-2,.76,2.89,2.89,0,0,0-.74,2.11,2.85,2.85,0,0,0,.74,2.08,3.06,3.06,0,0,0,4,0,2.89,2.89,0,0,0,.74-2.08,2.93,2.93,0,0,0-.74-2.11A2.68,2.68,0,0,0,39.85,101.87ZM41,106.6a1.41,1.41,0,0,1-2.34,0,3.74,3.74,0,0,1-.39-1.88,3.7,3.7,0,0,1,.39-1.87,1.41,1.41,0,0,1,2.34,0,3.59,3.59,0,0,1,.39,1.87A3.64,3.64,0,0,1,41,106.6Z"/><path class="cls-2" d="M58.07,104.24,57.7,104a2.57,2.57,0,0,1-.61-.45.71.71,0,0,1-.16-.47.88.88,0,0,1,.24-.63.86.86,0,0,1,.6-.25.93.93,0,0,1,.68.27,1.14,1.14,0,0,1,.16.64v.06h.55v-1.1a5.69,5.69,0,0,0-1.47-.23,1.93,1.93,0,0,0-1.31.43,1.35,1.35,0,0,0-.5,1.11c0,.59.46,1.14,1.37,1.64l.37.2a1.81,1.81,0,0,1,.61.46.92.92,0,0,1,.15.55.88.88,0,0,1-.27.69.94.94,0,0,1-.7.27,1.23,1.23,0,0,1-.8-.27.93.93,0,0,1-.19-.62v-.08h-.54v1.14a7,7,0,0,0,1.53.19,2.35,2.35,0,0,0,1.5-.44,1.44,1.44,0,0,0,.56-1.19,1.39,1.39,0,0,0-.3-.89A4,4,0,0,0,58.07,104.24Z"/><path class="cls-2" d="M62.75,101.87a2.66,2.66,0,0,0-2,.76,2.89,2.89,0,0,0-.74,2.11,2.85,2.85,0,0,0,.74,2.08,3.06,3.06,0,0,0,4,0,2.89,2.89,0,0,0,.74-2.08,2.93,2.93,0,0,0-.74-2.11A2.68,2.68,0,0,0,62.75,101.87Zm1.17,4.73a1.3,1.3,0,0,1-1.17.62,1.28,1.28,0,0,1-1.16-.62,3.53,3.53,0,0,1-.4-1.88,3.49,3.49,0,0,1,.4-1.87,1.3,1.3,0,0,1,1.16-.62,1.32,1.32,0,0,1,1.17.62,3.59,3.59,0,0,1,.39,1.87A3.64,3.64,0,0,1,63.92,106.6Z"/><path class="cls-2" d="M69.73,102.35h.08c.25,0,.4.06.45.13a1.57,1.57,0,0,1,.06.59v3l-3-4.1H66v.34H66c.25,0,.4.06.45.13a1.48,1.48,0,0,1,.07.59v3.32a1.31,1.31,0,0,1-.08.59c0,.07-.19.11-.44.13H66v.34h1.71v-.34h-.06c-.25,0-.4-.06-.45-.13a1.37,1.37,0,0,1-.07-.59v-3l3,4.12h.75v-4.46c0-.33,0-.53.08-.59s.2-.11.45-.13h.06V102H69.73Z"/><path class="cls-2" d="M74.79,101.87a2.65,2.65,0,0,0-2,.76,2.89,2.89,0,0,0-.74,2.11,2.85,2.85,0,0,0,.74,2.08,3.06,3.06,0,0,0,4,0,2.89,2.89,0,0,0,.74-2.08,2.93,2.93,0,0,0-.74-2.11A2.66,2.66,0,0,0,74.79,101.87ZM76,106.6a1.41,1.41,0,0,1-2.34,0,3.64,3.64,0,0,1-.39-1.88,3.59,3.59,0,0,1,.39-1.87,1.41,1.41,0,0,1,2.34,0,3.5,3.5,0,0,1,.39,1.87A3.54,3.54,0,0,1,76,106.6Z"/><path class="cls-2" d="M88.82,107a5.52,5.52,0,0,1-.34-.62l-2-4.43h-.38l-2,4.41a2.83,2.83,0,0,1-.33.64.64.64,0,0,1-.36.1H83.2a1,1,0,0,1-.41-.1,5.75,5.75,0,0,1-.5-.62l-1.05-1.48a1.55,1.55,0,0,0,1-1.56c0-.9-.56-1.37-1.68-1.37h-.34l-.67,0H78v.34h.07c.25,0,.39.06.45.13a1.31,1.31,0,0,1,.07.59v3.32a1.37,1.37,0,0,1-.07.59c-.06.07-.2.11-.45.13H78v.34h2.18v-.34h-.07c-.2,0-.33-.06-.37-.13a1.64,1.64,0,0,1-.06-.59v-1.33h.46l1.51,2.39h3.08v-.34h-.08l-.13,0c-.16,0-.24,0-.24-.12a2,2,0,0,1,.2-.59l.27-.58h2.3l.27.57a1.74,1.74,0,0,1,.2.6c0,.07-.16.11-.47.14H87v.34h2.26v-.34h0A.74.74,0,0,1,88.82,107Zm-8-2.65a1.21,1.21,0,0,1-.91.35h-.2v-2.34h.41a.93.93,0,0,1,1,1.06A1.25,1.25,0,0,1,80.79,104.36Zm4.13,1.08,1-2.12,1,2.12Z"/><path class="cls-2" d="M63.21,85l0,0c-.51.24.13.64.38.37S63.43,84.79,63.21,85Z"/><path class="cls-2" d="M55.34,79.7l.33.13a1.39,1.39,0,0,1,.27.21l.19.18a1,1,0,0,0,.55.25l.22,0a3,3,0,0,1,.55.24,2.48,2.48,0,0,0,.68.28.42.42,0,0,0,.39.23h0a.44.44,0,0,0,.35-.24H59A.59.59,0,0,0,59.4,81l0,0a.29.29,0,0,0,.15-.37l0,0a.28.28,0,0,0,0-.09.27.27,0,0,0-.16-.22c-.06-.08,0-.21.1-.51l.08-.14a1.54,1.54,0,0,0,.15-.32,1.29,1.29,0,0,0,0-.38,1,1,0,0,1,0-.18,4,4,0,0,1,.15-.54,3.19,3.19,0,0,0,.16-.55c0-.11.06-.22.1-.33a1.82,1.82,0,0,0,.12-.94,4.9,4.9,0,0,0-.47-1.14,2,2,0,0,0-.31-.37.75.75,0,0,1-.27-.42,2.93,2.93,0,0,1,0-.53c0-.45,0-.91-.29-1.12a1,1,0,0,0-.89.07l-.33.19a1.8,1.8,0,0,1-.46.23l-.22,0a1.3,1.3,0,0,0-.72.35,3.09,3.09,0,0,0-.63,1.72l0,.25c0,.1,0,.2-.07.31a2.26,2.26,0,0,0-.1.86,1,1,0,0,0,.15.39.68.68,0,0,1,.11.33c0,.37-.63.89-1.19,1.17a.28.28,0,0,0-.15.32C54.52,79.41,55,79.57,55.34,79.7Zm.95-2.16a1.07,1.07,0,0,0-.17-.64,1.43,1.43,0,0,1-.09-.2,1.78,1.78,0,0,1,.09-.66c0-.12.06-.24.08-.35l0-.26A2.67,2.67,0,0,1,56.71,74a.71.71,0,0,1,.43-.19l.28-.07a2.84,2.84,0,0,0,.58-.28l.29-.17a.72.72,0,0,1,.33-.1h0c.07.07.05.43.05.62a2.86,2.86,0,0,0,0,.66,1.24,1.24,0,0,0,.42.71,1.43,1.43,0,0,1,.23.27,4,4,0,0,1,.4,1,1.42,1.42,0,0,1-.1.66,3.64,3.64,0,0,0-.11.39,3.4,3.4,0,0,1-.15.49,5.43,5.43,0,0,0-.17.61,1.46,1.46,0,0,0,0,.29.59.59,0,0,1,0,.23,1.19,1.19,0,0,1-.1.18c0,.07-.07.14-.1.2a1.1,1.1,0,0,0-.08,1,.57.57,0,0,0-.18,0,.4.4,0,0,0-.2.12.35.35,0,0,0-.19-.1,2.44,2.44,0,0,1-.62-.25A2.41,2.41,0,0,0,57,80a1.23,1.23,0,0,0-.25-.06.54.54,0,0,1-.32-.16l-.15-.13a1.8,1.8,0,0,0-.38-.3,3.19,3.19,0,0,0-.41-.16,3.63,3.63,0,0,1-.44-.19C55.6,78.67,56.24,78.13,56.29,77.54Z"/><path class="cls-2" d="M55.15,82a.23.23,0,0,0-.07-.23.81.81,0,0,0-.53-.23.54.54,0,0,0-.36.14.2.2,0,0,0-.07.09c-.2.58-.12,1,.23,1.13a.75.75,0,0,0,.24,0c.45,0,.5-.49.53-.76A.66.66,0,0,1,55.15,82Zm-.48.14a.92.92,0,0,1-.07.36.13.13,0,0,1-.09,0c-.08,0-.07-.24,0-.48a.24.24,0,0,1,.18,0S54.68,82.07,54.67,82.11Z"/><path class="cls-2" d="M98.3,0H.33A.33.33,0,0,0,0,.33V101.89c0,9.21,8.33,9.47,9.28,9.47h35c2.7,0,4.42,2.79,4.44,2.83l.3.45a.33.33,0,0,0,.28.15.33.33,0,0,0,.27-.15l.3-.46s1.74-2.82,4.44-2.82h35a10.82,10.82,0,0,0,5.08-1.31c1.92-1.08,4.2-3.38,4.2-8.16V.33A.33.33,0,0,0,98.3,0ZM98,101.89c0,3.58-1.3,6.13-3.86,7.58a10.13,10.13,0,0,1-4.75,1.23h-35c-3.08,0-4.93,3-5,3.13v0h0c-.08-.12-1.93-3.14-5-3.14h-35c-1.44,0-8.61-.43-8.61-8.81V.67H98Z"/><path class="cls-2" d="M9,90.94c0,7.54,6.85,7.75,7.63,7.75H45.23c2.16,0,3.55,2.24,3.55,2.24l.24.45a.34.34,0,0,0,.3.18.33.33,0,0,0,.29-.18l.23-.43s1.39-2.26,3.56-2.26H82a8.87,8.87,0,0,0,4.17-1.07c1.58-.89,3.46-2.77,3.46-6.68V9.33A.33.33,0,0,0,89.26,9H9.38A.34.34,0,0,0,9,9.33V57l0,0,0,0ZM82,98H53.4a5,5,0,0,0-3.75,2V57.56h1.62a.22.22,0,0,1,0,.08,1.38,1.38,0,0,0,.13.79,1.4,1.4,0,0,0,.2.3.54.54,0,0,1,.12.44,1.71,1.71,0,0,1-.13.49,1.94,1.94,0,0,0-.14.59c0,.66.28.76.66.83l.21.05c.71.17,1.06,1.1,1.4,2a6.05,6.05,0,0,0,.66,1.42l.55.76c.25.36.52.73.79,1.08a6.94,6.94,0,0,0,.49.57A3.23,3.23,0,0,1,57,68.22a2.06,2.06,0,0,1-.19,1.06,1.72,1.72,0,0,0-.12,1.39,1.39,1.39,0,0,0,1.6.61,1.24,1.24,0,0,1,.65,0,2,2,0,0,1,.71,1.13,4.47,4.47,0,0,0,.25.64,4.93,4.93,0,0,1,.27.73,4.26,4.26,0,0,0,.15.47,1,1,0,0,0,.09.21.53.53,0,0,1,.07.28.4.4,0,0,1-.08.18,1,1,0,0,0-.13.33,2,2,0,0,0,.12.72c0,.13.07.26.1.4a2.13,2.13,0,0,1,0,.27,1.52,1.52,0,0,0,.34,1,.73.73,0,0,0,.37.15,1.94,1.94,0,0,1,.22.07,2.18,2.18,0,0,1,.17.21,1,1,0,0,0,.1.15c.06.07.14.17.24.27l.2.23A36.37,36.37,0,0,0,59,81.85a12.14,12.14,0,0,0-1.11,1.48c-.27.38-.52.75-.76,1a17.71,17.71,0,0,0-1.56,2.12c-.42.71-1,1.67,0,2.51a2.13,2.13,0,0,0,1.31.29h.69a11.35,11.35,0,0,0,1.5-.23l.19,0A9.46,9.46,0,0,0,62,88h0a2.63,2.63,0,0,1,.49-.08,3.94,3.94,0,0,0,.66-.11l.34-.12h0c.32-.11.69-.23.87-.31.42-.16.72-.27,1.06-.38l.88-.32c.38-.14.77-.31,1.2-.51a.52.52,0,0,1,.12.16.89.89,0,0,0,.74.48H69s0,0,0,.05a.63.63,0,0,0,.21.36,2,2,0,0,0,.92.36l.38.09a2.33,2.33,0,0,1,.58.34l.36.25.11,0a1.38,1.38,0,0,0,.52,1.22l.23.24a1.36,1.36,0,0,1,.25.39l.08.18a.28.28,0,0,1,0,.11.83.83,0,0,0,.19.39.45.45,0,0,0,.42.11h0a.42.42,0,0,1,0,.21.89.89,0,0,0,0,.5,1.28,1.28,0,0,0,.36.42,1.64,1.64,0,0,1,.23.23.88.88,0,0,1,.1.36,1.26,1.26,0,0,0,.1.38.77.77,0,0,0,.31.33s.06,0,.06,0a.6.6,0,0,1,0,.08.26.26,0,0,0,.09.26.27.27,0,0,0,.26.06c.31-.08.36,0,.53.36a1.53,1.53,0,0,0,.46.65,1.83,1.83,0,0,0,.57.25,2.21,2.21,0,0,1,.4.16l.18.13a1.21,1.21,0,0,0,.55.31.62.62,0,0,0,.46-.12s.07,0,.1,0a1.73,1.73,0,0,1,.41,0,4.36,4.36,0,0,0,.52,0,2.1,2.1,0,0,1,.06.24,1.41,1.41,0,0,0,.64,1,1.23,1.23,0,0,0,1.29.11.79.79,0,0,0,.31-.88.3.3,0,0,0-.13-.18l0,0s0,0,0,0l.11-.14,0,.06a.94.94,0,0,0,.78.49l.19,0a4.37,4.37,0,0,1,.46.16,2.35,2.35,0,0,0,1.25.28.6.6,0,0,0,.25.22,1.12,1.12,0,0,0,.43,0,.43.43,0,0,1,.2,0,.73.73,0,0,1,.43.34l0,.07A8.44,8.44,0,0,1,82,98ZM69.35,75.59c.32.25,3.3-1.92,3.39-1.15-.52,0-1.53.8-2.23,1.15-.42.2-1.86,1-1.66,0a7.26,7.26,0,0,1,1-2.16,7.18,7.18,0,0,1,1.61-1.89,17,17,0,0,0-1.42,2C70,73.72,69.09,75.38,69.35,75.59Zm11.34-8.12a2.64,2.64,0,0,0,1.66,1.66c.3-.31-.1-1.38.46-1.23v0c-.06.31,0,.71,0,1a2.1,2.1,0,0,0-.09.8c-.72-.58-1.63-.82-2.18-2a3.72,3.72,0,0,1,.1-3.3A5.4,5.4,0,0,0,80.69,67.47Zm2.37,4.34c0,1.69-1.24,3-1.62,3.55a12.24,12.24,0,0,1-3.52,3.19,2.7,2.7,0,0,1-.61-.23,1.59,1.59,0,0,1,.71-1c.59-.47.94-.93,1.52-1.41a9.22,9.22,0,0,0,2.33-2.55s-3.56,3.63-6.46,5a27.15,27.15,0,0,0-4.8,3c.26,0,.92.12,1.18.1.74-.07.87-.08,1.6-.18a4.23,4.23,0,0,0,1.23-.32,73.82,73.82,0,0,1-6.25,3.94,9.42,9.42,0,0,1-1.06.53c-.65.26-1.14.37-2.07.75-.49.2-1.81,1-2.14.57-.46-.59-.47-.15-1.14.37a7,7,0,0,1-3.46,1.3c-.45.07-2.6.54-2.48-.3l0,0a15.88,15.88,0,0,1,2.73-1.83c1.05-.56,2.18-1.27,3.4-1.85,1-.49,2-1,3-1.46,1.64-.81,3.22-1.64,4.77-2.52,2.75-1.55,4.94-2.38,6.75-3.55a33.76,33.76,0,0,0,3.7-2.67C81,73.63,82.92,71.83,83.06,71.81Zm-4,7.91a8.11,8.11,0,0,1-3.23.88c-.86,0-3.21.33-3.21.33a5.89,5.89,0,0,1,3-.64C76.86,80.34,79.53,79.35,79.05,79.72ZM69.71,78.1l1.74-.91c.34-.18.83-.56,1.23-.46a1.63,1.63,0,0,1-.54.47,50.15,50.15,0,0,1-4.86,3.06c-1,.52-2,1-3,1.54a14.66,14.66,0,0,0-3.06,2c0-.18.09-.37.23-.54a10.42,10.42,0,0,1,2.36-2.07c.94-.63,2-1.17,2.9-1.71S68.73,78.6,69.71,78.1ZM88.92,90.94c0,2.82-1,4.85-3,6l-.1-.14a1.33,1.33,0,0,0-.72-.54,1.29,1.29,0,0,0-.38,0h-.19a.22.22,0,0,1-.06-.07.75.75,0,0,0-.25-.25.3.3,0,0,0-.26,0,.22.22,0,0,0-.1.09,4.6,4.6,0,0,1-.85-.27,5.27,5.27,0,0,0-.55-.19l-.21,0c-.24,0-.28,0-.39-.22,0,0,0-.1,0-.15a.61.61,0,0,0-.25-.56.57.57,0,0,0-.53,0,.28.28,0,0,0-.13.36c0,.1,0,.13-.12.31a1,1,0,0,0-.29.7.28.28,0,0,0,.13.23.32.32,0,0,0,.16,0l0,0a.7.7,0,0,1-.66-.09.86.86,0,0,1-.42-.68,3.89,3.89,0,0,0-.17-.58.25.25,0,0,0-.15-.15.28.28,0,0,0-.22,0,1.89,1.89,0,0,1-.62.09,3.91,3.91,0,0,0-.48,0,.65.65,0,0,0-.3.13c-.06,0-.06,0-.08,0a1,1,0,0,1-.28-.19,1.44,1.44,0,0,0-.25-.18,2.78,2.78,0,0,0-.5-.21,1.4,1.4,0,0,1-.42-.17,1.29,1.29,0,0,1-.29-.43c-.13-.29-.33-.71-.85-.71a.6.6,0,0,0-.28-.32c-.07,0-.09-.06-.11-.1s0-.13,0-.21a1.19,1.19,0,0,0-.19-.59,1.62,1.62,0,0,0-.31-.34,1.64,1.64,0,0,1-.23-.23.59.59,0,0,1,0-.24.85.85,0,0,0-.17-.66.48.48,0,0,0-.46-.14.36.36,0,0,1,0-.1,1.11,1.11,0,0,0-.08-.21l-.08-.17a1.85,1.85,0,0,0-.34-.53l-.25-.26c-.25-.25-.35-.34-.35-.7a.85.85,0,0,0,.17-.1l.07,0a.31.31,0,0,0,.14-.18.26.26,0,0,0,0-.23.77.77,0,0,0-.76-.33.27.27,0,0,0-.18.1l-.1-.08a2.5,2.5,0,0,0-.71-.41c-.14,0-.3-.08-.46-.12a1.7,1.7,0,0,1-.67-.22s0,0,0-.09a.57.57,0,0,0-.38-.44c-.06,0-.09,0-.31,0s-.28,0-.32,0c-.26,0-.29-.09-.36-.22a.83.83,0,0,0-.08-.12l1-.54.4-.21a31.66,31.66,0,0,0,5.06-3.12l1.2-.87h.32a9.28,9.28,0,0,0,2.48-.66c.82-.31,2.14-1.12,2.18-2a.19.19,0,0,0-.06-.16.2.2,0,0,0-.16-.07h-.06c-.3,0-.58,0-.86,0,.21-.17.42-.31.69-.51l0,0a5.27,5.27,0,0,0,.9-.86l.5-.62a7,7,0,0,0,.82-1.15,8.52,8.52,0,0,0,1.2-4.47,2.38,2.38,0,0,1,0-.38v-.51c0-.25,0-.5,0-.74a3.85,3.85,0,0,0-.83-2.8,6.83,6.83,0,0,1-1.39-1.79l-.08-.22a1.65,1.65,0,0,0-.52-.84.74.74,0,0,0-.39-.12c-.57,0-.76.69-.85,1a7.82,7.82,0,0,0,0,3.37,3.69,3.69,0,0,0,1.83,2.18h0c-.12.06-.23.14-.33.2l-.13.09a4,4,0,0,0-1.26,1.36c-.15.21-.28.4-.42.57a2.62,2.62,0,0,1-1.27.94,6.36,6.36,0,0,1-1.9.3H73.29a.45.45,0,0,1-.13-.4,4.67,4.67,0,0,0-.06-1.07,4.21,4.21,0,0,1,0-1,.75.75,0,0,0-.14-.61.57.57,0,0,0-.43-.18c-.13,0-.52,0-1.51.85a12.13,12.13,0,0,0-2.52,3.54l-.32.6h0A13.51,13.51,0,0,0,66,76.16l-.7.39a19.11,19.11,0,0,0-2.33,1.59l-.3.24-.23-.25c-.08-.09-.16-.17-.21-.24a.44.44,0,0,1-.08-.11,1.34,1.34,0,0,0-.29-.34,1.39,1.39,0,0,0-.44-.17l-.13,0a1.37,1.37,0,0,1-.14-.63,3.61,3.61,0,0,0-.15-.78,1.71,1.71,0,0,1-.09-.5.48.48,0,0,1,0-.11.88.88,0,0,0,.16-.42,1,1,0,0,0-.13-.55s0-.1-.07-.16-.1-.3-.14-.44a4.9,4.9,0,0,0-.3-.83,4.23,4.23,0,0,1-.23-.57,2.38,2.38,0,0,0-1-1.43,1.62,1.62,0,0,0-1-.1c-.53.06-.84.08-1-.32-.11-.19,0-.57.15-.94a2.35,2.35,0,0,0,.2-1.4,3.71,3.71,0,0,0-1-1.48,5.82,5.82,0,0,1-.46-.53c-.26-.34-.52-.71-.78-1.07l-.55-.77a5,5,0,0,1-.59-1.27c-.37-1-.79-2.11-1.78-2.36l-.25,0-.17,0s0,0,0-.24a1.87,1.87,0,0,1,.11-.42,2.5,2.5,0,0,0,.16-.64,1,1,0,0,0-.24-.8,1.18,1.18,0,0,1-.14-.22.84.84,0,0,1-.07-.5.49.49,0,0,1,0-.12H88.92Zm0-81.28V56.34L50,9.66Zm-.41,47.23H10l39.32-47ZM26.91,20.12l.22.26a.19.19,0,0,1,0,.27l-5.87,5.21a.28.28,0,0,0-.11.08l-.07.07-.05,0L14.36,32a.18.18,0,0,1-.12.05.16.16,0,0,1-.13-.06h0l-.22-.25a.19.19,0,0,1,0-.27l.47-.41,6.13-5.45,6.15-5.46a.21.21,0,0,1,.13-.05A.2.2,0,0,1,26.91,20.12Zm-.05-.27a4.08,4.08,0,0,1,1.08-.4,3.8,3.8,0,0,1-.54,1.05.41.41,0,0,0-.1-.27L27.07,20A.36.36,0,0,0,26.86,19.85Zm-5.29,6.23,6.11,5.54a.19.19,0,0,1,0,.27l-.14.15-.08.1a.31.31,0,0,1-.13.06h0a.19.19,0,0,1-.13-.05l-3.62-3.29-2.49-2.25a.19.19,0,0,1,0-.27l.11-.12,0,0,.08-.08a.13.13,0,0,1,.07-.05h.07A.15.15,0,0,1,21.57,26.08Zm-1.19-.77-.08.09-.15.16a.2.2,0,0,1-.14.06.22.22,0,0,1-.13,0l-2.19-2-.84-.76-.49-.44-1.8-1.64a.19.19,0,0,1,0-.27l.23-.25a.2.2,0,0,1,.14-.06.17.17,0,0,1,.13.05l1.77,1.61.5.45.64.59,1.75,1.58.67.61A.19.19,0,0,1,20.38,25.31ZM16.71,23l.88.81,2.14,1.94a.39.39,0,0,0,.14.08l-5.41,4.81-.72.64a.42.42,0,0,0-.14.28.41.41,0,0,0,.1.3l.23.25a.31.31,0,0,0,.11.09.46.46,0,0,0,.2.05.38.38,0,0,0,.27-.1l6.3-5.6a.41.41,0,0,0,.13.23l2.14,1.94,4,3.61a.39.39,0,0,0,.28.1.43.43,0,0,0,.28-.11l0,0,.09-.09.14-.16a.41.41,0,0,0,0-.58l-6.11-5.55a.26.26,0,0,0-.11-.07L27,21c-.33.48-.21.72.39,1.39.36.41.64.61.87.61a.36.36,0,0,0,.23-.09c3-2.69,2-5.06,1.8-5.45a.19.19,0,0,0-.05-.09.23.23,0,0,0-.1-.07,3.48,3.48,0,0,0-1.86-.5,5.82,5.82,0,0,0-3.75,1.64.4.4,0,0,0-.12.21c0,.23.13.53.5.95s.65.68.93.68a.68.68,0,0,0,.31-.08l-5.53,4.91a.45.45,0,0,0-.14-.25l-.86-.79L18,22.63l-.58-.53a4,4,0,0,1,.59-.57c.25-.19.8-.65,1.1-.54a1.29,1.29,0,0,1,.55.71c.15.46.06,1.32.35,1.7.51.65.77-1.06.8-1.38.07-.67,0-1.33.05-2a8.78,8.78,0,0,1,.33-1.91,7.64,7.64,0,0,1,.48-1.65,4,4,0,0,1,1.19-1.38,5.45,5.45,0,0,0,1-1.49c.26-.43.9-.87,1.41-.53s-.32,1-.56,1.38a6,6,0,0,0-.83,1.64,19.8,19.8,0,0,1-.73,2.13c-.12.27-.3.55-.39.82a1.1,1.1,0,0,0,.2.91c.4.27.37-.5.4-.73a1.58,1.58,0,0,1,.35-.79c.17-.24.33-.37.36-.67s-.14-.57-.07-.89a2.42,2.42,0,0,1,.42-.71c.22-.33.28-1.54.85-1.49.13.6-.2,1.66.4,2,.33-.37.13-1.23.21-1.72.05-.3.22-.43.29-.71s-.11-.76.27-.67a1.82,1.82,0,0,0,.22.75c.07.1.18.06.26.16s.06.33.14.39c.27.2.39-.18.52.3a6,6,0,0,1,.12.85c0,.18,0,.62.24.68s.41-.52.53-.71a4.53,4.53,0,0,1,.5-.57c.19-.24.35-.37.51.06.1.26,0,.52.18.78s.41.36.6.57a2.89,2.89,0,0,1,.38.69,1.53,1.53,0,0,1,.29.71,4.67,4.67,0,0,1-.14,1.06c0,.31,0,.62,0,.93-.06.67-.63,1.09-.74,1.74a10.5,10.5,0,0,0,0,2.8,16.53,16.53,0,0,1,.06,2.11,5.44,5.44,0,0,0,.14,1.85c.09.22.26.31.44.49s.18.29.35.43c.06-.62.24-1,0-1.56a3.42,3.42,0,0,1-.18-1.83,17.2,17.2,0,0,0-.1-1.91A9.6,9.6,0,0,1,31,22.58c0-.42-.16-1.16,0-1.52.36-.65.81.41.81.77,0,1.06-.36,2.85.57,3.6a1.11,1.11,0,0,0,0-.82,10,10,0,0,1-.07-1.22,8,8,0,0,0-.07-1.77c-.07-.26-.28-1.64.18-.85a5.81,5.81,0,0,1,.32.88c.13.33.35.62.45,1a9.81,9.81,0,0,1,.3,2.86,4.47,4.47,0,0,1-.18,2.13l-2.22,2.61c-.45.52-.9,1-1.34,1.57-.13.16-.25.51-.45.5s-.29-.44-.29-.65a3.76,3.76,0,0,1,0-.58c.06-.62.16-1.25.22-1.85s-.56-1-.64-1.56c-.05-.33,0-.61-.11-.93a3,3,0,0,1-.18-.78c0-.61-.39-1-.35-1.67,0-.46.09-1.25-.41-1.49-.33-.15-.43,0-.45.38a1.35,1.35,0,0,0,.33.82,1.13,1.13,0,0,1,.24.85,1.6,1.6,0,0,0,.11.89A4.88,4.88,0,0,1,28,27.46a1,1,0,0,0,.18.78c.14.19.41.38.48.61.17.51-.14,1.19-.17,1.69s0,1.07,0,1.61c0,0-.12,0-.17-.09a.48.48,0,0,1-.51.28,1.91,1.91,0,0,1-1.23,1.3c-1.18.54-5.34,0-5.34,0s-.28-3.2-1.85-3.31-1.81,3.2-1.81,3.2c-.39.46-1.6.32-2.06,0s-1.47-.33-1.65-.49h-.18a1.51,1.51,0,0,1-1.22-.3c-.39-.39-.2-1.12-.08-1.59a10.9,10.9,0,0,1,1.39-3.19c.35-.55.68-1.07,1-1.61a15.65,15.65,0,0,0,.9-1.84A7.15,7.15,0,0,1,16.71,23Zm-7-13.33H48.6L35.91,24.84a8.21,8.21,0,0,1-.44-.9c-.06-.17-.11-.36-.16-.53A3.52,3.52,0,0,0,35,22.5c-.09-.15-.19-.29-.29-.43a4.32,4.32,0,0,1-.49-.79l-.08-.2a3.17,3.17,0,0,0-.88-1.36,3.52,3.52,0,0,0-.45-.3,2.71,2.71,0,0,1-.65-.49,2.33,2.33,0,0,1-.33-.91c0-.16-.07-.32-.11-.46l-.06-.17a6.24,6.24,0,0,0-1.45-2.82,2.92,2.92,0,0,0-.7-.41,4.36,4.36,0,0,1-.42-.23,3.64,3.64,0,0,1-.54-.43,3.67,3.67,0,0,0-.47-.4,5.54,5.54,0,0,0-2.75-1,2.19,2.19,0,0,0-.53.07,3.37,3.37,0,0,0-1.66,1.53c-.12.18-.23.34-.35.49a2.86,2.86,0,0,1-.5.48,3.38,3.38,0,0,0-.54.53,4.53,4.53,0,0,0-.62,1.27l-.15.38a6.47,6.47,0,0,1-1.74,2.61A21.07,21.07,0,0,0,17,21.65L15.19,20a.43.43,0,0,0-.28-.11l-.1,0a8.39,8.39,0,0,1,3.46-2.45.21.21,0,0,0,.17-.18l0-.16v-.05a.22.22,0,0,0-.22-.22h0a6.94,6.94,0,0,0-4.14,1.93.54.54,0,0,0-.47-.32.77.77,0,0,0-.55.31.68.68,0,0,0-.24.68.56.56,0,0,0,.35.33,6.86,6.86,0,0,0-1.54,4.31.2.2,0,0,0,.09.17.18.18,0,0,0,.13,0h.05l.17,0a.25.25,0,0,0,.17-.19,8.25,8.25,0,0,1,2-3.58.4.4,0,0,0,.13.37l1.82,1.66a44.61,44.61,0,0,0-3.4,5.53,16.67,16.67,0,0,0-1.39,3c-.34,1.09.06,1.83,1.24,2.32a5.19,5.19,0,0,0,1.35.32,3.76,3.76,0,0,1,1.19.38,4.25,4.25,0,0,0,1.83.42,7,7,0,0,0,1.66-.24l.34-.11a6.75,6.75,0,0,1,1.36-.34.29.29,0,0,1,.12,0,.87.87,0,0,1,.07.17.53.53,0,0,0,.38.39,2.37,2.37,0,0,0,.41,0h.75a17.64,17.64,0,0,0,1.94.12h.57a14,14,0,0,0,2.06-.29l.61-.12.45,0h.35l-18.41,22Zm0,47.9H49v42.51a5,5,0,0,0-3.75-2H16.67c-1.16,0-7-.34-7-7.08Z"/><path class="cls-2" d="M27.49,29.71c0-.1-.15-.17-.2-.26s-.05-.26-.17-.4-.48-.3-.69-.48a1.56,1.56,0,0,1-.45-.76c-.07-.23-.26-.47-.33-.71-.18-.59.16-1.23,0-1.84s-.74-.49-.92-.9c-.07-.15.09-.56-.13-.65s-.38.21-.46.31a3.86,3.86,0,0,0-.32.56c-.11.19-.31.29-.41.46a3.15,3.15,0,0,0-.31,1.24c.27,0,.66-.15.88,0s0,.59.26.81.46,0,.67.21a2.15,2.15,0,0,1,.43.82c.11.3.2.62.31.92s.21.4.54.54a1.11,1.11,0,0,1,.64.67c.14.3.32.27.53.51s.06.48.47.49h0l-.24-.75A6.47,6.47,0,0,0,27.49,29.71Z"/><path class="cls-2" d="M85.87,14h0a.65.65,0,0,1,0-.22.72.72,0,0,0,0-.17,1.7,1.7,0,0,0-.1-.32,1.07,1.07,0,0,1-.12-.41.1.1,0,0,0-.09-.11.43.43,0,0,0-.41.2c0,.06-.1.12-.16.12h0c-.06,0-.15-.26-.18-.37s-.07-.18-.1-.23c-.16-.27-.31-.39-.48-.39a.69.69,0,0,0-.46.29,2.4,2.4,0,0,1-.24.22,1.94,1.94,0,0,0-1.22-.72.48.48,0,0,0-.24.06,1.16,1.16,0,0,0-.41.47c-.19.32-.3.44-.57.25a1.19,1.19,0,0,1-.2-.19.74.74,0,0,0-.61-.3.67.67,0,0,0-.49.31l-.19.19a.37.37,0,0,1-.2.11.33.33,0,0,1-.12,0,1,1,0,0,0-.33-.11.52.52,0,0,0-.52.25.74.74,0,0,1-.25.21.4.4,0,0,1-.32,0L77.59,13l-.19,0a.5.5,0,0,1-.31-.1.29.29,0,0,1-.11-.14c0-.11-.12-.25-.5-.16A.91.91,0,0,0,76,13c-.13.18-.23.33-.43.33h0a.58.58,0,0,1-.35-.25.7.7,0,0,0-.6-.31.65.65,0,0,0-.41.28.53.53,0,0,1-.19.18c-.15.07-.31,0-.49-.11l-.15-.08-.21-.13a1.22,1.22,0,0,0-.59-.24h0a.59.59,0,0,0-.51.38,1.53,1.53,0,0,1-.14.21.52.52,0,0,1-.39.17,2.27,2.27,0,0,1-.35,0,2.11,2.11,0,0,0-.35-.05.59.59,0,0,0-.51.26,1.37,1.37,0,0,0-.17.53c-.05.27-.08.32-.16.32a.8.8,0,0,1-.32-.11l-.14-.08a.47.47,0,0,0-.29-.12.41.41,0,0,0-.3.16.87.87,0,0,0-.16.32c0,.14-.07.22-.21.27a1,1,0,0,1-.59-.07c-.22-.07-.43-.11-.55,0a.83.83,0,0,0-.13.56,1.48,1.48,0,0,0,0,.27,1,1,0,0,1,0,.5c0,.07-.14.11-.32.11h-.16a1.46,1.46,0,0,0-.21,0,.11.11,0,0,0-.1.09,1,1,0,0,0,.13.6.92.92,0,0,1,.11.39c0,.12-.07.19-.2.29a.57.57,0,0,0-.27.43.43.43,0,0,0,.22.37c.09.06.13.08,0,.31a.52.52,0,0,1-.06.13.41.41,0,0,0-.07.38.91.91,0,0,0,.31.37,1,1,0,0,1,.29.32l0,0a11.78,11.78,0,0,1,3.15,3.88h-.07a.55.55,0,0,0-.54.41.7.7,0,0,0-.11,1,.45.45,0,0,0,.24.19l.41.13c-.16.56-.34,1.11-.55,1.64a6.55,6.55,0,0,1-.82,1.68,1.54,1.54,0,0,1-.18.16c-.15.13-.33.27-.32.46s.16.3.3.41.2.14.22.21a.43.43,0,0,1-.07.28.58.58,0,0,0-.08.41c0,.16.25.29.44.41l.18.11.13.12a.91.91,0,0,0,.53.3.72.72,0,0,0,.24,0h0a.62.62,0,0,1,.12.16c.06.11.11.21.16.29a.88.88,0,0,0,.84.63v.12a1.09,1.09,0,0,0,.07.57A1.06,1.06,0,0,0,72,34l.24.12.18.14a1.07,1.07,0,0,0,.42.26.8.8,0,0,0,.31,0,.58.58,0,0,1,.34,0,1.3,1.3,0,0,1,0,.15,1.14,1.14,0,0,0,.07.22c.11.16.17.2.27.22l.14,0c.18.11.18.12.14.24a.89.89,0,0,0-.08.34c0,.43.34.53.62.61h0a.56.56,0,0,0,.61-.1,1.4,1.4,0,0,1,.18-.13c.23-.14.28-.12.46.08l.16.16a.55.55,0,0,0,.37.19.58.58,0,0,0,.19,0,.42.42,0,0,1,.2,0,.78.78,0,0,1,.27.14.83.83,0,0,0,.5.2h0a4.2,4.2,0,0,0,.62-.06l.37-.05c.24,0,.45-.07.68-.12l.16,0a.38.38,0,0,1,.35.1.71.71,0,0,0,.4.16.39.39,0,0,0,.21-.08.39.39,0,0,1,.16-.07.7.7,0,0,1,.32.12l.18.13a1,1,0,0,0,.59.23h.09a1,1,0,0,0,.83-.64H83a1.29,1.29,0,0,0,.45,0,.46.46,0,0,0,.3-.44.34.34,0,0,1,.07-.24.64.64,0,0,1,.23-.14,1.07,1.07,0,0,0,.39-.26,1.19,1.19,0,0,0,.2-.86.41.41,0,0,0-.2-.26c-.42-1.35-.92-2.95-1.37-4.44a.63.63,0,0,0,.16-.38.68.68,0,0,0-.22-.57,2.65,2.65,0,0,0-.3-.25c-.28-.92-.52-1.74-.68-2.35l.38-.09a.49.49,0,0,0,.28-.23,1.11,1.11,0,0,0,.11-1,.45.45,0,0,0-.2-.21.5.5,0,0,0-.49-.52h-.09A18.15,18.15,0,0,1,84,20.44c.34-.56.69-1.14,1-1.72l.07-.14c.34-.63.69-1.27,1.07-1.89,0-.07.09-.14.14-.21a2.12,2.12,0,0,0,.3-.52,3,3,0,0,0-.43-1.88A.3.3,0,0,0,85.87,14Zm-16,11c-.25-.39.11-.36.14-.57s.08-.14.13-.14a.17.17,0,0,1,.09,0l.17,0c.58.09,1.15.17,1.71.23a1.84,1.84,0,0,0,.14.34.2.2,0,0,0,.19.12h0a.22.22,0,0,0,.18-.2v-.2a49.77,49.77,0,0,0,5,.26h.54a3.17,3.17,0,0,1-.18.62c-.44,0-.87,0-1.3,0-.65-.07-1.33-.12-2-.14s-1.34,0-2,0l2,.16,2,.19c.4,0,.81,0,1.21,0l-.09.17-.12.2a.2.2,0,0,0,0,.2,29.51,29.51,0,0,1-7.46-1.14Zm2.83-.86a2.79,2.79,0,0,1,5.57.25A37.67,37.67,0,0,1,72.7,24.16ZM83.44,34.55c0,.44-.38,1.53-.91.94s-.37-1.86-.49-2.6a9.78,9.78,0,0,0-.62-2.27c-.24-.54-.47-.47-.4.07a15.89,15.89,0,0,0,.66,2.68A10.2,10.2,0,0,1,82,34.81c0,.34.22.79,0,1.12a.77.77,0,0,1-.72.24c-.2-.1-.25-.56-.3-.74a21.42,21.42,0,0,1-.46-2.68c-.1-.62-.13-1.23-.23-1.84s-.16-1.6-.56-1.95c0,.11,0,.23,0,.34a8.51,8.51,0,0,0,.39,2.36,23.68,23.68,0,0,1,.19,3.15c0,.3.16.8-.15,1s-.53-.15-.57-.43c-.06-.44,0-.89-.08-1.33a15.79,15.79,0,0,0-.21-2.49,7.74,7.74,0,0,0-.11,3.22c0,.36.22,1.12-.21,1.32s-.63-.3-.79-.58c-.19.23-.33.59-.68.43s-.18-.61-.19-.94c0-.52,0-1.08-.08-1.61a4.92,4.92,0,0,0-.11-1.88c-.54.27-.11-.57-.53-.52,0-.12-.08-.13-.18-.2a5.16,5.16,0,0,0-.44,1.51,11.37,11.37,0,0,0-.5,2c0,.3.09.75-.08,1s-.52.13-.67-.15,0-1-.19-.93,0,.6-.46.46c0-.55,0-1,0-1.61,0-.33.36-1.49.06-1.7-.51-.38-1.12,1.68-1.21,2-.21-.19-.56-.08-.76-.28a.82.82,0,0,1-.18-.68,4,4,0,0,1,.33-1c.16-.47.34-.94.5-1.41.23-.65.28-1,.5-1.63,0-.11.84-1.69.26-1.5-.16.05-.35.7-.43.86-.22.46-.41.93-.59,1.4s-.48,1-.68,1.49-.21.93-.37,1.36c-.32-.15-.81-.19-.82-.65s.36-.69.51-1a8.73,8.73,0,0,0,.68-1.49c.15-.47.28-1,.43-1.44.1-.32.27-.4.07-.72-.46.29-.52,1.15-.78,1.62-.35.63-.76,1.27-1.07,1.92-.09.21-.11.65-.35.76a.48.48,0,0,1-.58-.25c-.17-.5.63-.73.54-1.23-.2.12-.9.71-.85,0,0-.42.62-.54.78-.84s0-.4.11-.61a3.25,3.25,0,0,1,.33-.57c.21-.47,0-1.77.5-1.67s1,.2,1.43.28a38.12,38.12,0,0,0,5.63.6h.21l.77.65a.65.65,0,0,0,0,.36c.11.35.56.52,1,.65a4,4,0,0,1,1,.93,5.09,5.09,0,0,0,1,.93,1,1,0,0,0,.27.1c.21.67.44,1.31.68,2A6.3,6.3,0,0,1,83.44,34.55ZM82.85,29l0,0a.44.44,0,0,1,.14.52.67.67,0,0,1-.21.26s-.13.36-.45.36a.52.52,0,0,1-.22-.06l-.08,0c-.57-.33-1.49-1.7-2-1.87s-.89-.33-.83-.65a.76.76,0,0,1,0-.11.24.24,0,0,1,.06-.09s0,0,0,0l.16-.16h0l.13-.2h0l.07-.08a.24.24,0,0,1,.09-.06.28.28,0,0,1,.15,0c.25,0,.5.34.7.68a3.72,3.72,0,0,0,1.22.87A5.18,5.18,0,0,1,82.85,29Zm-2.59-2.3a11,11,0,0,0,1.12-.12A9.27,9.27,0,0,0,81.73,28a2.92,2.92,0,0,1-1-.68A2.27,2.27,0,0,0,80.26,26.7Zm1.88-2c.11,0,0,.4.22.43s0,.62,0,.62l-.38.09a16.24,16.24,0,0,1-2.77.41L78.91,26l0-.09.12-.24c.56,0,1.11-.11,1.65-.2l-1,0-.57,0a3.88,3.88,0,0,0,.21-.63c1.26-.05,2.16-.12,2.55-.16Zm3.51-8.92a2.71,2.71,0,0,1-.43.8c-.66,1-1.1,2.21-1.68,3.28s-1.07,1.93-1.58,2.9c-.25.47-.44,1.28-1,1.51,0,0-.59.05-1.53.09a2.19,2.19,0,0,0,0-.36A3.75,3.75,0,1,0,72,24a.11.11,0,0,0,0,.05c-.26,0-.51-.09-.76-.15-.58-.12-.93-1.32-1.16-1.87a4.83,4.83,0,0,0-1.18-1.41,14.72,14.72,0,0,1-1.2-1.51,1,1,0,0,1-.13-1.41,6.4,6.4,0,0,1,1.26,1.47c.17.25.28.7.53.87.42.27.34-.18.25-.47-.19-.55-.48-1.1-.7-1.62s-.83-1-.63-1.66a2.25,2.25,0,0,1,.35-.69c.21-.25.38-.43.61-.25.55.45.56,1.42.86,2s.24,1.21.46,1.81.58,1.26.8,1.95c.1.33.66,1.72.71.65,0-.67-.38-1.14-.5-1.77a18.13,18.13,0,0,0-.55-2,9.26,9.26,0,0,0-.54-1.8c-.25-.52-.52-.89,0-1.33.35-.3.77-.45,1.05-.87.45.3.49.95.83,1.36.63.79.12-.86.23-1.09.33-.64.44.45.85.27.24-.1.23-.42.53-.44s.26.23.5.33c0,.41.45.84.18,1.25-.12-.13-.12-.28-.28-.31a11.53,11.53,0,0,0,.14,2.42,8.27,8.27,0,0,0,.36,1.36c.1.31.16.82.41,1,.33-.13.19-1.36.17-1.69,0-.65-.17-1.26-.25-1.9a4.41,4.41,0,0,1,0-1.31c.06-.44-.2-.81-.11-1.22.45-.05.43.33.75-.12.21-.29.26-.49.58-.17s.18.41.58.29.47-.32.51.21c.07,1.13-.12,2.28-.11,3.42A16.19,16.19,0,0,0,77.6,20a3.64,3.64,0,0,0,.17-1.37,13.09,13.09,0,0,0,.07-1.66,10.31,10.31,0,0,1,0-2.42c.08-.4.17-1.17.68-.78.09.07.15.24.25.29s.1,0,.29,0,.1-.17.26,0,0,1,0,1.19c0,.57-.12,1.14-.15,1.7a12.39,12.39,0,0,0-.06,2.19c.29-.08.27-.84.32-1.1s.17-.82.25-1.23a20.48,20.48,0,0,0,.29-2.34c0-.44.28-1.57.75-.81s.15,1.8.08,2.58-.2,1.3-.29,1.94a4.59,4.59,0,0,0-.21,1.36c.26-.05.38-1.23.47-1.54a11.14,11.14,0,0,0,.32-1.23,15.67,15.67,0,0,1,.35-2c.12-.37.46-1.4.8-1.48,1-.24.54,1.29.44,1.78-.18.88-.36,1.79-.62,2.66a6.4,6.4,0,0,0-.54,1.88c.29-.21.56-1.38.68-1.75.21-.6.29-1.22.47-1.82s.29-2,1-2.27c.23.4,0,1.11-.09,1.54a9.07,9.07,0,0,0-.44,2.24c.45-.21.5-1.05.61-1.47a4.9,4.9,0,0,1,.4-1.13c.11-.2.41-.78.7-.61s.25.63.42.79.19,0,.29.26A.81.81,0,0,1,85.65,15.78Z"/><path class="cls-2" d="M35.59,39.62a15.8,15.8,0,0,1,.1,2.75,5.09,5.09,0,0,1-.13.83c0,.18-.08.37-.11.56-.05.36-.18,1.2.38,1.59a13.23,13.23,0,0,0,2.06,1.1c0,.2,0,.41,0,.62a5.23,5.23,0,0,0,.1,2v0a1.73,1.73,0,0,1,.11,1,.93.93,0,0,1-.11.16c-.18.25-.4.56-.29.88a.62.62,0,0,0,.12.2.47.47,0,0,0,.1.22.76.76,0,0,0-.08.2.6.6,0,0,0,.13.53h0a1.69,1.69,0,0,1,0,.32,1.87,1.87,0,0,1-.07.22.94.94,0,0,0,.06.91,4,4,0,0,0,.43.48l.16.15a3.89,3.89,0,0,0,.77.61l.24.17.13.11a1.21,1.21,0,0,0,.41.27.89.89,0,0,0,.31.06.91.91,0,0,0,.32-.06.37.37,0,0,1,.14,0l.18,0a1.24,1.24,0,0,0,.49-.15.66.66,0,0,1,.18,0,1.52,1.52,0,0,0,.38-.08.57.57,0,0,0,.4-.46c.06-.41-.39-.74-.78-1l-.23-.18a1.5,1.5,0,0,1-.11-.22l-.09-.19a1.3,1.3,0,0,1-.1-.23,2.88,2.88,0,0,0-.34-.65l0-.07a1,1,0,0,0,0-.17.37.37,0,0,0,.07-.14,2.85,2.85,0,0,0,0-.4v0a.41.41,0,0,1,0-.11.92.92,0,0,0,0-.19,1.36,1.36,0,0,0-.08-.49,1.67,1.67,0,0,1,0-.18A.87.87,0,0,1,41,50.1.36.36,0,0,1,41,50a5.33,5.33,0,0,0,.26-1.58v-.08a.27.27,0,0,1,.06.11,1.44,1.44,0,0,1,0,.46,2.58,2.58,0,0,0,0,.4c0,.3,0,.6,0,.93a.85.85,0,0,0,.21.58.5.5,0,0,0,.37.17.52.52,0,0,0,.35-.15.52.52,0,0,0,.47.32.57.57,0,0,0,.43-.22l0,0a.82.82,0,0,0,.66.5h.13a.75.75,0,0,0,.18-.08.65.65,0,0,0,.35.2l.22,0a.64.64,0,0,0,.39-.12.42.42,0,0,0,.67,0,.57.57,0,0,0,.07.68.85.85,0,0,0,.21.19s0,0,0,0l0,.26a2.05,2.05,0,0,0,.08,1.19l0,0a2.49,2.49,0,0,0,.82,1.16c.21.15.42.32.63.49l.32.24a.81.81,0,0,0,.54.22,1.65,1.65,0,0,0,.32,0,.72.72,0,0,0,.49-.34h.12a.34.34,0,0,0,.3-.18,1.61,1.61,0,0,0-.06-1.06l0-.07a2,2,0,0,0-.49-.86,2.14,2.14,0,0,1-.32-.66l0,0a4.33,4.33,0,0,1-.14-.47.61.61,0,0,0,.2-.29.72.72,0,0,0,0-.48.25.25,0,0,1,0-.07.57.57,0,0,0,0-.43.52.52,0,0,0,.07-.15.94.94,0,0,0-.2-.68.78.78,0,0,1-.08-.16,1.17,1.17,0,0,1,.16-.27l.12-.16a1.88,1.88,0,0,0,.36-.85,1.49,1.49,0,0,0,0-.21l0-.22a2.52,2.52,0,0,1,.29.1,2.06,2.06,0,0,0,.74.18h.17a2.55,2.55,0,0,0,1.42-.64A2.58,2.58,0,0,0,52.35,45a3,3,0,0,0-.87-.91,1.89,1.89,0,0,0-.54-.2,1,1,0,0,1-.35-.12,0,0,0,0,1,0,0s0-.1-.08-.17a1.08,1.08,0,0,0-.18-.26.76.76,0,0,1-.1-.14,1.34,1.34,0,0,1,0-.42,2.42,2.42,0,0,0,.06-.45c0-.4,0-.8.07-1.19s0-.55.07-.82a2.35,2.35,0,0,0-.08-.81c0-.1-.07-.18-.1-.26a1,1,0,0,1-.1-.3,4,4,0,0,1,.07-1.09,1.55,1.55,0,0,0,0-.21l.06-.54a5.53,5.53,0,0,1,.12-.83,5,5,0,0,1,.2-.58,6.3,6.3,0,0,0,.25-.77c0-.19.06-.37.09-.55a5.27,5.27,0,0,1,.15-.81,4.85,4.85,0,0,0,.28-1.54,3.3,3.3,0,0,0-.29-1.13,1.8,1.8,0,0,0-.08-.21L51,30.51a1.31,1.31,0,0,1-.16-.74,5.14,5.14,0,0,1,.37-1l.07-.16a1.38,1.38,0,0,1,.19-.28,1.06,1.06,0,0,0,.33-.93,2.87,2.87,0,0,0-.09-.37,1.35,1.35,0,0,1-.08-.3.74.74,0,0,1,.05-.23,1.31,1.31,0,0,0,.07-.4,2.42,2.42,0,0,0-.27-1,3.44,3.44,0,0,1-.14-.37,1.09,1.09,0,0,1,0-.17,1.78,1.78,0,0,0-.17-.47,1,1,0,0,0-.21-.29,4.51,4.51,0,0,0,.36-1.19l0-.08c0-.09,0-.17,0-.26.05-.34.09-.51.3-.64a3.6,3.6,0,0,1,.66-.3l.45-.18.09,0c.21-.08.56-.22.62-.59s-.39-.62-.55-.66l-.09,0-.18-.05a2.34,2.34,0,0,1-.38-.12c.24-.2.35-.3.33-.49a.35.35,0,0,0-.17-.25,2.11,2.11,0,0,1,.21-.31l.17-.24.06-.11a.8.8,0,0,1,.23-.32l.15-.1a1.17,1.17,0,0,0,.47-.41.33.33,0,0,0,0-.36.91.91,0,0,0-.61-.35c-.16,0-.22-.05-.25-.1s0-.08.06-.29a1.1,1.1,0,0,0,.15-.59.34.34,0,0,0-.32-.32h0a1.44,1.44,0,0,0-.55.13.87.87,0,0,1-.25.08h0a2,2,0,0,1-.28-.22c-.31-.26-.45-.37-.63-.37a.47.47,0,0,0-.17,0,.48.48,0,0,0-.24.35c-.05.35.29.71.71,1.1l.09.09.07.08c.23.3.35.47.31.74a1.32,1.32,0,0,1-.14.47l-.06-.06a.52.52,0,0,0-.37-.2c-.14,0-.37.07-.4.51a1,1,0,0,0,.14.53.77.77,0,0,1,.06.15.65.65,0,0,1,0,.33l-.08,0a1.63,1.63,0,0,1-.37-.19,1.86,1.86,0,0,0-.84-.3l-.47,0a2.9,2.9,0,0,0-1.05.16,3.13,3.13,0,0,0-.32.15l-.1.06a1.89,1.89,0,0,1,.07-.32c.14-.54.25-1,0-1.17a.44.44,0,0,0-.27-.09.54.54,0,0,0-.34.14.64.64,0,0,1-.11-.2c-.14-.34,0-.46.32-.83l0-.05a1.93,1.93,0,0,0,.64-1.16A.58.58,0,0,0,48,15.1h0a.19.19,0,0,0-.1-.14l0,0a.31.31,0,0,0-.22-.09h0a.38.38,0,0,0-.23.11l-.12.14c-.13.15-.33.39-.47.4l-.19-.09a1.07,1.07,0,0,0-.52-.19.45.45,0,0,0-.45.37.76.76,0,0,0,.14.55l.06.12v.05a1,1,0,0,1,.05.27c0,.05-.13.09-.29.14a1.22,1.22,0,0,0-.42.19.32.32,0,0,0-.14.27.78.78,0,0,0,.57.71.62.62,0,0,1,.2.11,1.57,1.57,0,0,1,.24.33,3.78,3.78,0,0,0,.22.33,1.24,1.24,0,0,1,.16.22.44.44,0,0,0-.11.39.49.49,0,0,0,.1.19H45.9a.68.68,0,0,0-.7.38,1.05,1.05,0,0,0,.37,1.06,2.36,2.36,0,0,0,1,.57,1.25,1.25,0,0,1,.25.09c.47.17.46.55.32,1.36a5.07,5.07,0,0,0-.09.65,1.34,1.34,0,0,0,0,.42,1.29,1.29,0,0,1,0,.25c0,.07,0,.07-.06.15a1.43,1.43,0,0,0-.16.23,5.65,5.65,0,0,0-.44,1.55s0,0,0,.07a1.48,1.48,0,0,0-.09.18,1.62,1.62,0,0,0,0,1,1.73,1.73,0,0,1,.08.41c0,.22,0,.22-.35.31l-.18,0a2.28,2.28,0,0,1-.65.06c-.19,0-.39,0-.6,0a7.23,7.23,0,0,0-1,.26l-.22.07a5.53,5.53,0,0,0-1.91,1.21c-.22.18-.42.35-.62.5l-.22.19a1.4,1.4,0,0,1-.2.17,1.67,1.67,0,0,1-.23.11,1.86,1.86,0,0,0-.45.25,3.08,3.08,0,0,1-.68.45l-.16.06a1.09,1.09,0,0,0-.59.42.7.7,0,0,0-.08.14l0,0h0l-.06,0a2.69,2.69,0,0,0-1.11,1,1.15,1.15,0,0,0-.15.36.42.42,0,0,1-.07.19l-.11.14a1.87,1.87,0,0,0-.28.4,5.39,5.39,0,0,0-.27.73,3.35,3.35,0,0,1-.19.56c0,.09-.08.18-.13.27a5.59,5.59,0,0,0-.39,1,7.41,7.41,0,0,0,0,2.74Zm5.3,8.63a0,0,0,0,0,0,0,1.94,1.94,0,0,0-.16.54l0,.18-.06.32-.09.26c0,.08-.06.15-.08.22a1.31,1.31,0,0,0-.07.56h0a0,0,0,0,0,0,.07l.07.1a.94.94,0,0,1,.17.31.17.17,0,0,1,0,.14s0,0-.13.06l0,0,0,0a.14.14,0,0,0,0,.11.16.16,0,0,0,.06.08l0,0a.27.27,0,0,1,.07.25.11.11,0,0,1,0,.08h0a.05.05,0,0,0,0,0l-.06,0a.17.17,0,0,0-.12,0,.17.17,0,0,0,0,.23l.05.05s0,.08,0,.16a.23.23,0,0,1-.11.09h0a.16.16,0,0,0-.11-.05h0a.15.15,0,0,0-.12.18.24.24,0,0,1,0,.09.09.09,0,0,1-.06,0h0c-.08,0-.16,0-.16-.07a.14.14,0,0,0-.11-.12h0a.14.14,0,0,0-.13.11.08.08,0,0,1-.05.07h-.06a.13.13,0,0,1-.08,0,.25.25,0,0,1-.13-.09.19.19,0,0,1,0-.15v0a.06.06,0,0,0-.05-.06h0a.22.22,0,0,0-.05.12.26.26,0,0,0,0,.15.37.37,0,0,0,.18.21.46.46,0,0,0,.22.06h.08l.1,0,.07.06a.6.6,0,0,0,.27.07.37.37,0,0,0,.31-.16l0-.07.14,0,.07,0a6.19,6.19,0,0,1,.32.63l0,.13a2.71,2.71,0,0,0,.54.85,1.34,1.34,0,0,0,.32.24l.09.06h0c.11.08.22.15.24.23s0,.09,0,.1,0,0-.11.06h-.13a.75.75,0,0,1-.26,0h0a.13.13,0,0,0-.12.09.26.26,0,0,1,0,.1l-.06.16h-.29a.07.07,0,0,0,0,0v0H40.8a.1.1,0,0,0,0,0,2.08,2.08,0,0,1-1-.33A4,4,0,0,1,39,54a2.06,2.06,0,0,0-.33-.33l-.1-.09a1,1,0,0,1-.18-.18.35.35,0,0,1,0-.08.69.69,0,0,1,0-.1.85.85,0,0,1,.1-.41l0-.07a.83.83,0,0,0,.07-.32.36.36,0,0,0,0-.1.44.44,0,0,0,.31-.17v0s0,0,0,0a.05.05,0,0,0-.05-.05h0l-.08,0a.18.18,0,0,1-.09,0h-.06s0,0-.05,0a.23.23,0,0,1-.1-.12c0-.07,0-.12,0-.13a.19.19,0,0,1,.12,0h.1a.16.16,0,0,0,.16-.13.16.16,0,0,0-.12-.19l-.11-.05a.29.29,0,0,1-.08-.08s0,0,0,0a.22.22,0,0,1,.07-.06h0l.05,0a.16.16,0,0,0,0-.19.13.13,0,0,0-.08-.08l-.06,0-.07,0-.1.05H38.2c-.05,0-.08-.05-.1-.12a.21.21,0,0,1,.07-.17l.07-.08a.45.45,0,0,0,.13-.17l.16,0s0,0,0,0h0a.05.05,0,0,0,0,0,1.13,1.13,0,0,0,0-.77l-.09-.33c0-.12-.07-.24-.1-.35a3.3,3.3,0,0,1-.06-.68v-.21a4.56,4.56,0,0,0,0-.52.07.07,0,0,0,0,0h0l.2.07.21.07.4.16.5.19a2.53,2.53,0,0,0,.9.19h.08l.25,0Zm-.37,4.15,0,0h0v0Zm5.2-4.49a1.79,1.79,0,0,1-.54.37l-.14.06a2.15,2.15,0,0,1-.5.12h-.45a2,2,0,0,1-1.17-.57,1.93,1.93,0,0,1,0-2.71,2,2,0,0,1,1.36-.61h.08a2.12,2.12,0,0,1,.82.18l.08,0a1.89,1.89,0,0,1,.85.84,1.91,1.91,0,0,1-.36,2.29Zm2-10c0,.06,0,.12,0,.19a4,4,0,0,1,0,1.1l0,.26c0,.1,0,.19,0,.29a6.8,6.8,0,0,0,0,1,3.42,3.42,0,0,0,.32,1,1.22,1.22,0,0,0,.07.17,4.28,4.28,0,0,1,.21.82c0,.09,0,.18,0,.26s0,.19.05.27h0a2.18,2.18,0,0,1-.42-.37,7,7,0,0,0-.59-.62l-.29-.3c-.26-.27-.54-.51-.82-.75a7.35,7.35,0,0,1-1.08-1.08c-.11-.14-.22-.25-.33-.37a2,2,0,0,1-.4-.48,2.06,2.06,0,0,1-.15-.84c0-.12,0-.23,0-.35s0-.16.21-.35a1.74,1.74,0,0,0,.39-.5l.2-.37a3.45,3.45,0,0,0,.39-.9.52.52,0,0,1,0-.11,2.21,2.21,0,0,1,.17-.58,1.21,1.21,0,0,1,.51-.19l.25-.07a3,3,0,0,0,.71-.36,4,4,0,0,1,.57-.3c0,.08,0,.15,0,.22a1.61,1.61,0,0,1,0,.61,4.61,4.61,0,0,1-.13.46,4.1,4.1,0,0,0-.18.9A4.9,4.9,0,0,0,47.72,37.87Zm-1.44,3.5-.16-.15.09.08A.46.46,0,0,0,46.28,41.37Zm-1-5.94-.06.12a1.78,1.78,0,0,0-.1.38V36a.67.67,0,0,1-.14.32,1.78,1.78,0,0,0-.28.38,2.55,2.55,0,0,0-.11.33l0,.11a.59.59,0,0,1-.19.27l-.14.08a.87.87,0,0,0-.18.11,1.6,1.6,0,0,1,.17-.42c.14-.23.26-.47.35-.64.24-.46.45-.93.65-1.41l.19,0a.16.16,0,0,1,.08,0A1.41,1.41,0,0,0,45.33,35.43ZM44.1,38.16a3.11,3.11,0,0,0,0,.32v0h0l0,0a1.62,1.62,0,0,0,.17.88,4,4,0,0,0,.48.74,10.7,10.7,0,0,0,1.12,1.21l.06,0a13.53,13.53,0,0,0,1.29,1.14l.09.08a1.42,1.42,0,0,1,.22.2,2.84,2.84,0,0,1,.23.25l.05.06.09.1a1.94,1.94,0,0,0,.58.48h0a.05.05,0,0,0,0,0h0a.28.28,0,0,1,.07.09h0l0,.05c.06.15,0,.2,0,.36a.1.1,0,0,0,0,0l.08.07,0,0v0a.11.11,0,0,1,0,.05h-.07a3,3,0,0,0-.28.37A2.2,2.2,0,0,0,48,46.1a2.48,2.48,0,0,0,0,.27l-.05,0a.72.72,0,0,0-.39.14.67.67,0,0,0-.14.09,2.13,2.13,0,0,0-.38.35l0,.06a2.1,2.1,0,0,1-.38.36,1.09,1.09,0,0,1-.49.15,2.1,2.1,0,0,0,.27-1.07,2.08,2.08,0,0,0-.64-1.5,2.2,2.2,0,0,0-1.53-.65h0a2.17,2.17,0,0,0-1.09.29.5.5,0,0,1,0-.12c0-.08,0-.15,0-.23A.58.58,0,0,0,43,44.1a.89.89,0,0,0-.13-.14h0c-.19-.12-.17-.35-.14-.57a2.21,2.21,0,0,1,.06-.34c0-.12.05-.25.07-.37A6.54,6.54,0,0,1,43,42a6.3,6.3,0,0,1,.18-.69c0-.14.1-.28.17-.43l.09-.23a5.66,5.66,0,0,0,.38-1.43,2.88,2.88,0,0,0,0-.41c0-.11,0-.22,0-.32a.94.94,0,0,1,.07-.31l0-.12a.05.05,0,0,1,0,0,.4.4,0,0,0,.07.13v0l0,0Zm4.46,4.74v0a1.7,1.7,0,0,1,.1.32v0a1.26,1.26,0,0,1,0,.27v.07s0,.09,0,.14h0a.45.45,0,0,1-.06-.12h0v0c0-.21,0-.44-.06-.64ZM48,46.47h0Zm-1.93,1.18h0v0Zm2.85.52v-.05a.06.06,0,0,0,0-.06h0l0,0a.86.86,0,0,0-.13.41v.06a.9.9,0,0,1-.11.36,1.62,1.62,0,0,1-.1.18c0,.06-.07.13-.11.2a1,1,0,0,0-.11.34.33.33,0,0,0,0,.14s0,0,0,0h0c0,.07,0,.14,0,.21l0,0h-.08a.08.08,0,0,0,0,.08.27.27,0,0,1,.07.08.51.51,0,0,1,.09.13.86.86,0,0,1,.11.24.18.18,0,0,1,0,.11h-.14l-.09,0h0a.12.12,0,0,0-.12.1.1.1,0,0,0,0,.09.16.16,0,0,0,.08.06h0a.27.27,0,0,1,.16.22.13.13,0,0,1,0,.1h-.1l-.07,0a.15.15,0,0,0-.07.12.15.15,0,0,0,0,.11s0,0,0,0a.09.09,0,0,0,.07,0h.06c.05,0,.05,0,.06,0a.24.24,0,0,1,0,.16.26.26,0,0,1-.11.12h0l-.09,0a.14.14,0,0,0-.1,0,.21.21,0,0,0-.11,0,.24.24,0,0,0-.06.11.21.21,0,0,0,0,.12l0,0-.07,0h-.07c-.1,0-.16,0-.17-.05a.14.14,0,0,0-.14-.1h0a.15.15,0,0,0-.14.16c0,.07,0,.09-.08.1h0v0s0,0,0-.06h0L47.1,52l0,0h0l-.1,0,0,0,0,0h0l0,.06a.24.24,0,0,1-.08-.2h0a.06.06,0,0,0-.06-.06h0l0,0h0a.44.44,0,0,0,0,.19s0,0,0,0a.33.33,0,0,0,.1.14.36.36,0,0,0,.2.06h0a.61.61,0,0,0,.3.08h0a.38.38,0,0,0,.26-.11h0l.07,0a.64.64,0,0,0,.2,0h.1a.4.4,0,0,0,.31-.18l0,0h0v.06s0,.06,0,.09a.67.67,0,0,0,0,.42,2,2,0,0,0,.19.42l.18.31a2.86,2.86,0,0,1,.25.44,1.18,1.18,0,0,1,.07.2c.07.2.15.42.2.62a.91.91,0,0,1,0,.33h0L49,55a.15.15,0,0,0-.15,0s0,0-.06.08a.16.16,0,0,0,0,.1.34.34,0,0,1,0,.1l0,0a.74.74,0,0,0-.15.08l0,0-.06.06a.73.73,0,0,1-.33,0,2.91,2.91,0,0,0-.81-.68,2.06,2.06,0,0,1-.68-.67c-.08-.13-.17-.29-.25-.44a1.32,1.32,0,0,1-.18-.43,2.49,2.49,0,0,1,0-.47,2,2,0,0,0,0-.55s0,0,0,0,0-.11,0-.17h0a.07.07,0,0,0,0-.08h0a.11.11,0,0,1,0-.05v-.06a.06.06,0,0,0-.06-.05h0a0,0,0,0,0,0,0h0l0,0,0,0H46.2l-.11-.08,0,0a.35.35,0,0,0,0-.06.2.2,0,0,1,.06-.15l.06,0,.14,0a.2.2,0,0,0,.12-.13v0h0a.16.16,0,0,0-.16-.15h0l-.1,0h0l0,0h0a.37.37,0,0,1,.12-.25.14.14,0,0,0,.06-.14.16.16,0,0,0-.15-.14h0s-.07-.05-.07-.08h0l0,0a1.58,1.58,0,0,1,.14-.23v0l.16-.21a.06.06,0,0,0,0,0h0l.06-.45.06.15a.05.05,0,0,0,.05,0h0a.07.07,0,0,0,0,0,2.12,2.12,0,0,0,0-.83,1.73,1.73,0,0,0-.11-.4,1.14,1.14,0,0,0-.21-.38l0,0h0l0,0a.77.77,0,0,1,0-.37h0l0,.14a.23.23,0,0,1,0-.14h.14a.92.92,0,0,0,.33-.06,1.41,1.41,0,0,0,.5-.39c0-.05.09-.1.13-.16a2.84,2.84,0,0,1,.23-.25,1,1,0,0,1,.44-.28,2.15,2.15,0,0,0,.61,1.05,3.55,3.55,0,0,0,.31.23h0a.13.13,0,0,1,0,.06A.86.86,0,0,1,49,48.17Zm2.6-3.48a1.86,1.86,0,0,1,.61,1.36,1.82,1.82,0,0,1-.27,1,2.56,2.56,0,0,1-.63.64,1.89,1.89,0,0,1-1,.29h0a2,2,0,0,1-1.34-.56,1.89,1.89,0,0,1,1.29-3.22h.08A1.93,1.93,0,0,1,51.56,44.69ZM51.22,18v0a.55.55,0,0,0,.08.15.29.29,0,0,0,.14.13.28.28,0,0,0,.13,0h.08A.81.81,0,0,0,52.1,18a1.61,1.61,0,0,0,.17-.54.92.92,0,0,0-.12-.58,2.42,2.42,0,0,0-.58-.61l-.17-.14a1.11,1.11,0,0,1-.27-.34l0-.13.19.21,0,0a1.16,1.16,0,0,0,.45.31h.12a.52.52,0,0,0,.23-.05h0l.26-.12,0,0,.19-.09h0s0,.06,0,.09l-.09.24-.09.26v0a.54.54,0,0,0,0,.31,1.21,1.21,0,0,0,.05.14.5.5,0,0,0,.1.14.54.54,0,0,0,.28.19,1,1,0,0,0,.36.06h.09l0,0a1.2,1.2,0,0,1-.2.11l-.09,0a2.2,2.2,0,0,0-.32.21.46.46,0,0,0-.14.22l0,.17a.92.92,0,0,1-.22.41l-.11.15,0,0a.78.78,0,0,0-.15.33.26.26,0,0,0,.09.25l0,0a.44.44,0,0,0-.23.15.59.59,0,0,0-.06.16.31.31,0,0,0,0,.1s0,0,0,.05a.19.19,0,0,1,0,.18.78.78,0,0,1-.35.25,1.07,1.07,0,0,1-.4.1h0a.65.65,0,0,1,0-.13l.09-.09.25-.29a1.23,1.23,0,0,0,.14-.25,1.77,1.77,0,0,0,.08-.4,1.87,1.87,0,0,0-.14-.63v-.05a1.34,1.34,0,0,1-.1-.43h0ZM46.35,18l-.05-.18a.37.37,0,0,0-.15-.2,1.6,1.6,0,0,0-.32-.21l-.09,0a1,1,0,0,1-.21-.1l0,0h0a1.2,1.2,0,0,0,.4-.06.63.63,0,0,0,.28-.2.85.85,0,0,0,.09-.14.88.88,0,0,0,0-.15.53.53,0,0,0,0-.31v0l-.09-.26-.1-.24,0-.08h0l.19.08,0,0,.26.12h0a.72.72,0,0,0,.22,0H47a1.17,1.17,0,0,0,.44-.32l0,0,.19-.22a.65.65,0,0,1,0,.13.88.88,0,0,1-.26.35l-.17.15a2.4,2.4,0,0,0-.56.62,1,1,0,0,0-.11.58,1.47,1.47,0,0,0,.19.53.73.73,0,0,0,.44.4h.08a.32.32,0,0,0,.14,0A.34.34,0,0,0,47.5,18a.77.77,0,0,0,.08-.19h0a1.25,1.25,0,0,1-.09.46v.06a1.8,1.8,0,0,0-.12.62,1.11,1.11,0,0,0,.19.58.43.43,0,0,0,0,.07,3.45,3.45,0,0,0,.26.28l.09.09a.65.65,0,0,1,0,.13h0a1.1,1.1,0,0,1-.39-.09.87.87,0,0,1-.36-.25.14.14,0,0,1,0-.11v-.05a.29.29,0,0,0,0-.16.26.26,0,0,0-.06-.16.51.51,0,0,0-.23-.15h0a.28.28,0,0,0,.09-.26.7.7,0,0,0-.17-.32l0,0-.12-.15A1,1,0,0,1,46.35,18Zm1.19.92V19s0,0,0,0S47.54,18.92,47.54,18.89Zm-.89.05a0,0,0,0,1,0,0h0Zm.31,7a1.46,1.46,0,0,1,.12-.33l.09-.22a2.11,2.11,0,0,0,.1-.3s0-.05,0-.08a.84.84,0,0,1,.07-.19l0,0a1.3,1.3,0,0,1,.15-.2l.08-.09,0,0a.1.1,0,0,0,0,0s0,0,0,0h0a.06.06,0,0,0,0-.08l-.08-.13,0,0h0v0a.06.06,0,0,0-.06-.06h0a1.54,1.54,0,0,1-.07-.54,6.66,6.66,0,0,1,.09-.75l0-.12a2.87,2.87,0,0,0,0-.93,1.08,1.08,0,0,0-.19-.48,1.11,1.11,0,0,0-.41-.32l-.17-.06a4.12,4.12,0,0,1-.64-.28,1.26,1.26,0,0,1-.58-.53.71.71,0,0,1-.11-.34v0s0,0,.15,0H46l.26,0h0a.54.54,0,0,0,.41-.15l.2,0a.35.35,0,0,0,.06.18.94.94,0,0,0,.46.3,1.23,1.23,0,0,0,.39.07h.13a.09.09,0,0,0,.05,0,.76.76,0,0,0,0-.11h.07a.05.05,0,0,0,0-.08L48,19.93h0a.07.07,0,0,0,0-.05l-.06-.07a3,3,0,0,1-.23-.27l0-.05a.52.52,0,0,0,.11-.1l0,0h0a0,0,0,0,0,0,0,.05.05,0,0,0,0,0h0a3,3,0,0,1,.76-.26,2.53,2.53,0,0,1,.46,0l.31,0a5.8,5.8,0,0,1,.6.13l.2.05.25.09a1.39,1.39,0,0,0,.52.14h0s0,0,0,0,0,0,0,0,0-.05,0-.06l-.11,0,.23.07.09,0a.88.88,0,0,1-.1.22c-.07.1-.15.19-.22.28l-.06.08h0a0,0,0,0,0,0,0h0a.86.86,0,0,0-.07.1,0,0,0,0,0,0,.07l0,0,0,0a.54.54,0,0,0,0,.11l0,0H51a1.3,1.3,0,0,0,.41-.08,1,1,0,0,0,.46-.31.37.37,0,0,0,0-.18h0l.11,0,0,0h0A.06.06,0,0,0,52,20a1.38,1.38,0,0,0,.54.18l.15,0a1.4,1.4,0,0,1,.31.09l.06,0,0,0h0s0,0,0,.06a.92.92,0,0,1-.22.22.79.79,0,0,1-.27.15,2.31,2.31,0,0,1-.47.12l-.19,0-.17,0,.13,0h0l.07,0a1.92,1.92,0,0,0,.27-.11.75.75,0,0,0,.31-.26,0,0,0,0,0,0-.06l0,0h0l-.26.05a4,4,0,0,0-.44.11,1.35,1.35,0,0,0-.36.21.55.55,0,0,0-.18.4l0,0,0,0a1.27,1.27,0,0,0-.2.33,1.89,1.89,0,0,0-.13.35c-.06.19-.11.38-.15.56a4.6,4.6,0,0,1-.23.77,2.62,2.62,0,0,1-.73,1.09l-.26.2a.42.42,0,0,1-.24.09c-.17,0-.34-.17-.45-.31a4.52,4.52,0,0,1-.59-1.21,3.8,3.8,0,0,1-.15-.58,3,3,0,0,0-.22-.77.05.05,0,0,0,0,0h0a.05.05,0,0,0,0,.07,2.62,2.62,0,0,1,.14.74,5.37,5.37,0,0,0,.11.64,4.64,4.64,0,0,0,.59,1.31l0,.08a1.38,1.38,0,0,0,.21.21.73.73,0,0,0,.41.16h0a.65.65,0,0,0,.39-.15,1.48,1.48,0,0,0,.29-.22,2.56,2.56,0,0,0,.53-.6.67.67,0,0,1,.23.26,2.15,2.15,0,0,1,.19.56l.06.24v.06a1.28,1.28,0,0,0,.11.31l0,.07a1.47,1.47,0,0,1,.14.47.38.38,0,0,1,0,.21.28.28,0,0,1-.15.13,1.5,1.5,0,0,1-.39.08l-.18,0a.61.61,0,0,0-.17,0l-.17.07-.18.11-.09.06a.62.62,0,0,1-.22.1H49.6a.23.23,0,0,1-.11,0,1.16,1.16,0,0,1-.32-.18L49,26.53a1.59,1.59,0,0,0-.63-.24l-.45,0h-.24a2.11,2.11,0,0,1-.52,0,.34.34,0,0,1-.18-.09A.26.26,0,0,1,47,25.94Zm3.71-2-.06,0v0ZM41,30.44a.49.49,0,0,0,.31-.11.44.44,0,0,0-.08.11l-.06.07h0l0,0,0,0a1.77,1.77,0,0,1-.46.28l-.07,0-.15.08A3.87,3.87,0,0,0,41,30.44Zm-3,2.47a.48.48,0,0,1,.18-.16.59.59,0,0,1,.2-.07h.06a.47.47,0,0,0,.35-.29l0-.11a.44.44,0,0,1,0-.13A.42.42,0,0,1,39,32l.18,0a1,1,0,0,0,.48-.17,1.93,1.93,0,0,0,.35-.35l.11-.13a1.71,1.71,0,0,1,.51-.4,2.86,2.86,0,0,0,.42-.29,1.28,1.28,0,0,0-.15.52,2.08,2.08,0,0,0,.1.64,2.72,2.72,0,0,0,.61,1.07,3.54,3.54,0,0,0,.66.51,3.53,3.53,0,0,1,.32.21h0l0,0a.06.06,0,0,0,0-.06v0l-.35-.29a2.45,2.45,0,0,1-.53-.48,2.61,2.61,0,0,1-.51-1,1.72,1.72,0,0,1-.06-.54,1,1,0,0,1,.17-.48,3.64,3.64,0,0,1,.82-.79,9.69,9.69,0,0,1,.94-.69,3.24,3.24,0,0,1,1-.44,7,7,0,0,1,.91-.1h.26a3.5,3.5,0,0,0,1.19-.26.06.06,0,0,0,0-.1l.17-.1s0,0,.12-.14a.33.33,0,0,0,.1.11.3.3,0,0,0,.16.05.27.27,0,0,0,.12,0,.25.25,0,0,0,.14-.15.84.84,0,0,0,0-.12,1.89,1.89,0,0,0,0-.41v-.05a1.75,1.75,0,0,1,.16-.73.54.54,0,0,1,.14-.18,5.74,5.74,0,0,1,.6,0,1.1,1.1,0,0,1,.5.2l.14.1a1.64,1.64,0,0,0,.41.24.59.59,0,0,0,.2,0h.19a1.3,1.3,0,0,0,.34-.15L50.2,27l.16-.1.1-.05.13,0,.17,0h.09a.48.48,0,0,1,.08.16.42.42,0,0,1,0,.1l0,0a0,0,0,0,0,0,0h0a0,0,0,0,0,0,.06,1.11,1.11,0,0,1,.1.59,2.38,2.38,0,0,1-.05.26c0,.13,0,.25-.06.39h0a.17.17,0,0,0,0,.12,2.09,2.09,0,0,1-.16.57,3.89,3.89,0,0,1-.34.63,3.44,3.44,0,0,1-.43.55,1.19,1.19,0,0,1-.52.36,1.05,1.05,0,0,1-.24,0,.74.74,0,0,1-.36-.08,2,2,0,0,1-.32-.28l-.2-.19-.21-.17a3.39,3.39,0,0,1-.34-.31,1.74,1.74,0,0,1-.38-.59.05.05,0,0,0,0,0h0a.06.06,0,0,0,0,.07,1.71,1.71,0,0,0,.31.7c.11.13.23.24.34.35l.18.19.13.14a2,2,0,0,0,.43.39,1,1,0,0,0,.42.13h.3l.12,0a1.6,1.6,0,0,0,.68-.47,2.82,2.82,0,0,0,.29-.39l.06-.11a1.53,1.53,0,0,0,.07.51.05.05,0,0,0,0,0h0a1,1,0,0,0,.12.41l0,0,.08.16.1.21a.78.78,0,0,1,.05.14l0,.09a1.74,1.74,0,0,1,.08.6,3,3,0,0,1-.14.83,3.52,3.52,0,0,1-.15.42c-.05.13-.1.26-.14.4a2.83,2.83,0,0,0-.11.44,2.42,2.42,0,0,0,0,.25l0,.19a5.22,5.22,0,0,1-.18.83c0,.13-.08.26-.11.39a10.94,10.94,0,0,0-.35,1.31c0,.27-.09.55-.12.88a3.08,3.08,0,0,0,0,.91,1.83,1.83,0,0,0,.12.46,1.49,1.49,0,0,1,.13.39,3.88,3.88,0,0,1,.07.83v.08a7,7,0,0,1,0,.79l0,.34c0,.17,0,.35-.05.53s0,.14,0,.21a1.55,1.55,0,0,1,0,.22v.09a1.14,1.14,0,0,0,0,.37h0a.36.36,0,0,0,0,.11.33.33,0,0,0,.05.12.74.74,0,0,0,.15.19.43.43,0,0,1,.16.32h-.12a2.2,2.2,0,0,0-1.22.38h0a.35.35,0,0,1-.06-.16s0,0,0-.05a1,1,0,0,1,0-.24h0s0-.07,0-.1a.34.34,0,0,1,0-.1.69.69,0,0,1,0-.13,1.45,1.45,0,0,0,0-.3v0a4.61,4.61,0,0,0-.15-.53l0-.1L48.52,42v0a6.73,6.73,0,0,1-.27-1.18,6.53,6.53,0,0,1,0-1.17V39.5a5.73,5.73,0,0,0,0-1.3l-.06-.36c0-.31-.1-.6-.13-.89a4,4,0,0,1,0-.61c0-.15.06-.29.09-.44a1.16,1.16,0,0,1,0-.18c0-.21.08-.42.1-.64a1.23,1.23,0,0,0-.1-.66s0,0,0,0h0l0,0a.35.35,0,0,0-.14-.22h0l-.09,0-.13,0,.08-.12h0l.1-.18a2.91,2.91,0,0,1,.32-.46s0,0,0-.07l0,0h0a2.07,2.07,0,0,0-.57.53l0,0a2,2,0,0,1-.52.49,2.92,2.92,0,0,1-1.39.49,0,0,0,0,0,0,.05.05.05,0,0,0,0,.06h0l.16,0-.24,0h0c-.14,0-.1-.09-.21,0l.36-.87.11-.25a.05.05,0,0,0,0-.07h0a.05.05,0,0,0-.05,0c-.15.27-.28.54-.42.81l-.24.48h0c-.21.42-.43.86-.67,1.27-.13.23-.24.43-.36.62a1.78,1.78,0,0,0-.21.52.19.19,0,0,0,0,.07.76.76,0,0,0,0,.11h0a1.11,1.11,0,0,1-.07.16,1.26,1.26,0,0,0-.07.16,1.12,1.12,0,0,0-.09.39c0,.12,0,.24,0,.34a2.3,2.3,0,0,1,0,.38,5.86,5.86,0,0,1-.34,1.36,6.14,6.14,0,0,0-.43,1.4c0,.25-.07.49-.1.72s0,.24,0,.35,0,.25-.05.37a1.3,1.3,0,0,0,0,.39.64.64,0,0,0,.09.21.87.87,0,0,0,.15.13c.16.09.2.26.25.44s0,.1,0,.15h0a2.48,2.48,0,0,0-.36.28,2.25,2.25,0,0,0-.4.52h-.06v0h0a.29.29,0,0,1,0,.08l-.08.05a.28.28,0,0,1-.13,0l-.05-.1,0,0,0-.06a.08.08,0,0,0-.07-.05h0l-.08,0a.06.06,0,0,1-.06,0,.46.46,0,0,1-.08-.21v0a.11.11,0,0,0-.09-.05h0l-.08,0h0a.23.23,0,0,1-.08-.12,1.13,1.13,0,0,1-.08-.4,2,2,0,0,1,0-.42,1.37,1.37,0,0,1,.1-.4,1.8,1.8,0,0,1,.08-.21,2.8,2.8,0,0,0,.19-.66c0-.26,0-.53.05-.78V41.9A11.22,11.22,0,0,1,42,38.59c0-.11.07-.21.1-.32s.16-.5.23-.75c0,0,0-.05,0-.08,0-.19.09-.37.13-.57s.06-.49.08-.73V36c0-.35,0-.62.09-.87a8.26,8.26,0,0,1,.15-.86c0-.18.12-.37.19-.56l0-.08.07-.18.31-.82,0-.07a3.45,3.45,0,0,0,.24-.79s0-.05,0-.06h0a.07.07,0,0,0-.06,0,2.66,2.66,0,0,1-.26.68l-.05.13-.36.81c0,.07-.06.15-.1.23a.69.69,0,0,1,0,.13c-.06.15-.12.31-.17.48a6.35,6.35,0,0,0-.19.88c-.05.26-.08.54-.12.88v.14l-.1,0a.48.48,0,0,1-.27-.09,1.75,1.75,0,0,1-.44-.42l-.13-.15c-.09-.11-.19-.23-.3-.34a1.06,1.06,0,0,0-.31-.21,1.65,1.65,0,0,0-.32-.1l-.21,0a2.62,2.62,0,0,1-.4-.11,2,2,0,0,1-.5-.31l-.5-.41,0,0a5.54,5.54,0,0,1-.45-.37,1.06,1.06,0,0,1-.33-.43A.19.19,0,0,1,38,32.91Zm-2,3.48a10.43,10.43,0,0,1,.45-1.17c0-.09.06-.34.1-.49a0,0,0,0,0,0,0,.46.46,0,0,1,.05-.1.14.14,0,0,1,.16,0h0A.62.62,0,0,0,37,35a2.34,2.34,0,0,0,.78.27l.11,0a2.63,2.63,0,0,1,.5.14l.05,0a1.21,1.21,0,0,1,0,.19h0a.07.07,0,0,0-.05,0,.08.08,0,0,0,0,0,1,1,0,0,1-.17.24l-.09.12a.85.85,0,0,0-.13.27.65.65,0,0,0,0,.31.16.16,0,0,0,.16.14.53.53,0,0,0,.42-.26.79.79,0,0,0,.13-.39,1.27,1.27,0,0,0,0-.39.7.7,0,0,0-.06-.23l.07,0c.17.1.33.21.5.33l.16.12,0,0a5.91,5.91,0,0,0,.69.46h0l.1.06.62.28h0l.09.05c0,.16,0,.33,0,.5v.39a.82.82,0,0,1-.05.25h0a.24.24,0,0,1,0-.16,1.17,1.17,0,0,1,0-.26,1.84,1.84,0,0,0,0-.41,0,0,0,0,0,0,0h0l0,0a1.47,1.47,0,0,1-.1.22,1.81,1.81,0,0,0-.15.43,1,1,0,0,0,0,.2.4.4,0,0,0,.12.26l.07,0,0,0h0l.13,0h0a.32.32,0,0,0,.26-.17.91.91,0,0,0,.09-.4,2.8,2.8,0,0,0,0-.36A2.21,2.21,0,0,0,41.1,37a6.56,6.56,0,0,1,.7.36h.05l0,0a0,0,0,0,0,0,0v0a5,5,0,0,0-.76-.51l-.25-.13-.53-.3a4.72,4.72,0,0,1-.7-.5,7.35,7.35,0,0,0-.76-.54,2.83,2.83,0,0,0-.9-.31,3,3,0,0,1-.81-.22.38.38,0,0,1-.22-.24.38.38,0,0,1,.11-.31l.11-.15a1.12,1.12,0,0,0,.16-.22.56.56,0,0,0,.11-.48s0,0,0,0h0a.19.19,0,0,1,0-.07.53.53,0,0,1,.24-.34l0,.13a.55.55,0,0,0,0,.18,1.45,1.45,0,0,0,.41.59c.14.12.28.22.41.32l.11.09.51.4a2.8,2.8,0,0,0,.58.35,3,3,0,0,0,.54.13l.11,0a1,1,0,0,1,.52.22,3,3,0,0,1,.31.31l.13.14a2.22,2.22,0,0,0,.53.43.71.71,0,0,0,.31.08h0l.09,0a5.4,5.4,0,0,1-.08.58c0,.16-.07.32-.11.48l0,.1c-.07.25-.15.51-.24.77,0,.11-.07.21-.1.32a7.94,7.94,0,0,0-.24.87,7.08,7.08,0,0,0-.13.89c-.06.6-.08,1.2-.09,1.78,0,.12,0,.24,0,.36s0,.35,0,.52a2.9,2.9,0,0,1-.16.59c0,.07,0,.14-.08.22a2.18,2.18,0,0,0-.09.46,2.43,2.43,0,0,0,0,.46,1.54,1.54,0,0,0,.11.46.55.55,0,0,0,.19.22l.13,0h.06a.66.66,0,0,0,.1.18.27.27,0,0,0,.19.08h.1l0,0,0,0a.14.14,0,0,1,0,.09.07.07,0,0,0,.07.06h0a.56.56,0,0,0,.23,0l0,0a2.11,2.11,0,0,0-.15.83,2.18,2.18,0,0,0,.42,1.25h-.06a1.68,1.68,0,0,0-.43,0h-.56a1.42,1.42,0,0,0-.44.14,1.19,1.19,0,0,1-.32,0h0a2.46,2.46,0,0,1-.86-.2l-.48-.21-.4-.17-.24-.09-.21-.08-.06,0v0a1.41,1.41,0,0,1,0-.2,9.34,9.34,0,0,0,.1-1c0-.53,0-1.22,0-1.93a14.32,14.32,0,0,0-.23-1.94,8.74,8.74,0,0,0-.53-1.88c0-.06,0-.12-.08-.19a6.4,6.4,0,0,1-.27-.68,2,2,0,0,1-.1-.45,3.16,3.16,0,0,1,0-.32s0-.1,0-.16a4.22,4.22,0,0,1,0-.94,1.41,1.41,0,0,1,.11-.44.67.67,0,0,0,0-.52.05.05,0,0,0,0,0h0a.06.06,0,0,0,0,.07.57.57,0,0,1-.06.42,1.75,1.75,0,0,0-.15.48,4.6,4.6,0,0,0-.05,1v.08c0,.13,0,.27,0,.4a3.31,3.31,0,0,0,.09.5,7.43,7.43,0,0,0,.26.71c0,.07,0,.14.08.2a10.08,10.08,0,0,1,.48,1.83,12.44,12.44,0,0,1,.2,1.89c0,.55,0,1.14,0,1.91a2,2,0,0,0,0,.23v.06h0a.06.06,0,0,0,0-.07L38,46.12a8.75,8.75,0,0,1-1.17-.76l-.62-.45a.6.6,0,0,1-.25-.55,2.66,2.66,0,0,1,.11-.47l.06-.26a4.49,4.49,0,0,0,.1-.71v-.08a13.23,13.23,0,0,0,0-1.56c0-.52-.07-1-.11-1.54s-.09-1-.12-1.54a6,6,0,0,1,.09-1.5,2.3,2.3,0,0,1,.23-.65,2.56,2.56,0,0,0,.26-.81.07.07,0,0,0,0-.06h0a0,0,0,0,0,0,0,2.5,2.5,0,0,1-.3.72,4.94,4.94,0,0,0-.26.57S35.91,36.44,35.92,36.39Z"/><path class="cls-2" d="M47.73,20.88v0a.08.08,0,0,1,0,0,.09.09,0,0,0-.06-.1h0l-.37-.08-.46-.1a2.22,2.22,0,0,1-.74-.32s0,0,0,0l0,0a0,0,0,0,0,0,.06.77.77,0,0,0,.31.37,1.17,1.17,0,0,0,.42.2,1.8,1.8,0,0,0,.45.09h.4l0,0,0,0s0,0,0,0l0,0h0a.07.07,0,0,0,0-.06Z"/><path class="cls-2" d="M49,23.86a.73.73,0,0,0,.28.19h.06a.21.21,0,0,0,.11,0,1.19,1.19,0,0,0,.15-.18,1,1,0,0,0,.1-.21v0a.11.11,0,0,0-.08-.14h0a.84.84,0,0,0-.18,0h0l-.12-.05a.5.5,0,0,0-.17,0h-.06a.14.14,0,0,0-.11.09v0a.32.32,0,0,0,0,.2A.38.38,0,0,0,49,23.86Zm.24-.26h.14l0,0-.08.09a.28.28,0,0,1-.08-.06l0,0Z"/><path class="cls-2" d="M48,21.43h.18a.52.52,0,0,1,.16.06l.05,0h0s0,0,0,.06a.29.29,0,0,0,.17.17h.08a.47.47,0,0,0,.17,0,.14.14,0,0,0,.07-.13h0a.4.4,0,0,0-.17-.29.54.54,0,0,0-.24-.1.39.39,0,0,0-.15,0h-.1a.3.3,0,0,0-.24.16s0,0,0,.05S47.94,21.43,48,21.43Z"/><path class="cls-2" d="M50.14,21.89h0a.3.3,0,0,0,.29-.19v0a.06.06,0,0,0,0-.06H50.3l.06,0h.1a.75.75,0,0,0,.23-.07.06.06,0,0,0,0-.1.67.67,0,0,0-.29-.1h-.11a.37.37,0,0,0-.27.11h0a.31.31,0,0,0-.08.22.23.23,0,0,0,.08.18A.25.25,0,0,0,50.14,21.89Z"/><path class="cls-2" d="M49.75,25.71l.15,0H50a1.84,1.84,0,0,0,.39-.1l.3-.12,0,0,0,0,.08,0s0,0,0,.06a0,0,0,0,0,.05,0h0s0,0,0,0a.18.18,0,0,0,0-.13.17.17,0,0,0-.11-.14.41.41,0,0,0-.16,0h-.09a1.89,1.89,0,0,0-.36.1h0l-.34.13h0a.77.77,0,0,1-.19.05h-.09s0,0-.05,0a.06.06,0,0,0,0,.06A.32.32,0,0,0,49.75,25.71Z"/><path class="cls-2" d="M47.51,25.42h.09a.69.69,0,0,1,.43.12,1.93,1.93,0,0,1,.31.27l.12.12a2,2,0,0,0,.53.4,1.18,1.18,0,0,0,.5.11h.16s0,0,.05-.06a.07.07,0,0,0,0-.05,2.28,2.28,0,0,1-.53-.24,3.16,3.16,0,0,1-.44-.39l-.08-.07a1.49,1.49,0,0,0-.44-.33.64.64,0,0,0-.31-.07h0a.91.91,0,0,0-.33.1.07.07,0,0,0,0,.06.05.05,0,0,0,.06,0Z"/><path class="cls-2" d="M47.82,24.4h0a.12.12,0,0,0,.08,0h0l.06,0h0l0,0a.08.08,0,0,0,0,0,.65.65,0,0,0,.15.12.34.34,0,0,0,.17.05.27.27,0,0,0,.15-.05.05.05,0,0,0,0,0,.08.08,0,0,0,0,0,.36.36,0,0,1-.14-.13h0a.86.86,0,0,0-.13-.17l-.14-.09H48a.21.21,0,0,0-.12,0,.13.13,0,0,0-.07.09h0a.05.05,0,0,0,0,0,0,0,0,0,0,0,.05h0A.11.11,0,0,0,47.82,24.4Z"/><path class="cls-2" d="M48.5,27.77l.13,0,0,0,0,0s0,0,0,0a.05.05,0,0,0,0,.05.38.38,0,0,0,.17.05h.06a.31.31,0,0,0,.15-.08.62.62,0,0,0,.08-.12.16.16,0,0,0-.07-.2h0l-.17-.07-.17,0h0a.56.56,0,0,0-.35.11.08.08,0,0,0,0,.05s0,0,0,0Z"/><path class="cls-2" d="M50.19,28.08a.27.27,0,0,0,.17.07h0l.05,0a0,0,0,0,0,0-.05.64.64,0,0,0,0-.07v0h0l.09,0h.12l0,0s0,0,0,0a.33.33,0,0,0-.24-.19h-.08a.34.34,0,0,0-.25.11l0,0a.14.14,0,0,0,0,.18A.4.4,0,0,0,50.19,28.08Z"/><path class="cls-2" d="M49.67,29.22h.13a.1.1,0,0,0,.09-.07v0A1.27,1.27,0,0,0,50,28.7c0-.07,0-.15,0-.2v0a.83.83,0,0,0,0-.18s0,0,0,0h-.05c0,.06,0,.1,0,.19a1.11,1.11,0,0,0,0,.26c0,.12-.13.23-.09.36a.09.09,0,0,0,0,.05v0a.07.07,0,0,0,0,.05.05.05,0,0,0,.05,0Z"/><path class="cls-2" d="M49.05,29.56a0,0,0,0,0,0,.05s0,0,0,0l.1,0,.13,0,.13,0a.05.05,0,0,0,0,0h-.06a.05.05,0,0,0-.05,0,.17.17,0,0,0,0,.18.19.19,0,0,0,.16.09h0a.21.21,0,0,0,.15-.1.18.18,0,0,0,0-.16,0,0,0,0,0,0,0l-.11,0h.1a.75.75,0,0,0,.24,0,.36.36,0,0,0,.26-.16,0,0,0,0,0,0,0,.06.06,0,0,0-.06-.06h-.14l-.09,0-.24,0h-.25l-.13,0h0A.16.16,0,0,0,49.05,29.56Z"/><path class="cls-2" d="M48.32,32.29a.74.74,0,0,0,.42-.17,1.06,1.06,0,0,0,.25-.34,1.65,1.65,0,0,0,.09-.21l.06-.13a1.92,1.92,0,0,1,.18-.31,0,0,0,0,0,0-.06s0,0,0,0h0a.65.65,0,0,0-.37.25,1,1,0,0,0-.18.3l0,0a1.77,1.77,0,0,1-.16.3,2,2,0,0,1-.25.26.06.06,0,0,0,0,.06.05.05,0,0,0,.05,0Z"/><path class="cls-2" d="M48,34a0,0,0,0,0,0,.07.05.05,0,0,0,.05,0h0l.09,0a2.4,2.4,0,0,0,1.1-.85,1.52,1.52,0,0,0,.19-.34c0-.12.09-.23.13-.34l0-.06a1.19,1.19,0,0,1,.3-.51.06.06,0,0,0,0-.07.05.05,0,0,0-.05,0h0a1,1,0,0,0-.52.55,1.74,1.74,0,0,0-.1.19,2.06,2.06,0,0,1-.23.41A4.75,4.75,0,0,1,48,34,0,0,0,0,1,48,34Z"/><path class="cls-2" d="M44.36,30.12A2,2,0,0,1,45,30h0a1.14,1.14,0,0,1,.57.19,1.32,1.32,0,0,1,.4.44,1.86,1.86,0,0,1,.22.59s0,0,.06,0h0a.07.07,0,0,0,.06,0,1.21,1.21,0,0,0-.52-1.29,1.16,1.16,0,0,0-.68-.21H45a1.23,1.23,0,0,0-.72.33s0,0,0,.07l.05,0Z"/><path class="cls-2" d="M40.23,34.24a1.35,1.35,0,0,0-.29,0,.07.07,0,0,0,0,.06.05.05,0,0,0,.05,0,1.74,1.74,0,0,1,.57.19,2.07,2.07,0,0,1,.49.34l.33.3a5.46,5.46,0,0,0,.64.53h.07a.06.06,0,0,0,0-.07,4.9,4.9,0,0,0-.83-1,1.64,1.64,0,0,0-.6-.35A1.14,1.14,0,0,0,40.23,34.24Z"/><path class="cls-2" d="M39.27,33.24a1.77,1.77,0,0,0,.75.33h0a.05.05,0,0,0,0,0,.06.06,0,0,0,0-.07,4.84,4.84,0,0,0-.5-.42l-.1-.07c-.11-.08-.2-.16-.28-.23h0c-.08-.08-.13-.14-.11-.23s0,0,0-.06H39a.27.27,0,0,0-.11.25.5.5,0,0,0,.09.23A1.11,1.11,0,0,0,39.27,33.24Z"/><path class="cls-2" d="M40.26,32.66a1.31,1.31,0,0,0,.33.27.69.69,0,0,0,.35.1H41s0,0,0-.05a.05.05,0,0,0,0,0,1.69,1.69,0,0,1-.29-.22l-.25-.26-.23-.28-.22-.32a.05.05,0,0,0-.05,0h0a.12.12,0,0,0,0,.05.94.94,0,0,0,.08.44A1.21,1.21,0,0,0,40.26,32.66Z"/><path class="cls-2" d="M36.88,41.08a1.93,1.93,0,0,1,0,.26c0,.17,0,.35,0,.52v1c0,.11,0,.22,0,.34A15.24,15.24,0,0,0,37,45a.06.06,0,0,0,.06,0h0a.05.05,0,0,0,.05,0,16.1,16.1,0,0,0,.18-2.11,8.41,8.41,0,0,0-.05-1.07,3.4,3.4,0,0,0-.08-.53,1.2,1.2,0,0,0-.07-.26v0a.44.44,0,0,0-.12-.22h-.08a.06.06,0,0,0,0,.08.38.38,0,0,1,0,.16S36.88,41.06,36.88,41.08Z"/><path class="cls-2" d="M40.19,50.28h0a3,3,0,0,1-.63.09h0l-.25,0a1.58,1.58,0,0,1-.31-.09h0s0,0,0,0a.46.46,0,0,0,.13.16l0,0,.11.08a.78.78,0,0,0,.37.09.91.91,0,0,0,.36-.09l.14-.09a.44.44,0,0,0,.14-.13v0s0,0,0,0A0,0,0,0,0,40.19,50.28Z"/><path class="cls-2" d="M48.13,49.82h0a1.86,1.86,0,0,1-.38.12,1.43,1.43,0,0,1-.29,0h-.08l-.4,0-.42,0h0l0,0s0,0,0,0l.16.1.23.11a1.23,1.23,0,0,0,.44.1h0l.2,0,.07,0,.06,0a.32.32,0,0,0,.09,0A.71.71,0,0,0,48,50a.53.53,0,0,0,.12-.14,0,0,0,0,0,0,0Z"/><path class="cls-2" d="M45.61,46.57a.2.2,0,0,0-.16-.07h0a.39.39,0,0,0-.18.07v0a2.09,2.09,0,0,0-.21.23l-.1.13a1,1,0,0,1-.65.39h-.06l-.09,0-.2-.1,0,0L43.53,47a2,2,0,0,0-.45-.16l-.12,0a.25.25,0,0,0-.17.06.32.32,0,0,0,0,.28.07.07,0,0,0,.06,0h0a2.15,2.15,0,0,0,.48.6,1.43,1.43,0,0,0,.88.35h0a1.92,1.92,0,0,0,.92-.3,1.4,1.4,0,0,0,.38-.34.84.84,0,0,0,.19-.53.74.74,0,0,0-.06-.27A.17.17,0,0,0,45.61,46.57Z"/><path class="cls-2" d="M49.94,46.54l-.35-.18a2.14,2.14,0,0,0-.44-.16H49a.25.25,0,0,0-.17.06.27.27,0,0,0,0,.27s0,0,.05,0h0a2.2,2.2,0,0,0,.48.61,1.41,1.41,0,0,0,.88.34h0a2.05,2.05,0,0,0,.92-.31,1.4,1.4,0,0,0,.38-.34.82.82,0,0,0,.19-.52.83.83,0,0,0-.06-.28.21.21,0,0,0-.06-.1.24.24,0,0,0-.16-.07h0a.3.3,0,0,0-.18.08h0a2.09,2.09,0,0,0-.21.23l-.11.13a.89.89,0,0,1-.64.39h-.06l-.09,0-.2-.11Z"/><path class="cls-2" d="M39.83,38.06a.27.27,0,0,0,.16.06h.14a.58.58,0,0,0,.25-.12.44.44,0,0,0,.16-.26,1,1,0,0,0,0-.25,1.49,1.49,0,0,0-.15-.4,2.6,2.6,0,0,0-.31-.5h0c0-.05-.09-.11-.14-.17a.05.05,0,0,0,0,0h0a0,0,0,0,0,0,.06,3.42,3.42,0,0,0,.13.34.79.79,0,0,0-.24.35,1.36,1.36,0,0,0-.1.41.9.9,0,0,0,0,.24A.38.38,0,0,0,39.83,38.06Zm.12-.84a1.82,1.82,0,0,1,.08-.29c0,.09.07.18.1.27a1.21,1.21,0,0,1,.09.34.22.22,0,0,1,0,.2.25.25,0,0,1-.14.06h0a.37.37,0,0,1-.06-.22A1.4,1.4,0,0,1,40,37.22Z"/><path class="cls-2" d="M38.78,37.39a.42.42,0,0,0,.08.12.24.24,0,0,0,.19.08h0a.28.28,0,0,0,.22-.16l0,0a.88.88,0,0,0,.09-.2,1.15,1.15,0,0,0,.07-.39,1,1,0,0,0-.13-.63.76.76,0,0,0-.08-.11H39.2s0,0,0,0h0s0,0-.05,0h0a0,0,0,0,0,0,0,1.57,1.57,0,0,1-.16.46l-.09.17a1,1,0,0,0-.1.4.51.51,0,0,0,0,.13A.49.49,0,0,0,38.78,37.39Zm.31-.53a.51.51,0,0,0,0-.09,1.23,1.23,0,0,0,.08-.6,1.09,1.09,0,0,1,0,.62,1.71,1.71,0,0,1-.09.3.61.61,0,0,1,0,.12v0a.13.13,0,0,0,0-.06A.74.74,0,0,1,39.09,36.86Z"/><path class="cls-2" d="M33.49,70.83c.14.12.29.17.42.28a.4.4,0,0,1,.13.13,3.27,3.27,0,0,1,.39.58,2.87,2.87,0,0,1,.36,1.24l.29-.1h.09a1.52,1.52,0,0,1,.2.06,1.76,1.76,0,0,0,.39.06A.67.67,0,0,0,36,73c0-.39.46-.39.56-.69s-.31-.36-.31-.66.63-.48.54-.81-.6-.18-.44-.55c.1-.22.46-.28.32-.53s-.49-.15-.56-.35.28-.44.33-.65-.13-.32-.36-.44c-.78-.4.41-.6-.14-1-.15-.12-.59-.19-.43-.4s.46,0,.49-.31c-.54-.25-1.26-1.1-1.89-1.07a.77.77,0,0,0-.57.39c-.11.17-.28.34-.38.53a1.46,1.46,0,0,0-.07.19,3,3,0,0,1-.05.6c-.07.22-.17.33-.15.56a1.32,1.32,0,0,1,0,.52c-.06.19-.26.5-.24.7s.26.43.32.61C33.07,70.12,33.07,70.5,33.49,70.83Z"/><path class="cls-2" d="M28.91,69.17a2.63,2.63,0,0,1,.46.16.88.88,0,0,1,.37.45.35.35,0,0,1-.15,0h-.12a.91.91,0,0,0-.75.11.52.52,0,0,0-.16.43c0,.32.33.56.6.75l.13.09a.69.69,0,0,0,.12.1c.73.55.91.8.94.9h-.08a.62.62,0,0,0-.49.11.55.55,0,0,0-.17.43.84.84,0,0,0,.51.71,1.24,1.24,0,0,1,.23.17.53.53,0,0,1,.08.14.26.26,0,0,1-.07.1l-.12.16a.63.63,0,0,0,0,.78.81.81,0,0,1,.11.27.27.27,0,0,0,.27.24h0a.28.28,0,0,0,.24-.31,1.15,1.15,0,0,0-.18-.48.34.34,0,0,1-.05-.11s0,0,0-.07l.09-.13a.62.62,0,0,0,0-.91,1.08,1.08,0,0,0-.39-.32c-.14-.09-.25-.17-.25-.22h.06a.6.6,0,0,0,.54-.13.52.52,0,0,0,.16-.41c0-.4-.49-.83-1.17-1.35l-.11-.09-.16-.12a2,2,0,0,1-.37-.3,1.27,1.27,0,0,1,.28,0l.14,0c.53,0,.7-.21.75-.36.12-.38-.22-.88-.62-1.12a2.59,2.59,0,0,0-.6-.23c-.3-.08-.75-.21-.79-.39a.28.28,0,0,0-.33-.21.27.27,0,0,0-.21.33C27.84,68.86,28.43,69,28.91,69.17Z"/><path class="cls-2" d="M28,71.29a1.45,1.45,0,0,0-1.3.53.28.28,0,0,0,.46.32,1,1,0,0,1,.8-.3.85.85,0,0,1,.69.35.58.58,0,0,1,.05.13.58.58,0,0,1-.32,0,.67.67,0,0,1-.42-.24.29.29,0,0,0-.38-.12.28.28,0,0,0-.11.38,1.3,1.3,0,0,0,1.06.56h.06a.6.6,0,0,0,.55-1A1.34,1.34,0,0,0,28,71.29Z"/><path class="cls-2" d="M14.1,83.11a17.53,17.53,0,0,0,3,5.58c.55.65.95.88,1.46.88a3.7,3.7,0,0,0,.75-.1l.49-.09a2.29,2.29,0,0,1,.39,0A8.5,8.5,0,0,1,24.52,91a6.79,6.79,0,0,1,1.29,1.58,4.25,4.25,0,0,0,2.33,2.14,2.78,2.78,0,0,0,.62.08c1.23,0,1.86-1,2.42-1.81.12-.18.24-.37.37-.54L31.9,92a12.55,12.55,0,0,0,1.74-2.86c.08-.18.15-.36.22-.53a11.27,11.27,0,0,1,1.4-2.77,5.24,5.24,0,0,0,.63-1.44,3.92,3.92,0,0,1,.65-1.41,2,2,0,0,1,.92-.49,3.71,3.71,0,0,0,1.13-.51,5.56,5.56,0,0,0,1.46-3.44,2.51,2.51,0,0,0-.57-2l0,0a1.23,1.23,0,0,1-.35-.47c0-.06,0-.35-.06-.53s0-.43,0-.51a2.31,2.31,0,0,1,.2-1.32l0-.14a9.65,9.65,0,0,0,.66-3,9,9,0,0,0,1.57.12,5.23,5.23,0,0,0,3.8-1.25c.32-.31.54-.57.54-.88s-.25-.57-.59-.89l-.11-.1a10.51,10.51,0,0,0-1.32-1.12,11.84,11.84,0,0,0-6.65-2.15,7.07,7.07,0,0,1-2.49-.68,7.15,7.15,0,0,0-2.93-.74,5.94,5.94,0,0,0-.72,0,20.24,20.24,0,0,0-3.63.79l-.42.16a1.81,1.81,0,0,1-1.78,0,2.58,2.58,0,0,0-.92-.16,6.23,6.23,0,0,0-2.55.77c-.27.13-.53.24-.78.34a6.88,6.88,0,0,1-1.32.33A3.9,3.9,0,0,0,17,66.21a6.72,6.72,0,0,0-1,2.26,9.49,9.49,0,0,1-.53,1.45,12.83,12.83,0,0,1-1.07,1.64A9.59,9.59,0,0,0,13,73.91c-1.07,2.93-.09,5.77.85,8.53C14,82.66,14,82.89,14.1,83.11ZM34,85.76a24.11,24.11,0,0,1-1.28,2.39c-1,1.26-3.39,2.14-4.83,1.28-.84-.5-.67-1.45-1.13-2.23S25.56,86,25.42,85s-.05-1.63-.85-2.32S23,81.9,22.63,80.91c-.49-1.37.19-2.38.78-3.57a1.42,1.42,0,0,0-.18-1.88c-.25-.26-1-.65-1-1.07s.39-.21.65,0a21.57,21.57,0,0,1,1.58,1.74c.86.89,2.59,2.13,3.4,3.05.56.63-.2,1.06.58,1.76s1.1.12,1.65.47a9.25,9.25,0,0,0,2.45,1.38c.56.13,1.53-.14,2,.29C35.16,83.66,34.32,85.18,34,85.76Zm-4.85-7.69a.21.21,0,0,1,.05.31.22.22,0,0,1-.18.1.24.24,0,0,1-.13,0c-4.95-3.53-4.63-5.56-4.62-5.64a.23.23,0,0,1,.26-.18.23.23,0,0,1,.18.26S24.5,74.76,29.13,78.07Zm.27,1.14.09.06c.58.11.56,1.48-.28,1.22a.68.68,0,0,1-.45-.81.6.6,0,0,1,.22-.43C29.13,79.15,29.28,79.25,29.4,79.21Zm5.15,2.51c-2.14-.14-2.11-.7-2.11-.7a5.81,5.81,0,0,1,5.29-.28A4,4,0,0,1,34.55,81.72Zm3.76-1.33c-4.89-1.45-6.39.58-6.84.83s-1-.39-1-.39a1.52,1.52,0,0,0-.19-2.25c2.3-4.49,7.6-3.08,7.6-3.08a5.71,5.71,0,0,0,.34,1.09C40,78.18,38.31,80.39,38.31,80.39Zm4.63-10.73a7.77,7.77,0,0,1-1.53.11c-.42,0-2.11-.12-1.95-.36a2.59,2.59,0,0,0,.14-1.51c.41.48.49,0,.91,0a2.9,2.9,0,0,1,2,.48C43.47,68.65,44.52,69.43,42.94,69.66Zm0-3.14a3.62,3.62,0,0,1,.41.27,3.1,3.1,0,0,1,1.32,1.72,9.49,9.49,0,0,0-4.13-1.32,2,2,0,0,0-1,.2,1.11,1.11,0,0,1-.41-1,2,2,0,0,0-.36-1.16A11.55,11.55,0,0,1,42.91,66.52ZM26.09,65.44c.2-.78,2.51-1,3.25-1.18A8.92,8.92,0,0,1,33.08,64c1.17.22,2.24.63,3.33.94.49.14,1.25.15,1.64.56s.28,1.16.6,1.67.81.6.61,1.38c-.06.26-.27.43-.33.73s.08.61,0,.89a11.38,11.38,0,0,1-.66,3.55c-.41.76-1.63.37-3.14.26a5.37,5.37,0,0,0-3.12,1.13,6.48,6.48,0,0,0-1.5,1.16c-.39.41-.75.93-1.33.79s-1-.77-1.35-1.06a12.81,12.81,0,0,1-1.26-1,3.13,3.13,0,0,1-.93-1.32c-.12-.41,0-2.41-.36-2.44-1-.08-.82.29-1.41.44a3.28,3.28,0,0,1-1.65-.41c-1.63-.73-.23-1.89.67-2.21a2.13,2.13,0,0,1,1.81,0c.41.14,1.08.55,1.42.2s-.29-.77-.29-.77c.17-.47,1-.36,1.37-.7C28.22,66.83,25.77,66.7,26.09,65.44Zm-6.55,3.69a7.34,7.34,0,0,1,4.66-4l.22,0c1.11,0,1.48,1.86,1.56,2.36-3.87,0-6.21,3.28-6.73,4.08A3.17,3.17,0,0,1,19.54,69.13Z"/><path class="cls-2" d="M34,77.64a.8.8,0,0,0-.87.2.28.28,0,0,0,0,.39.28.28,0,0,0,.4,0,.23.23,0,0,1,.27-.08.2.2,0,0,1,.12.19.38.38,0,0,1-.09.18.27.27,0,0,0-.2-.07.28.28,0,0,0-.27.28.47.47,0,0,0,.22.43.39.39,0,0,0,.17,0,.45.45,0,0,0,.25-.08,1,1,0,0,0,.47-.79A.75.75,0,0,0,34,77.64Z"/><path class="cls-2" d="M31.27,83.58c-.43,0-.88.2-1.19-.28s-.32-.74-.85-.48-.81.08-1.16-.3a5.09,5.09,0,0,1-.78-1.06c-.09-.18-.55-1.17-.81-.64l.14-.08c-.66.49-.52,1.46-.25,2.12a9.93,9.93,0,0,0,.53,1.2c.11.19.28.33.39.53s.15.46.27.66c.21.37.28,0,.56.12s.21.39.42.46.3-.2.58-.16.4.33.5.5c.21.34.22.89.65,1s.33-.14.53-.15.26.36.52.33c.47-.05.49-.88.53-1.2a5,5,0,0,0,0-1.5C31.82,84.29,31.76,83.63,31.27,83.58Z"/><path class="cls-2" d="M37.33,77.71a.72.72,0,0,0-.46.71,1.08,1.08,0,0,0,.42.81.42.42,0,0,0,.21.06.33.33,0,0,0,.17,0,.44.44,0,0,0,.2-.42.28.28,0,0,0-.27-.29.32.32,0,0,0-.14,0,.46.46,0,0,1,0-.13c0-.13.06-.2.09-.21s.07,0,.12.07a.27.27,0,0,0,.39,0,.28.28,0,0,0,0-.4A.65.65,0,0,0,37.33,77.71Z"/><path class="cls-2" d="M110.71,43.13a9.49,9.49,0,0,1,.52-3.3,6.72,6.72,0,0,1,1.45-2.37A6,6,0,0,1,114.83,36a7.21,7.21,0,0,1,2.65-.48,13.27,13.27,0,0,1,1.72.1,9.83,9.83,0,0,1,1.21.25c.36.09.72.17,1.1.24l-.06,1.46a9.05,9.05,0,0,0-1.58-.53,10.57,10.57,0,0,0-2.49-.24,4.73,4.73,0,0,0-2.5.69,4.86,4.86,0,0,0-1.8,2.06,7.46,7.46,0,0,0-.68,3.35,8.68,8.68,0,0,0,.57,3.25,5,5,0,0,0,1.67,2.23,4.4,4.4,0,0,0,2.7.82,9.41,9.41,0,0,0,2.09-.21,7.55,7.55,0,0,0,1.33-.42V44.09l.46.32-3.49-.12V43.13h4.61v6.33a2.41,2.41,0,0,0-.71.17c-.27.11-.6.22-1,.36a9.83,9.83,0,0,1-1.38.35,10.49,10.49,0,0,1-1.91.15,6.45,6.45,0,0,1-3.58-1,6.32,6.32,0,0,1-2.28-2.62A8.65,8.65,0,0,1,110.71,43.13Z"/><path class="cls-2" d="M131.51,50.49a6,6,0,0,1-3.47-.93,6.1,6.1,0,0,1-2.23-2.69,9.06,9.06,0,0,1-.74-3.92,8.84,8.84,0,0,1,1-4.08,6.15,6.15,0,0,1,2.42-2.48,7,7,0,0,1,3.35-.84,5.76,5.76,0,0,1,5.53,3.52A8.92,8.92,0,0,1,138,43a9.26,9.26,0,0,1-.9,4.09,6.08,6.08,0,0,1-2.32,2.51A6.79,6.79,0,0,1,131.51,50.49Zm0-1.26a4.38,4.38,0,0,0,3.5-1.64,7.27,7.27,0,0,0,1.36-4.68,8.6,8.6,0,0,0-.53-3.07,5.12,5.12,0,0,0-1.56-2.23,4,4,0,0,0-2.58-.82,4.86,4.86,0,0,0-2.53.7,4.77,4.77,0,0,0-1.8,2.09,7.89,7.89,0,0,0-.68,3.47,8.34,8.34,0,0,0,.53,3.08,5.16,5.16,0,0,0,1.62,2.26A4.18,4.18,0,0,0,131.55,49.23Z"/><path class="cls-2" d="M141.6,50.33V35.69l.89,0c.4,0,.77,0,1.09,0l1-.06c.34,0,.73,0,1.17,0a7.57,7.57,0,0,1,2.67.41A3.26,3.26,0,0,1,150,37.15a3.21,3.21,0,0,1,.53,1.84,4.91,4.91,0,0,1-.23,1.44,3.52,3.52,0,0,1-.74,1.3,2.78,2.78,0,0,1-1.38.79,3.35,3.35,0,0,1,1.65.5,3.62,3.62,0,0,1,1.23,1.23,3.3,3.3,0,0,1,.47,1.73,5,5,0,0,1-.55,2.4,3.56,3.56,0,0,1-1.81,1.55,8.84,8.84,0,0,1-3.41.54c-.53,0-1.09,0-1.69-.06l-1.63-.08Zm1.62-8.15a5,5,0,0,0,.66,0h2.66a2.4,2.4,0,0,0,1.78-.88,3.26,3.26,0,0,0,.64-2.11,2,2,0,0,0-1-1.94,5.11,5.11,0,0,0-2.54-.56l-.69,0-.86,0a5,5,0,0,0-.67.06Zm0,6.91c.26,0,.55.08.87.11l.94,0,.92,0a5.17,5.17,0,0,0,2.91-.69,2.66,2.66,0,0,0,1-2.4,2.4,2.4,0,0,0-.94-2.12,4.64,4.64,0,0,0-2.59-.68h-2.55l-.59,0Z"/><path class="cls-2" d="M155.3,50.33V35.71h1.63V50.33Z"/><path class="cls-2" d="M161.5,50.33V35.71h8.24V37h-6.63v5.17H168V43.4h-4.84v5.65h7.32v1.28Z"/><path class="cls-2" d="M175.11,50.33H173.5V35.71l.66,0h.28c.47,0,1,0,1.61-.06s1.23-.06,1.86-.06a8.59,8.59,0,0,1,2,.22,4.41,4.41,0,0,1,1.59.69,3.13,3.13,0,0,1,1,1.24,4.44,4.44,0,0,1,.36,1.88,4.53,4.53,0,0,1-.47,2.16,3.64,3.64,0,0,1-1.33,1.42,4.71,4.71,0,0,1-2,.67,10.42,10.42,0,0,1-1,.1c-.38,0-.81,0-1.31,0l-1.7,0Zm0-7.52c.16,0,.42,0,.78,0l1.11,0h.85a3.74,3.74,0,0,0,2.47-.81,2.91,2.91,0,0,0,1-2.38,3.32,3.32,0,0,0-.38-1.68,2.17,2.17,0,0,0-1.19-.93,5.92,5.92,0,0,0-2-.3c-.43,0-.89,0-1.37,0a7.84,7.84,0,0,0-1.17.12Zm7,7.52a2,2,0,0,1-.22-.36l-.29-.63c-.22-.44-.45-1-.7-1.55s-.51-1.17-.8-1.74a7.78,7.78,0,0,0-1-1.45,2,2,0,0,0-1.17-.69l.67-.49,1,.12a2.39,2.39,0,0,1,1.14.85,9.4,9.4,0,0,1,1,1.55q.45.89.87,1.8c.28.6.54,1.14.81,1.6.09.19.19.36.28.53s.18.32.27.46Z"/><path class="cls-2" d="M187,50.33V35.71h1.51l6.73,10.17,2,3.45h-.57l-.14-4.06V35.71H198V50.33h-1.48l-6.61-9.94-2.18-3.72h.64l.14,4.33v9.33Z"/><path class="cls-2" d="M207.86,50.49a6,6,0,0,1-3.48-.93,6.24,6.24,0,0,1-2.23-2.69,9.06,9.06,0,0,1-.73-3.92,8.6,8.6,0,0,1,1-4.08,6.15,6.15,0,0,1,2.42-2.48,7,7,0,0,1,3.35-.84,5.76,5.76,0,0,1,5.53,3.52,9.06,9.06,0,0,1,.71,3.92,9.25,9.25,0,0,1-.91,4.09,6.06,6.06,0,0,1-2.31,2.51A6.79,6.79,0,0,1,207.86,50.49Zm0-1.26a4.4,4.4,0,0,0,3.51-1.64,7.33,7.33,0,0,0,1.36-4.68,8.6,8.6,0,0,0-.53-3.07,5.06,5.06,0,0,0-1.57-2.23,3.94,3.94,0,0,0-2.57-.82,4.63,4.63,0,0,0-4.34,2.79,8.18,8.18,0,0,0-.68,3.47,8.55,8.55,0,0,0,.53,3.08,5.33,5.33,0,0,0,1.62,2.26A4.22,4.22,0,0,0,207.89,49.23Z"/><path class="cls-2" d="M110.77,68.59V59.72h.69l.61,0,.67,0c.23,0,.46,0,.69,0a4.11,4.11,0,0,1,3.16,1.12,4.43,4.43,0,0,1,1,3.14,5.91,5.91,0,0,1-.5,2.54,3.84,3.84,0,0,1-1.48,1.68,4.38,4.38,0,0,1-2.35.57c-.25,0-.55,0-.91,0l-1,0h-.64Zm1-.75a7.32,7.32,0,0,0,.82.09c.33,0,.62,0,.87,0a3.32,3.32,0,0,0,1.65-.43,2.79,2.79,0,0,0,1.11-1.27,5.35,5.35,0,0,0,.41-2.21,4.92,4.92,0,0,0-.38-2.11,2.47,2.47,0,0,0-1.14-1.2,4.22,4.22,0,0,0-1.89-.37c-.27,0-.54,0-.78,0l-.67.06Z"/><path class="cls-2" d="M119.31,68.59V59.72h5v.77h-4v3.14h2.93v.76h-2.93v3.43h4.44v.77Z"/><path class="cls-2" d="M137.26,61.71a6.76,6.76,0,0,0-1.26-1,17.64,17.64,0,0,0-1.69-.86,15.43,15.43,0,0,1-1.44-.74,2.93,2.93,0,0,1-.82-.66,1.29,1.29,0,0,1-.26-.79,1,1,0,0,1,.22-.64,1.36,1.36,0,0,1,.65-.42,3.36,3.36,0,0,1,1.14-.16,6.31,6.31,0,0,1,1.88.29,4.55,4.55,0,0,1,1.36.64l.57-2.74a7.8,7.8,0,0,0-1.43-.54,10.06,10.06,0,0,0-2.7-.3,8.14,8.14,0,0,0-2.11.25,4.81,4.81,0,0,0-1.65.75,3.39,3.39,0,0,0-1.07,1.25,3.8,3.8,0,0,0-.38,1.76,4,4,0,0,0,.47,2A4.61,4.61,0,0,0,130,61.31a9.69,9.69,0,0,0,1.7,1c.73.34,1.31.63,1.75.86a3.35,3.35,0,0,1,.94.68,1.17,1.17,0,0,1,.28.8,1,1,0,0,1-.47.94,2.86,2.86,0,0,1-1.5.3,7.83,7.83,0,0,1-1.52-.15,12.79,12.79,0,0,1-1.37-.37,6.38,6.38,0,0,1-1-.43l-.46,2.86a5.91,5.91,0,0,0,1,.39,12.22,12.22,0,0,0,1.65.36,12.66,12.66,0,0,0,2,.15,7.17,7.17,0,0,0,2.91-.53,4.12,4.12,0,0,0,1.81-1.51,4.19,4.19,0,0,0,.61-2.29,4.09,4.09,0,0,0-.27-1.53A3.45,3.45,0,0,0,137.26,61.71Z"/><path class="cls-2" d="M150.5,54.66a6.38,6.38,0,0,0-3.56-.84,8.74,8.74,0,0,0-3.6.82A5.61,5.61,0,0,0,140.86,57a8.76,8.76,0,0,0-1,4.21,9,9,0,0,0,.75,4A5.84,5.84,0,0,0,143,67.87a6.79,6.79,0,0,0,3.7.88,7.91,7.91,0,0,0,3.52-.82,5.71,5.71,0,0,0,2.4-2.44,9.35,9.35,0,0,0,.92-4.24,9.05,9.05,0,0,0-.74-4A5.76,5.76,0,0,0,150.5,54.66ZM149,65a2.61,2.61,0,0,1-2.24,1.14,2.42,2.42,0,0,1-1.71-.62,3.74,3.74,0,0,1-1-1.7,8.11,8.11,0,0,1-.35-2.48,7.6,7.6,0,0,1,.44-2.85A3,3,0,0,1,145.25,57a3.05,3.05,0,0,1,1.63-.45,2.33,2.33,0,0,1,1.62.58,3.49,3.49,0,0,1,1,1.63,8.37,8.37,0,0,1,.31,2.42A6.82,6.82,0,0,1,149,65Z"/><polygon class="cls-2" points="164.94 60.41 165.34 64.12 164.34 62 159.34 53.97 155.91 53.97 155.91 68.59 159.24 68.59 159.24 62.28 158.78 58.54 159.85 60.76 164.59 68.59 168.27 68.59 168.27 53.97 164.94 53.97 164.94 60.41"/><path class="cls-2" d="M181.28,54.66a6.38,6.38,0,0,0-3.56-.84,8.75,8.75,0,0,0-3.61.82A5.67,5.67,0,0,0,171.63,57a8.76,8.76,0,0,0-1,4.21,9.14,9.14,0,0,0,.75,4,5.9,5.9,0,0,0,2.32,2.63,6.84,6.84,0,0,0,3.7.88,7.87,7.87,0,0,0,3.52-.82,5.6,5.6,0,0,0,2.4-2.44,9.34,9.34,0,0,0,.93-4.24,9,9,0,0,0-.75-4A5.74,5.74,0,0,0,181.28,54.66ZM179.73,65a2.6,2.6,0,0,1-2.23,1.14,2.44,2.44,0,0,1-1.72-.62,3.83,3.83,0,0,1-1-1.7,8.13,8.13,0,0,1-.34-2.48,7.6,7.6,0,0,1,.44-2.85A3,3,0,0,1,176,57a3.09,3.09,0,0,1,1.64-.45,2.36,2.36,0,0,1,1.62.58,3.48,3.48,0,0,1,.95,1.63,8.35,8.35,0,0,1,.32,2.42A6.73,6.73,0,0,1,179.73,65Z"/><path class="cls-2" d="M198.18,67.53a12.48,12.48,0,0,1-.75-1.51c-.22-.53-.45-1-.67-1.52a8.38,8.38,0,0,0-.75-1.3,2.72,2.72,0,0,0-.53-.54,4,4,0,0,0,.46-.24,3.66,3.66,0,0,0,1.37-1.49,5.43,5.43,0,0,0,.5-2.47,4.81,4.81,0,0,0-.49-2.28A3.6,3.6,0,0,0,196,54.76a5.09,5.09,0,0,0-1.76-.73,9,9,0,0,0-1.92-.21c-1.05,0-1.91,0-2.6.08S188.47,54,188,54h-1.26V68.59h3.66V63.42c.65,0,1.17,0,1.58,0a1,1,0,0,1,.73.4,3.81,3.81,0,0,1,.56,1c.16.42.32.87.47,1.35s.34.94.53,1.38.25.54.31.69a1.63,1.63,0,0,0,.23.35h4l-.31-.53Zm-7.3-6.6a5.06,5.06,0,0,1-.53,0V56.57a5.31,5.31,0,0,1,.75-.13,7.31,7.31,0,0,1,.8,0,2.94,2.94,0,0,1,1.48.31,1.59,1.59,0,0,1,.71.79,2.77,2.77,0,0,1,.19,1,2.9,2.9,0,0,1-.51,1.73,1.87,1.87,0,0,1-1.63.71h-.58Z"/><path class="cls-2" d="M209.49,68.59h3.88l-5.14-14.71h-4.15L199,68.59h3.83l.77-2.73h5.09Zm-5.18-5.29,1.29-4.56.49-1.91.47,1.91,1.36,4.56Z"/><rect class="cls-2" x="98.65" y="77.64" width="128.11" height="0.97"/><path class="cls-2" d="M244.68,35.3H258.4v3.88h-4.86V50.9h-4V39.18h-4.86Z"/><path class="cls-2" d="M268.06,35.3a6.87,6.87,0,0,1,2.6.45A5,5,0,0,1,272.48,37a5.12,5.12,0,0,1,1.07,1.82,7,7,0,0,1,.35,2.2,7.08,7.08,0,0,1-.19,1.6,5.77,5.77,0,0,1-.57,1.45,5.39,5.39,0,0,1-1,1.22,5,5,0,0,1-1.36.91l3.38,4.72h-4.78l-3-4.18h-2V50.9h-4V35.3Zm-3.64,3.64V43.1h3.42a2.59,2.59,0,0,0,1-.17,1.84,1.84,0,0,0,.68-.45,1.66,1.66,0,0,0,.38-.66A2.54,2.54,0,0,0,270,41a2.28,2.28,0,0,0-.5-1.5,2.11,2.11,0,0,0-1.7-.6Z"/><path class="cls-2" d="M285.44,35.3l6.3,15.6h-4.36l-.86-2.28h-6.14l-.86,2.28h-4.36l6.32-15.6Zm-2,5.12L281.74,45h3.42Z"/><path class="cls-2" d="M293.54,50.9V35.3h3.4l7,8.72V35.3h4V50.9H304.5l-7-8.7v8.7Z"/><path class="cls-2" d="M314.16,46.22v.1a.83.83,0,0,0,.16.47,1.42,1.42,0,0,0,.48.46,2.73,2.73,0,0,0,.82.35,4.11,4.11,0,0,0,1.18.14,2.79,2.79,0,0,0,1.55-.31.85.85,0,0,0,.43-.65,1,1,0,0,0-.62-.86,12.71,12.71,0,0,0-2-.84c-.63-.2-1.28-.43-1.95-.71a8.66,8.66,0,0,1-1.85-1,5.09,5.09,0,0,1-1.39-1.46,3.71,3.71,0,0,1-.55-2.06,4.43,4.43,0,0,1,.45-2,4.49,4.49,0,0,1,1.26-1.52,5.93,5.93,0,0,1,1.93-1,8.6,8.6,0,0,1,2.46-.34,8.94,8.94,0,0,1,2.53.35,6.28,6.28,0,0,1,2,1A5,5,0,0,1,322.37,38a4.5,4.5,0,0,1,.49,2.09v.22H319v-.14a1.32,1.32,0,0,0-.15-.58,1.63,1.63,0,0,0-.45-.54,2.41,2.41,0,0,0-.75-.39,3.32,3.32,0,0,0-1.05-.15,2.48,2.48,0,0,0-1.46.33.92.92,0,0,0-.44.73.9.9,0,0,0,.59.78,13.17,13.17,0,0,0,2,.8c.53.19,1.14.42,1.82.69a9.81,9.81,0,0,1,1.91,1,6.1,6.1,0,0,1,1.5,1.54,3.91,3.91,0,0,1,.61,2.19A4,4,0,0,1,321.31,50a6.17,6.17,0,0,1-2,.88,9.66,9.66,0,0,1-2.47.3,9.83,9.83,0,0,1-2.61-.32,6.51,6.51,0,0,1-2.1-.93,4.39,4.39,0,0,1-1.4-1.51,4.06,4.06,0,0,1-.51-2v-.18Z"/><path class="cls-2" d="M325.46,35.3h6.88a7,7,0,0,1,2.71.49,5.3,5.3,0,0,1,3,3.23,7.14,7.14,0,0,1,.37,2.26,7.45,7.45,0,0,1-.37,2.34,5.26,5.26,0,0,1-3,3.25,6.83,6.83,0,0,1-2.71.49h-2.88V50.9h-4Zm4,3.64v4.78h2.66A2.09,2.09,0,0,0,333.9,43a2.82,2.82,0,0,0,.52-1.73,3.35,3.35,0,0,0-.12-.89,2.13,2.13,0,0,0-.4-.76,2,2,0,0,0-.72-.52,2.83,2.83,0,0,0-1.06-.19Z"/><path class="cls-2" d="M348.34,35.3l6.3,15.6h-4.36l-.86-2.28h-6.14l-.86,2.28h-4.36l6.32-15.6Zm-2,5.12L344.64,45h3.42Z"/><path class="cls-2" d="M364.06,35.3a6.87,6.87,0,0,1,2.6.45A5,5,0,0,1,368.48,37a5.12,5.12,0,0,1,1.07,1.82,7,7,0,0,1,.35,2.2,7.08,7.08,0,0,1-.19,1.6,5.77,5.77,0,0,1-.57,1.45,5.39,5.39,0,0,1-1,1.22,5,5,0,0,1-1.36.91l3.38,4.72h-4.78l-3-4.18h-2V50.9h-4V35.3Zm-3.64,3.64V43.1h3.42a2.59,2.59,0,0,0,1-.17,1.84,1.84,0,0,0,.68-.45,1.66,1.66,0,0,0,.38-.66A2.54,2.54,0,0,0,366,41a2.28,2.28,0,0,0-.5-1.5,2.11,2.11,0,0,0-1.7-.6Z"/><path class="cls-2" d="M372.36,35.3h12v3.88h-8v2.24h6.56V45h-6.56v2h8V50.9h-12Z"/><path class="cls-2" d="M386.88,50.9V35.3h3.4l7,8.72V35.3h4V50.9h-3.38l-7-8.7v8.7Z"/><path class="cls-2" d="M419.16,46.72a8.39,8.39,0,0,1-1.28,1.82A8,8,0,0,1,416.16,50a8.45,8.45,0,0,1-2.08.92,8.18,8.18,0,0,1-2.32.33,8,8,0,0,1-3.19-.64,8.34,8.34,0,0,1-4.43-4.31,7.85,7.85,0,0,1,0-6.3,8.25,8.25,0,0,1,1.79-2.57,8.54,8.54,0,0,1,2.64-1.74,8.19,8.19,0,0,1,3.19-.64,8.06,8.06,0,0,1,2.31.33,9.16,9.16,0,0,1,2.07.91,8.3,8.3,0,0,1,1.72,1.4,9.06,9.06,0,0,1,1.28,1.8l-3.64,1.64A4.16,4.16,0,0,0,414,39.47a4.24,4.24,0,0,0-2.23-.61,4.12,4.12,0,0,0-1.65.33,4.2,4.2,0,0,0-1.35.9,4.07,4.07,0,0,0-.91,1.35,4.34,4.34,0,0,0,0,3.32,4.07,4.07,0,0,0,.91,1.35,4.2,4.2,0,0,0,1.35.9,4.36,4.36,0,0,0,3.89-.28,4.08,4.08,0,0,0,1.5-1.61Z"/><path class="cls-2" d="M425.16,35.3V50.9h-4V35.3Z"/><path class="cls-2" d="M437.24,35.3l6.3,15.6h-4.36l-.86-2.28h-6.14l-.86,2.28H427l6.32-15.6Zm-2,5.12L433.54,45H437Z"/><path class="cls-2" d="M246.78,65v.08a2.21,2.21,0,0,0,.34,1.21,2.8,2.8,0,0,0,1,.95,5.17,5.17,0,0,0,1.54.63,8,8,0,0,0,2,.23,5.63,5.63,0,0,0,3.32-.82,2.46,2.46,0,0,0,1.14-2.08,2.17,2.17,0,0,0-.39-1.3A3.57,3.57,0,0,0,254.7,63a9.21,9.21,0,0,0-1.54-.71c-.59-.2-1.21-.41-1.86-.61s-1.29-.41-1.94-.65a8.26,8.26,0,0,1-1.79-.87,4.52,4.52,0,0,1-1.32-1.25,3,3,0,0,1-.51-1.79,3.57,3.57,0,0,1,.39-1.67,3.79,3.79,0,0,1,1.11-1.29,5.36,5.36,0,0,1,1.75-.83,8.54,8.54,0,0,1,2.29-.29,8.81,8.81,0,0,1,2.36.3,6.06,6.06,0,0,1,1.85.84,4.16,4.16,0,0,1,1.2,1.28,3.27,3.27,0,0,1,.43,1.62v.18H256v-.1a2.4,2.4,0,0,0-.32-1.21,3.11,3.11,0,0,0-.93-.95,5.45,5.45,0,0,0-1.48-.63,7.79,7.79,0,0,0-1.95-.23,5.34,5.34,0,0,0-3.2.82A2.48,2.48,0,0,0,247,57a2.11,2.11,0,0,0,.37,1.28,3.23,3.23,0,0,0,1,.92,7.26,7.26,0,0,0,1.48.7q.84.3,1.8.6c.62.19,1.28.4,2,.63a9.39,9.39,0,0,1,1.86.88,5.18,5.18,0,0,1,1.39,1.28,3.09,3.09,0,0,1,.55,1.85,3.44,3.44,0,0,1-.41,1.67,3.82,3.82,0,0,1-1.16,1.28,5.52,5.52,0,0,1-1.8.82,8.59,8.59,0,0,1-2.35.29,9.34,9.34,0,0,1-2.45-.3,6.31,6.31,0,0,1-1.91-.84,4,4,0,0,1-1.25-1.28,3,3,0,0,1-.45-1.62V65Z"/><path class="cls-2" d="M259.64,61.1a7.75,7.75,0,0,1,.64-3.15A8.11,8.11,0,0,1,262,55.38a8.19,8.19,0,0,1,2.59-1.74,8.15,8.15,0,0,1,6.33,0A8.18,8.18,0,0,1,275.26,58a8.1,8.1,0,0,1,0,6.31,8.1,8.1,0,0,1-1.74,2.57,8.3,8.3,0,0,1-2.58,1.73,8.15,8.15,0,0,1-6.33,0A8,8,0,0,1,262,66.83a8.06,8.06,0,0,1-2.38-5.73Zm1.2,0a6.62,6.62,0,0,0,.55,2.7A6.92,6.92,0,0,0,267.78,68a6.75,6.75,0,0,0,2.68-.54,6.93,6.93,0,0,0,2.2-1.48,7.18,7.18,0,0,0,1.49-2.2,6.85,6.85,0,0,0,0-5.38,7,7,0,0,0-3.69-3.69,6.85,6.85,0,0,0-5.38,0,7.18,7.18,0,0,0-2.2,1.49,7,7,0,0,0-1.49,2.2A6.59,6.59,0,0,0,260.84,61.1Z"/><path class="cls-2" d="M279.26,68.9V53.3h1.06l10.8,13.58V53.3h1.18V68.9h-1.06l-10.8-13.56V68.9Z"/><path class="cls-2" d="M295.64,61.1a7.75,7.75,0,0,1,.64-3.15A8.11,8.11,0,0,1,298,55.38a8.19,8.19,0,0,1,2.59-1.74,8.15,8.15,0,0,1,6.33,0A8.18,8.18,0,0,1,311.26,58a8.1,8.1,0,0,1,0,6.31,8.1,8.1,0,0,1-1.74,2.57,8.3,8.3,0,0,1-2.58,1.73,8.15,8.15,0,0,1-6.33,0A8,8,0,0,1,298,66.83a8.06,8.06,0,0,1-2.38-5.73Zm1.2,0a6.62,6.62,0,0,0,.55,2.7A6.92,6.92,0,0,0,303.78,68a6.75,6.75,0,0,0,2.68-.54,6.93,6.93,0,0,0,2.2-1.48,7.18,7.18,0,0,0,1.49-2.2,6.85,6.85,0,0,0,0-5.38,7,7,0,0,0-3.69-3.69,6.85,6.85,0,0,0-5.38,0,7.18,7.18,0,0,0-2.2,1.49,7,7,0,0,0-1.49,2.2A6.59,6.59,0,0,0,296.84,61.1Z"/><path class="cls-2" d="M322.14,53.3a6.1,6.1,0,0,1,2.25.4,5,5,0,0,1,1.67,1.09,4.86,4.86,0,0,1,1,1.6,5.34,5.34,0,0,1,.12,3.51,4.94,4.94,0,0,1-.69,1.4,4.5,4.5,0,0,1-1.11,1.11,5,5,0,0,1-1.52.73L328,68.9h-1.44l-3.94-5.54a1,1,0,0,1-.24,0h-5.94V68.9h-1.18V53.3Zm-5.7,1.12v7.84h5.66a4.59,4.59,0,0,0,1.8-.32,3.92,3.92,0,0,0,1.32-.86,3.46,3.46,0,0,0,.81-1.25,4.25,4.25,0,0,0,0-3,3.55,3.55,0,0,0-.81-1.25,4.08,4.08,0,0,0-1.32-.86,4.78,4.78,0,0,0-1.8-.32Z"/><path class="cls-2" d="M337.62,53.3l7.16,15.6h-1.3l-1.6-3.52h-9.8L330.5,68.9h-1.32l7.16-15.6Zm-5,11h8.76L337,54.58Z"/></svg>