<?xml version="1.0" encoding="UTF-8"?><svg id="Capa_1" xmlns="http://www.w3.org/2000/svg" viewBox="0 0 200 200"><path d="M158.98,0H41.02C18.4,0,0,18.4,0,41.02v117.97c0,22.62,18.4,41.02,41.02,41.02h117.97c22.62,0,41.02-18.4,41.02-41.02V41.02c0-22.62-18.4-41.02-41.02-41.02Zm29.3,158.98c0,16.15-13.14,29.3-29.3,29.3H41.02c-16.15,0-29.3-13.14-29.3-29.3V41.02c0-16.15,13.14-29.3,29.3-29.3h117.97c16.15,0,29.3,13.14,29.3,29.3v117.97Z"/><path d="M119.39,48.25c-.68-2.52-2.29-4.63-4.55-5.93-4.66-2.69-10.65-1.09-13.34,3.57l-1.5,2.6-1.5-2.6c-2.69-4.66-8.68-6.27-13.34-3.57h0c-4.66,2.69-6.27,8.68-3.57,13.34l7.14,12.37-26.35,45.64h-19.21c-5.38,0-9.77,4.38-9.77,9.77s4.38,9.77,9.77,9.77H117.33l-11.28-19.53h-21.12l33.49-58.01c1.3-2.26,1.65-4.89,.98-7.41Z"/><path d="M156.84,113.67h-19.21l-21.84-37.83-11.28,19.53,33.91,58.73c1.3,2.26,3.41,3.88,5.93,4.55,.84,.23,1.69,.34,2.54,.34,1.69,0,3.36-.44,4.87-1.31,4.66-2.69,6.27-8.68,3.57-13.34l-6.43-11.14h7.93c5.38,0,9.77-4.38,9.77-9.77s-4.38-9.77-9.77-9.77Z"/><path d="M46.59,141.02l-1.92,3.33c-2.69,4.66-1.09,10.65,3.57,13.34,1.53,.89,3.21,1.31,4.87,1.31,3.38,0,6.67-1.75,8.47-4.88l7.56-13.09h-22.55Z"/></svg>