<?xml version="1.0" encoding="UTF-8"?><svg id="Capa_1" xmlns="http://www.w3.org/2000/svg" viewBox="0 0 1873.04 899.42"><defs><style>.cls-1{opacity:.1;}.cls-1,.cls-2,.cls-3{fill:#960e53;}.cls-3{opacity:.2;}</style></defs><path class="cls-1" d="M382.49,741.71L-487.65-86.28V-1130.61H2202.67s-312.21,1860.53-312.21,1860.53c-22.94,136.69-165.42,207.01-276.68,136.55l-128.57-81.43c-169.03-107.04-374.85-122.93-556.35-42.93l-159.12,70.13c-131.03,57.75-281.19,30.41-387.25-70.52Z"/><path class="cls-3" d="M159.15,800.24l205.6-99.65c109.01-52.84,238.16-57.54,351.37-12.79l250.67,99.08c177.87,70.3,380.33,65.44,553.96-13.32l812.66-368.61V-1071.75H-187.02l20.03,1693.37c1.81,152.93,178.97,249.96,326.15,178.62Z"/><path class="cls-2" d="M16.75,73.9l189.59,53.07c58,16.24,114.8,36.64,169.49,61.88,171,78.9,375.09,80.28,513.35,29.25l284.13-104.87c108.33-32.65,225.9-35.54,329.01-8.1l409.59,109.01,89.87-730.89-2339.33,15.27L16.75,73.9Z"/><path class="cls-2" d="M158.87,718.4l75.75,29.84c173.04,68.16,365.27,69.36,539.15,3.37l156.87-59.53c141.64-53.75,295.72-65.74,443.97-34.54l343.23,72.24c179.69,37.82,348.65-99.28,348.65-282.91V-87.71H-267.75V91.85c0,276.66,169.21,525.17,426.62,626.56Z"/></svg>