<?xml version="1.0" encoding="UTF-8"?><svg id="Capa_1" xmlns="http://www.w3.org/2000/svg" viewBox="0 0 419.67 320"><defs><style>.cls-1{fill:#e6e6e6;}.cls-2{fill:#fff;}.cls-3{fill:#ccc;}.cls-4{fill:#dc7f37;}</style></defs><path class="cls-2" d="M412.67,166.12v76.94c0,15.45-12.53,27.98-27.98,27.98h-48.8c-4.2,0-7.43,3.67-6.95,7.84,.92,7.95,3.73,15.29,8.01,21.66,3.46,5.15-1.15,11.91-7.23,10.69-21.49-4.33-40.1-16.53-50.78-36.55-1.2-2.26-3.58-3.64-6.14-3.64h-79.59c-15.45,0-27.98-12.53-27.98-27.98v-76.94c0-15.45,12.53-27.98,27.98-27.98h191.47c15.45,0,27.98,12.53,27.98,27.98Z"/><path class="cls-3" d="M315.63,152.13v55.96c0,15.45-12.53,27.98-27.98,27.98h-108.41c-7.73,0-13.99-6.26-13.99-13.99v-55.96c0-15.45,12.53-27.98,27.98-27.98h108.41c7.73,0,13.99,6.26,13.99,13.99Z"/><path class="cls-2" d="M289.4,34.97V181.86c0,15.45-12.53,27.98-27.98,27.98h-114.56c-2.56,0-4.93,1.38-6.14,3.64-10.66,19.96-29.22,32.21-50.78,36.55-6.08,1.22-10.7-5.54-7.23-10.69,4.28-6.37,7.09-13.71,8.01-21.66,.48-4.17-2.75-7.84-6.95-7.84H34.97c-15.45,0-27.98-12.53-27.98-27.98V34.97c0-15.45,12.53-27.98,27.98-27.98h226.45c15.45,0,27.98,12.52,27.98,27.98Z"/><path class="cls-4" d="M207.21,79.56v68.2c0,7.73-6.26,13.99-13.99,13.99H102.29c-7.73,0-13.99-6.26-13.99-13.99V79.56c0-7.73,6.26-13.99,13.99-13.99h90.93c7.73,0,13.99,6.26,13.99,13.99Z"/><path class="cls-1" d="M261.52,41.97H69.94c-15.45,0-27.98,12.53-27.98,27.98v112.02c0,22.79-34.97,23.95-34.97-.1V34.97c0-15.45,12.53-27.98,27.98-27.98h226.45c24.05,0,22.9,34.97,.1,34.97Z"/><path d="M419.67,166.12v76.94c0,19.28-15.69,34.97-34.97,34.97h-48.81c1.37,11.92,7.68,22.27,17.16,29.38,5.34,4,2.54,12.53-4.13,12.59-31.37,.21-60.95-13.64-76.1-41.97h-79.58c-19.28,0-34.97-15.69-34.97-34.97,0-3.86,3.13-6.99,6.99-6.99s6.99,3.13,6.99,6.99c0,11.57,9.41,20.98,20.98,20.98h83.91c2.72,0,5.2,1.58,6.34,4.05,9.11,19.6,26.02,31.77,47.56,36.18-6.49-9.72-9.86-21.32-9.37-33.51,.15-3.75,3.24-6.71,6.99-6.71h56.04c11.57,0,20.98-9.41,20.98-20.98v-76.94c0-11.57-9.41-20.98-20.98-20.98h-88.31v36.72c0,19.28-15.69,34.97-34.97,34.97h-114.56c-14.97,27.97-44.14,42.18-76.1,41.97-6.67-.06-9.47-8.59-4.13-12.59,9.52-7.14,15.79-17.51,17.16-29.38H34.97c-19.28,0-34.97-15.69-34.97-34.97V34.97C0,15.69,15.69,0,34.97,0h226.45c19.28,0,34.97,15.69,34.97,34.97v57.7c0,3.86-3.13,6.99-6.99,6.99s-6.99-3.13-6.99-6.99V34.97c0-11.57-9.41-20.98-20.98-20.98H34.97c-11.57,0-20.98,9.41-20.98,20.98V181.86c0,11.57,9.41,20.98,20.98,20.98h56.04c3.75,0,6.84,2.96,6.99,6.71,.5,12.21-2.88,23.81-9.37,33.51,21.64-4.42,38.48-16.67,47.56-36.18,1.15-2.47,3.62-4.04,6.34-4.04h118.88c11.57,0,20.98-9.41,20.98-20.98v-43.72c0-3.93,3.25-7.12,7.21-6.98,.49-.02,94.59-.01,95.08-.01,19.28,0,34.97,15.69,34.97,34.97h0Zm-212.46-39.34c3.86,0,6.99-3.13,6.99-6.99v-40.22c0-11.57-9.41-20.98-20.98-20.98h-38.91v-12.24c0-3.86-3.13-6.99-6.99-6.99s-6.99,3.13-6.99,6.99v12.24h-38.03c-11.57,0-20.98,9.41-20.98,20.98v68.2c0,11.57,9.41,20.98,20.98,20.98h90.93c3.86,0,6.99-3.13,6.99-6.99s-3.13-6.99-6.99-6.99H102.29c-3.86,0-6.99-3.14-6.99-6.99V79.56c0-3.86,3.14-6.99,6.99-6.99h90.93c3.86,0,6.99,3.14,6.99,6.99v40.22c0,3.86,3.13,6.99,6.99,6.99Zm-72.57-27.98v-6.12c0-3.86-3.13-6.99-6.99-6.99s-6.99,3.13-6.99,6.99v6.12c0,3.86,3.13,6.99,6.99,6.99s6.99-3.13,6.99-6.99Zm41.09,0v-6.12c0-3.86-3.13-6.99-6.99-6.99s-6.99,3.13-6.99,6.99v6.12c0,3.86,3.13,6.99,6.99,6.99s6.99-3.13,6.99-6.99Zm-42.84,40.22h29.73c3.86,0,6.99-3.13,6.99-6.99s-3.13-6.99-6.99-6.99h-29.73c-3.86,0-6.99,3.13-6.99,6.99s3.13,6.99,6.99,6.99Z"/></svg>