<?xml version="1.0" encoding="UTF-8"?><svg id="Grid" xmlns="http://www.w3.org/2000/svg" viewBox="0 0 199.54 200"><path d="M162.08,174.19l-7.47-22.41c-2.61-7.82-9.27-13.6-17.38-15.07l-21.56-3.92v-1.67c3.75-2.18,7.02-5.09,9.62-8.54h6.51c5.34,0,9.68-4.34,9.68-9.68v-38.71c0-23.12-18.81-41.94-41.94-41.94s-41.94,18.81-41.94,41.94v22.58c0,6.22,4.42,11.42,10.29,12.64,1.81,9.27,7.6,17.12,15.52,21.71v1.67l-21.56,3.92c-8.11,1.48-14.77,7.25-17.38,15.07l-1.29,3.87-10.99-10.99c-1.26-1.26-1.26-3.31,0-4.56l12.74-12.74-23.92-23.92-14.4,14.4C2.35,122.12,0,127.79,0,133.82s2.35,11.7,6.61,15.96l43.6,43.6c4.26,4.26,9.94,6.62,15.97,6.62s11.7-2.35,15.86-6.52l15.71-14.4-4.9-4.89h69.22Zm-27.05-61.29c0,1.78-1.45,3.23-3.23,3.23h-2.71c.94-2.13,1.65-4.38,2.1-6.72,1.38-.29,2.65-.84,3.84-1.53v5.02Zm-3.23-10.57v-11.11c1.92,1.12,3.23,3.18,3.23,5.55s-1.31,4.44-3.23,5.55Zm-64.52,0c-1.92-1.12-3.23-3.18-3.23-5.55s1.31-4.44,3.23-5.55v11.11Zm0-21.68v3.68c-1.15,.3-2.23,.75-3.23,1.34v-11.47c0-19.56,15.92-35.48,35.48-35.48s35.48,15.92,35.48,35.48v11.47c-1-.58-2.08-1.04-3.23-1.34v-3.68h-3.23c-9.54,0-18.51-3.72-25.25-10.46l-3.78-3.78-3.78,3.78c-6.75,6.75-15.72,10.46-25.25,10.46h-3.23Zm6.45,22.58v-16.25c9.69-.73,18.72-4.73,25.81-11.46,7.09,6.74,16.12,10.74,25.81,11.46v16.25c0,4.7-1.28,9.1-3.49,12.9h-22.32v6.45h17.01c-4.55,4-10.49,6.45-17.01,6.45-14.23,0-25.81-11.58-25.81-25.81Zm35.48,30.77v.15l-9.68,9.68-9.68-9.68v-.15c3.06,.96,6.31,1.49,9.68,1.49s6.62-.53,9.68-1.49Zm-58.63,19.83c1.86-5.59,6.62-9.71,12.42-10.77l22.55-4.1,13.99,13.99,13.99-13.99,22.55,4.1c5.8,1.06,10.55,5.18,12.42,10.77l4.64,13.91H86.41l-12.56-12.56-13.96,12.63c-1.22,1.22-3.34,1.22-4.56,0l-7.05-7.05,2.31-6.94Zm-29.57-41.25l14.79,14.79-3.5,3.5-14.79-14.79,3.5-3.5Zm56.56,76.25c-3.05,3.04-7.1,4.72-11.4,4.72s-8.36-1.68-11.41-4.73L11.17,145.23c-3.05-3.05-4.72-7.1-4.72-11.4s1.68-8.36,4.72-11.41l1.77-1.77,14.79,14.79-.12,.12c-3.77,3.77-3.77,9.91,0,13.69l23.13,23.13c1.83,1.83,4.26,2.84,6.85,2.84s5.02-1.01,6.73-2.72l.24-.22,14.86,14.86-1.85,1.7Zm6.61-6.06l-14.83-14.83,4.26-3.85,14.8,14.8-4.24,3.88Z"/><path d="M189.86,0h-45.16c-5.34,0-9.68,4.34-9.68,9.68v25.81c0,5.34,4.34,9.68,9.68,9.68h8.62l-3.34,19.45,31.13-19.45h8.75c5.34,0,9.68-4.34,9.68-9.68V9.68c0-5.34-4.34-9.68-9.68-9.68Zm3.23,35.48c0,1.78-1.45,3.23-3.23,3.23h-10.6l-20.49,12.8,2.2-12.8h-16.27c-1.78,0-3.23-1.45-3.23-3.23V9.68c0-1.78,1.45-3.23,3.23-3.23h45.16c1.78,0,3.23,1.45,3.23,3.23v25.81Z"/><rect x="147.93" y="12.9" width="38.71" height="6.45"/><rect x="147.93" y="25.81" width="25.81" height="6.45"/><rect x="180.18" y="25.81" width="6.45" height="6.45"/><path d="M99.54,9.68C57.39,9.68,21.08,38.83,11.65,79.5l-6.11-10.19L0,72.63l11.34,18.89,18.89-11.34-3.32-5.53-8.74,5.25C27.31,42.69,60.77,16.13,99.54,16.13c8.47,0,16.84,1.26,24.85,3.74l1.91-6.16c-8.64-2.68-17.64-4.03-26.76-4.03Z"/><path d="M197.97,71.43l-18.89-11.34-11.34,18.9,5.53,3.32,5.65-9.41c2.97,8.69,4.49,17.79,4.49,27.11,0,19.18-6.65,37.94-18.71,52.81l5.01,4.06c12.99-16.01,20.15-36.21,20.15-56.87,0-9.87-1.59-19.5-4.69-28.73l9.48,5.69,3.32-5.53Z"/></svg>