<?xml version="1.0" encoding="UTF-8"?><svg id="Capa_1" xmlns="http://www.w3.org/2000/svg" viewBox="0 0 200 200"><g id="Application"><path d="M76.67,140h46.67v6.67h-46.67v-6.67Z"/><path d="M63.33,140h6.67v6.67h-6.67v-6.67Z"/><path d="M196.67,13.33h-46.67v-3.33c-.02-5.52-4.48-9.98-10-10H60c-5.52,.02-9.98,4.48-10,10v13.33H3.33c-1.84,0-3.33,1.49-3.33,3.33v40c0,1.84,1.49,3.33,3.33,3.33H50v6.67c-9.2,0-16.67,7.46-16.67,16.67v13.63l6.67,69.83v19.87c0,1.84,1.49,3.33,3.33,3.33H116.67c1.84,0,3.33-1.49,3.33-3.33v-18.93l12.4-17.73h7.6c5.52-.02,9.98-4.48,10-10v-3.33h3.33c7.34,.03,13.3-5.9,13.33-13.24,.01-3.88-1.67-7.56-4.6-10.1,5.52-4.73,6.16-13.05,1.43-18.57-.44-.51-.92-.99-1.43-1.43,5.52-4.73,6.16-13.05,1.43-18.57-.44-.51-.92-.99-1.43-1.43,5.55-4.8,6.16-13.19,1.36-18.74-2.53-2.93-6.22-4.61-10.1-4.6h-3.33v-6.67h46.67c1.84,0,3.33-1.49,3.33-3.33V16.67c0-1.84-1.49-3.33-3.33-3.33ZM125.73,6.67l-1.03,4.13c-.37,1.49-1.7,2.53-3.23,2.53h-42.93c-1.53,0-2.87-1.05-3.23-2.53l-1.03-4.13h51.47ZM6.67,63.33V30h60V63.33H6.67ZM113.33,193.33H46.67v-13.33H113.33v13.33Zm1.6-20H46.37l-6.37-66.67v-13.33c.02-5.52,4.48-9.98,10-10h23.33c5.52,0,10,4.48,10,10s-4.48,10-10,10h-20c-1.84,0-3.33,1.49-3.33,3.33v43.33c.02,5.52,4.48,9.98,10,10H124.27l-9.33,13.33Zm28.4-23.33c0,1.84-1.49,3.33-3.33,3.33H60c-1.84,0-3.33-1.49-3.33-3.33v-40h16.67c9.2,0,16.67-7.46,16.67-16.67s-7.46-16.67-16.67-16.67h-16.67v-6.67h13.33c1.84,0,3.33-1.49,3.33-3.33V26.67c0-1.84-1.49-3.33-3.33-3.33h-13.33V10c0-1.84,1.49-3.33,3.33-3.33h7.4l1.43,5.77c1.12,4.45,5.11,7.57,9.7,7.57h42.93c4.59,0,8.58-3.12,9.7-7.57l1.43-5.77h7.4c1.84,0,3.33,1.49,3.33,3.33v3.33h-6.67c-1.84,0-3.33,1.49-3.33,3.33V50c0,1.84,1.49,3.33,3.33,3.33h6.67v6.67h-3.33c-7.34-.03-13.3,5.9-13.33,13.24-.01,3.88,1.67,7.56,4.6,10.1-5.52,4.73-6.16,13.05-1.43,18.57,.44,.51,.92,.99,1.43,1.43-5.52,4.73-6.16,13.05-1.43,18.57,.44,.51,.92,.99,1.43,1.43-5.55,4.8-6.16,13.19-1.36,18.74,2.53,2.93,6.22,4.61,10.1,4.6h3.33v3.33Zm10-10h-13.33c-3.68,0-6.67-2.98-6.67-6.67s2.98-6.67,6.67-6.67h13.33c3.68,0,6.67,2.98,6.67,6.67s-2.98,6.67-6.67,6.67Zm0-20h-13.33c-3.68,0-6.67-2.98-6.67-6.67s2.98-6.67,6.67-6.67h13.33c3.68,0,6.67,2.98,6.67,6.67s-2.98,6.67-6.67,6.67Zm0-20h-13.33c-3.68,0-6.67-2.98-6.67-6.67s2.98-6.67,6.67-6.67h13.33c3.68,0,6.67,2.98,6.67,6.67s-2.98,6.67-6.67,6.67Zm0-33.33c3.68,0,6.67,2.98,6.67,6.67s-2.98,6.67-6.67,6.67h-13.33c-3.68,0-6.67-2.98-6.67-6.67s2.98-6.67,6.67-6.67h13.33Zm40-20h-53.33V20h53.33v26.67Z"/><path d="M13.33,36.67h6.67v6.67h-6.67v-6.67Z"/><path d="M26.67,36.67H60v6.67H26.67v-6.67Z"/><path d="M13.33,50H60v6.67H13.33v-6.67Z"/><path d="M146.67,30h13.33v6.67h-13.33v-6.67Z"/><path d="M166.67,30h20v6.67h-20v-6.67Z"/></g></svg>