<?xml version="1.0" encoding="UTF-8"?><svg id="Capa_1" xmlns="http://www.w3.org/2000/svg" viewBox="0 0 262.29 200"><path d="M262.29,103.82v48.09c0,12.05-9.81,21.86-21.86,21.86h-30.51c.86,7.45,4.8,13.92,10.72,18.36,3.34,2.5,1.59,7.83-2.58,7.87-19.61,.13-38.09-8.52-47.57-26.23h-49.74c-12.05,0-21.86-9.81-21.86-21.86,0-2.41,1.96-4.37,4.37-4.37s4.37,1.96,4.37,4.37c0,7.23,5.88,13.11,13.11,13.11h52.44c1.7,0,3.25,.99,3.96,2.53,5.7,12.25,16.26,19.86,29.72,22.61-4.06-6.07-6.16-13.32-5.85-20.95,.1-2.34,2.02-4.19,4.37-4.19h35.03c7.23,0,13.11-5.88,13.11-13.11v-48.09c0-7.23-5.88-13.11-13.11-13.11h-55.19v22.95c0,12.05-9.81,21.86-21.86,21.86H91.79c-9.36,17.48-27.59,26.37-47.57,26.23-4.17-.04-5.92-5.37-2.58-7.87,5.95-4.46,9.87-10.94,10.72-18.36H21.86c-12.05,0-21.86-9.81-21.86-21.86V21.86C0,9.81,9.81,0,21.86,0H163.39c12.05,0,21.86,9.81,21.86,21.86V57.92c0,2.41-1.96,4.37-4.37,4.37s-4.37-1.96-4.37-4.37V21.86c0-7.23-5.88-13.11-13.11-13.11H21.86c-7.23,0-13.11,5.88-13.11,13.11V113.66c0,7.23,5.88,13.11,13.11,13.11H56.88c2.35,0,4.27,1.85,4.37,4.19,.31,7.63-1.8,14.88-5.85,20.95,13.52-2.77,24.05-10.42,29.72-22.61,.72-1.54,2.26-2.53,3.96-2.53h74.3c7.23,0,13.11-5.88,13.11-13.11v-27.32c0-2.46,2.03-4.45,4.51-4.36,.31-.01,59.12,0,59.43,0,12.05,0,21.86,9.81,21.86,21.86h0Zm-132.79-24.59c2.41,0,4.37-1.96,4.37-4.37v-25.14c0-7.23-5.88-13.11-13.11-13.11h-24.32v-7.65c0-2.41-1.96-4.37-4.37-4.37s-4.37,1.96-4.37,4.37v7.65h-23.77c-7.23,0-13.11,5.88-13.11,13.11v42.62c0,7.23,5.88,13.11,13.11,13.11h56.83c2.41,0,4.37-1.96,4.37-4.37s-1.96-4.37-4.37-4.37H63.93c-2.41,0-4.37-1.96-4.37-4.37V49.73c0-2.41,1.96-4.37,4.37-4.37h56.83c2.41,0,4.37,1.96,4.37,4.37v25.14c0,2.41,1.96,4.37,4.37,4.37Zm-45.35-17.49v-3.83c0-2.41-1.96-4.37-4.37-4.37s-4.37,1.96-4.37,4.37v3.83c0,2.41,1.96,4.37,4.37,4.37s4.37-1.96,4.37-4.37Zm25.68,0v-3.83c0-2.41-1.96-4.37-4.37-4.37s-4.37,1.96-4.37,4.37v3.83c0,2.41,1.96,4.37,4.37,4.37s4.37-1.96,4.37-4.37Zm-26.78,25.14h18.58c2.41,0,4.37-1.96,4.37-4.37s-1.96-4.37-4.37-4.37h-18.58c-2.41,0-4.37,1.96-4.37,4.37s1.96,4.37,4.37,4.37Z"/></svg>