<?xml version="1.0" encoding="UTF-8"?><svg id="Grid" xmlns="http://www.w3.org/2000/svg" viewBox="0 0 166.28 166.28"><g id="Page-1"><g id="_041---Folder"><path id="Shape" d="M157.97,80.37h-2.77V36.03c-.07-4.56-3.76-8.23-8.31-8.29v-5.57c-.01-3.51-2.23-6.64-5.54-7.8v-6.05c0-4.59-3.72-8.31-8.31-8.31H33.26c-4.59,0-8.31,3.72-8.31,8.31v6.05c-3.31,1.17-5.53,4.29-5.54,7.8v5.57c-4.56,.06-8.24,3.73-8.31,8.29v44.34h-2.77c-4.59,0-8.31,3.72-8.31,8.31v63.74c0,7.65,6.21,13.85,13.86,13.86H152.43c7.65,0,13.85-6.21,13.86-13.86v-63.74c0-4.59-3.72-8.31-8.31-8.31Zm0,5.54c1.53,0,2.77,1.24,2.77,2.77v22.17h-5.54v-24.94h2.77ZM30.49,8.31c0-1.53,1.24-2.77,2.77-2.77h99.77c1.53,0,2.77,1.24,2.77,2.77v5.54H30.49v-5.54Zm-5.54,13.86c0-1.53,1.24-2.77,2.77-2.77h110.85c1.53,0,2.77,1.24,2.77,2.77v5.54H24.94v-5.54Zm-8.31,13.86c.07-1.59,1.41-2.83,3-2.77h127.02c1.59-.06,2.94,1.18,3,2.77V110.85h-31.77c-1.85,0-3.59,.92-4.61,2.47l-9.44,14.16H62.45l-9.44-14.16c-1.03-1.54-2.76-2.47-4.61-2.47H16.63V36.03Zm-8.31,49.88h2.77v24.94H5.54v-22.17c0-1.53,1.24-2.77,2.77-2.77Zm152.43,66.51c0,4.59-3.72,8.31-8.31,8.31H13.86c-4.59,0-8.31-3.72-8.31-8.31v-36.03H48.4l9.44,14.16c1.03,1.54,2.76,2.47,4.61,2.47h41.38c1.85,0,3.59-.92,4.61-2.47l9.44-14.16h42.86v36.03Z"/><path id="Shape-2" d="M30.49,55.43h36.03c1.53,0,2.77-1.24,2.77-2.77s-1.24-2.77-2.77-2.77H30.49c-1.53,0-2.77,1.24-2.77,2.77s1.24,2.77,2.77,2.77Z"/><path id="Shape-3" d="M30.49,69.28H97c1.53,0,2.77-1.24,2.77-2.77s-1.24-2.77-2.77-2.77H30.49c-1.53,0-2.77,1.24-2.77,2.77s1.24,2.77,2.77,2.77Z"/><path id="Shape-4" d="M30.49,83.14h36.03c1.53,0,2.77-1.24,2.77-2.77s-1.24-2.77-2.77-2.77H30.49c-1.53,0-2.77,1.24-2.77,2.77s1.24,2.77,2.77,2.77Z"/></g></g></svg>