<?xml version="1.0" encoding="UTF-8"?><svg id="Grid" xmlns="http://www.w3.org/2000/svg" viewBox="0 0 260.78 199.54"><path d="M89.56,175.57c-2.11,0-3.82,1.71-3.82,3.82v16.33c0,2.11,1.71,3.82,3.82,3.82s3.82-1.71,3.82-3.82v-16.33c0-2.11-1.71-3.82-3.82-3.82Z"/><path d="M171.22,175.57c-2.11,0-3.82,1.71-3.82,3.82v16.33c0,2.11,1.71,3.82,3.82,3.82s3.82-1.71,3.82-3.82v-16.33c0-2.11-1.71-3.82-3.82-3.82Z"/><path d="M58.61,94.31c-8.87-4.44-25.5-4.49-26.21-4.49-2.11,0-3.82,1.71-3.82,3.82,0,2.11,1.71,3.82,3.82,3.82,4.3,0,16.77,.67,22.79,3.68,.55,.27,1.13,.4,1.71,.4,1.4,0,2.75-.77,3.42-2.11,.94-1.89,.18-4.18-1.71-5.13Z"/><path d="M20.15,167.4c-2.11,0-3.82,1.71-3.82,3.82v24.5c0,2.11,1.71,3.82,3.82,3.82s3.82-1.71,3.82-3.82v-24.5c0-2.11-1.71-3.82-3.82-3.82Z"/><path d="M251.9,153.13l-15.47-7.73c-.09-.04-.15-.14-.15-.24v-7.78c6.35-4.37,10.85-11.29,11.97-19.4,2.86-4.94,4.36-10.51,4.36-16.18,0-10.57-5.09-19.97-12.95-25.89,.46-1.53,.7-3.12,.7-4.73,0-9.99-9.04-18.11-20.15-18.11s-20.15,8.12-20.15,18.11c0,1.62,.24,3.2,.7,4.73-4.68,3.53-8.38,8.3-10.6,13.82-.95-9.31-1.93-20.31-2.88-33.12-1.25-16.91-7.33-31.18-17.58-41.29C159.52,5.3,145.93,0,130.39,0s-29.13,5.3-39.3,15.33c-10.26,10.1-16.34,24.38-17.58,41.29-.33,4.49-.67,8.74-1.01,12.79H36.48c-13.36,0-24.23,10.87-24.23,24.23v.23c0,3.11,.74,6.23,2.13,9.01l1.96,3.91v6.24c0,9.88,4.87,18.75,12.25,24.09v5.52c0,.71-.48,1.34-1.16,1.53l-15.77,4.51c-6.86,1.96-11.65,8.31-11.65,15.45v31.59c0,2.11,1.71,3.82,3.82,3.82s3.82-1.71,3.82-3.82v-31.59c0-3.74,2.51-7.08,6.11-8.1l15.77-4.51c.57-.16,1.11-.38,1.62-.64l9.68,9.68v35.16c0,2.11,1.71,3.82,3.82,3.82s3.82-1.71,3.82-3.82v-35.16l9.75-9.75c1.3,.64,2.6,1.01,3.55,1.28l3.87,1.11c-5.25,3.73-8.48,9.82-8.48,16.42v26.11c0,2.11,1.71,3.82,3.82,3.82s3.82-1.71,3.82-3.82v-26.11c0-4.95,2.93-9.44,7.46-11.44l21.84-9.65c6.84,13.71,20.83,22.44,36.29,22.44s29.46-8.71,36.3-22.43l21.83,9.64c4.53,2,7.46,6.49,7.46,11.44v26.11c0,2.11,1.71,3.82,3.82,3.82s3.82-1.71,3.82-3.82v-26.11c0-4.89-1.78-9.49-4.82-13.07l5.91-2.96,4.44,4.22c3.1,2.95,7.09,4.42,11.07,4.42s7.97-1.48,11.07-4.42l4.44-4.22,12.76,6.38c2.87,1.44,4.66,4.33,4.66,7.54v28.21c0,2.11,1.71,3.82,3.82,3.82s3.82-1.71,3.82-3.82v-28.21c0-6.13-3.4-11.63-8.88-14.37Zm-31.68-92.42c6.9,0,12.51,4.7,12.51,10.47,0,.24-.02,.48-.04,.72-3.84-1.61-8.05-2.5-12.47-2.5s-8.63,.89-12.47,2.5c-.02-.24-.04-.48-.04-.72,0-5.77,5.61-10.47,12.51-10.47ZM44.65,153.57l-8.7-8.7c.18-.72,.28-1.46,.28-2.22v-1.61c2.4,.79,4.94,1.26,7.56,1.34,.29,0,.59,.01,.88,.01,2.9,0,5.73-.44,8.42-1.27v1.53c0,.83,.09,1.58,.24,2.27l-8.66,8.66Zm-.64-18.84c-11.05-.33-20.04-10.06-20.04-21.69v-7.14c0-.59-.14-1.18-.4-1.71l-2.36-4.72c-.86-1.73-1.32-3.66-1.32-5.6v-.23c0-9.15,7.44-16.59,16.59-16.59h32.93v15.86c0,2.56-.61,5.13-1.75,7.42l-1.93,3.86c-.27,.53-.4,1.12-.4,1.71v8.17c0,5.64-2.23,10.91-6.28,14.84-4.05,3.93-9.39,6-15.04,5.83Zm31.93,13.46l-12.07-3.45c-3.15-.9-3.15-1.25-3.15-2.1v-5.26c1.28-.89,2.51-1.88,3.65-2.99,.77-.75,1.49-1.53,2.16-2.35,.61,1.24,1.55,2.33,2.77,3.12,3.06,1.98,8.84,5.28,17.34,8.31l-10.7,4.73Zm54.45,15.13c-12.43,0-23.69-6.95-29.3-17.89l5.56-2.46c4.34-1.92,7.14-6.22,7.14-10.96v-9.17c5.13,2.06,10.73,3.2,16.59,3.2s11.46-1.14,16.59-3.2v9.17c0,4.74,2.8,9.05,7.14,10.96l5.56,2.46c-5.61,10.95-16.82,17.89-29.3,17.89Zm33.12-24.55l-6.3-2.78c-1.57-.69-2.59-2.26-2.59-3.98v-13.13c12.28-7.96,20.41-21.79,20.41-37.48v-7.16c0-4.66-1.98-9.05-5.43-12.05-7.68-6.68-25.05-18.32-55.17-21.34-2.09-.21-3.97,1.32-4.18,3.42-.21,2.1,1.32,3.97,3.42,4.18,28.02,2.8,43.93,13.42,50.92,19.5,1.78,1.55,2.8,3.84,2.8,6.28v7.16c0,20.41-16.6,37.01-37.01,37.01s-37.01-16.6-37.01-37.01v-3.2c0-1.47,.81-2.81,2.18-3.6,4.78-2.75,11.07-7.84,13.96-16.5,.67-2-.41-4.16-2.42-4.83-2-.67-4.16,.41-4.83,2.42-2.12,6.37-6.9,10.2-10.52,12.29-3.7,2.13-6.01,6.05-6.01,10.22v3.2c0,15.69,8.14,29.52,20.41,37.48v13.13c0,1.72-1.02,3.28-2.59,3.98l-6.3,2.78c-12.3-3.29-20.19-7.68-23.82-10.03-.07-.05-.11-.1-.09-.22,1.33-7.88,4.76-30.6,7.76-71.34,1.11-15.03,6.41-27.62,15.33-36.41,8.72-8.59,20.45-13.13,33.94-13.13s25.22,4.54,33.94,13.13c8.92,8.79,14.22,21.38,15.33,36.41,3.01,40.74,6.43,63.46,7.76,71.34,.02,.12-.02,.17-.09,.22-3.63,2.35-11.52,6.74-23.82,10.03Zm40.63,6.39c0,.1-.06,.19-.15,.24l-11.97,5.98c-.14-.07-.28-.14-.42-.21l-17.47-7.71c8.49-3.03,14.27-6.33,17.34-8.31,2.63-1.71,4-4.81,3.47-7.91-.03-.17-.06-.36-.09-.54,2.15,4.32,5.36,7.98,9.28,10.68v7.77Zm21.87,7.1c-3.26,3.09-8.36,3.09-11.61,0l-3.55-3.37c.6-1.12,.93-2.4,.93-3.73v-4.07c2.67,.83,5.5,1.28,8.43,1.28s5.76-.45,8.43-1.28v4.06c0,1.33,.33,2.61,.93,3.73l-3.55,3.37Zm-5.81-17.53c-10.58,0-19.41-7.92-20.55-18.42-.06-.56-.25-1.1-.54-1.59-2.4-3.91-3.67-8.38-3.67-12.92,0-13.65,11.11-24.76,24.76-24.76s24.76,11.11,24.76,24.76c0,2.63-.43,5.24-1.26,7.73-10.85-11.02-29.93-15.34-30.85-15.54-1.13-.25-2.31,.03-3.21,.75-.9,.73-1.43,1.82-1.43,2.98,0,.02-.17,2.68-2.96,5.46-1.49,1.49-1.49,3.91,0,5.4,1.49,1.49,3.91,1.49,5.4,0,2.15-2.15,3.41-4.33,4.15-6.17,6.43,1.91,19.77,6.73,25.76,15.2-1.7,9.85-10.23,17.12-20.36,17.12Z"/><path d="M240.63,172.45c-2.11,0-3.82,1.71-3.82,3.82v19.45c0,2.11,1.71,3.82,3.82,3.82s3.82-1.71,3.82-3.82v-19.45c0-2.11-1.71-3.82-3.82-3.82Z"/></svg>