<?xml version="1.0" encoding="UTF-8"?><svg id="Grid" xmlns="http://www.w3.org/2000/svg" viewBox="0 0 159.28 166.28"><path d="M156.25,83.14c-1.82-2.08-4.42-3.38-7.27-3.9-.26-7.02,.26-9.87-.26-11.17l-18.45-34.3v-13.77c0-.78-.52-1.56-1.04-2.08L104.28,.52c-.52-.26-1.04-.52-1.56-.52H21.4c-1.56,0-2.6,1.04-2.6,2.6v30.92L.36,68.07c-.78,1.56,0,2.08-.26,95.61,0,1.3,1.3,2.6,2.6,2.6H146.63c1.56,0,2.6-1.3,2.6-2.6v-57.94l6.24-5.46c4.68-4.42,5.2-12.21,.78-17.15h0Zm-15.85,23.12l-9.35-10.39,4.42-3.9,9.35,10.39-4.42,3.9ZM5.03,74.05l64.69,42.35L5.03,158.75V74.05Zm69.37,45.47l12.73,8.31-2.08,1.82c-.26,.26-.52,.52-.52,.78l-13.77,24.94c-.52,1.04-.52,2.08,.26,2.86s1.82,1.04,2.86,.78l26.5-10.65c.26,0,.52-.26,.78-.52l7.02-6.24,29.62,19.49H11.27l63.14-41.57Zm12.99,16.63l7.79,8.83-16.37,6.5,8.57-15.33Zm12.47,6.24l-9.35-10.39,36.63-32.48,9.35,10.39-36.63,32.48Zm34.3-56.12l-8.31,7.53h0l-34.56,30.66-11.95-7.79,64.69-42.35v5.46c-1.82,.52-3.38,1.3-4.94,2.6l-4.94,3.9ZM105.32,7.53l14.03,9.87h-14.03V7.53Zm37.67,60.8l-12.73,8.31v-31.96l12.73,23.64ZM100.13,5.2v14.81c0,1.56,1.04,2.6,2.6,2.6h22.34v57.42l-50.66,33.26L24,80.02V5.2H100.13ZM18.8,44.43v32.22l-12.73-8.31,12.73-23.9Zm124.97,114.32l-31.44-20.79,31.44-27.8v48.59Zm8.05-62.36l-2.86,2.6-9.35-10.39,2.86-2.6c2.86-2.6,7.27-2.34,9.87,.52s2.34,7.27-.52,9.87Z"/><path d="M36.73,22.6h49.62c1.56,0,2.6-1.04,2.6-2.6s-1.04-2.6-2.6-2.6H36.73c-1.56,0-2.6,1.04-2.6,2.6s1.04,2.6,2.6,2.6h0Z"/><path d="M36.21,40.01c0,1.56,1.04,2.6,2.6,2.6H110c1.56,0,2.6-1.04,2.6-2.6s-1.04-2.6-2.6-2.6H38.81c-1.3,0-2.6,1.04-2.6,2.6h0Z"/><path d="M110.26,54.56H38.81c-1.56,0-2.6,1.04-2.6,2.6s1.04,2.6,2.6,2.6H110c1.56,0,2.6-1.04,2.6-2.6s-1.04-2.6-2.34-2.6h0Z"/><path d="M110.26,71.71H38.81c-1.56,0-2.6,1.04-2.6,2.6s1.04,2.6,2.6,2.6H110c1.56,0,2.6-1.04,2.6-2.6s-1.04-2.6-2.34-2.6h0Z"/></svg>