<?xml version="1.0" encoding="UTF-8"?><svg id="Capa_1" xmlns="http://www.w3.org/2000/svg" xmlns:xlink="http://www.w3.org/1999/xlink" viewBox="0 0 332.62 307.53"><defs><style>.cls-1{fill:#ede9e5;}.cls-2{fill:#e0b270;}.cls-3{fill:url(#Degradado_sin_nombre_2);}</style><linearGradient id="Degradado_sin_nombre_2" x1="143.38" y1="180.22" x2="190.02" y2="-1.49" gradientUnits="userSpaceOnUse"><stop offset=".11" stop-color="#960d53"/><stop offset=".24" stop-color="#9a1551"/><stop offset=".43" stop-color="#a82b4b"/><stop offset=".67" stop-color="#be4f42"/><stop offset=".93" stop-color="#dc7f37"/></linearGradient></defs><g><g><path class="cls-3" d="M113.48,183.67c-10.21,0-19.83-4-27.1-11.28-7.27-7.27-11.28-16.9-11.28-27.1V40.74c0-10.21,4-19.83,11.28-27.1,7.27-7.27,16.9-11.28,27.1-11.28h104.55c10.21,0,19.83,4,27.1,11.28,7.27,7.27,11.28,16.9,11.28,27.1v104.55c0,10.21-4,19.83-11.28,27.1-7.27,7.27-16.9,11.28-27.1,11.28H113.48Z"/><path class="cls-1" d="M218.04,4.72c4.84,0,9.54,.96,13.97,2.84,4.29,1.82,8.14,4.43,11.46,7.75,3.32,3.32,5.92,7.17,7.75,11.46,1.88,4.43,2.84,9.13,2.84,13.97v104.55c0,4.84-.96,9.54-2.84,13.97-1.82,4.29-4.43,8.14-7.75,11.46-3.32,3.32-7.17,5.92-11.46,7.75-4.43,1.88-9.13,2.84-13.97,2.84H113.48c-4.84,0-9.54-.96-13.97-2.84-4.29-1.82-8.14-4.43-11.46-7.75-3.32-3.32-5.92-7.17-7.75-11.46-1.88-4.43-2.84-9.13-2.84-13.97V40.74c0-4.84,.96-9.54,2.84-13.97,1.82-4.29,4.43-8.14,7.75-11.46,3.32-3.32,7.17-5.92,11.46-7.75,4.43-1.88,9.13-2.84,13.97-2.84h104.55m0-4.72H113.48c-22.41,0-40.74,18.33-40.74,40.74v104.55c0,22.41,18.33,40.74,40.74,40.74h104.55c22.41,0,40.74-18.33,40.74-40.74V40.74c0-22.41-18.33-40.74-40.74-40.74h0Z"/></g><path class="cls-1" d="M233.01,49.42c-.19-3.53-2.74-6.53-6.2-7.31-21.42-4.81-40.36-13.26-56.28-25.14-2.85-2.13-6.68-2.13-9.53,0-15.93,11.87-34.86,20.33-56.28,25.14-3.45,.77-6,3.78-6.2,7.31-1.15,20.88,2.31,40.53,10.28,58.53,.52,1.18,1.06,2.35,1.62,3.52,1.26-1.39,2.46-3.01,3.61-4.78,.96-1.48,1.88-3.07,2.75-4.7,.56-1.04,1.1-2.11,1.61-3.17,4.5-9.29,7.43-19.02,7.7-19.93l3.07-9.06c1.05-3.11,4.27-4.96,7.66-4.41l13.18,2.18c1.67,.28,3.13,1.19,4.1,2.57,.98,1.38,1.35,3.06,1.05,4.73-.62,3.5-3.99,5.89-7.5,5.34l-7.51-1.19c-.96-.15-1.87,.51-2.02,1.47-.15,.96,.51,1.87,1.47,2.02l7.51,1.19c5.4,.85,10.57-2.83,11.52-8.21,.44-2.49-.07-4.99-1.45-7.09l21.64-15.98c2.66-1.96,6.42-1.39,8.39,1.28l.34,.45c1.97,2.67,1.41,6.44-1.25,8.4l-31.11,23.14-4.69,3.47c-2.2,1.62-3.64,4.01-4.04,6.71-.41,2.71,.26,5.41,1.89,7.61,1.63,2.2,4.01,3.64,6.72,4.04,.41,.06,.82,.1,1.22,.11-1.16,2.7-.9,5.93,.96,8.45,1.58,2.15,3.99,3.33,6.47,3.45-.12,.4-.22,.81-.28,1.22-.33,2.19,.21,4.38,1.53,6.16l.88,1.19c.94,1.26,2.17,2.18,3.52,2.74-5.03,4.6-12.98,8.88-20.01,12.13-.89,.41-1.77,.81-2.62,1.19-1.65,.73-3.22,1.39-4.64,1.98-2.2,.9-4.05,1.62-5.37,2.11,.9,.92,1.82,1.84,2.75,2.74,6.46,6.3,13.66,12.34,21.58,18.1,1.4,1.02,3.04,1.53,4.68,1.53s3.28-.51,4.68-1.53c22-15.98,38.43-34.15,48.81-53.99,10.42-19.91,15.05-42.02,13.75-65.72Zm-77.41,54.64c-1.77-.27-3.33-1.21-4.4-2.65-2.19-2.97-1.57-7.16,1.38-9.36l.02,.02,5.9-4.39,5.03-3.72c1.17-.86,2.55-1.31,3.97-1.31,.34,0,.67,.02,1.01,.08,1.77,.27,3.33,1.21,4.4,2.65,1.07,1.44,1.51,3.21,1.24,4.99-.27,1.77-1.21,3.33-2.65,4.4l-10.92,8.06c-1.44,1.07-3.21,1.51-4.98,1.24Zm4.5,9.96c-1.64-2.22-1.17-5.36,1.05-7l10.29-7.59c.87-.64,1.9-.98,2.96-.98,.25,0,.5,.02,.75,.06,1.32,.2,2.49,.9,3.28,1.98,1.64,2.22,1.17,5.35-1.05,6.99l-10.28,7.59c-2.22,1.64-5.36,1.17-7-1.05Zm8.6,12.02l-.88-1.19c-.75-1.02-1.07-2.28-.88-3.54,.19-1.26,.86-2.37,1.88-3.12l7.59-5.61c.85-.63,1.84-.93,2.82-.93,1.46,0,2.9,.67,3.84,1.93l.88,1.19c.75,1.02,1.07,2.28,.88,3.54-.19,1.26-.86,2.37-1.88,3.12l-7.59,5.61c-2.11,1.56-5.1,1.11-6.66-1Zm5.14,5.36c1.27-.2,2.51-.7,3.61-1.52l7.59-5.61c3.68-2.72,4.46-7.92,1.75-11.6l-.88-1.19c-1.17-1.58-2.79-2.62-4.56-3.09,2.08-2.93,2.16-6.98-.08-10.02-1.28-1.74-3.14-2.9-5.25-3.31,.84-1.24,1.39-2.66,1.62-4.19,.41-2.71-.26-5.41-1.89-7.61-1.49-2.02-3.63-3.4-6.07-3.92l18.73-13.94c4.23-3.12,5.12-9.11,1.99-13.34l-.34-.45c-3.13-4.24-9.11-5.14-13.34-2.02l-22,16.24c-1.21-.88-2.63-1.48-4.15-1.73l-13.18-2.18c-5.1-.84-9.97,2-11.58,6.76l-3.08,9.09-.02,.07c-.04,.14-2.36,7.93-5.98,16.14-3.75-11.88-5.28-24.54-4.55-37.81,.08-1.41,1.09-2.61,2.48-2.92,18.7-4.2,35.25-11.59,49.19-21.98,1.14-.85,2.68-.85,3.82,0,13.94,10.39,30.49,17.79,49.19,21.98,1.38,.31,2.4,1.51,2.48,2.92,1.07,19.49-2.73,37.66-11.28,53.99-8.57,16.37-22.17,31.39-40.42,44.65-1.12,.81-2.63,.81-3.76,0-4.11-2.99-7.99-6.06-11.62-9.23,7.91-3.76,16.71-8.76,21.59-14.19Zm51.52-48.79c-2.18,10.43-5.82,20.55-10.8,30.08-10.01,19.11-25.9,36.66-47.24,52.16-.47,.34-1.02,.51-1.57,.51s-1.1-.17-1.57-.51c-7.03-5.11-13.47-10.44-19.31-15.98,1.48-.62,3.08-1.31,4.75-2.07,3.95,3.49,8.18,6.87,12.69,10.15,1.03,.75,2.23,1.12,3.43,1.12s2.41-.37,3.44-1.12c18.58-13.5,32.44-28.83,41.2-45.56,8.78-16.77,12.67-35.39,11.58-55.37-.14-2.59-2.01-4.79-4.54-5.36-18.33-4.11-34.54-11.36-48.18-21.52-2.09-1.56-4.9-1.56-6.99,0-13.64,10.17-29.85,17.41-48.18,21.52-2.53,.57-4.4,2.77-4.54,5.36-.8,14.61,1.07,28.51,5.57,41.48-.87,1.8-1.81,3.58-2.78,5.24-2.67-6.52-4.74-13.26-6.17-20.13-2.18-10.45-2.98-21.52-2.35-32.89,.06-1.17,.91-2.17,2.06-2.43,22.15-4.97,41.76-13.74,58.29-26.06,.48-.36,1.04-.54,1.6-.54s1.12,.18,1.6,.54c16.53,12.32,36.14,21.09,58.29,26.06,1.15,.26,2,1.26,2.06,2.43,.62,11.38-.17,22.45-2.35,32.89Z"/></g><g><path class="cls-1" d="M65.96,213.47h9.63c6.53,0,11.02,3.71,11.02,9.77s-4.49,9.77-11.02,9.77h-9.63v-19.54Zm9.35,14.4c2.76,0,4.66-1.65,4.66-4.63s-1.9-4.63-4.66-4.63h-2.76v9.27h2.76Z"/><path class="cls-1" d="M105.25,228.04v4.97h-16.24v-19.54h15.88v4.97h-9.41v2.29h8.26v4.74h-8.26v2.57h9.77Z"/><path class="cls-1" d="M127.05,213.47v19.54h-5.41l-7.42-8.88v8.88h-6.42v-19.54h5.41l7.42,8.87v-8.87h6.42Z"/><path class="cls-1" d="M130.06,224.21v-10.74h6.59v10.55c0,2.99,1.14,4.1,2.99,4.1s2.99-1.12,2.99-4.1v-10.55h6.48v10.74c0,5.86-3.52,9.24-9.52,9.24s-9.52-3.38-9.52-9.24Z"/><path class="cls-1" d="M171.36,213.47v19.54h-5.41l-7.42-8.88v8.88h-6.42v-19.54h5.41l7.42,8.87v-8.87h6.42Z"/><path class="cls-1" d="M173.76,223.24c0-6,4.6-10.21,10.88-10.21,3.82,0,6.84,1.4,8.76,3.91l-4.16,3.71c-1.14-1.45-2.51-2.29-4.27-2.29-2.73,0-4.58,1.9-4.58,4.88s1.84,4.88,4.58,4.88c1.76,0,3.13-.84,4.27-2.29l4.16,3.71c-1.93,2.51-4.94,3.91-8.76,3.91-6.28,0-10.88-4.21-10.88-10.21Z"/><path class="cls-1" d="M195.3,213.47h6.59v19.54h-6.59v-19.54Z"/><path class="cls-1" d="M218.38,229.6h-7.42l-1.31,3.4h-6.7l8.54-19.54h6.47l8.54,19.54h-6.81l-1.31-3.4Zm-1.81-4.74l-1.9-4.91-1.9,4.91h3.8Z"/><path class="cls-1" d="M245.86,220.84c0,4.52-3.46,7.37-8.9,7.37h-2.82v4.8h-6.59v-19.54h9.41c5.44,0,8.9,2.85,8.9,7.37Zm-6.64,0c0-1.42-.87-2.29-2.68-2.29h-2.4v4.58h2.4c1.81,0,2.68-.87,2.68-2.29Z"/><path class="cls-1" d="M266.32,220.84c0,4.52-3.46,7.37-8.9,7.37h-2.82v4.8h-6.59v-19.54h9.41c5.44,0,8.9,2.85,8.9,7.37Zm-6.64,0c0-1.42-.87-2.29-2.68-2.29h-2.4v4.58h2.4c1.81,0,2.68-.87,2.68-2.29Z"/></g><g><path class="cls-2" d="M12.28,259.46l.84-1.88c1.04,.84,2.7,1.43,4.3,1.43,2.03,0,2.88-.73,2.88-1.69,0-2.81-7.74-.97-7.74-5.8,0-2.1,1.67-3.89,5.25-3.89,1.56,0,3.2,.41,4.33,1.15l-.76,1.88c-1.17-.69-2.46-1.02-3.59-1.02-2.01,0-2.83,.78-2.83,1.77,0,2.77,7.72,.97,7.72,5.75,0,2.08-1.69,3.87-5.26,3.87-2.03,0-4.05-.63-5.13-1.56Z"/><path class="cls-2" d="M25.08,247.82h2.42v13.02h-2.42v-13.02Z"/><path class="cls-2" d="M29.91,259.46l.84-1.88c1.04,.84,2.7,1.43,4.3,1.43,2.03,0,2.88-.73,2.88-1.69,0-2.81-7.74-.97-7.74-5.8,0-2.1,1.67-3.89,5.25-3.89,1.56,0,3.2,.41,4.33,1.15l-.76,1.88c-1.17-.69-2.46-1.02-3.59-1.02-2.01,0-2.83,.78-2.83,1.77,0,2.77,7.72,.97,7.72,5.75,0,2.08-1.69,3.87-5.26,3.87-2.03,0-4.05-.63-5.13-1.56Z"/><path class="cls-2" d="M45.17,249.87h-4.32v-2.05h11.05v2.05h-4.32v10.97h-2.42v-10.97Z"/><path class="cls-2" d="M63.49,258.81v2.03h-9.77v-13.02h9.5v2.03h-7.09v3.39h6.29v1.99h-6.29v3.59h7.35Z"/><path class="cls-2" d="M78.15,260.84l-.02-8.63-4.28,7.14h-1.08l-4.28-7.03v8.52h-2.31v-13.02h1.99l5.17,8.63,5.08-8.63h1.99l.02,13.02h-2.29Z"/><path class="cls-2" d="M92.4,257.83h-6.51l-1.28,3.01h-2.49l5.86-13.02h2.38l5.88,13.02h-2.53l-1.3-3.01Zm-.8-1.9l-2.46-5.69-2.44,5.69h4.89Z"/><path class="cls-2" d="M103.02,247.82h2.42v13.02h-2.42v-13.02Z"/><path class="cls-2" d="M120.53,247.82v13.02h-1.99l-7.18-8.82v8.82h-2.4v-13.02h1.99l7.18,8.82v-8.82h2.4Z"/><path class="cls-2" d="M126.67,249.87h-4.32v-2.05h11.05v2.05h-4.32v10.97h-2.42v-10.97Z"/><path class="cls-2" d="M144.99,258.81v2.03h-9.77v-13.02h9.5v2.03h-7.09v3.39h6.29v1.99h-6.29v3.59h7.35Z"/><path class="cls-2" d="M156.52,254.18h2.29v5.19c-1.36,1.1-3.25,1.66-5.1,1.66-4.04,0-7.01-2.81-7.01-6.7s2.98-6.7,7.05-6.7c2.18,0,4,.73,5.23,2.12l-1.53,1.49c-1.02-1.02-2.19-1.49-3.59-1.49-2.77,0-4.72,1.88-4.72,4.58s1.95,4.58,4.71,4.58c.93,0,1.84-.19,2.68-.67v-4.06Z"/><path class="cls-2" d="M170.51,260.84l-2.66-3.81c-.17,.02-.33,.02-.5,.02h-2.94v3.79h-2.42v-13.02h5.36c3.42,0,5.54,1.75,5.54,4.63,0,1.97-1,3.42-2.77,4.11l2.99,4.28h-2.6Zm-3.27-10.97h-2.83v5.19h2.83c2.12,0,3.22-.97,3.22-2.6s-1.1-2.59-3.22-2.59Z"/><path class="cls-2" d="M184.04,257.83h-6.51l-1.28,3.01h-2.49l5.86-13.02h2.38l5.88,13.02h-2.53l-1.3-3.01Zm-.8-1.9l-2.46-5.69-2.44,5.69h4.89Z"/><path class="cls-2" d="M189.53,247.82h2.42v10.97h6.81v2.05h-9.23v-13.02Z"/><path class="cls-2" d="M205.8,247.82h5.69c4.22,0,7.11,2.6,7.11,6.51s-2.88,6.51-7.11,6.51h-5.69v-13.02Zm5.58,10.97c2.9,0,4.78-1.77,4.78-4.46s-1.88-4.46-4.78-4.46h-3.16v8.93h3.16Z"/><path class="cls-2" d="M230.93,258.81v2.03h-9.77v-13.02h9.5v2.03h-7.09v3.39h6.29v1.99h-6.29v3.59h7.35Z"/><path class="cls-2" d="M252.51,262.14c-.86,1-2.03,1.54-3.4,1.54-1.77,0-3.09-.69-5-2.7-3.65-.32-6.27-3.05-6.27-6.66,0-3.85,2.98-6.7,7.01-6.7s7.01,2.83,7.01,6.7c0,3.14-1.97,5.6-4.87,6.42,.74,.8,1.41,1.1,2.18,1.1,.86,0,1.6-.35,2.23-1.04l1.12,1.34Zm-7.66-3.24c2.62,0,4.58-1.92,4.58-4.58s-1.95-4.58-4.58-4.58-4.58,1.92-4.58,4.58,1.95,4.58,4.58,4.58Z"/><path class="cls-2" d="M254.32,255.17v-7.35h2.42v7.25c0,2.68,1.21,3.83,3.31,3.83s3.29-1.15,3.29-3.83v-7.25h2.38v7.35c0,3.79-2.14,5.86-5.69,5.86s-5.71-2.06-5.71-5.86Z"/><path class="cls-2" d="M278.87,258.81v2.03h-9.77v-13.02h9.5v2.03h-7.09v3.39h6.29v1.99h-6.29v3.59h7.35Z"/><path class="cls-2" d="M279.58,259.15l1.38-1.66c.71,.97,1.56,1.49,2.59,1.49,1.34,0,2.03-.8,2.03-2.4v-6.73h-4.63v-2.03h7.05v8.63c0,3.07-1.53,4.58-4.39,4.58-1.64,0-3.12-.67-4.02-1.88Z"/><path class="cls-2" d="M299.54,257.83h-6.51l-1.28,3.01h-2.49l5.86-13.02h2.38l5.88,13.02h-2.53l-1.3-3.01Zm-.8-1.9l-2.46-5.69-2.44,5.69h4.89Z"/><path class="cls-2" d="M303.93,259.46l.84-1.88c1.04,.84,2.7,1.43,4.3,1.43,2.03,0,2.88-.73,2.88-1.69,0-2.81-7.74-.97-7.74-5.8,0-2.1,1.67-3.89,5.25-3.89,1.56,0,3.2,.41,4.33,1.15l-.76,1.88c-1.17-.69-2.46-1.02-3.59-1.02-2.01,0-2.83,.78-2.83,1.77,0,2.77,7.72,.97,7.72,5.75,0,2.08-1.69,3.87-5.26,3.87-2.03,0-4.05-.63-5.13-1.56Z"/><path class="cls-2" d="M319.15,259.43c0,.41-.09,.74-.43,1.6l-.95,2.62h-1.51l.74-2.85c-.52-.22-.87-.71-.87-1.38,0-.93,.65-1.54,1.51-1.54s1.51,.63,1.51,1.54Z"/><path class="cls-2" d="M0,271.07H5.69c4.22,0,7.11,2.6,7.11,6.51s-2.88,6.51-7.11,6.51H0v-13.02Zm5.58,10.97c2.9,0,4.78-1.77,4.78-4.46s-1.88-4.46-4.78-4.46H2.42v8.93h3.16Z"/><path class="cls-2" d="M25.13,282.07v2.03H15.37v-13.02h9.5v2.03h-7.09v3.39h6.29v1.99h-6.29v3.59h7.35Z"/><path class="cls-2" d="M39.4,271.07v13.02h-1.99l-7.18-8.82v8.82h-2.4v-13.02h1.99l7.18,8.82v-8.82h2.4Z"/><path class="cls-2" d="M42.79,278.42v-7.35h2.42v7.25c0,2.68,1.21,3.83,3.31,3.83s3.29-1.15,3.29-3.83v-7.25h2.38v7.35c0,3.79-2.14,5.86-5.69,5.86s-5.71-2.06-5.71-5.86Z"/><path class="cls-2" d="M69.15,271.07v13.02h-1.99l-7.18-8.82v8.82h-2.4v-13.02h1.99l7.18,8.82v-8.82h2.4Z"/><path class="cls-2" d="M71.71,277.58c0-3.89,2.98-6.7,6.98-6.7,2.12,0,3.94,.76,5.15,2.18l-1.56,1.47c-.95-1.02-2.12-1.53-3.48-1.53-2.7,0-4.65,1.9-4.65,4.58s1.95,4.58,4.65,4.58c1.36,0,2.53-.5,3.48-1.54l1.56,1.49c-1.21,1.41-3.03,2.18-5.17,2.18-3.98,0-6.96-2.81-6.96-6.7Z"/><path class="cls-2" d="M86.17,271.07h2.42v13.02h-2.42v-13.02Z"/><path class="cls-2" d="M100.55,281.08h-6.51l-1.28,3.01h-2.49l5.86-13.02h2.38l5.88,13.02h-2.53l-1.3-3.01Zm-.8-1.9l-2.46-5.69-2.44,5.69h4.89Z"/><path class="cls-2" d="M104.94,282.72l.84-1.88c1.04,.84,2.7,1.43,4.3,1.43,2.03,0,2.88-.73,2.88-1.69,0-2.81-7.74-.97-7.74-5.8,0-2.1,1.67-3.89,5.25-3.89,1.56,0,3.2,.41,4.33,1.15l-.76,1.88c-1.17-.69-2.46-1.02-3.59-1.02-2.01,0-2.83,.78-2.83,1.77,0,2.77,7.72,.97,7.72,5.75,0,2.08-1.69,3.87-5.26,3.87-2.03,0-4.05-.63-5.13-1.56Z"/><path class="cls-2" d="M128.49,279.5v4.59h-2.42v-4.56l-5.12-8.46h2.59l3.81,6.34,3.85-6.34h2.38l-5.1,8.43Z"/><path class="cls-2" d="M148.82,284.09l-2.66-3.81c-.17,.02-.33,.02-.5,.02h-2.94v3.79h-2.42v-13.02h5.36c3.42,0,5.54,1.75,5.54,4.63,0,1.97-1,3.42-2.77,4.11l2.99,4.28h-2.6Zm-3.27-10.97h-2.83v5.19h2.83c2.12,0,3.22-.97,3.22-2.6s-1.1-2.59-3.22-2.59Z"/><path class="cls-2" d="M163.67,282.07v2.03h-9.77v-13.02h9.5v2.03h-7.09v3.39h6.29v1.99h-6.29v3.59h7.35Z"/><path class="cls-2" d="M165.38,277.58c0-3.89,2.98-6.7,6.98-6.7,2.12,0,3.94,.76,5.15,2.18l-1.56,1.47c-.95-1.02-2.12-1.53-3.48-1.53-2.7,0-4.65,1.9-4.65,4.58s1.95,4.58,4.65,4.58c1.36,0,2.53-.5,3.48-1.54l1.56,1.49c-1.21,1.41-3.03,2.18-5.17,2.18-3.98,0-6.96-2.81-6.96-6.7Z"/><path class="cls-2" d="M178.62,277.58c0-3.85,2.98-6.7,7.01-6.7s7.01,2.83,7.01,6.7-2.98,6.7-7.01,6.7-7.01-2.85-7.01-6.7Zm11.59,0c0-2.66-1.95-4.58-4.58-4.58s-4.58,1.92-4.58,4.58,1.95,4.58,4.58,4.58,4.58-1.92,4.58-4.58Z"/><path class="cls-2" d="M206.79,271.07v13.02h-1.99l-7.18-8.82v8.82h-2.4v-13.02h1.99l7.18,8.82v-8.82h2.4Z"/><path class="cls-2" d="M209.36,277.58c0-3.85,2.98-6.7,7.01-6.7s7.01,2.83,7.01,6.7-2.98,6.7-7.01,6.7-7.01-2.85-7.01-6.7Zm11.59,0c0-2.66-1.95-4.58-4.58-4.58s-4.58,1.92-4.58,4.58,1.95,4.58,4.58,4.58,4.58-1.92,4.58-4.58Z"/><path class="cls-2" d="M225.02,277.58c0-3.89,2.98-6.7,6.98-6.7,2.12,0,3.94,.76,5.15,2.18l-1.56,1.47c-.95-1.02-2.12-1.53-3.48-1.53-2.7,0-4.65,1.9-4.65,4.58s1.95,4.58,4.65,4.58c1.36,0,2.53-.5,3.48-1.54l1.56,1.49c-1.21,1.41-3.03,2.18-5.17,2.18-3.98,0-6.96-2.81-6.96-6.7Z"/><path class="cls-2" d="M239.48,271.07h2.42v13.02h-2.42v-13.02Z"/><path class="cls-2" d="M257.37,284.09l-.02-8.63-4.28,7.14h-1.08l-4.28-7.03v8.52h-2.31v-13.02h1.99l5.17,8.63,5.08-8.63h1.99l.02,13.02h-2.29Z"/><path class="cls-2" d="M263.17,271.07h2.42v13.02h-2.42v-13.02Z"/><path class="cls-2" d="M278.87,282.07v2.03h-9.77v-13.02h9.5v2.03h-7.09v3.39h6.29v1.99h-6.29v3.59h7.35Z"/><path class="cls-2" d="M293.14,271.07v13.02h-1.99l-7.18-8.82v8.82h-2.4v-13.02h1.99l7.18,8.82v-8.82h2.4Z"/><path class="cls-2" d="M299.28,273.12h-4.32v-2.05h11.05v2.05h-4.32v10.97h-2.42v-10.97Z"/><path class="cls-2" d="M306.72,277.58c0-3.85,2.98-6.7,7.01-6.7s7.01,2.83,7.01,6.7-2.98,6.7-7.01,6.7-7.01-2.85-7.01-6.7Zm11.59,0c0-2.66-1.95-4.58-4.58-4.58s-4.58,1.92-4.58,4.58,1.95,4.58,4.58,4.58,4.58-1.92,4.58-4.58Z"/><path class="cls-2" d="M322.22,282.72l.84-1.88c1.04,.84,2.7,1.43,4.3,1.43,2.03,0,2.88-.73,2.88-1.69,0-2.81-7.74-.97-7.74-5.8,0-2.1,1.67-3.89,5.25-3.89,1.56,0,3.2,.41,4.33,1.15l-.76,1.88c-1.17-.69-2.46-1.02-3.59-1.02-2.01,0-2.83,.78-2.83,1.77,0,2.77,7.72,.97,7.72,5.75,0,2.08-1.69,3.87-5.26,3.87-2.03,0-4.05-.63-5.13-1.56Z"/><path class="cls-2" d="M62.39,304.34h-6.51l-1.28,3.01h-2.49l5.86-13.02h2.38l5.88,13.02h-2.53l-1.3-3.01Zm-.8-1.9l-2.46-5.69-2.44,5.69h4.89Z"/><path class="cls-2" d="M73.02,294.33h2.42v10.97h6.81v2.05h-9.23v-13.02Z"/><path class="cls-2" d="M92.7,304.34h-6.51l-1.28,3.01h-2.49l5.86-13.02h2.38l5.88,13.02h-2.53l-1.3-3.01Zm-.8-1.9l-2.46-5.69-2.44,5.69h4.89Z"/><path class="cls-2" d="M112.21,300.69h2.29v5.19c-1.36,1.1-3.25,1.66-5.1,1.66-4.04,0-7.01-2.81-7.01-6.7s2.98-6.7,7.05-6.7c2.18,0,4,.73,5.23,2.12l-1.53,1.49c-1.02-1.02-2.19-1.49-3.59-1.49-2.77,0-4.72,1.88-4.72,4.58s1.95,4.58,4.71,4.58c.93,0,1.84-.19,2.68-.67v-4.06Z"/><path class="cls-2" d="M127.45,305.32v2.03h-9.77v-13.02h9.5v2.03h-7.09v3.39h6.29v1.99h-6.29v3.59h7.35Z"/><path class="cls-2" d="M129.05,305.97l.84-1.88c1.04,.84,2.7,1.43,4.3,1.43,2.03,0,2.88-.73,2.88-1.69,0-2.81-7.74-.97-7.74-5.8,0-2.1,1.67-3.89,5.25-3.89,1.56,0,3.2,.41,4.33,1.15l-.76,1.88c-1.17-.69-2.46-1.02-3.59-1.02-2.01,0-2.83,.78-2.83,1.77,0,2.77,7.72,.97,7.72,5.75,0,2.08-1.69,3.87-5.26,3.87-2.03,0-4.05-.63-5.13-1.56Z"/><path class="cls-2" d="M144.3,296.37h-4.32v-2.05h11.05v2.05h-4.32v10.97h-2.42v-10.97Z"/><path class="cls-2" d="M152.86,294.33h2.42v13.02h-2.42v-13.02Z"/><path class="cls-2" d="M157.86,300.84c0-3.85,2.98-6.7,7.01-6.7s7.01,2.83,7.01,6.7-2.98,6.7-7.01,6.7-7.01-2.85-7.01-6.7Zm11.59,0c0-2.66-1.95-4.58-4.58-4.58s-4.58,1.92-4.58,4.58,1.95,4.58,4.58,4.58,4.58-1.92,4.58-4.58Zm-3.63-10.12h2.73l-3.24,2.55h-2.01l2.51-2.55Z"/><path class="cls-2" d="M186.03,294.33v13.02h-1.99l-7.18-8.82v8.82h-2.4v-13.02h1.99l7.18,8.82v-8.82h2.4Z"/><path class="cls-2" d="M205.56,298.96c0,2.86-2.12,4.63-5.54,4.63h-2.94v3.76h-2.42v-13.02h5.36c3.42,0,5.54,1.75,5.54,4.63Zm-2.44,0c0-1.64-1.1-2.59-3.22-2.59h-2.83v5.17h2.83c2.12,0,3.22-.95,3.22-2.59Z"/><path class="cls-2" d="M207.87,301.68v-7.35h2.42v7.25c0,2.68,1.21,3.83,3.31,3.83s3.29-1.15,3.29-3.83v-7.25h2.38v7.35c0,3.79-2.14,5.86-5.69,5.86s-5.71-2.06-5.71-5.86Zm6.68-10.96h2.73l-3.24,2.55h-2.01l2.51-2.55Z"/><path class="cls-2" d="M234.23,303.81c0,2.23-1.75,3.53-5.1,3.53h-6.47v-13.02h6.1c3.12,0,4.8,1.32,4.8,3.39,0,1.34-.67,2.33-1.67,2.86,1.4,.45,2.34,1.54,2.34,3.24Zm-9.15-7.59v3.59h3.42c1.67,0,2.62-.6,2.62-1.79s-.95-1.8-2.62-1.8h-3.42Zm6.71,7.35c0-1.3-.99-1.88-2.81-1.88h-3.91v3.76h3.91c1.82,0,2.81-.58,2.81-1.88Z"/><path class="cls-2" d="M236.81,294.33h2.42v10.97h6.81v2.05h-9.23v-13.02Z"/><path class="cls-2" d="M247.96,294.33h2.42v13.02h-2.42v-13.02Z"/><path class="cls-2" d="M252.96,300.84c0-3.89,2.98-6.7,6.98-6.7,2.12,0,3.94,.76,5.15,2.18l-1.56,1.47c-.95-1.02-2.12-1.53-3.48-1.53-2.7,0-4.65,1.9-4.65,4.58s1.95,4.58,4.65,4.58c1.36,0,2.53-.5,3.48-1.54l1.56,1.49c-1.21,1.41-3.03,2.18-5.17,2.18-3.98,0-6.96-2.81-6.96-6.7Z"/><path class="cls-2" d="M275.58,304.34h-6.51l-1.28,3.01h-2.49l5.86-13.02h2.38l5.88,13.02h-2.53l-1.3-3.01Zm-.8-1.9l-2.46-5.69-2.44,5.69h4.89Z"/></g></svg>