<?xml version="1.0" encoding="UTF-8"?><svg id="Capa_1" xmlns="http://www.w3.org/2000/svg" viewBox="0 0 2119.28 160"><defs><style>.cls-1{fill:#e6e6e6;}.cls-2{opacity:.3;}</style></defs><g class="cls-2"><g><g><polygon class="cls-1" points="571.6 143.2 562.96 143.2 562.96 151.6 554.32 151.6 554.32 160 562.96 160 562.96 151.6 571.6 151.6 571.6 143.2 580.16 143.2 580.16 134.72 571.6 134.72 571.6 143.2"/><polygon class="cls-1" points="597.44 117.92 588.8 117.92 588.8 126.32 580.16 126.32 580.16 134.72 588.8 134.72 588.8 126.32 597.44 126.32 597.44 117.92 606 117.92 606 109.52 597.44 109.52 597.44 117.92"/><rect class="cls-1" x="545.76" y="58.96" width="8.64" height="8.4"/><rect class="cls-1" x="537.12" y="67.36" width="8.64" height="8.4"/><polygon class="cls-1" points="511.28 101.04 519.92 101.04 519.92 92.64 528.48 92.64 528.48 84.24 519.92 84.24 519.92 92.64 511.28 92.64 511.28 101.04 502.72 101.04 502.72 109.52 511.28 109.52 511.28 101.04"/><rect class="cls-1" x="554.32" y="50.56" width="8.64" height="8.4"/><rect class="cls-1" x="571.6" y="84.24" width="8.64" height="8.4"/><polygon class="cls-1" points="588.8 75.84 597.44 75.84 597.44 67.36 588.8 67.36 588.8 75.76 580.16 75.76 580.16 84.24 588.8 84.24 588.8 75.84"/><rect class="cls-1" x="597.44" y="58.96" width="8.64" height="8.4"/><polygon class="cls-1" points="554.32 101.04 554.32 109.52 562.96 109.52 562.96 101.04 571.6 101.04 571.6 92.64 562.96 92.64 562.96 101.04 554.32 101.04"/><polygon class="cls-1" points="545.76 16.88 554.32 16.88 554.32 8.4 545.76 8.4 545.76 16.88 537.12 16.88 537.12 25.28 545.76 25.28 545.76 16.88"/><polygon class="cls-1" points="511.28 50.56 519.92 50.56 519.92 42.08 528.48 42.08 528.48 33.68 537.12 33.68 537.12 25.28 528.48 25.28 528.48 33.68 519.92 33.68 519.92 42.08 511.28 42.08 511.28 50.56 502.72 50.56 502.72 58.96 511.28 58.96 511.28 50.56"/><rect class="cls-1" x="554.32" width="8.64" height="8.4"/><polygon class="cls-1" points="545.76 151.6 554.32 151.6 554.32 143.2 545.76 143.2 545.76 134.72 537.12 134.72 537.12 143.2 545.76 143.2 545.76 151.6"/><polygon class="cls-1" points="528.48 134.72 537.12 134.72 537.12 126.32 528.48 126.32 528.48 117.92 519.92 117.92 519.92 126.32 528.48 126.32 528.48 134.72"/><rect class="cls-1" x="511.28" y="109.52" width="8.64" height="8.4"/><rect class="cls-1" x="562.96" y="58.96" width="8.64" height="8.4"/><rect class="cls-1" x="571.6" y="67.36" width="8.64" height="8.4"/><polygon class="cls-1" points="606 92.64 597.44 92.64 597.44 84.24 588.8 84.24 588.8 92.64 597.44 92.64 597.44 101.04 606 101.04 606 109.44 614.64 109.44 614.64 101.04 606 101.04 606 92.64"/><rect class="cls-1" x="545.76" y="92.64" width="8.64" height="8.4"/><rect class="cls-1" x="537.12" y="84.24" width="8.64" height="8.4"/><polygon class="cls-1" points="528.48 84.24 537.12 84.24 537.12 75.84 528.48 75.84 528.48 67.36 519.92 67.36 519.92 75.84 528.48 75.84 528.48 84.24"/><rect class="cls-1" x="511.28" y="58.96" width="8.64" height="8.4"/><polygon class="cls-1" points="571.6 25.28 580.16 25.28 580.16 16.88 571.6 16.88 571.6 8.4 562.96 8.4 562.96 16.88 571.6 16.88 571.6 25.28"/><polygon class="cls-1" points="588.8 42.08 597.44 42.08 597.44 50.56 606 50.56 606 58.96 614.64 58.96 614.64 50.56 606 50.56 606 42.08 597.44 42.08 597.44 33.68 588.8 33.68 588.8 25.28 580.16 25.28 580.16 33.68 588.8 33.68 588.8 42.08"/></g><g><polygon class="cls-1" points="68.88 143.2 60.24 143.2 60.24 151.6 51.68 151.6 51.68 160 60.24 160 60.24 151.6 68.88 151.6 68.88 143.2 77.44 143.2 77.44 134.72 68.88 134.72 68.88 143.2"/><polygon class="cls-1" points="94.72 117.92 86.08 117.92 86.08 126.32 77.44 126.32 77.44 134.72 86.08 134.72 86.08 126.32 94.72 126.32 94.72 117.92 103.28 117.92 103.28 109.52 94.72 109.52 94.72 117.92"/><rect class="cls-1" x="43.04" y="58.96" width="8.64" height="8.4"/><rect class="cls-1" x="34.4" y="67.36" width="8.64" height="8.4"/><polygon class="cls-1" points="8.56 109.52 8.56 101.04 17.2 101.04 17.2 92.64 25.76 92.64 25.76 84.24 17.2 84.24 17.2 92.64 8.56 92.64 8.56 101.04 0 101.04 0 109.52 8.56 109.52"/><rect class="cls-1" x="51.6" y="50.56" width="8.64" height="8.4"/><rect class="cls-1" x="68.88" y="84.24" width="8.64" height="8.4"/><polygon class="cls-1" points="86.08 75.84 94.72 75.84 94.72 67.36 86.08 67.36 86.08 75.76 77.44 75.76 77.44 84.24 86.08 84.24 86.08 75.84"/><rect class="cls-1" x="94.72" y="58.96" width="8.64" height="8.4"/><polygon class="cls-1" points="51.68 101.04 51.68 109.52 60.24 109.52 60.24 101.04 68.88 101.04 68.88 92.64 60.24 92.64 60.24 101.04 51.68 101.04"/><polygon class="cls-1" points="43.04 16.88 51.6 16.88 51.6 8.4 43.04 8.4 43.04 16.88 34.4 16.88 34.4 25.28 43.04 25.28 43.04 16.88"/><polygon class="cls-1" points="8.56 50.56 17.2 50.56 17.2 42.08 25.76 42.08 25.76 33.68 34.4 33.68 34.4 25.28 25.76 25.28 25.76 33.68 17.2 33.68 17.2 42.08 8.56 42.08 8.56 50.56 0 50.56 0 58.96 8.56 58.96 8.56 50.56"/><rect class="cls-1" x="51.6" width="8.64" height="8.4"/><polygon class="cls-1" points="43.04 151.6 51.6 151.6 51.6 143.2 43.04 143.2 43.04 134.72 34.4 134.72 34.4 143.2 43.04 143.2 43.04 151.6"/><polygon class="cls-1" points="25.76 134.72 34.4 134.72 34.4 126.32 25.76 126.32 25.76 117.92 17.2 117.92 17.2 126.32 25.76 126.32 25.76 134.72"/><rect class="cls-1" x="8.56" y="109.52" width="8.64" height="8.4"/><rect class="cls-1" x="60.24" y="58.96" width="8.64" height="8.4"/><rect class="cls-1" x="68.88" y="67.36" width="8.64" height="8.4"/><polygon class="cls-1" points="103.28 92.64 94.72 92.64 94.72 84.24 86.08 84.24 86.08 92.64 94.72 92.64 94.72 101.04 103.28 101.04 103.28 109.44 111.92 109.44 111.92 101.04 103.28 101.04 103.28 92.64"/><rect class="cls-1" x="43.04" y="92.64" width="8.64" height="8.4"/><rect class="cls-1" x="34.4" y="84.24" width="8.64" height="8.4"/><polygon class="cls-1" points="25.76 84.24 34.4 84.24 34.4 75.84 25.76 75.84 25.76 67.36 17.2 67.36 17.2 75.84 25.76 75.84 25.76 84.24"/><rect class="cls-1" x="8.56" y="58.96" width="8.64" height="8.4"/><polygon class="cls-1" points="68.88 25.28 77.44 25.28 77.44 16.88 68.88 16.88 68.88 8.4 60.24 8.4 60.24 16.88 68.88 16.88 68.88 25.28"/><polygon class="cls-1" points="86.08 42.08 94.72 42.08 94.72 50.56 103.28 50.56 103.28 58.96 111.92 58.96 111.92 50.56 103.28 50.56 103.28 42.08 94.72 42.08 94.72 33.68 86.08 33.68 86.08 25.28 77.52 25.28 77.52 33.68 86.08 33.68 86.08 42.08"/></g><g><rect class="cls-1" x="462.08" y="84.32" width="8.4" height="8.64"/><rect class="cls-1" x="453.68" y="92.96" width="8.4" height="8.64"/><rect class="cls-1" x="436.88" y="110.16" width="8.4" height="8.64"/><rect class="cls-1" x="445.28" y="101.52" width="8.4" height="8.64"/><polygon class="cls-1" points="428.48 127.36 436.88 127.36 436.88 118.8 428.48 118.8 428.48 127.36 420 127.36 420 136 428.48 136 428.48 127.36"/><polygon class="cls-1" points="428.4 41.28 436.88 41.28 436.88 49.84 445.28 49.84 445.28 58.48 453.68 58.48 453.68 67.12 462.08 67.12 462.08 58.48 453.68 58.48 453.68 49.84 445.28 49.84 445.28 41.28 436.88 41.28 436.88 32.64 428.4 32.64 428.4 24 420 24 420 32.64 428.4 32.64 428.4 41.28"/><polygon class="cls-1" points="470.56 84.32 478.96 84.32 478.96 75.68 470.56 75.68 470.56 67.12 462.08 67.12 462.08 75.68 470.56 75.68 470.56 84.32"/></g><g><polygon class="cls-1" points="145.2 92.96 153.68 92.96 153.68 84.32 145.2 84.32 145.2 75.68 136.8 75.68 136.8 84.32 145.2 84.32 145.2 92.96"/><polygon class="cls-1" points="162.08 110.16 170.48 110.16 170.48 118.72 178.88 118.72 178.88 127.36 187.36 127.36 187.36 136 195.76 136 195.76 127.36 187.36 127.36 187.36 118.72 178.96 118.72 178.96 110.16 170.48 110.16 170.48 101.52 162.08 101.52 162.08 92.96 153.68 92.96 153.68 101.52 162.08 101.52 162.08 110.16"/><rect class="cls-1" x="145.2" y="67.12" width="8.4" height="8.64"/><rect class="cls-1" x="153.68" y="58.48" width="8.4" height="8.64"/><polygon class="cls-1" points="170.48 49.84 178.96 49.84 178.96 41.28 170.48 41.28 170.48 49.84 162.08 49.84 162.08 58.48 170.48 58.48 170.48 49.84"/><polygon class="cls-1" points="187.36 32.64 195.76 32.64 195.76 24 187.36 24 187.36 32.64 178.88 32.64 178.88 41.28 187.36 41.28 187.36 32.64"/></g><g><rect class="cls-1" x="334.56" y="127.36" width="8.4" height="8.64"/><rect class="cls-1" x="376.72" y="84.32" width="8.4" height="8.64"/><rect class="cls-1" x="351.44" y="110.16" width="8.4" height="8.64"/><polygon class="cls-1" points="368.32 101.52 376.72 101.52 376.72 92.96 368.32 92.96 368.32 101.52 359.84 101.52 359.84 110.16 368.32 110.16 368.32 101.52"/><rect class="cls-1" x="343.04" y="118.8" width="8.4" height="8.64"/><rect class="cls-1" x="292.48" y="67.12" width="8.4" height="8.64"/><rect class="cls-1" x="300.88" y="58.48" width="8.4" height="8.64"/><rect class="cls-1" x="317.76" y="41.28" width="8.4" height="8.64"/><polygon class="cls-1" points="334.56 32.64 334.56 32.64 334.56 32.64 343.04 32.64 343.04 24 343.04 24 334.56 24 334.56 24 334.56 32.64 326.16 32.64 326.16 41.28 334.56 41.28 334.56 32.64"/><rect class="cls-1" x="326.16" y="84.32" width="8.4" height="8.64"/><polygon class="cls-1" points="300.88 110.16 300.88 118.72 309.36 118.72 309.36 110.16 317.76 110.16 317.76 110.16 317.76 101.52 326.16 101.52 326.16 92.96 317.76 92.96 317.76 101.52 309.36 101.52 309.36 110.16 309.36 110.16 300.88 110.16"/><rect class="cls-1" x="292.48" y="118.8" width="8.4" height="8.64"/><rect class="cls-1" x="241.92" y="67.12" width="8.4" height="8.64"/><polygon class="cls-1" points="258.8 58.48 267.2 58.48 267.2 49.84 275.68 49.84 275.68 41.28 267.2 41.28 267.2 49.84 258.8 49.84 258.8 58.48 250.4 58.48 250.4 67.04 258.8 67.04 258.8 58.48"/><polygon class="cls-1" points="284.08 32.64 284.08 32.64 284.08 32.64 292.48 32.64 292.48 24 292.48 24 284.08 24 284.08 24 284.08 32.64 275.6 32.64 275.6 41.28 284.08 41.28 284.08 32.64"/><rect class="cls-1" x="368.24" y="58.48" width="8.4" height="8.64"/><polygon class="cls-1" points="351.44 49.84 359.84 49.84 359.84 58.48 368.24 58.48 368.24 49.84 359.84 49.84 359.84 41.28 351.44 41.28 351.44 32.64 343.04 32.64 343.04 41.28 351.44 41.28 351.44 49.84"/><polygon class="cls-1" points="385.12 84.32 393.52 84.32 393.52 75.68 385.12 75.68 385.12 67.04 376.72 67.04 376.72 75.68 385.12 75.68 385.12 84.32"/><polygon class="cls-1" points="292.48 92.96 300.88 92.96 300.88 84.32 292.48 84.32 292.48 75.68 284.08 75.68 284.08 84.32 292.48 84.32 292.48 92.96"/><rect class="cls-1" x="300.88" y="92.96" width="8.4" height="8.64"/><polygon class="cls-1" points="326.16 127.36 334.56 127.36 334.56 136 343.04 136 343.04 127.36 334.56 127.36 334.56 118.72 326.16 118.72 326.16 110.16 317.76 110.16 317.76 118.72 326.16 118.72 326.16 127.36"/><rect class="cls-1" x="317.76" y="58.48" width="8.4" height="8.64"/><polygon class="cls-1" points="309.36 58.48 317.76 58.48 317.76 49.84 309.36 49.84 309.36 41.28 300.88 41.28 300.88 49.84 309.36 49.84 309.36 58.48"/><rect class="cls-1" x="292.48" y="32.64" width="8.4" height="8.64"/><polygon class="cls-1" points="334.56 84.32 343.04 84.32 343.04 75.68 334.56 75.68 334.56 67.04 326.16 67.04 326.16 75.68 334.56 75.68 334.56 84.32"/><polygon class="cls-1" points="242 92.96 250.4 92.96 250.4 101.52 258.8 101.52 258.8 92.96 250.4 92.96 250.4 84.32 242 84.32 242 75.68 233.52 75.68 233.52 84.32 242 84.32 242 92.96"/><polygon class="cls-1" points="267.2 110.16 267.2 118.72 275.68 118.72 275.68 127.36 284.08 127.36 284.08 136 292.48 136 292.48 127.36 284.08 127.36 284.08 118.72 275.68 118.72 275.68 110.16 267.2 110.16"/><rect class="cls-1" x="258.8" y="101.52" width="8.4" height="8.64"/></g></g><g><g><polygon class="cls-1" points="1073.68 143.2 1065.04 143.2 1065.04 151.6 1056.4 151.6 1056.4 160 1065.04 160 1065.04 151.6 1073.68 151.6 1073.68 143.2 1082.24 143.2 1082.24 134.72 1073.68 134.72 1073.68 143.2"/><polygon class="cls-1" points="1099.52 117.92 1090.88 117.92 1090.88 126.32 1082.24 126.32 1082.24 134.72 1090.88 134.72 1090.88 126.32 1099.52 126.32 1099.52 117.92 1108.08 117.92 1108.08 109.52 1099.52 109.52 1099.52 117.92"/><rect class="cls-1" x="1047.84" y="58.96" width="8.64" height="8.4"/><rect class="cls-1" x="1039.2" y="67.36" width="8.64" height="8.4"/><polygon class="cls-1" points="1013.36 101.04 1022 101.04 1022 92.64 1030.56 92.64 1030.56 84.24 1022 84.24 1022 92.64 1013.36 92.64 1013.36 101.04 1004.8 101.04 1004.8 109.52 1013.36 109.52 1013.36 101.04"/><rect class="cls-1" x="1056.4" y="50.56" width="8.64" height="8.4"/><rect class="cls-1" x="1073.68" y="84.24" width="8.64" height="8.4"/><polygon class="cls-1" points="1090.88 75.84 1099.52 75.84 1099.52 67.36 1090.88 67.36 1090.88 75.76 1082.24 75.76 1082.24 84.24 1090.88 84.24 1090.88 75.84"/><rect class="cls-1" x="1099.52" y="58.96" width="8.64" height="8.4"/><polygon class="cls-1" points="1056.4 101.04 1056.4 109.52 1065.04 109.52 1065.04 101.04 1073.68 101.04 1073.68 92.64 1065.04 92.64 1065.04 101.04 1056.4 101.04"/><polygon class="cls-1" points="1047.84 16.88 1056.4 16.88 1056.4 8.4 1047.84 8.4 1047.84 16.88 1039.2 16.88 1039.2 25.28 1047.84 25.28 1047.84 16.88"/><polygon class="cls-1" points="1013.36 50.56 1022 50.56 1022 42.08 1030.56 42.08 1030.56 33.68 1039.2 33.68 1039.2 25.28 1030.56 25.28 1030.56 33.68 1022 33.68 1022 42.08 1013.36 42.08 1013.36 50.56 1004.8 50.56 1004.8 58.96 1013.36 58.96 1013.36 50.56"/><rect class="cls-1" x="1056.4" width="8.64" height="8.4"/><polygon class="cls-1" points="1047.84 151.6 1056.4 151.6 1056.4 143.2 1047.84 143.2 1047.84 134.72 1039.2 134.72 1039.2 143.2 1047.84 143.2 1047.84 151.6"/><polygon class="cls-1" points="1030.56 134.72 1039.2 134.72 1039.2 126.32 1030.56 126.32 1030.56 117.92 1022 117.92 1022 126.32 1030.56 126.32 1030.56 134.72"/><rect class="cls-1" x="1013.36" y="109.52" width="8.64" height="8.4"/><rect class="cls-1" x="1065.04" y="58.96" width="8.64" height="8.4"/><rect class="cls-1" x="1073.68" y="67.36" width="8.64" height="8.4"/><polygon class="cls-1" points="1108.08 92.64 1099.52 92.64 1099.52 84.24 1090.88 84.24 1090.88 92.64 1099.52 92.64 1099.52 101.04 1108.08 101.04 1108.08 109.44 1116.72 109.44 1116.72 101.04 1108.08 101.04 1108.08 92.64"/><rect class="cls-1" x="1047.84" y="92.64" width="8.64" height="8.4"/><rect class="cls-1" x="1039.2" y="84.24" width="8.64" height="8.4"/><polygon class="cls-1" points="1030.56 84.24 1039.2 84.24 1039.2 75.84 1030.56 75.84 1030.56 67.36 1022 67.36 1022 75.84 1030.56 75.84 1030.56 84.24"/><rect class="cls-1" x="1013.36" y="58.96" width="8.64" height="8.4"/><polygon class="cls-1" points="1073.68 25.28 1082.24 25.28 1082.24 16.88 1073.68 16.88 1073.68 8.4 1065.04 8.4 1065.04 16.88 1073.68 16.88 1073.68 25.28"/><polygon class="cls-1" points="1090.88 42.08 1099.52 42.08 1099.52 50.56 1108.08 50.56 1108.08 58.96 1116.72 58.96 1116.72 50.56 1108.08 50.56 1108.08 42.08 1099.52 42.08 1099.52 33.68 1090.88 33.68 1090.88 25.28 1082.24 25.28 1082.24 33.68 1090.88 33.68 1090.88 42.08"/></g><g><rect class="cls-1" x="964.16" y="84.32" width="8.4" height="8.64"/><rect class="cls-1" x="955.76" y="92.96" width="8.4" height="8.64"/><rect class="cls-1" x="938.96" y="110.16" width="8.4" height="8.64"/><rect class="cls-1" x="947.36" y="101.52" width="8.4" height="8.64"/><polygon class="cls-1" points="930.56 127.36 938.96 127.36 938.96 118.8 930.56 118.8 930.56 127.36 922.08 127.36 922.08 136 930.56 136 930.56 127.36"/><polygon class="cls-1" points="930.56 41.28 938.96 41.28 938.96 49.84 947.36 49.84 947.36 58.48 955.76 58.48 955.76 67.12 964.16 67.12 964.16 58.48 955.76 58.48 955.76 49.84 947.36 49.84 947.36 41.28 938.96 41.28 938.96 32.64 930.56 32.64 930.56 24 922.08 24 922.08 32.64 930.56 32.64 930.56 41.28"/><polygon class="cls-1" points="972.64 84.32 981.04 84.32 981.04 75.68 972.64 75.68 972.64 67.12 964.16 67.12 964.16 75.68 972.64 75.68 972.64 84.32"/></g><g><polygon class="cls-1" points="647.28 92.96 655.76 92.96 655.76 84.32 647.28 84.32 647.28 75.68 638.88 75.68 638.88 84.32 647.28 84.32 647.28 92.96"/><polygon class="cls-1" points="664.16 110.16 672.56 110.16 672.56 118.72 680.96 118.72 680.96 127.36 689.44 127.36 689.44 136 697.84 136 697.84 127.36 689.44 127.36 689.44 118.72 681.04 118.72 681.04 110.16 672.56 110.16 672.56 101.52 664.16 101.52 664.16 92.96 655.76 92.96 655.76 101.52 664.16 101.52 664.16 110.16"/><rect class="cls-1" x="647.28" y="67.12" width="8.4" height="8.64"/><rect class="cls-1" x="655.76" y="58.48" width="8.4" height="8.64"/><polygon class="cls-1" points="672.56 49.84 680.96 49.84 680.96 41.28 672.56 41.28 672.56 49.84 664.16 49.84 664.16 58.48 672.56 58.48 672.56 49.84"/><polygon class="cls-1" points="689.44 32.64 697.84 32.64 697.84 24 689.44 24 689.44 32.64 680.96 32.64 680.96 41.28 689.44 41.28 689.44 32.64"/></g><g><rect class="cls-1" x="836.72" y="127.36" width="8.4" height="8.64"/><rect class="cls-1" x="878.8" y="84.32" width="8.4" height="8.64"/><rect class="cls-1" x="853.52" y="110.16" width="8.4" height="8.64"/><polygon class="cls-1" points="870.4 101.52 878.8 101.52 878.8 92.96 870.4 92.96 870.4 101.52 861.92 101.52 861.92 110.16 870.4 110.16 870.4 101.52"/><rect class="cls-1" x="845.12" y="118.8" width="8.4" height="8.64"/><rect class="cls-1" x="794.56" y="67.12" width="8.4" height="8.64"/><rect class="cls-1" x="802.96" y="58.48" width="8.4" height="8.64"/><rect class="cls-1" x="819.84" y="41.28" width="8.4" height="8.64"/><polygon class="cls-1" points="836.64 32.64 836.72 32.64 836.72 32.64 845.12 32.64 845.12 24 845.12 24 836.72 24 836.64 24 836.64 32.64 828.24 32.64 828.24 41.28 836.64 41.28 836.64 32.64"/><rect class="cls-1" x="828.24" y="84.32" width="8.4" height="8.64"/><polygon class="cls-1" points="803.04 110.16 803.04 118.72 811.44 118.72 811.44 110.16 819.84 110.16 819.84 110.16 819.84 101.52 828.24 101.52 828.24 92.96 819.84 92.96 819.84 101.52 811.44 101.52 811.44 110.16 811.44 110.16 803.04 110.16"/><rect class="cls-1" x="794.56" y="118.8" width="8.4" height="8.64"/><rect class="cls-1" x="744" y="67.12" width="8.4" height="8.64"/><polygon class="cls-1" points="760.88 58.48 769.28 58.48 769.28 49.84 777.76 49.84 777.76 41.28 769.28 41.28 769.28 49.84 760.88 49.84 760.88 58.48 752.48 58.48 752.48 67.04 760.88 67.04 760.88 58.48"/><polygon class="cls-1" points="786.16 32.64 786.16 32.64 786.16 32.64 794.56 32.64 794.56 24 794.56 24 786.16 24 786.16 24 786.16 32.64 777.68 32.64 777.68 41.28 786.16 41.28 786.16 32.64"/><rect class="cls-1" x="870.32" y="58.48" width="8.4" height="8.64"/><polygon class="cls-1" points="853.52 49.84 861.92 49.84 861.92 58.48 870.32 58.48 870.32 49.84 861.92 49.84 861.92 41.28 853.52 41.28 853.52 32.64 845.12 32.64 845.12 41.28 853.52 41.28 853.52 49.84"/><polygon class="cls-1" points="887.2 84.32 895.6 84.32 895.6 75.68 887.2 75.68 887.2 67.04 878.8 67.04 878.8 75.68 887.2 75.68 887.2 84.32"/><polygon class="cls-1" points="794.56 92.96 803.04 92.96 803.04 84.32 794.56 84.32 794.56 75.68 786.16 75.68 786.16 84.32 794.56 84.32 794.56 92.96"/><rect class="cls-1" x="803.04" y="92.96" width="8.4" height="8.64"/><polygon class="cls-1" points="828.24 127.36 836.64 127.36 836.64 136 845.12 136 845.12 127.36 836.64 127.36 836.64 118.72 828.24 118.72 828.24 110.16 819.84 110.16 819.84 118.72 828.24 118.72 828.24 127.36"/><rect class="cls-1" x="819.84" y="58.48" width="8.4" height="8.64"/><polygon class="cls-1" points="811.44 58.48 819.84 58.48 819.84 49.84 811.44 49.84 811.44 41.28 803.04 41.28 803.04 49.84 811.44 49.84 811.44 58.48"/><rect class="cls-1" x="794.56" y="32.64" width="8.4" height="8.64"/><polygon class="cls-1" points="836.72 84.32 845.12 84.32 845.12 75.68 836.72 75.68 836.72 67.04 828.24 67.04 828.24 75.68 836.72 75.68 836.72 84.32"/><polygon class="cls-1" points="744.08 92.96 752.48 92.96 752.48 101.52 760.88 101.52 760.88 92.96 752.48 92.96 752.48 84.32 744.08 84.32 744.08 75.68 735.6 75.68 735.6 84.32 744.08 84.32 744.08 92.96"/><polygon class="cls-1" points="769.28 110.16 769.28 118.72 777.76 118.72 777.76 127.36 786.16 127.36 786.16 136 794.56 136 794.56 127.36 786.16 127.36 786.16 118.72 777.76 118.72 777.76 110.16 769.28 110.16"/><rect class="cls-1" x="760.88" y="101.52" width="8.4" height="8.64"/></g></g><g><g><polygon class="cls-1" points="1574.16 143.2 1565.52 143.2 1565.52 151.6 1556.96 151.6 1556.96 160 1565.52 160 1565.52 151.6 1574.16 151.6 1574.16 143.2 1582.72 143.2 1582.72 134.72 1574.16 134.72 1574.16 143.2"/><polygon class="cls-1" points="1600 117.92 1591.36 117.92 1591.36 126.32 1582.72 126.32 1582.72 134.72 1591.36 134.72 1591.36 126.32 1600 126.32 1600 117.92 1608.56 117.92 1608.56 109.52 1600 109.52 1600 117.92"/><rect class="cls-1" x="1548.32" y="58.96" width="8.64" height="8.4"/><rect class="cls-1" x="1539.68" y="67.36" width="8.64" height="8.4"/><polygon class="cls-1" points="1513.84 101.04 1522.48 101.04 1522.48 92.64 1531.04 92.64 1531.04 84.24 1522.48 84.24 1522.48 92.64 1513.84 92.64 1513.84 101.04 1505.28 101.04 1505.28 109.52 1513.84 109.52 1513.84 101.04"/><rect class="cls-1" x="1556.88" y="50.56" width="8.64" height="8.4"/><rect class="cls-1" x="1574.16" y="84.24" width="8.64" height="8.4"/><polygon class="cls-1" points="1591.36 75.84 1600 75.84 1600 67.36 1591.36 67.36 1591.36 75.76 1582.72 75.76 1582.72 84.24 1591.36 84.24 1591.36 75.84"/><rect class="cls-1" x="1600" y="58.96" width="8.64" height="8.4"/><polygon class="cls-1" points="1556.96 101.04 1556.96 109.52 1565.52 109.52 1565.52 101.04 1574.16 101.04 1574.16 92.64 1565.52 92.64 1565.52 101.04 1556.96 101.04"/><polygon class="cls-1" points="1548.32 16.88 1556.88 16.88 1556.88 8.4 1548.32 8.4 1548.32 16.88 1539.68 16.88 1539.68 25.28 1548.32 25.28 1548.32 16.88"/><polygon class="cls-1" points="1513.84 50.56 1522.48 50.56 1522.48 42.08 1531.04 42.08 1531.04 33.68 1539.68 33.68 1539.68 25.28 1531.04 25.28 1531.04 33.68 1522.48 33.68 1522.48 42.08 1513.84 42.08 1513.84 50.56 1505.28 50.56 1505.28 58.96 1513.84 58.96 1513.84 50.56"/><rect class="cls-1" x="1556.88" width="8.64" height="8.4"/><polygon class="cls-1" points="1548.32 151.6 1556.88 151.6 1556.88 143.2 1548.32 143.2 1548.32 134.72 1539.68 134.72 1539.68 143.2 1548.32 143.2 1548.32 151.6"/><polygon class="cls-1" points="1531.04 134.72 1539.68 134.72 1539.68 126.32 1531.04 126.32 1531.04 117.92 1522.48 117.92 1522.48 126.32 1531.04 126.32 1531.04 134.72"/><rect class="cls-1" x="1513.84" y="109.52" width="8.64" height="8.4"/><rect class="cls-1" x="1565.52" y="58.96" width="8.64" height="8.4"/><rect class="cls-1" x="1574.16" y="67.36" width="8.64" height="8.4"/><polygon class="cls-1" points="1608.56 92.64 1600 92.64 1600 84.24 1591.36 84.24 1591.36 92.64 1600 92.64 1600 101.04 1608.56 101.04 1608.56 109.44 1617.2 109.44 1617.2 101.04 1608.56 101.04 1608.56 92.64"/><rect class="cls-1" x="1548.32" y="92.64" width="8.64" height="8.4"/><rect class="cls-1" x="1539.68" y="84.24" width="8.64" height="8.4"/><polygon class="cls-1" points="1531.04 84.24 1539.68 84.24 1539.68 75.84 1531.04 75.84 1531.04 67.36 1522.48 67.36 1522.48 75.84 1531.04 75.84 1531.04 84.24"/><rect class="cls-1" x="1513.84" y="58.96" width="8.64" height="8.4"/><polygon class="cls-1" points="1574.16 25.28 1582.72 25.28 1582.72 16.88 1574.16 16.88 1574.16 8.4 1565.52 8.4 1565.52 16.88 1574.16 16.88 1574.16 25.28"/><polygon class="cls-1" points="1591.36 42.08 1600 42.08 1600 50.56 1608.56 50.56 1608.56 58.96 1617.2 58.96 1617.2 50.56 1608.56 50.56 1608.56 42.08 1600 42.08 1600 33.68 1591.36 33.68 1591.36 25.28 1582.72 25.28 1582.72 33.68 1591.36 33.68 1591.36 42.08"/></g><g><rect class="cls-1" x="1464.72" y="84.32" width="8.4" height="8.64"/><rect class="cls-1" x="1456.24" y="92.96" width="8.4" height="8.64"/><rect class="cls-1" x="1439.44" y="110.16" width="8.4" height="8.64"/><rect class="cls-1" x="1447.84" y="101.52" width="8.4" height="8.64"/><polygon class="cls-1" points="1431.04 127.36 1439.44 127.36 1439.44 118.8 1431.04 118.8 1431.04 127.36 1422.56 127.36 1422.56 136 1431.04 136 1431.04 127.36"/><polygon class="cls-1" points="1431.04 41.28 1439.44 41.28 1439.44 49.84 1447.84 49.84 1447.84 58.48 1456.24 58.48 1456.24 67.12 1464.64 67.12 1464.64 58.48 1456.24 58.48 1456.24 49.84 1447.84 49.84 1447.84 41.28 1439.44 41.28 1439.44 32.64 1431.04 32.64 1431.04 24 1422.56 24 1422.56 32.64 1431.04 32.64 1431.04 41.28"/><polygon class="cls-1" points="1473.12 84.32 1481.52 84.32 1481.52 75.68 1473.12 75.68 1473.12 67.12 1464.72 67.12 1464.72 75.68 1473.12 75.68 1473.12 84.32"/></g><g><polygon class="cls-1" points="1147.84 92.96 1156.24 92.96 1156.24 84.32 1147.84 84.32 1147.84 75.68 1139.36 75.68 1139.36 84.32 1147.84 84.32 1147.84 92.96"/><polygon class="cls-1" points="1164.64 110.16 1173.04 110.16 1173.04 118.72 1181.44 118.72 1181.44 127.36 1189.92 127.36 1189.92 136 1198.32 136 1198.32 127.36 1189.92 127.36 1189.92 118.72 1181.52 118.72 1181.52 110.16 1173.04 110.16 1173.04 101.52 1164.64 101.52 1164.64 92.96 1156.24 92.96 1156.24 101.52 1164.64 101.52 1164.64 110.16"/><rect class="cls-1" x="1147.76" y="67.12" width="8.4" height="8.64"/><rect class="cls-1" x="1156.24" y="58.48" width="8.4" height="8.64"/><polygon class="cls-1" points="1173.04 49.84 1181.52 49.84 1181.52 41.28 1173.04 41.28 1173.04 49.84 1164.64 49.84 1164.64 58.48 1173.04 58.48 1173.04 49.84"/><polygon class="cls-1" points="1189.92 32.64 1198.32 32.64 1198.32 24 1189.92 24 1189.92 32.64 1181.44 32.64 1181.44 41.28 1189.92 41.28 1189.92 32.64"/></g><g><rect class="cls-1" x="1337.2" y="127.36" width="8.4" height="8.64"/><rect class="cls-1" x="1379.28" y="84.32" width="8.4" height="8.64"/><rect class="cls-1" x="1354" y="110.16" width="8.4" height="8.64"/><polygon class="cls-1" points="1370.88 101.52 1379.28 101.52 1379.28 92.96 1370.88 92.96 1370.88 101.52 1362.4 101.52 1362.4 110.16 1370.88 110.16 1370.88 101.52"/><rect class="cls-1" x="1345.6" y="118.8" width="8.4" height="8.64"/><rect class="cls-1" x="1295.04" y="67.12" width="8.4" height="8.64"/><rect class="cls-1" x="1303.44" y="58.48" width="8.4" height="8.64"/><rect class="cls-1" x="1320.32" y="41.28" width="8.4" height="8.64"/><polygon class="cls-1" points="1337.12 32.64 1337.2 32.64 1337.2 32.64 1345.6 32.64 1345.6 24 1345.6 24 1337.2 24 1337.12 24 1337.12 32.64 1328.72 32.64 1328.72 41.28 1337.12 41.28 1337.12 32.64"/><rect class="cls-1" x="1328.72" y="84.32" width="8.4" height="8.64"/><polygon class="cls-1" points="1303.52 110.16 1303.52 118.72 1311.92 118.72 1311.92 110.16 1320.32 110.16 1320.32 110.16 1320.32 101.52 1328.72 101.52 1328.72 92.96 1320.32 92.96 1320.32 101.52 1311.92 101.52 1311.92 110.16 1311.92 110.16 1303.52 110.16"/><rect class="cls-1" x="1295.04" y="118.8" width="8.4" height="8.64"/><rect class="cls-1" x="1244.56" y="67.12" width="8.4" height="8.64"/><polygon class="cls-1" points="1261.36 58.48 1269.76 58.48 1269.76 49.84 1278.24 49.84 1278.24 41.28 1269.76 41.28 1269.76 49.84 1261.36 49.84 1261.36 58.48 1252.96 58.48 1252.96 67.04 1261.36 67.04 1261.36 58.48"/><polygon class="cls-1" points="1286.64 32.64 1286.64 32.64 1286.64 32.64 1295.04 32.64 1295.04 24 1295.04 24 1286.64 24 1286.64 24 1286.64 32.64 1278.24 32.64 1278.24 41.28 1286.64 41.28 1286.64 32.64"/><rect class="cls-1" x="1370.88" y="58.48" width="8.4" height="8.64"/><polygon class="cls-1" points="1354 49.84 1362.4 49.84 1362.4 58.48 1370.88 58.48 1370.88 49.84 1362.4 49.84 1362.4 41.28 1354 41.28 1354 32.64 1345.6 32.64 1345.6 41.28 1354 41.28 1354 49.84"/><polygon class="cls-1" points="1387.68 84.32 1396.16 84.32 1396.16 75.68 1387.68 75.68 1387.68 67.04 1379.28 67.04 1379.28 75.68 1387.68 75.68 1387.68 84.32"/><polygon class="cls-1" points="1295.04 92.96 1303.52 92.96 1303.52 84.32 1295.04 84.32 1295.04 75.68 1286.64 75.68 1286.64 84.32 1295.04 84.32 1295.04 92.96"/><rect class="cls-1" x="1303.52" y="92.96" width="8.4" height="8.64"/><polygon class="cls-1" points="1328.72 127.36 1337.2 127.36 1337.2 136 1345.6 136 1345.6 127.36 1337.2 127.36 1337.2 118.72 1328.72 118.72 1328.72 110.16 1320.32 110.16 1320.32 118.72 1328.72 118.72 1328.72 127.36"/><rect class="cls-1" x="1320.32" y="58.48" width="8.4" height="8.64"/><polygon class="cls-1" points="1311.92 58.48 1320.32 58.48 1320.32 49.84 1311.92 49.84 1311.92 41.28 1303.52 41.28 1303.52 49.84 1311.92 49.84 1311.92 58.48"/><rect class="cls-1" x="1295.04" y="32.64" width="8.4" height="8.64"/><polygon class="cls-1" points="1337.2 84.32 1345.6 84.32 1345.6 75.68 1337.2 75.68 1337.2 67.04 1328.72 67.04 1328.72 75.68 1337.2 75.68 1337.2 84.32"/><polygon class="cls-1" points="1244.56 92.96 1252.96 92.96 1252.96 101.52 1261.36 101.52 1261.36 92.96 1252.96 92.96 1252.96 84.32 1244.56 84.32 1244.56 75.68 1236.08 75.68 1236.08 84.32 1244.56 84.32 1244.56 92.96"/><polygon class="cls-1" points="1269.76 110.16 1269.76 118.72 1278.24 118.72 1278.24 127.36 1286.64 127.36 1286.64 136 1295.04 136 1295.04 127.36 1286.64 127.36 1286.64 118.72 1278.24 118.72 1278.24 110.16 1269.76 110.16"/><rect class="cls-1" x="1261.36" y="101.52" width="8.4" height="8.64"/></g></g><g><g><polygon class="cls-1" points="2076.24 143.2 2067.6 143.2 2067.6 151.6 2059.04 151.6 2059.04 160 2067.6 160 2067.6 151.6 2076.24 151.6 2076.24 143.2 2084.88 143.2 2084.88 134.72 2076.24 134.72 2076.24 143.2"/><polygon class="cls-1" points="2102.08 117.92 2093.44 117.92 2093.44 126.32 2084.88 126.32 2084.88 134.72 2093.44 134.72 2093.44 126.32 2102.08 126.32 2102.08 117.92 2110.72 117.92 2110.72 109.52 2102.08 109.52 2102.08 117.92"/><rect class="cls-1" x="2050.4" y="58.96" width="8.64" height="8.4"/><rect class="cls-1" x="2041.76" y="67.36" width="8.64" height="8.4"/><polygon class="cls-1" points="2015.92 101.04 2024.56 101.04 2024.56 92.64 2033.2 92.64 2033.2 84.24 2024.56 84.24 2024.56 92.64 2015.92 92.64 2015.92 101.04 2007.36 101.04 2007.36 109.52 2015.92 109.52 2015.92 101.04"/><rect class="cls-1" x="2059.04" y="50.56" width="8.64" height="8.4"/><rect class="cls-1" x="2076.24" y="84.24" width="8.64" height="8.4"/><polygon class="cls-1" points="2093.44 75.84 2102.08 75.84 2102.08 67.36 2093.44 67.36 2093.44 75.76 2084.88 75.76 2084.88 84.24 2093.44 84.24 2093.44 75.84"/><rect class="cls-1" x="2102.08" y="58.96" width="8.64" height="8.4"/><polygon class="cls-1" points="2059.04 101.04 2059.04 109.52 2067.6 109.52 2067.6 101.04 2076.24 101.04 2076.24 92.64 2067.6 92.64 2067.6 101.04 2059.04 101.04"/><polygon class="cls-1" points="2050.4 16.88 2058.96 16.88 2058.96 8.4 2050.4 8.4 2050.4 16.88 2041.76 16.88 2041.76 25.28 2050.4 25.28 2050.4 16.88"/><polygon class="cls-1" points="2015.92 50.56 2024.56 50.56 2024.56 42.08 2033.2 42.08 2033.2 33.68 2041.76 33.68 2041.76 25.28 2033.2 25.28 2033.2 33.68 2024.56 33.68 2024.56 42.08 2015.92 42.08 2015.92 50.56 2007.36 50.56 2007.36 58.96 2015.92 58.96 2015.92 50.56"/><rect class="cls-1" x="2059.04" width="8.64" height="8.4"/><polygon class="cls-1" points="2050.4 151.6 2058.96 151.6 2058.96 143.2 2050.4 143.2 2050.4 134.72 2041.76 134.72 2041.76 143.2 2050.4 143.2 2050.4 151.6"/><polygon class="cls-1" points="2033.2 134.72 2041.76 134.72 2041.76 126.32 2033.2 126.32 2033.2 117.92 2024.56 117.92 2024.56 126.32 2033.2 126.32 2033.2 134.72"/><rect class="cls-1" x="2015.92" y="109.52" width="8.64" height="8.4"/><rect class="cls-1" x="2067.6" y="58.96" width="8.64" height="8.4"/><rect class="cls-1" x="2076.24" y="67.36" width="8.64" height="8.4"/><polygon class="cls-1" points="2110.72 92.64 2102.08 92.64 2102.08 84.24 2093.44 84.24 2093.44 92.64 2102.08 92.64 2102.08 101.04 2110.72 101.04 2110.72 109.44 2119.28 109.44 2119.28 101.04 2110.72 101.04 2110.72 92.64"/><rect class="cls-1" x="2050.4" y="92.64" width="8.64" height="8.4"/><rect class="cls-1" x="2041.76" y="84.24" width="8.64" height="8.4"/><polygon class="cls-1" points="2033.2 84.24 2041.76 84.24 2041.76 75.84 2033.2 75.84 2033.2 67.36 2024.56 67.36 2024.56 75.84 2033.2 75.84 2033.2 84.24"/><rect class="cls-1" x="2015.92" y="58.96" width="8.64" height="8.4"/><polygon class="cls-1" points="2076.24 25.28 2084.88 25.28 2084.88 16.88 2076.24 16.88 2076.24 8.4 2067.6 8.4 2067.6 16.88 2076.24 16.88 2076.24 25.28"/><polygon class="cls-1" points="2093.44 42.08 2102.08 42.08 2102.08 50.56 2110.72 50.56 2110.72 58.96 2119.28 58.96 2119.28 50.56 2110.72 50.56 2110.72 42.08 2102.08 42.08 2102.08 33.68 2093.44 33.68 2093.44 25.28 2084.88 25.28 2084.88 33.68 2093.44 33.68 2093.44 42.08"/></g><g><rect class="cls-1" x="1966.8" y="84.32" width="8.4" height="8.64"/><rect class="cls-1" x="1958.32" y="92.96" width="8.4" height="8.64"/><rect class="cls-1" x="1941.52" y="110.16" width="8.4" height="8.64"/><rect class="cls-1" x="1949.92" y="101.52" width="8.4" height="8.64"/><polygon class="cls-1" points="1933.12 127.36 1941.52 127.36 1941.52 118.8 1933.12 118.8 1933.12 127.36 1924.64 127.36 1924.64 136 1933.12 136 1933.12 127.36"/><polygon class="cls-1" points="1933.12 41.28 1941.52 41.28 1941.52 49.84 1949.92 49.84 1949.92 58.48 1958.32 58.48 1958.32 67.12 1966.72 67.12 1966.72 58.48 1958.32 58.48 1958.32 49.84 1949.92 49.84 1949.92 41.28 1941.52 41.28 1941.52 32.64 1933.12 32.64 1933.12 24 1924.64 24 1924.64 32.64 1933.12 32.64 1933.12 41.28"/><polygon class="cls-1" points="1975.2 84.32 1983.6 84.32 1983.6 75.68 1975.2 75.68 1975.2 67.12 1966.8 67.12 1966.8 75.68 1975.2 75.68 1975.2 84.32"/></g><g><polygon class="cls-1" points="1649.92 92.96 1658.32 92.96 1658.32 84.32 1649.92 84.32 1649.92 75.68 1641.44 75.68 1641.44 84.32 1649.92 84.32 1649.92 92.96"/><polygon class="cls-1" points="1666.72 110.16 1675.12 110.16 1675.12 118.72 1683.6 118.72 1683.6 127.36 1692 127.36 1692 136 1700.4 136 1700.4 127.36 1692 127.36 1692 118.72 1683.6 118.72 1683.6 110.16 1675.12 110.16 1675.12 101.52 1666.72 101.52 1666.72 92.96 1658.32 92.96 1658.32 101.52 1666.72 101.52 1666.72 110.16"/><rect class="cls-1" x="1649.92" y="67.12" width="8.4" height="8.64"/><rect class="cls-1" x="1658.32" y="58.48" width="8.4" height="8.64"/><polygon class="cls-1" points="1675.12 49.84 1683.6 49.84 1683.6 41.28 1675.12 41.28 1675.12 49.84 1666.72 49.84 1666.72 58.48 1675.12 58.48 1675.12 49.84"/><polygon class="cls-1" points="1692 32.64 1700.4 32.64 1700.4 24 1692 24 1692 32.64 1683.52 32.64 1683.52 41.28 1692 41.28 1692 32.64"/></g><g><rect class="cls-1" x="1839.28" y="127.36" width="8.4" height="8.64"/><rect class="cls-1" x="1881.36" y="84.32" width="8.4" height="8.64"/><rect class="cls-1" x="1856.08" y="110.16" width="8.4" height="8.64"/><polygon class="cls-1" points="1872.96 101.52 1881.36 101.52 1881.36 92.96 1872.96 92.96 1872.96 101.52 1864.48 101.52 1864.48 110.16 1872.96 110.16 1872.96 101.52"/><rect class="cls-1" x="1847.68" y="118.8" width="8.4" height="8.64"/><rect class="cls-1" x="1797.12" y="67.12" width="8.4" height="8.64"/><rect class="cls-1" x="1805.52" y="58.48" width="8.4" height="8.64"/><rect class="cls-1" x="1822.4" y="41.28" width="8.4" height="8.64"/><polygon class="cls-1" points="1839.28 32.64 1839.28 32.64 1839.28 32.64 1847.68 32.64 1847.68 24 1847.68 24 1839.28 24 1839.28 24 1839.28 32.64 1830.8 32.64 1830.8 41.28 1839.28 41.28 1839.28 32.64"/><rect class="cls-1" x="1830.88" y="84.32" width="8.4" height="8.64"/><polygon class="cls-1" points="1805.6 110.16 1805.6 118.72 1814 118.72 1814 110.16 1822.4 110.16 1822.4 110.16 1822.4 101.52 1830.88 101.52 1830.88 92.96 1822.4 92.96 1822.4 101.52 1814 101.52 1814 110.16 1814 110.16 1805.6 110.16"/><rect class="cls-1" x="1797.12" y="118.8" width="8.4" height="8.64"/><rect class="cls-1" x="1746.64" y="67.12" width="8.4" height="8.64"/><polygon class="cls-1" points="1763.44 58.48 1771.92 58.48 1771.92 49.84 1780.32 49.84 1780.32 41.28 1771.84 41.28 1771.84 49.84 1763.44 49.84 1763.44 58.48 1755.04 58.48 1755.04 67.04 1763.44 67.04 1763.44 58.48"/><polygon class="cls-1" points="1788.72 32.64 1788.72 32.64 1788.72 32.64 1797.12 32.64 1797.12 24 1797.12 24 1788.72 24 1788.72 24 1788.72 32.64 1780.32 32.64 1780.32 41.28 1788.72 41.28 1788.72 32.64"/><rect class="cls-1" x="1872.96" y="58.48" width="8.4" height="8.64"/><polygon class="cls-1" points="1856.08 49.84 1864.48 49.84 1864.48 58.48 1872.96 58.48 1872.96 49.84 1864.48 49.84 1864.48 41.28 1856.08 41.28 1856.08 32.64 1847.68 32.64 1847.68 41.28 1856.08 41.28 1856.08 49.84"/><polygon class="cls-1" points="1889.76 84.32 1898.24 84.32 1898.24 75.68 1889.76 75.68 1889.76 67.04 1881.36 67.04 1881.36 75.68 1889.76 75.68 1889.76 84.32"/><polygon class="cls-1" points="1797.12 92.96 1805.6 92.96 1805.6 84.32 1797.12 84.32 1797.12 75.68 1788.72 75.68 1788.72 84.32 1797.12 84.32 1797.12 92.96"/><rect class="cls-1" x="1805.6" y="92.96" width="8.4" height="8.64"/><polygon class="cls-1" points="1830.8 127.36 1839.28 127.36 1839.28 136 1847.68 136 1847.68 127.36 1839.28 127.36 1839.28 118.72 1830.8 118.72 1830.8 110.16 1822.4 110.16 1822.4 118.72 1830.8 118.72 1830.8 127.36"/><rect class="cls-1" x="1822.4" y="58.48" width="8.4" height="8.64"/><polygon class="cls-1" points="1814 58.48 1822.4 58.48 1822.4 49.84 1814 49.84 1814 41.28 1805.6 41.28 1805.6 49.84 1814 49.84 1814 58.48"/><rect class="cls-1" x="1797.12" y="32.64" width="8.4" height="8.64"/><polygon class="cls-1" points="1839.28 84.32 1847.68 84.32 1847.68 75.68 1839.28 75.68 1839.28 67.04 1830.8 67.04 1830.8 75.68 1839.28 75.68 1839.28 84.32"/><polygon class="cls-1" points="1746.64 92.96 1755.04 92.96 1755.04 101.52 1763.44 101.52 1763.44 92.96 1755.04 92.96 1755.04 84.32 1746.64 84.32 1746.64 75.68 1738.16 75.68 1738.16 84.32 1746.64 84.32 1746.64 92.96"/><polygon class="cls-1" points="1771.92 110.16 1771.92 118.72 1780.32 118.72 1780.32 127.36 1788.72 127.36 1788.72 136 1797.12 136 1797.12 127.36 1788.72 127.36 1788.72 118.72 1780.32 118.72 1780.32 110.16 1771.92 110.16"/><rect class="cls-1" x="1763.44" y="101.52" width="8.4" height="8.64"/></g></g></g></svg>