<?xml version="1.0" encoding="UTF-8"?><svg id="Capa_1" xmlns="http://www.w3.org/2000/svg" viewBox="0 0 180.45 200"><path d="M169.38,80.91L32.9,2.9c-3.32-1.9-7.09-2.9-10.91-2.9s-7.69,1.03-11.03,2.97C4.2,6.89,0,14.17,0,21.99V178.01c0,7.81,4.2,15.1,10.95,19.02,3.35,1.94,7.16,2.97,11.03,2.97s7.59-1,10.91-2.9L169.37,119.09c6.83-3.91,11.08-11.22,11.08-19.09s-4.24-15.18-11.07-19.09Zm-59.14-18.45l-18.74,26.1L46.67,26.13l63.56,36.33ZM21.13,186.59c-1.22-.12-2.41-.47-3.48-1.09-2.66-1.54-4.31-4.41-4.31-7.48V21.98c0-3.07,1.65-5.94,4.31-7.48,1.06-.62,2.25-.99,3.47-1.11l62.18,86.61L21.13,186.59Zm25.55-12.72l44.82-62.44,18.74,26.1-63.56,36.33Zm116.09-66.36l-40.89,23.37-22.17-30.88,22.17-30.88,40.89,23.37c2.69,1.54,4.36,4.41,4.36,7.51s-1.67,5.97-4.36,7.51Z"/></svg>