<svg xmlns="http://www.w3.org/2000/svg" xmlns:xlink="http://www.w3.org/1999/xlink" viewBox="0 0 800 200.65"><defs><style>.cls-1{fill:#f2f2f2;}.cls-2{fill:#999;}.cls-3{fill:url(#linear-gradient);}.cls-4{fill:#c6c6c6;}.cls-5{fill:none;}</style><linearGradient id="linear-gradient" x1="469.65" y1="107" x2="397.74" y2="77.73" gradientUnits="userSpaceOnUse"><stop offset="0"/><stop offset="0.12" stop-color="#383838"/><stop offset="0.24" stop-color="#696969"/><stop offset="0.36" stop-color="#939393"/><stop offset="0.48" stop-color="#b5b5b5"/><stop offset="0.6" stop-color="#d0d0d0"/><stop offset="0.73" stop-color="#e3e3e3"/><stop offset="0.86" stop-color="#eee"/><stop offset="1" stop-color="#f2f2f2"/></linearGradient></defs><g id="Layer_2" data-name="Layer 2"><g id="Capa_1" data-name="Capa 1"><path class="cls-1" d="M110.28,42.12h26.48v58h35.46v20.53H110.28Z"/><path class="cls-1" d="M175,42.12h26.48v78.55H175Z"/><path class="cls-1" d="M205.5,81.4c0-24.13,18.51-41.07,43.76-41.07,15.37,0,27.49,5.61,35.23,15.71L267.77,71c-4.6-5.83-10.1-9.2-17.17-9.2-11,0-18.4,7.63-18.4,19.64S239.61,101,250.6,101c7.07,0,12.57-3.36,17.17-9.2l16.72,14.93c-7.74,10.1-19.86,15.71-35.23,15.71C224,122.47,205.5,105.52,205.5,81.4Z"/><path class="cls-1" d="M286.51,42.12H313v78.55H286.51Z"/><path class="cls-1" d="M338.31,62.66h-23V42.12h72.49V62.66h-23v58H338.31Z"/><path class="cls-2" d="M438.62,107H408.77l-5.27,13.69H376.57l34.34-78.55h26l34.34,78.55H443.9ZM431.33,87.9,423.7,68.16,416.07,87.9Z"/><path class="cls-3" d="M438.62,107H408.77l-5.27,13.69H376.57l34.34-78.55h26l34.34,78.55H443.9ZM431.33,87.9,423.7,68.16,416.07,87.9Z"/><path class="cls-4" d="M546.1,42.12l-15.71,78.55H508.62L486.07,84.09l-7.3,36.58H453l15.7-78.55h21.77L513,78.7l7.29-36.58Z"/><path class="cls-4" d="M572,62.1l-1.79,9.2h33.21l-3.81,19.07H566.31l-2,10.33h39.39l-4,20H534.33L550,42.12h63.85l-4,20Z"/><path class="cls-4" d="M636.09,62.66h-23l4.16-20.54h72.48l-4.15,20.54h-23l-11.56,58H624.53Z"/><path class="cls-4" d="M468.81,139.13c0-1,.95-1.83,3.91-1.83a19,19,0,0,1,8.37,2.16l3-7.13a24.39,24.39,0,0,0-11.33-2.55c-9.31,0-14,4.43-14,9.85,0,10.89,16.6,7.93,16.6,11.6,0,1-1,1.58-3.9,1.58a21,21,0,0,1-9.92-2.67l-3.26,7.18c3,1.79,8.06,3,13.09,3,9.31,0,14-4.52,14-9.85C485.43,139.71,468.81,142.63,468.81,139.13Z"/><path class="cls-4" d="M507.9,157.79l1.67,1.5a20.08,20.08,0,0,1-6.47,1c-9.79,0-17-6.43-17-15.27,0-.33,0-.66,0-1a14.24,14.24,0,0,1,1.36-5.4,13,13,0,0,1,1-1.82l2.63,1.62.9-.43,1.42.43v.78l2,.65v1.92l1.13,2.52,1.29,2.57-.1.59.64.2.27,1.29,1.81,2.16L502,152l1.13,1.09h.41l.36.51.35-.25,1.07.37-.33.76.1.74,1.21,1.37,1.3.22.22.66Z"/><path class="cls-4" d="M520.05,145.06a14.51,14.51,0,0,1-6.54,12.3l-.69-2.2-1.05-1.23-.71-1.88,1.49-.22.74-.39-.39-.73.12-.56-.57-.4-.08-2,.7-.9-.47-1.68.51-.1-.48-.83.5-.88-1.5-1.25-.3-2.36.47,0,.18-.47-8.87,0-12.82-4.57a17.69,17.69,0,0,1,12.81-5C512.89,129.78,520.05,136.21,520.05,145.06Z"/><path class="cls-4" d="M542.4,130.45v13.27L531,130.45h-8.33v29.2h9.87V146.39L544,159.65h8.32v-29.2Z"/><path class="cls-4" d="M571.84,129.78c-9.78,0-17,6.43-17,15.28s7.17,15.27,17,15.27,17-6.44,17-15.27S581.63,129.78,571.84,129.78Zm0,22.57c-3.73,0-6.73-2.75-6.73-7.29s3-7.31,6.73-7.31,6.74,2.75,6.74,7.31S575.58,152.35,571.84,152.35Z"/><path class="cls-4" d="M619.5,158.64l-5.6-8a9.77,9.77,0,0,0,5.66-9.19c0-6.76-5.31-11-13.68-11H591.41v29.2h10.13v-7.34h2.75l5.1,7.34h10.82Zm-14.27-13.75h-3.69V138h3.69c2.79,0,4.12,1.3,4.12,3.42S608,144.89,605.23,144.89Z"/><path class="cls-4" d="M642.14,130.45h-10L619.5,158.64l-.45,1h10.3l2-5.08h11.42l2,5.08h10.47Zm-8,17,2.91-7.34,2.92,7.34Z"/><rect class="cls-5" width="800" height="200.65"/></g></g></svg>