<?xml version="1.0" encoding="UTF-8"?><svg id="Capa_1" xmlns="http://www.w3.org/2000/svg" viewBox="0 0 536.57 260"><g><polygon points="232.1 165.8 198.96 122.72 175.75 122.72 175.75 206.6 200.99 206.6 200.99 163.77 234.02 206.6 257.24 206.6 257.24 122.72 232.1 122.72 232.1 165.8"/><path d="m332.38,126.55c-7.03-3.75-14.92-5.62-23.7-5.62s-16.68,1.86-23.7,5.57c-7.02,3.71-12.5,8.87-16.45,15.49-3.95,6.62-5.92,14.12-5.92,22.49s1.97,15.92,5.92,22.62c3.95,6.7,9.43,11.95,16.45,15.74,7.02,3.79,14.92,5.68,23.7,5.68s16.67-1.9,23.7-5.68c7.01-3.79,12.5-9.04,16.45-15.74,3.95-6.7,5.93-14.24,5.93-22.62s-1.98-15.75-5.93-22.38c-3.95-6.62-9.43-11.8-16.45-15.55Zm-8.38,48.7c-1.52,3.19-3.59,5.69-6.22,7.48-2.64,1.8-5.55,2.7-8.74,2.7s-6.17-.92-8.92-2.75c-2.75-1.83-4.94-4.33-6.58-7.48-1.64-3.15-2.46-6.68-2.46-10.59s.82-7.42,2.46-10.53c1.63-3.11,3.82-5.57,6.58-7.36,2.75-1.79,5.72-2.69,8.92-2.69s6.1.88,8.74,2.63c2.63,1.76,4.7,4.21,6.22,7.36,1.51,3.15,2.28,6.68,2.28,10.59s-.77,7.46-2.28,10.65Z"/><path d="m423.2,179.32c4.31-2.63,7.6-6.2,9.88-10.71,2.27-4.51,3.41-9.79,3.41-15.86,0-9.57-3.11-16.97-9.33-22.2-6.22-5.22-15.04-7.84-26.44-7.84h-40.57v83.88h27.77v-21.78h10.41l10.05,21.78h29.88l.6-1.43-15.65-25.85Zm-15.5-18.25c-1.63,1.8-3.96,2.69-7,2.69h-12.8v-19.99h12.8c3.03,0,5.36.86,7,2.57,1.63,1.71,2.46,4.13,2.46,7.24s-.82,5.68-2.46,7.48Z"/><path d="m62.85,158.5c-3.95-1.68-8.92-3.35-14.9-5.02-4.79-1.28-8.28-2.43-10.47-3.47-2.2-1.04-3.29-2.51-3.29-4.43,0-2.47,1.72-3.71,5.15-3.71s8.05,1,13.64,2.99c5.58,1.99,10.65,4.31,15.2,6.94l10.05-21.18c-4.79-3.03-10.43-5.46-16.93-7.3-6.51-1.84-13.03-2.75-19.56-2.75-7.18,0-13.48,1.12-18.91,3.35-5.43,2.23-9.61,5.45-12.57,9.63-2.95,4.19-4.42,9.07-4.42,14.66s1.43,10.33,4.31,13.76c2.87,3.43,6.28,5.97,10.23,7.6,3.95,1.63,8.87,3.21,14.78,4.72,4.86,1.2,8.43,2.34,10.71,3.41,2.28,1.08,3.41,2.58,3.41,4.49,0,1.59-.6,2.77-1.79,3.53-1.2.76-2.84,1.14-4.91,1.14-4.31,0-9.65-1.29-16.04-3.89-6.38-2.59-11.69-5.72-15.92-9.39L.33,194.52c5.51,4.23,12.03,7.56,19.56,9.99,7.54,2.43,15.02,3.65,22.44,3.65,6.54,0,12.48-1,17.83-2.99,5.34-1.99,9.59-5.04,12.74-9.15,3.15-4.11,4.73-9.19,4.73-15.26s-1.48-10.67-4.43-14.3c-2.95-3.63-6.4-6.28-10.35-7.96Z"/><path d="m147.99,126.55c-7.02-3.75-14.92-5.62-23.69-5.62s-16.67,1.86-23.69,5.57c-7.02,3.71-12.51,8.87-16.45,15.49-3.95,6.62-5.92,14.12-5.92,22.49s1.98,15.92,5.92,22.62c3.95,6.7,9.43,11.95,16.45,15.74,7.02,3.79,14.92,5.68,23.69,5.68s16.67-1.9,23.69-5.68c7.02-3.79,12.5-9.04,16.45-15.74,3.95-6.7,5.92-14.24,5.92-22.62s-1.97-15.75-5.92-22.38c-3.95-6.62-9.43-11.8-16.45-15.55Zm-8.38,48.7c-1.52,3.19-3.59,5.69-6.23,7.48-2.63,1.8-5.55,2.7-8.73,2.7s-6.16-.92-8.91-2.75c-2.75-1.83-4.95-4.33-6.58-7.48-1.63-3.15-2.45-6.68-2.45-10.59s.82-7.42,2.45-10.53c1.63-3.11,3.83-5.57,6.58-7.36,2.75-1.79,5.72-2.69,8.91-2.69s6.1.88,8.73,2.63c2.64,1.76,4.71,4.21,6.23,7.36,1.51,3.15,2.27,6.68,2.27,10.59s-.76,7.46-2.27,10.65Z"/><path d="m473.66,122.72l-34.82,82.45.87,1.43h27.01l4.3-11.84h31.47l4.19,11.84h29.55l-34.1-83.88h-28.48Zm4.55,52.17l8.85-24.53,8.62,24.53h-17.47Z"/></g><rect x="242.15" y="11.41" width="6.16" height="6.29"/><g><polygon points="74.96 12.32 81.25 12.32 81.25 6.16 87.55 6.16 87.55 0 81.25 0 81.25 6.16 74.95 6.16 74.95 12.32 68.66 12.32 68.66 18.48 74.96 18.48 74.96 12.32"/><polygon points="56.06 30.8 62.36 30.8 62.36 24.65 68.66 24.65 68.66 18.48 62.36 18.48 62.36 24.64 56.06 24.64 56.06 30.8 49.76 30.8 49.76 36.96 56.06 36.96 56.06 30.8"/><rect x="87.57" y="67.77" width="6.3" height="6.16"/><rect x="93.86" y="61.6" width="6.3" height="6.16"/><polygon points="119.06 43.12 112.76 43.12 112.76 49.27 106.46 49.27 106.46 55.44 112.76 55.44 112.76 49.28 119.06 49.28 119.06 43.13 125.36 43.13 125.36 36.96 119.06 36.96 119.06 43.12"/><rect x="81.27" y="73.92" width="6.3" height="6.16"/><rect x="68.66" y="49.27" width="6.3" height="6.16"/><polygon points="62.36 61.6 56.06 61.6 56.06 67.76 62.36 67.76 62.36 61.61 68.66 61.61 68.66 55.44 62.36 55.44 62.36 61.6"/><rect x="49.76" y="67.76" width="6.31" height="6.16"/><polygon points="87.55 43.12 87.55 36.96 81.25 36.96 81.25 43.11 74.95 43.11 74.95 49.27 81.25 49.27 81.25 43.12 87.55 43.12"/><polygon points="93.86 104.72 87.57 104.72 87.57 110.89 93.87 110.89 93.87 104.72 100.16 104.72 100.16 98.56 93.86 98.56 93.86 104.72"/><polygon points="119.06 80.08 112.76 80.08 112.76 86.24 106.46 86.24 106.46 92.39 100.16 92.39 100.16 98.56 106.46 98.56 106.46 92.4 112.76 92.4 112.76 86.24 119.06 86.24 119.06 80.08 125.36 80.08 125.36 73.92 119.06 73.92 119.06 80.08"/><rect x="81.27" y="110.87" width="6.3" height="6.17"/><polygon points="442.71 12.32 449 12.32 449 6.16 455.3 6.16 455.3 0 449 0 449 6.16 442.7 6.16 442.7 12.32 436.41 12.32 436.41 18.48 442.71 18.48 442.71 12.32"/><polygon points="423.81 30.8 430.11 30.8 430.11 24.65 436.41 24.65 436.41 18.48 430.11 18.48 430.11 24.64 423.81 24.64 423.81 30.8 417.51 30.8 417.51 36.96 423.81 36.96 423.81 30.8"/><rect x="455.31" y="67.77" width="6.3" height="6.16"/><rect x="461.61" y="61.6" width="6.3" height="6.16"/><polygon points="486.8 36.96 486.8 43.12 480.51 43.12 480.51 49.27 474.21 49.27 474.21 55.44 480.51 55.44 480.51 49.28 486.8 49.28 486.8 43.13 493.1 43.13 493.1 36.96 486.8 36.96"/><rect x="449.01" y="73.92" width="6.3" height="6.16"/><rect x="436.41" y="49.27" width="6.3" height="6.16"/><polygon points="430.11 61.6 423.81 61.6 423.81 67.76 430.11 67.76 430.11 61.61 436.41 61.61 436.41 55.44 430.11 55.44 430.11 61.6"/><rect x="417.51" y="67.76" width="6.31" height="6.16"/><polygon points="455.3 43.12 455.3 36.96 449 36.96 449 43.11 442.7 43.11 442.7 49.27 449 49.27 449 43.12 455.3 43.12"/><polygon points="461.61 104.72 455.31 104.72 455.31 110.89 461.61 110.89 461.61 104.72 467.91 104.72 467.91 98.56 461.61 98.56 461.61 104.72"/><polygon points="486.8 80.08 480.51 80.08 480.51 86.24 474.21 86.24 474.21 92.39 467.91 92.39 467.91 98.56 474.21 98.56 474.21 92.4 480.51 92.4 480.51 86.24 486.8 86.24 486.8 80.08 493.1 80.08 493.1 73.92 486.8 73.92 486.8 80.08"/><rect x="449.01" y="110.87" width="6.3" height="6.17"/><rect x="148.87" y="45.1" width="6.16" height="6.29"/><rect x="155.03" y="38.8" width="6.16" height="6.29"/><rect x="167.34" y="26.2" width="6.16" height="6.29"/><rect x="161.19" y="32.5" width="6.16" height="6.3"/><polygon points="179.66 19.9 173.5 19.9 173.5 26.19 179.66 26.19 179.66 19.91 185.83 19.91 185.83 13.61 179.66 13.61 179.66 19.9"/><polygon points="386.84 44.99 380.68 44.99 380.68 51.29 386.84 51.29 386.84 57.58 393 57.58 393 51.28 386.84 51.28 386.84 44.99"/><polygon points="374.52 32.39 368.36 32.39 368.36 26.09 362.2 26.09 362.2 19.79 356.05 19.79 356.05 13.49 349.88 13.49 349.88 19.79 356.04 19.79 356.04 26.09 362.19 26.09 362.19 32.39 368.35 32.39 368.35 38.69 374.51 38.69 374.51 44.99 380.68 44.99 380.68 38.69 374.52 38.69 374.52 32.39"/><rect x="211.34" y="42.9" width="6.16" height="6.29"/><rect x="229.83" y="24.01" width="6.16" height="6.29"/><polygon points="223.67 36.6 217.51 36.6 217.51 42.9 223.67 42.9 223.67 36.6 229.83 36.6 229.83 30.3 223.67 30.3 223.67 36.6"/><rect x="235.99" y="17.7" width="6.16" height="6.29"/><rect x="272.97" y="55.51" width="6.16" height="6.3"/><rect x="266.8" y="61.81" width="6.16" height="6.29"/><rect x="254.48" y="74.4" width="6.16" height="6.3"/><polygon points="248.32 87 248.31 87 248.31 87 242.15 87 242.15 93.3 242.16 93.3 248.31 93.3 248.33 93.3 248.33 87.01 254.48 87.01 254.48 80.71 248.32 80.71 248.32 87"/><rect x="248.3" y="42.9" width="6.16" height="6.29"/><polygon points="272.95 30.3 272.95 24.01 266.79 24.01 266.79 30.3 260.63 30.3 260.63 30.3 260.63 36.6 254.47 36.6 254.47 42.9 260.63 42.9 260.63 36.6 266.8 36.6 266.8 30.3 266.8 30.3 272.95 30.3"/><rect x="272.95" y="17.7" width="6.16" height="6.29"/><rect x="309.92" y="55.51" width="6.16" height="6.3"/><polygon points="303.76 68.11 297.6 68.11 297.6 74.4 291.44 74.4 291.44 80.7 297.6 80.7 297.6 74.4 303.76 74.4 303.76 68.11 309.92 68.11 309.92 61.81 303.76 61.81 303.76 68.11"/><polygon points="285.28 87 285.27 87 285.27 87 279.11 87 279.11 93.3 279.12 93.3 285.27 93.3 285.29 93.3 285.29 87.01 291.45 87.01 291.45 80.71 285.28 80.71 285.28 87"/></g><g><polygon points="93.86 6.15 87.57 6.15 87.57 12.31 93.86 12.31 93.86 18.48 100.16 18.48 100.16 12.31 93.86 12.31 93.86 6.15"/><polygon points="106.46 18.48 100.17 18.48 100.17 24.64 106.46 24.64 106.46 30.8 112.76 30.8 112.76 24.63 106.46 24.63 106.46 18.48"/><rect x="112.77" y="30.79" width="6.29" height="6.16"/><rect x="74.95" y="67.77" width="6.3" height="6.16"/><rect x="68.66" y="61.6" width="6.29" height="6.16"/><polygon points="49.76 49.28 56.06 49.28 56.06 55.44 62.36 55.44 62.36 49.28 56.06 49.28 56.06 43.12 49.76 43.12 49.76 36.97 43.46 36.97 43.46 43.13 49.76 43.13 49.76 49.28"/><rect x="87.57" y="43.11" width="6.29" height="6.16"/><rect x="93.86" y="49.27" width="6.3" height="6.16"/><polygon points="106.46 55.43 100.17 55.43 100.17 61.6 106.46 61.6 106.46 67.75 112.76 67.75 112.76 61.59 106.46 61.59 106.46 55.43"/><rect x="112.77" y="67.75" width="6.29" height="6.16"/><polygon points="74.95 98.56 68.66 98.56 68.66 104.73 74.95 104.73 74.95 110.89 81.25 110.89 81.25 104.73 74.95 104.73 74.95 98.56"/><polygon points="62.36 86.24 56.06 86.24 56.06 80.08 49.76 80.08 49.76 73.92 43.46 73.92 43.46 80.09 49.76 80.09 49.76 86.25 56.06 86.25 56.06 92.4 62.36 92.4 62.36 98.56 68.65 98.56 68.65 92.4 62.36 92.4 62.36 86.24"/><polygon points="461.61 6.15 455.31 6.15 455.31 12.31 461.61 12.31 461.61 18.48 467.91 18.48 467.91 12.31 461.61 12.31 461.61 6.15"/><polygon points="474.21 18.48 467.92 18.48 467.92 24.64 474.21 24.64 474.21 30.8 480.5 30.8 480.5 24.63 474.21 24.63 474.21 18.48"/><rect x="480.52" y="30.79" width="6.29" height="6.16"/><rect x="442.7" y="67.77" width="6.3" height="6.16"/><rect x="436.41" y="61.6" width="6.29" height="6.16"/><polygon points="417.51 49.28 423.81 49.28 423.81 55.44 430.11 55.44 430.11 49.28 423.81 49.28 423.81 43.12 417.51 43.12 417.51 36.97 411.21 36.97 411.21 43.13 417.51 43.13 417.51 49.28"/><rect x="455.31" y="43.11" width="6.29" height="6.16"/><rect x="461.61" y="49.27" width="6.3" height="6.16"/><polygon points="474.21 55.43 467.92 55.43 467.92 61.6 474.21 61.6 474.21 67.75 480.5 67.75 480.5 61.59 474.21 61.59 474.21 55.43"/><rect x="480.52" y="67.75" width="6.29" height="6.16"/><polygon points="442.7 98.56 436.41 98.56 436.41 104.73 442.7 104.73 442.7 110.89 449 110.89 449 104.73 442.7 104.73 442.7 98.56"/><polygon points="430.11 86.24 423.81 86.24 423.81 80.08 417.51 80.08 417.51 73.92 411.21 73.92 411.21 80.09 417.51 80.09 417.51 86.25 423.81 86.25 423.81 92.4 430.11 92.4 430.11 98.56 436.4 98.56 436.4 92.4 430.11 92.4 430.11 86.24"/><polygon points="179.67 82.9 173.52 82.9 173.52 76.6 167.36 76.6 167.36 70.3 161.19 70.3 161.19 64 155.04 64 155.04 70.3 161.19 70.3 161.19 76.6 167.35 76.6 167.35 82.9 173.51 82.9 173.51 89.2 179.67 89.2 179.67 95.5 185.83 95.5 185.83 89.19 179.67 89.19 179.67 82.9"/><polygon points="148.87 51.41 142.71 51.41 142.71 57.71 148.87 57.71 148.87 64.01 155.03 64.01 155.03 57.71 148.87 57.71 148.87 51.41"/><rect x="380.68" y="57.59" width="6.16" height="6.29"/><rect x="374.52" y="63.89" width="6.16" height="6.3"/><polygon points="368.35 76.49 362.2 76.49 362.2 82.78 368.36 82.78 368.36 76.49 374.52 76.49 374.52 70.19 368.35 70.19 368.35 76.49"/><polygon points="356.04 89.09 349.88 89.09 349.88 95.38 356.05 95.38 356.05 89.09 362.21 89.09 362.21 82.8 356.04 82.8 356.04 89.09"/><rect x="217.51" y="61.81" width="6.16" height="6.29"/><polygon points="235.99 74.4 229.85 74.4 229.85 68.1 223.68 68.1 223.68 74.4 229.83 74.4 229.83 80.71 235.99 80.71 235.99 87.01 242.16 87.01 242.16 80.7 235.99 80.7 235.99 74.4"/><polygon points="211.36 49.21 205.19 49.21 205.19 55.51 211.35 55.51 211.35 61.81 217.51 61.81 217.51 55.51 211.36 55.51 211.36 49.21"/><polygon points="279.12 42.9 272.95 42.9 272.95 49.2 279.12 49.2 279.12 55.49 285.28 55.49 285.28 49.19 279.12 49.19 279.12 42.9"/><rect x="266.8" y="36.6" width="6.16" height="6.31"/><polygon points="254.48 17.7 248.32 17.7 248.32 11.4 242.16 11.4 242.16 17.7 248.31 17.7 248.31 24 254.47 24 254.47 30.3 260.63 30.3 260.63 24 254.48 24 254.48 17.7"/><rect x="254.47" y="61.81" width="6.16" height="6.29"/><polygon points="266.8 68.1 260.64 68.1 260.64 74.4 266.8 74.4 266.8 80.71 272.95 80.71 272.95 74.4 266.8 74.4 266.8 68.1"/><rect x="272.95" y="80.7" width="6.16" height="6.31"/><polygon points="248.31 49.21 242.15 49.21 242.15 55.51 248.31 55.51 248.31 61.81 254.47 61.81 254.47 55.51 248.31 55.51 248.31 49.21"/><polygon points="316.08 42.9 309.92 42.9 309.92 36.6 303.76 36.6 303.76 42.9 309.92 42.9 309.92 49.2 316.07 49.2 316.07 55.49 322.24 55.49 322.24 49.19 316.08 49.19 316.08 42.9"/><polygon points="297.6 30.3 297.6 24 291.44 24 291.44 17.7 285.28 17.7 285.28 11.4 279.12 11.4 279.12 17.7 285.27 17.7 285.27 24 291.44 24 291.44 30.3 297.6 30.3"/><rect x="297.58" y="30.3" width="6.17" height="6.3"/></g><g><path d="m0,227.85h16.15v1.49h-7.32v18.51h-1.53v-18.51H0v-1.49Z"/><path d="m26.49,227.85v19.99h-1.53v-19.99h1.53Z"/><path d="m37.47,227.85h13.92v1.49h-12.39v7.97h10.54v1.44h-10.54v7.61h12.39v1.49h-13.92v-19.99Z"/><path d="m70.04,227.85c1.09,0,2.06.17,2.92.51.86.34,1.58.81,2.17,1.4.59.59,1.04,1.27,1.35,2.05.31.78.47,1.6.47,2.47,0,.7-.1,1.38-.31,2.02-.21.65-.51,1.25-.9,1.79-.39.55-.87,1.02-1.44,1.42-.57.4-1.23.71-1.97.94l5.32,7.38h-1.87l-5.12-7.1c-.1.02-.21.03-.31.03h-7.71v7.07h-1.53v-19.99h8.93Zm-7.4,1.44v10.05h7.35c.88,0,1.66-.14,2.34-.41.68-.27,1.25-.64,1.71-1.1.47-.46.82-1,1.05-1.6.23-.61.35-1.24.35-1.91s-.12-1.3-.35-1.91c-.23-.61-.58-1.14-1.05-1.6-.47-.46-1.04-.83-1.71-1.1-.68-.27-1.45-.41-2.34-.41h-7.35Z"/><path d="m95.85,227.85c1.09,0,2.06.17,2.92.51.86.34,1.58.81,2.17,1.4.59.59,1.04,1.27,1.35,2.05.31.78.47,1.6.47,2.47,0,.7-.1,1.38-.31,2.02-.21.65-.51,1.25-.9,1.79-.39.55-.87,1.02-1.44,1.42-.57.4-1.23.71-1.97.94l5.32,7.38h-1.87l-5.12-7.1c-.1.02-.21.03-.31.03h-7.71v7.07h-1.53v-19.99h8.93Zm-7.4,1.44v10.05h7.35c.88,0,1.66-.14,2.34-.41.68-.27,1.25-.64,1.71-1.1.47-.46.82-1,1.05-1.6.23-.61.35-1.24.35-1.91s-.12-1.3-.35-1.91c-.23-.61-.58-1.14-1.05-1.6-.47-.46-1.04-.83-1.71-1.1-.68-.27-1.45-.41-2.34-.41h-7.35Z"/><path d="m121.14,227.85l9.3,19.99h-1.69l-2.08-4.51h-12.72l-2.05,4.51h-1.71l9.3-19.99h1.66Zm-6.52,14.05h11.37l-5.69-12.41-5.69,12.41Z"/><path d="m151.83,227.85h7.92c1.54,0,2.9.26,4.08.78,1.18.52,2.16,1.23,2.95,2.13.79.9,1.38,1.95,1.79,3.17.41,1.21.61,2.52.61,3.92s-.2,2.71-.61,3.93c-.41,1.22-1,2.28-1.79,3.18-.79.9-1.77,1.6-2.95,2.11-1.18.51-2.54.77-4.08.77h-7.92v-19.99Zm1.53,1.49v17.02h6.31c1.28,0,2.41-.22,3.4-.65.99-.44,1.82-1.03,2.49-1.79.68-.76,1.19-1.66,1.55-2.69.35-1.03.53-2.16.53-3.37s-.18-2.34-.53-3.37c-.36-1.03-.87-1.93-1.55-2.69-.68-.76-1.51-1.36-2.49-1.79-.99-.44-2.12-.65-3.4-.65h-6.31Z"/><path d="m178.86,227.85h13.92v1.49h-12.39v7.97h10.54v1.44h-10.54v7.61h12.39v1.49h-13.92v-19.99Z"/><path d="m213.45,237.85c0-1.44.29-2.78.86-4.04.57-1.26,1.35-2.35,2.32-3.29.98-.94,2.12-1.68,3.43-2.23,1.31-.55,2.69-.82,4.14-.82s2.86.27,4.17.82c1.31.55,2.45,1.29,3.43,2.23.98.94,1.75,2.04,2.31,3.29.56,1.26.84,2.6.84,4.04s-.28,2.78-.84,4.04c-.56,1.26-1.33,2.35-2.31,3.29-.98.94-2.12,1.68-3.43,2.23-1.31.55-2.7.82-4.17.82s-2.84-.27-4.14-.82c-1.31-.55-2.45-1.29-3.43-2.23-.98-.94-1.75-2.04-2.32-3.29-.57-1.26-.86-2.6-.86-4.04Zm5.25,0c0,.75.14,1.46.43,2.13.29.67.68,1.24,1.18,1.73s1.09.87,1.75,1.15c.67.28,1.38.42,2.14.42s1.5-.14,2.17-.42c.67-.28,1.25-.67,1.74-1.15.49-.49.88-1.06,1.17-1.73.29-.67.43-1.38.43-2.13s-.14-1.46-.43-2.13c-.29-.67-.68-1.24-1.17-1.73s-1.07-.87-1.74-1.15c-.67-.28-1.39-.42-2.17-.42s-1.48.14-2.14.42c-.67.28-1.25.67-1.75,1.15s-.9,1.06-1.18,1.73c-.29.67-.43,1.38-.43,2.13Z"/><path d="m243.08,227.85h8.93c1.35,0,2.52.21,3.52.63,1,.42,1.82.98,2.48,1.69s1.15,1.52,1.47,2.45c.32.92.48,1.89.48,2.9,0,1.06-.16,2.06-.48,3-.32.94-.81,1.76-1.47,2.47-.66.71-1.48,1.27-2.48,1.69s-2.17.63-3.52.63h-3.74v4.54h-5.19v-19.99Zm5.19,4.66v6.13h3.45c1.09,0,1.86-.29,2.31-.88.45-.59.68-1.33.68-2.22,0-.39-.05-.77-.16-1.14-.1-.37-.28-.69-.52-.97-.24-.28-.55-.5-.93-.67-.38-.16-.84-.24-1.38-.24h-3.45Z"/><path d="m266.97,237.85c0-1.44.29-2.78.86-4.04.57-1.26,1.35-2.35,2.32-3.29.98-.94,2.12-1.68,3.43-2.23,1.31-.55,2.69-.82,4.14-.82s2.86.27,4.17.82c1.31.55,2.45,1.29,3.43,2.23.98.94,1.75,2.04,2.31,3.29.56,1.26.84,2.6.84,4.04s-.28,2.78-.84,4.04c-.56,1.26-1.33,2.35-2.31,3.29-.98.94-2.12,1.68-3.43,2.23-1.31.55-2.7.82-4.17.82s-2.84-.27-4.14-.82c-1.31-.55-2.45-1.29-3.43-2.23-.98-.94-1.75-2.04-2.32-3.29-.57-1.26-.86-2.6-.86-4.04Zm5.25,0c0,.75.14,1.46.43,2.13.29.67.68,1.24,1.18,1.73s1.09.87,1.75,1.15c.67.28,1.38.42,2.14.42s1.5-.14,2.17-.42c.67-.28,1.25-.67,1.74-1.15s.88-1.06,1.17-1.73c.29-.67.43-1.38.43-2.13s-.14-1.46-.43-2.13c-.29-.67-.68-1.24-1.17-1.73s-1.07-.87-1.74-1.15c-.67-.28-1.39-.42-2.17-.42s-1.48.14-2.14.42c-.67.28-1.25.67-1.75,1.15-.5.49-.9,1.06-1.18,1.73-.29.67-.43,1.38-.43,2.13Z"/><path d="m306.5,227.85c1.3,0,2.42.19,3.38.58.95.38,1.74.91,2.36,1.58.62.67,1.09,1.44,1.39,2.33.3.89.45,1.83.45,2.82,0,.7-.08,1.38-.25,2.05-.16.67-.41,1.29-.74,1.86-.33.57-.74,1.09-1.25,1.56-.5.47-1.09.86-1.77,1.17l4.39,6.05h-6.21l-3.84-5.36h-2.65v5.36h-5.17v-19.99h9.89Zm-4.73,4.66v5.33h4.44c.52,0,.96-.07,1.32-.22.36-.15.66-.34.88-.58.22-.24.39-.52.49-.85.1-.32.16-.66.16-1,0-.77-.22-1.41-.65-1.92-.43-.51-1.17-.77-2.21-.77h-4.44Z"/><path d="m321.22,227.85h17.81v4.97h-6.31v15.02h-5.19v-15.02h-6.31v-4.97Z"/><path d="m365.21,227.85v11.25c0,1.28-.2,2.48-.61,3.59-.41,1.11-1,2.08-1.79,2.9-.79.82-1.76,1.47-2.92,1.94-1.16.47-2.49.7-4,.7s-2.87-.23-4.02-.7c-1.16-.47-2.13-1.11-2.91-1.94-.78-.82-1.37-1.79-1.77-2.9-.4-1.11-.6-2.31-.6-3.59v-11.25h5.19v10.94c0,1.45.35,2.56,1.04,3.33.69.77,1.71,1.15,3.06,1.15s2.4-.38,3.1-1.15c.7-.77,1.05-1.88,1.05-3.33v-10.94h5.17Z"/><path d="m374.01,247.85v-19.99h4.41l9.04,11.18v-11.18h5.17v19.99h-4.39l-9.04-11.15v11.15h-5.19Z"/><path d="m406.91,227.85v19.99h-5.19v-19.99h5.19Z"/><path d="m416,227.85h9.4c1.58,0,2.96.26,4.17.79,1.2.53,2.2,1.25,3,2.17.8.91,1.4,1.98,1.8,3.19.41,1.21.61,2.49.61,3.84s-.2,2.66-.61,3.87c-.41,1.21-1.01,2.27-1.8,3.18-.8.91-1.8,1.62-3,2.15-1.2.53-2.59.79-4.17.79h-9.4v-19.99Zm5.19,4.97v10.07h3.82c.78,0,1.46-.12,2.05-.37.59-.25,1.08-.59,1.48-1.04.4-.44.7-.97.9-1.59.2-.61.3-1.3.3-2.05,0-1.5-.4-2.72-1.19-3.64-.8-.92-1.97-1.38-3.53-1.38h-3.82Z"/><path d="m453.76,227.85l8.18,19.99h-5.66l-1.12-2.92h-7.97l-1.12,2.92h-5.66l8.21-19.99h5.14Zm-2.57,6.56l-2.23,5.87h4.44l-2.21-5.87Z"/><path d="m469.47,227.85h9.4c1.58,0,2.96.26,4.17.79,1.2.53,2.2,1.25,3,2.17.8.91,1.4,1.98,1.8,3.19.41,1.21.61,2.49.61,3.84s-.2,2.66-.61,3.87c-.41,1.21-1.01,2.27-1.8,3.18-.8.91-1.8,1.62-3,2.15-1.2.53-2.59.79-4.17.79h-9.4v-19.99Zm5.19,4.97v10.07h3.82c.78,0,1.46-.12,2.05-.37.59-.25,1.08-.59,1.48-1.04.4-.44.7-.97.9-1.59.2-.61.3-1.3.3-2.05,0-1.5-.4-2.72-1.19-3.64-.8-.92-1.97-1.38-3.53-1.38h-3.82Z"/><path d="m496.68,227.85h15.56v4.97h-10.36v2.87h8.52v4.64h-8.52v2.56h10.36v4.95h-15.56v-19.99Z"/><path d="m524.99,241.85v.13c0,.19.07.39.21.6.14.21.35.41.62.59.28.18.63.33,1.06.45.43.12.94.18,1.53.18.97,0,1.64-.13,2.01-.4.37-.26.56-.54.56-.83,0-.43-.27-.79-.8-1.1-.54-.31-1.42-.67-2.65-1.08-.81-.26-1.66-.56-2.53-.91-.87-.35-1.67-.78-2.4-1.29s-1.33-1.14-1.8-1.87c-.48-.73-.71-1.61-.71-2.64,0-.96.19-1.82.58-2.58.39-.76.93-1.41,1.64-1.95.7-.54,1.54-.95,2.51-1.24.97-.29,2.03-.44,3.19-.44s2.27.15,3.28.45,1.89.73,2.62,1.29c.74.56,1.32,1.24,1.74,2.04.42.79.64,1.69.64,2.68v.28h-5.06v-.18c0-.24-.06-.49-.19-.74-.13-.26-.32-.49-.58-.69-.26-.2-.58-.37-.97-.5-.39-.13-.84-.19-1.36-.19-.88,0-1.51.14-1.9.42-.38.28-.57.59-.57.94,0,.39.25.73.77,1,.51.27,1.37.61,2.58,1.03.69.24,1.48.53,2.36.88.88.35,1.71.79,2.48,1.33.77.54,1.42,1.2,1.95,1.97.53.78.79,1.71.79,2.81,0,.97-.2,1.83-.61,2.58-.41.74-.97,1.36-1.69,1.86-.72.5-1.57.87-2.54,1.13-.98.26-2.05.38-3.21.38s-2.34-.14-3.39-.41c-1.05-.27-1.96-.67-2.73-1.19-.77-.52-1.38-1.17-1.82-1.94-.44-.77-.66-1.64-.66-2.61v-.23h5.06Z"/></g><g><path d="m3.89,256.22c.4.4.59.94.59,1.57s-.19,1.18-.59,1.58c-.42.42-.94.64-1.57.64s-1.14-.21-1.55-.64c-.4-.4-.61-.94-.61-1.58s.19-1.16.59-1.57c.41-.4.92-.61,1.57-.61s1.15.21,1.57.61"/><path d="m11.6,256.22c.4.4.59.94.59,1.57s-.19,1.18-.59,1.58c-.42.42-.94.64-1.57.64s-1.14-.21-1.55-.64c-.4-.4-.61-.94-.61-1.58s.19-1.16.59-1.57c.41-.4.92-.61,1.57-.61s1.15.21,1.57.61"/><path d="m19.31,256.22c.4.4.59.94.59,1.57s-.19,1.18-.59,1.58c-.42.42-.94.64-1.57.64s-1.14-.21-1.55-.64c-.4-.4-.61-.94-.61-1.58s.19-1.16.59-1.57c.41-.4.92-.61,1.57-.61s1.15.21,1.57.61"/><path d="m27.02,256.22c.4.4.59.94.59,1.57s-.19,1.18-.59,1.58c-.42.42-.94.64-1.57.64s-1.14-.21-1.55-.64c-.4-.4-.61-.94-.61-1.58s.19-1.16.59-1.57c.4-.4.92-.61,1.57-.61s1.15.21,1.57.61"/><path d="m34.73,256.22c.4.4.59.94.59,1.57s-.19,1.18-.59,1.58c-.42.42-.94.64-1.57.64s-1.14-.21-1.55-.64c-.4-.4-.61-.94-.61-1.58s.19-1.16.59-1.57c.4-.4.92-.61,1.57-.61s1.15.21,1.57.61"/><path d="m42.43,256.22c.4.4.59.94.59,1.57s-.19,1.18-.59,1.58c-.42.42-.94.64-1.57.64s-1.15-.21-1.55-.64c-.4-.4-.61-.94-.61-1.58s.19-1.16.59-1.57c.4-.4.92-.61,1.57-.61s1.14.21,1.57.61"/><path d="m50.13,256.22c.4.4.59.94.59,1.57s-.19,1.18-.59,1.58c-.42.42-.93.64-1.56.64s-1.15-.21-1.55-.64c-.4-.4-.61-.94-.61-1.58s.19-1.16.59-1.57c.41-.4.93-.61,1.57-.61s1.14.21,1.56.61"/><path d="m57.84,256.22c.4.4.59.94.59,1.57s-.19,1.18-.59,1.58c-.42.42-.93.64-1.56.64s-1.15-.21-1.55-.64c-.4-.4-.61-.94-.61-1.58s.19-1.16.59-1.57c.41-.4.93-.61,1.57-.61s1.14.21,1.56.61"/><path d="m65.55,256.22c.4.4.59.94.59,1.57s-.19,1.18-.59,1.58c-.42.42-.93.64-1.56.64s-1.15-.21-1.55-.64c-.4-.4-.61-.94-.61-1.58s.19-1.16.59-1.57c.41-.4.93-.61,1.57-.61s1.14.21,1.56.61"/><path d="m73.27,256.22c.4.4.59.94.59,1.57s-.19,1.18-.59,1.58c-.42.42-.93.64-1.56.64s-1.15-.21-1.55-.64c-.4-.4-.61-.94-.61-1.58s.19-1.16.59-1.57c.41-.4.93-.61,1.57-.61s1.14.21,1.56.61"/><path d="m80.98,256.22c.4.4.59.94.59,1.57s-.19,1.18-.59,1.58c-.42.42-.93.64-1.56.64s-1.15-.21-1.55-.64c-.4-.4-.61-.94-.61-1.58s.2-1.16.59-1.57c.41-.4.93-.61,1.57-.61s1.14.21,1.56.61"/><path d="m88.69,256.22c.4.4.59.94.59,1.57s-.19,1.18-.59,1.58c-.42.42-.93.64-1.56.64s-1.15-.21-1.55-.64c-.4-.4-.61-.94-.61-1.58s.2-1.16.59-1.57c.41-.4.93-.61,1.57-.61s1.14.21,1.56.61"/><path d="m96.4,256.22c.4.4.59.94.59,1.57s-.19,1.18-.59,1.58c-.42.42-.93.64-1.56.64s-1.15-.21-1.55-.64c-.4-.4-.61-.94-.61-1.58s.2-1.16.59-1.57c.41-.4.92-.61,1.57-.61s1.14.21,1.56.61"/><path d="m104.11,256.22c.4.4.59.94.59,1.57s-.19,1.18-.59,1.58c-.42.42-.93.64-1.56.64s-1.15-.21-1.55-.64c-.4-.4-.61-.94-.61-1.58s.2-1.16.59-1.57c.41-.4.92-.61,1.57-.61s1.14.21,1.56.61"/><path d="m111.82,256.22c.4.4.59.94.59,1.57s-.19,1.18-.59,1.58c-.42.42-.93.64-1.56.64s-1.15-.21-1.55-.64c-.4-.4-.61-.94-.61-1.58s.2-1.16.59-1.57c.41-.4.92-.61,1.57-.61s1.14.21,1.56.61"/><path d="m119.52,256.22c.4.4.59.94.59,1.57s-.19,1.18-.59,1.58c-.42.42-.94.64-1.57.64s-1.14-.21-1.55-.64c-.4-.4-.61-.94-.61-1.58s.19-1.16.59-1.57c.4-.4.92-.61,1.57-.61s1.15.21,1.57.61"/><path d="m127.23,256.22c.4.4.59.94.59,1.57s-.19,1.18-.59,1.58c-.42.42-.94.64-1.57.64s-1.14-.21-1.55-.64c-.4-.4-.61-.94-.61-1.58s.19-1.16.59-1.57c.4-.4.92-.61,1.57-.61s1.15.21,1.57.61"/><path d="m134.94,256.22c.4.4.59.94.59,1.57s-.2,1.18-.59,1.58c-.42.42-.94.64-1.57.64s-1.14-.21-1.55-.64c-.4-.4-.61-.94-.61-1.58s.19-1.16.59-1.57c.4-.4.92-.61,1.57-.61s1.15.21,1.57.61"/><path d="m142.65,256.22c.4.4.59.94.59,1.57s-.2,1.18-.59,1.58c-.42.42-.94.64-1.57.64s-1.14-.21-1.55-.64c-.4-.4-.61-.94-.61-1.58s.19-1.16.59-1.57.92-.61,1.57-.61,1.15.21,1.57.61"/><path d="m150.36,256.22c.4.4.59.94.59,1.57s-.2,1.18-.59,1.58c-.42.42-.94.64-1.57.64s-1.14-.21-1.55-.64c-.4-.4-.61-.94-.61-1.58s.19-1.16.59-1.57c.4-.4.92-.61,1.57-.61s1.15.21,1.57.61"/><path d="m158.07,256.22c.4.4.59.94.59,1.57s-.2,1.18-.59,1.58c-.42.42-.94.64-1.57.64s-1.14-.21-1.55-.64c-.4-.4-.61-.94-.61-1.58s.19-1.16.59-1.57c.4-.4.92-.61,1.57-.61s1.15.21,1.57.61"/><path d="m165.78,256.22c.4.4.59.94.59,1.57s-.2,1.18-.59,1.58c-.42.42-.94.64-1.57.64s-1.14-.21-1.55-.64c-.4-.4-.61-.94-.61-1.58s.19-1.16.59-1.57c.4-.4.92-.61,1.57-.61s1.15.21,1.57.61"/><path d="m173.49,256.22c.4.4.59.94.59,1.57s-.19,1.18-.59,1.58c-.42.42-.94.64-1.57.64s-1.14-.21-1.55-.64c-.4-.4-.61-.94-.61-1.58s.19-1.16.59-1.57c.4-.4.92-.61,1.57-.61s1.15.21,1.57.61"/><path d="m181.2,256.22c.4.4.59.94.59,1.57s-.19,1.18-.59,1.58c-.42.42-.94.64-1.57.64s-1.14-.21-1.55-.64c-.4-.4-.61-.94-.61-1.58s.19-1.16.59-1.57.92-.61,1.57-.61,1.15.21,1.57.61"/><path d="m188.89,256.22c.4.4.59.94.59,1.57s-.19,1.18-.59,1.58c-.42.42-.94.64-1.56.64s-1.15-.21-1.55-.64c-.4-.4-.61-.94-.61-1.58s.19-1.16.59-1.57c.41-.4.92-.61,1.57-.61s1.14.21,1.56.61"/><path d="m196.61,256.22c.4.4.59.94.59,1.57s-.19,1.18-.59,1.58c-.42.42-.94.64-1.56.64s-1.15-.21-1.55-.64c-.4-.4-.61-.94-.61-1.58s.19-1.16.59-1.57c.41-.4.92-.61,1.57-.61s1.14.21,1.56.61"/><path d="m204.32,256.22c.4.4.59.94.59,1.57s-.19,1.18-.59,1.58c-.42.42-.94.64-1.56.64s-1.15-.21-1.55-.64c-.4-.4-.61-.94-.61-1.58s.19-1.16.59-1.57c.41-.4.92-.61,1.57-.61s1.14.21,1.56.61"/><path d="m212.03,256.22c.4.4.59.94.59,1.57s-.19,1.18-.59,1.58c-.42.42-.94.64-1.56.64s-1.15-.21-1.55-.64c-.4-.4-.61-.94-.61-1.58s.19-1.16.59-1.57c.41-.4.92-.61,1.57-.61s1.14.21,1.56.61"/><path d="m219.74,256.22c.4.4.59.94.59,1.57s-.19,1.18-.59,1.58c-.42.42-.94.64-1.56.64s-1.15-.21-1.55-.64c-.4-.4-.61-.94-.61-1.58s.19-1.16.59-1.57c.41-.4.92-.61,1.57-.61s1.14.21,1.56.61"/><path d="m227.45,256.22c.4.4.59.94.59,1.57s-.19,1.18-.59,1.58c-.42.42-.94.64-1.56.64s-1.15-.21-1.55-.64c-.4-.4-.61-.94-.61-1.58s.19-1.16.59-1.57c.41-.4.92-.61,1.57-.61s1.14.21,1.56.61"/><path d="m235.16,256.22c.4.4.59.94.59,1.57s-.19,1.18-.59,1.58c-.42.42-.94.64-1.56.64s-1.15-.21-1.55-.64c-.4-.4-.61-.94-.61-1.58s.19-1.16.59-1.57c.41-.4.92-.61,1.57-.61s1.14.21,1.56.61"/><path d="m242.87,256.22c.4.4.59.94.59,1.57s-.19,1.18-.59,1.58c-.42.42-.94.64-1.56.64s-1.15-.21-1.55-.64c-.4-.4-.61-.94-.61-1.58s.19-1.16.59-1.57c.41-.4.92-.61,1.57-.61s1.14.21,1.56.61"/><path d="m250.58,256.22c.4.4.59.94.59,1.57s-.19,1.18-.59,1.58c-.42.42-.94.64-1.56.64s-1.15-.21-1.55-.64c-.4-.4-.61-.94-.61-1.58s.19-1.16.59-1.57c.41-.4.92-.61,1.57-.61s1.14.21,1.56.61"/><path d="m258.29,256.22c.4.4.59.94.59,1.57s-.19,1.18-.59,1.58c-.42.42-.94.64-1.56.64s-1.15-.21-1.55-.64c-.4-.4-.61-.94-.61-1.58s.19-1.16.59-1.57c.41-.4.92-.61,1.57-.61s1.14.21,1.56.61"/><path d="m265.99,256.22c.4.4.59.94.59,1.57s-.19,1.18-.59,1.58c-.42.42-.94.64-1.57.64s-1.14-.21-1.55-.64c-.4-.4-.61-.94-.61-1.58s.19-1.16.59-1.57c.4-.4.92-.61,1.57-.61s1.14.21,1.57.61"/><path d="m273.7,256.22c.4.4.59.94.59,1.57s-.19,1.18-.59,1.58c-.42.42-.94.64-1.57.64s-1.14-.21-1.55-.64c-.4-.4-.61-.94-.61-1.58s.19-1.16.59-1.57c.4-.4.92-.61,1.57-.61s1.14.21,1.57.61"/><path d="m281.41,256.22c.4.4.59.94.59,1.57s-.19,1.18-.59,1.58c-.42.42-.94.64-1.57.64s-1.14-.21-1.55-.64c-.4-.4-.61-.94-.61-1.58s.19-1.16.59-1.57c.4-.4.92-.61,1.57-.61s1.14.21,1.57.61"/><path d="m289.12,256.22c.4.4.59.94.59,1.57s-.19,1.18-.59,1.58c-.42.42-.94.64-1.57.64s-1.15-.21-1.55-.64c-.4-.4-.61-.94-.61-1.58s.19-1.16.59-1.57c.4-.4.92-.61,1.57-.61s1.14.21,1.57.61"/><path d="m296.83,256.22c.4.4.59.94.59,1.57s-.19,1.18-.59,1.58c-.43.42-.94.64-1.57.64s-1.15-.21-1.55-.64c-.4-.4-.6-.94-.6-1.58s.19-1.16.59-1.57c.4-.4.91-.61,1.56-.61s1.14.21,1.57.61"/><path d="m304.54,256.22c.4.4.59.94.59,1.57s-.19,1.18-.59,1.58c-.42.42-.93.64-1.56.64s-1.15-.21-1.55-.64c-.4-.4-.61-.94-.61-1.58s.19-1.16.59-1.57c.4-.4.92-.61,1.57-.61s1.14.21,1.56.61"/><path d="m312.26,256.22c.4.4.58.94.58,1.57s-.19,1.18-.58,1.58c-.43.42-.94.64-1.57.64s-1.15-.21-1.55-.64c-.4-.4-.61-.94-.61-1.58s.19-1.16.59-1.57.92-.61,1.57-.61,1.14.21,1.57.61"/><path d="m319.96,256.22c.4.4.59.94.59,1.57s-.19,1.18-.59,1.58c-.42.42-.93.64-1.56.64s-1.15-.21-1.55-.64c-.4-.4-.6-.94-.6-1.58s.19-1.16.59-1.57.92-.61,1.57-.61,1.14.21,1.56.61"/><path d="m327.67,256.22c.4.4.59.94.59,1.57s-.19,1.18-.59,1.58c-.41.42-.93.64-1.56.64s-1.15-.21-1.55-.64c-.4-.4-.6-.94-.6-1.58s.19-1.16.59-1.57c.41-.4.93-.61,1.57-.61s1.15.21,1.56.61"/><path d="m335.39,256.22c.4.4.59.94.59,1.57s-.19,1.18-.59,1.58c-.42.42-.93.64-1.56.64s-1.15-.21-1.55-.64c-.4-.4-.61-.94-.61-1.58s.19-1.16.59-1.57c.41-.4.93-.61,1.57-.61s1.14.21,1.56.61"/><path d="m343.08,256.22c.4.4.59.94.59,1.57s-.19,1.18-.59,1.58c-.42.42-.93.64-1.56.64s-1.15-.21-1.55-.64c-.4-.4-.61-.94-.61-1.58s.19-1.16.59-1.57.92-.61,1.57-.61,1.14.21,1.56.61"/><path d="m350.79,256.22c.4.4.59.94.59,1.57s-.19,1.18-.59,1.58c-.41.42-.93.64-1.56.64s-1.14-.21-1.55-.64c-.4-.4-.61-.94-.61-1.58s.19-1.16.59-1.57.92-.61,1.57-.61,1.15.21,1.56.61"/><path d="m358.5,256.22c.4.4.59.94.59,1.57s-.19,1.18-.59,1.58c-.42.42-.94.64-1.57.64s-1.14-.21-1.55-.64c-.4-.4-.6-.94-.6-1.58s.19-1.16.59-1.57c.4-.4.92-.61,1.57-.61s1.15.21,1.57.61"/><path d="m366.21,256.22c.4.4.59.94.59,1.57s-.19,1.18-.59,1.58c-.42.42-.94.64-1.57.64s-1.14-.21-1.55-.64c-.4-.4-.6-.94-.6-1.58s.19-1.16.59-1.57c.4-.4.92-.61,1.56-.61s1.15.21,1.57.61"/><path d="m373.92,256.22c.4.4.59.94.59,1.57s-.19,1.18-.59,1.58c-.41.42-.93.64-1.56.64s-1.14-.21-1.55-.64c-.4-.4-.61-.94-.61-1.58s.19-1.16.59-1.57c.4-.4.92-.61,1.57-.61s1.15.21,1.56.61"/><path d="m381.63,256.22c.41.4.59.94.59,1.57s-.19,1.18-.59,1.58c-.41.42-.93.64-1.56.64s-1.14-.21-1.55-.64c-.4-.4-.6-.94-.6-1.58s.19-1.16.59-1.57c.4-.4.92-.61,1.57-.61s1.15.21,1.56.61"/><path d="m389.35,256.22c.4.4.59.94.59,1.57s-.19,1.18-.59,1.58c-.42.42-.94.64-1.57.64s-1.14-.21-1.55-.64c-.4-.4-.6-.94-.6-1.58s.19-1.16.59-1.57c.4-.4.91-.61,1.56-.61s1.15.21,1.57.61"/><path d="m397.06,256.22c.4.4.59.94.59,1.57s-.19,1.18-.59,1.58c-.42.42-.93.64-1.57.64s-1.14-.21-1.54-.64c-.4-.4-.61-.94-.61-1.58s.19-1.16.59-1.57c.4-.4.92-.61,1.56-.61s1.15.21,1.57.61"/><path d="m404.77,256.22c.4.4.59.94.59,1.57s-.19,1.18-.59,1.58c-.41.42-.93.64-1.56.64s-1.14-.21-1.55-.64c-.4-.4-.61-.94-.61-1.58s.19-1.16.59-1.57c.4-.4.92-.61,1.57-.61s1.15.21,1.56.61"/><path d="m412.46,256.22c.4.4.59.94.59,1.57s-.19,1.18-.59,1.58c-.41.42-.93.64-1.56.64s-1.15-.21-1.55-.64c-.4-.4-.61-.94-.61-1.58s.19-1.16.59-1.57c.41-.4.92-.61,1.57-.61s1.15.21,1.56.61"/><path d="m420.17,256.22c.4.4.59.94.59,1.57s-.19,1.18-.59,1.58c-.42.42-.94.64-1.56.64s-1.15-.21-1.55-.64c-.4-.4-.62-.94-.62-1.58s.19-1.16.59-1.57c.41-.4.92-.61,1.57-.61s1.14.21,1.56.61"/><path d="m427.88,256.22c.4.4.59.94.59,1.57s-.19,1.18-.59,1.58c-.42.42-.94.64-1.56.64s-1.15-.21-1.55-.64c-.4-.4-.61-.94-.61-1.58s.19-1.16.59-1.57c.41-.4.92-.61,1.57-.61s1.14.21,1.56.61"/><path d="m435.59,256.22c.4.4.59.94.59,1.57s-.19,1.18-.59,1.58c-.42.42-.94.64-1.56.64s-1.15-.21-1.55-.64c-.4-.4-.61-.94-.61-1.58s.19-1.16.59-1.57.92-.61,1.57-.61,1.14.21,1.56.61"/><path d="m443.3,256.22c.4.4.59.94.59,1.57s-.19,1.18-.59,1.58c-.41.42-.93.64-1.56.64s-1.15-.21-1.55-.64c-.41-.4-.62-.94-.62-1.58s.19-1.16.59-1.57c.41-.4.92-.61,1.57-.61s1.14.21,1.56.61"/><path d="m451.02,256.22c.4.4.59.94.59,1.57s-.19,1.18-.59,1.58c-.42.42-.94.64-1.56.64s-1.15-.21-1.55-.64c-.4-.4-.61-.94-.61-1.58s.19-1.16.59-1.57c.41-.4.92-.61,1.57-.61s1.14.21,1.56.61"/><path d="m458.72,256.22c.4.4.59.94.59,1.57s-.19,1.18-.59,1.58c-.42.42-.94.64-1.56.64s-1.15-.21-1.55-.64c-.4-.4-.61-.94-.61-1.58s.19-1.16.59-1.57c.4-.4.92-.61,1.57-.61s1.14.21,1.56.61"/><path d="m466.43,256.22c.4.4.59.94.59,1.57s-.19,1.18-.59,1.58c-.41.42-.93.64-1.56.64s-1.15-.21-1.55-.64c-.4-.4-.61-.94-.61-1.58s.19-1.16.59-1.57c.41-.4.92-.61,1.57-.61s1.15.21,1.56.61"/><path d="m474.15,256.22c.4.4.59.94.59,1.57s-.19,1.18-.59,1.58c-.42.42-.94.64-1.56.64s-1.15-.21-1.56-.64c-.4-.4-.61-.94-.61-1.58s.19-1.16.59-1.57c.41-.4.92-.61,1.57-.61s1.14.21,1.56.61"/><path d="m481.86,256.22c.4.4.59.94.59,1.57s-.19,1.18-.59,1.58c-.42.42-.94.64-1.56.64s-1.15-.21-1.56-.64c-.4-.4-.6-.94-.6-1.58s.19-1.16.59-1.57c.41-.4.92-.61,1.57-.61s1.14.21,1.56.61"/><path d="m489.55,256.22c.4.4.59.94.59,1.57s-.19,1.18-.59,1.58c-.41.42-.93.64-1.56.64s-1.14-.21-1.55-.64c-.4-.4-.61-.94-.61-1.58s.19-1.16.59-1.57.92-.61,1.57-.61,1.15.21,1.56.61"/><path d="m497.27,256.22c.4.4.59.94.59,1.57s-.19,1.18-.59,1.58c-.43.42-.94.64-1.57.64s-1.14-.21-1.55-.64c-.4-.4-.6-.94-.6-1.58s.19-1.16.59-1.57.92-.61,1.57-.61,1.14.21,1.57.61"/><path d="m504.97,256.22c.4.4.59.94.59,1.57s-.19,1.18-.59,1.58c-.43.42-.94.64-1.57.64s-1.14-.21-1.55-.64c-.4-.4-.6-.94-.6-1.58s.19-1.16.59-1.57c.4-.4.92-.61,1.56-.61s1.14.21,1.57.61"/><path d="m512.68,256.22c.4.4.59.94.59,1.57s-.19,1.18-.59,1.58c-.42.42-.93.64-1.56.64s-1.14-.21-1.55-.64c-.4-.4-.61-.94-.61-1.58s.19-1.16.59-1.57.92-.61,1.57-.61,1.14.21,1.56.61"/><path d="m520.4,256.22c.4.4.58.94.58,1.57s-.19,1.18-.58,1.58c-.43.42-.94.64-1.57.64s-1.14-.21-1.55-.64c-.4-.4-.6-.94-.6-1.58s.19-1.16.59-1.57.92-.61,1.57-.61,1.14.21,1.57.61"/><path d="m528.11,256.22c.4.4.59.94.59,1.57s-.19,1.18-.59,1.58c-.43.42-.94.64-1.57.64s-1.14-.21-1.55-.64c-.4-.4-.6-.94-.6-1.58s.19-1.16.59-1.57.92-.61,1.56-.61,1.14.21,1.57.61"/><path d="m535.82,256.22c.39.4.59.94.59,1.57s-.19,1.18-.59,1.58c-.42.42-.93.64-1.56.64s-1.15-.21-1.55-.64c-.4-.4-.61-.94-.61-1.58s.19-1.16.59-1.57.92-.61,1.57-.61,1.14.21,1.56.61"/></g><g><path d="m232.1,165.8l-26.58-34.54c-10.19-1.61-20.12-2.88-29.78-3.86v55.99c8.31,1.15,16.74,2.54,25.25,4.19v-23.81l22.04,28.59c4.44,1.07,8.9,2.21,13.38,3.42,7.05,1.9,13.98,3.68,20.82,5.35v-59.16c-8.51-2.18-16.89-4.13-25.13-5.85v29.69Z"/><path d="m326.28,164.6c0,3.91-.77,7.46-2.28,10.65-1.52,3.19-3.59,5.69-6.22,7.48-2.64,1.8-5.55,2.69-8.74,2.69s-6.17-.92-8.92-2.75c-2.75-1.83-4.94-4.33-6.58-7.48-1.64-3.15-2.46-6.68-2.46-10.59s.82-7.42,2.46-10.53c.23-.43.47-.85.71-1.25-9.17-3.03-18.23-5.76-27.15-8.23-3,5.96-4.5,12.59-4.5,19.89,0,8.38,1.97,15.92,5.92,22.62,3.95,6.7,9.43,11.95,16.45,15.73,7.02,3.79,14.92,5.68,23.7,5.68s16.67-1.9,23.7-5.68c7.01-3.79,12.5-9.04,16.45-15.73,2.78-4.72,4.56-9.86,5.38-15.41-9.1-2.11-18.41-4.69-27.95-7.77,0,.23.02.45.02.68Z"/><path d="m423.24,179.4c-19.66.29-40.69-1.63-63.11-6.38v33.59h27.77v-21.78h10.41l10.05,21.78h29.88l.6-1.43-15.61-25.78Z"/><path d="m77.63,180.76c0-5.9-1.48-10.67-4.43-14.3-2.95-3.63-6.4-6.28-10.35-7.96-3.95-1.68-8.91-3.35-14.9-5.02-4.79-1.28-8.28-2.43-10.47-3.47-2.2-1.04-3.29-2.51-3.29-4.43,0-2.47,1.72-3.71,5.15-3.71s8.05,1,13.64,2.99c5.58,1.99,10.65,4.31,15.2,6.94l10.05-21.18c-2.03-1.29-4.23-2.46-6.57-3.53-28.65,2.83-50.57,7.54-63.89,10.99-1.28,3.08-1.94,6.45-1.94,10.13,0,5.74,1.43,10.33,4.31,13.76,2.87,3.43,6.28,5.97,10.23,7.6,3.95,1.63,8.87,3.21,14.78,4.72,4.86,1.2,8.43,2.34,10.71,3.41,2.28,1.08,3.41,2.58,3.41,4.49,0,1.59-.6,2.77-1.79,3.53-.11.07-.24.12-.35.18,9.66-2.04,19.85-3.63,30.49-4.76,0-.13.01-.25.01-.38Z"/><path d="m164.44,142.11c-3.95-6.62-9.43-11.8-16.45-15.55-.94-.5-1.89-.96-2.85-1.39-14.62-.65-28.41-.65-41.29-.2-1.1.47-2.18.98-3.24,1.54-7.02,3.71-12.51,8.87-16.45,15.49-3.95,6.62-5.92,14.12-5.92,22.49,0,5.85.98,11.28,2.91,16.31,9.88-.94,20.13-1.48,30.7-1.59-1.02-1.19-1.91-2.52-2.68-4-1.63-3.15-2.45-6.68-2.45-10.59s.82-7.42,2.45-10.53c1.63-3.11,3.83-5.57,6.58-7.36,2.75-1.79,5.72-2.69,8.91-2.69s6.1.88,8.73,2.63c2.64,1.76,4.71,4.21,6.23,7.36,1.51,3.15,2.27,6.68,2.27,10.59s-.76,7.46-2.27,10.65c-.8,1.67-1.75,3.15-2.85,4.44,9.83.49,19.89,1.34,30.12,2.55,2.32-5.43,3.48-11.35,3.48-17.77,0-8.29-1.97-15.75-5.92-22.38Z"/><path d="m495.68,174.9h-17.47l.96-2.66c-9.15,2.26-18.7,4.06-28.65,5.29l-11.67,27.64.87,1.43h27.01l4.3-11.84h31.47l4.19,11.84h29.55l-19.16-47.13c-7.55,3.25-15.46,6.2-23.73,8.79l2.33,6.63Z"/></g><polygon points="438.24 206.6 439.71 206.6 438.85 205.17 438.24 206.6"/><path d="m42.79,186.85c1.78-.02,3.22-.34,4.33-.95-1.45.31-2.9.62-4.33.95Z"/><g><path d="m47.12,185.9c-1.11.6-2.55.92-4.33.95-.08,0-.15.01-.22.01-4.31,0-9.65-1.29-16.04-3.89-6.38-2.59-11.69-5.72-15.92-9.39L.33,194.52c1.84,1.41,3.8,2.71,5.86,3.92.41.24.85.46,1.28.7-.01,0-.02,0-.03.01.4.22.82.43,1.23.64.37.19.74.39,1.11.58.68.34,1.38.67,2.08.99.39.18.77.36,1.16.53.76.33,1.53.64,2.31.95.36.14.7.29,1.06.43,1.14.43,2.31.84,3.5,1.23,0,0,0,0,.01,0,7.54,2.43,15.02,3.65,22.44,3.65,6.54,0,12.48-1,17.83-2.99,5.34-1.99,9.59-5.04,12.74-9.15,0,0,0,0,0-.01.36-.47.7-.96,1.02-1.45.1-.16.2-.33.3-.5.21-.35.42-.7.61-1.06.11-.2.2-.4.3-.6.17-.34.33-.68.48-1.03.09-.21.18-.43.26-.65.14-.35.27-.71.39-1.08.07-.22.15-.44.21-.66.12-.39.22-.78.32-1.18.05-.21.11-.42.15-.63.1-.45.18-.91.26-1.38.03-.17.06-.33.09-.5.1-.67.18-1.35.23-2.06h0c.05-.68.08-1.37.09-2.07-10.64,1.13-20.83,2.72-30.49,4.76Z"/><path d="m175.75,183.39v23.22h25.25v-28.13c-8.4-.34-16.84-.55-25.25-.63v5.54Z"/><path d="m223.03,192.35h0l10.99,14.25h23.22v-23.76c-14.43-1.71-29.36-2.97-44.47-3.81l10.27,13.32Z"/><path d="m266.93,184.07c.5,1.03,1.02,2.04,1.61,3.03,3.95,6.7,9.43,11.95,16.45,15.74,7.02,3.79,14.92,5.68,23.7,5.68s16.67-1.9,23.7-5.68c3.52-1.9,6.65-4.17,9.4-6.8-14.03-1.66-28.92-3.96-44.74-7.05-9.64-1.88-19.72-3.52-30.11-4.92Z"/><path d="m405.01,199.35l3.35,7.25h29.88l.6-1.43-4.62-7.63c-9.06.95-18.78,1.59-29.22,1.81Z"/><path d="m360.14,206.6h27.77v-7.27c-8.81-.19-18.05-.65-27.77-1.45v8.72Z"/><path d="m521.99,171.53c-14.85,8.75-40.38,19.88-79.51,25.04l-3.63,8.6.87,1.43h27.01l4.3-11.84h31.47l4.19,11.84h29.55l-14.26-35.07Z"/></g></svg>